%TF.GenerationSoftware,KiCad,Pcbnew,7.0.7*%
%TF.CreationDate,2024-04-13T12:00:14-04:00*%
%TF.ProjectId,ESP32_S2_Breakout,45535033-325f-4533-925f-427265616b6f,rev?*%
%TF.SameCoordinates,Original*%
%TF.FileFunction,Copper,L1,Top*%
%TF.FilePolarity,Positive*%
%FSLAX46Y46*%
G04 Gerber Fmt 4.6, Leading zero omitted, Abs format (unit mm)*
G04 Created by KiCad (PCBNEW 7.0.7) date 2024-04-13 12:00:14*
%MOMM*%
%LPD*%
G01*
G04 APERTURE LIST*
G04 Aperture macros list*
%AMRoundRect*
0 Rectangle with rounded corners*
0 $1 Rounding radius*
0 $2 $3 $4 $5 $6 $7 $8 $9 X,Y pos of 4 corners*
0 Add a 4 corners polygon primitive as box body*
4,1,4,$2,$3,$4,$5,$6,$7,$8,$9,$2,$3,0*
0 Add four circle primitives for the rounded corners*
1,1,$1+$1,$2,$3*
1,1,$1+$1,$4,$5*
1,1,$1+$1,$6,$7*
1,1,$1+$1,$8,$9*
0 Add four rect primitives between the rounded corners*
20,1,$1+$1,$2,$3,$4,$5,0*
20,1,$1+$1,$4,$5,$6,$7,0*
20,1,$1+$1,$6,$7,$8,$9,0*
20,1,$1+$1,$8,$9,$2,$3,0*%
%AMFreePoly0*
4,1,19,0.550000,-0.750000,0.000000,-0.750000,0.000000,-0.744911,-0.071157,-0.744911,-0.207708,-0.704816,-0.327430,-0.627875,-0.420627,-0.520320,-0.479746,-0.390866,-0.500000,-0.250000,-0.500000,0.250000,-0.479746,0.390866,-0.420627,0.520320,-0.327430,0.627875,-0.207708,0.704816,-0.071157,0.744911,0.000000,0.744911,0.000000,0.750000,0.550000,0.750000,0.550000,-0.750000,0.550000,-0.750000,
$1*%
%AMFreePoly1*
4,1,19,0.000000,0.744911,0.071157,0.744911,0.207708,0.704816,0.327430,0.627875,0.420627,0.520320,0.479746,0.390866,0.500000,0.250000,0.500000,-0.250000,0.479746,-0.390866,0.420627,-0.520320,0.327430,-0.627875,0.207708,-0.704816,0.071157,-0.744911,0.000000,-0.744911,0.000000,-0.750000,-0.550000,-0.750000,-0.550000,0.750000,0.000000,0.750000,0.000000,0.744911,0.000000,0.744911,
$1*%
G04 Aperture macros list end*
%TA.AperFunction,SMDPad,CuDef*%
%ADD10RoundRect,0.218750X0.256250X-0.218750X0.256250X0.218750X-0.256250X0.218750X-0.256250X-0.218750X0*%
%TD*%
%TA.AperFunction,SMDPad,CuDef*%
%ADD11RoundRect,0.200000X-0.275000X0.200000X-0.275000X-0.200000X0.275000X-0.200000X0.275000X0.200000X0*%
%TD*%
%TA.AperFunction,SMDPad,CuDef*%
%ADD12R,1.500000X1.500000*%
%TD*%
%TA.AperFunction,SMDPad,CuDef*%
%ADD13RoundRect,0.225000X-0.225000X-0.250000X0.225000X-0.250000X0.225000X0.250000X-0.225000X0.250000X0*%
%TD*%
%TA.AperFunction,ComponentPad*%
%ADD14R,1.700000X1.700000*%
%TD*%
%TA.AperFunction,ComponentPad*%
%ADD15O,1.700000X1.700000*%
%TD*%
%TA.AperFunction,SMDPad,CuDef*%
%ADD16RoundRect,0.200000X0.275000X-0.200000X0.275000X0.200000X-0.275000X0.200000X-0.275000X-0.200000X0*%
%TD*%
%TA.AperFunction,SMDPad,CuDef*%
%ADD17RoundRect,0.225000X-0.250000X0.225000X-0.250000X-0.225000X0.250000X-0.225000X0.250000X0.225000X0*%
%TD*%
%TA.AperFunction,SMDPad,CuDef*%
%ADD18RoundRect,0.200000X0.200000X0.275000X-0.200000X0.275000X-0.200000X-0.275000X0.200000X-0.275000X0*%
%TD*%
%TA.AperFunction,SMDPad,CuDef*%
%ADD19RoundRect,0.225000X-0.375000X0.225000X-0.375000X-0.225000X0.375000X-0.225000X0.375000X0.225000X0*%
%TD*%
%TA.AperFunction,SMDPad,CuDef*%
%ADD20RoundRect,0.062500X0.062500X-0.337500X0.062500X0.337500X-0.062500X0.337500X-0.062500X-0.337500X0*%
%TD*%
%TA.AperFunction,SMDPad,CuDef*%
%ADD21RoundRect,0.062500X0.337500X-0.062500X0.337500X0.062500X-0.337500X0.062500X-0.337500X-0.062500X0*%
%TD*%
%TA.AperFunction,SMDPad,CuDef*%
%ADD22R,3.350000X3.350000*%
%TD*%
%TA.AperFunction,SMDPad,CuDef*%
%ADD23RoundRect,0.200000X-0.200000X-0.275000X0.200000X-0.275000X0.200000X0.275000X-0.200000X0.275000X0*%
%TD*%
%TA.AperFunction,SMDPad,CuDef*%
%ADD24RoundRect,0.150000X-0.150000X-0.200000X0.150000X-0.200000X0.150000X0.200000X-0.150000X0.200000X0*%
%TD*%
%TA.AperFunction,SMDPad,CuDef*%
%ADD25R,0.650000X0.400000*%
%TD*%
%TA.AperFunction,SMDPad,CuDef*%
%ADD26RoundRect,0.147500X0.147500X0.172500X-0.147500X0.172500X-0.147500X-0.172500X0.147500X-0.172500X0*%
%TD*%
%TA.AperFunction,SMDPad,CuDef*%
%ADD27R,0.600000X1.240000*%
%TD*%
%TA.AperFunction,SMDPad,CuDef*%
%ADD28R,0.300000X1.240000*%
%TD*%
%TA.AperFunction,ComponentPad*%
%ADD29O,1.000000X2.100000*%
%TD*%
%TA.AperFunction,ComponentPad*%
%ADD30O,1.000000X1.800000*%
%TD*%
%TA.AperFunction,SMDPad,CuDef*%
%ADD31RoundRect,0.225000X0.250000X-0.225000X0.250000X0.225000X-0.250000X0.225000X-0.250000X-0.225000X0*%
%TD*%
%TA.AperFunction,SMDPad,CuDef*%
%ADD32FreePoly0,180.000000*%
%TD*%
%TA.AperFunction,SMDPad,CuDef*%
%ADD33R,1.000000X1.500000*%
%TD*%
%TA.AperFunction,SMDPad,CuDef*%
%ADD34FreePoly1,180.000000*%
%TD*%
%TA.AperFunction,SMDPad,CuDef*%
%ADD35R,1.500000X2.000000*%
%TD*%
%TA.AperFunction,SMDPad,CuDef*%
%ADD36R,3.800000X2.000000*%
%TD*%
%TA.AperFunction,SMDPad,CuDef*%
%ADD37FreePoly0,0.000000*%
%TD*%
%TA.AperFunction,SMDPad,CuDef*%
%ADD38FreePoly1,0.000000*%
%TD*%
%TA.AperFunction,SMDPad,CuDef*%
%ADD39RoundRect,0.150000X0.150000X0.200000X-0.150000X0.200000X-0.150000X-0.200000X0.150000X-0.200000X0*%
%TD*%
%TA.AperFunction,SMDPad,CuDef*%
%ADD40R,1.500000X0.900000*%
%TD*%
%TA.AperFunction,SMDPad,CuDef*%
%ADD41R,0.900000X1.500000*%
%TD*%
%TA.AperFunction,HeatsinkPad*%
%ADD42C,0.600000*%
%TD*%
%TA.AperFunction,SMDPad,CuDef*%
%ADD43R,3.900000X3.900000*%
%TD*%
%TA.AperFunction,SMDPad,CuDef*%
%ADD44R,1.000000X1.800000*%
%TD*%
%TA.AperFunction,SMDPad,CuDef*%
%ADD45RoundRect,0.250000X-0.475000X0.250000X-0.475000X-0.250000X0.475000X-0.250000X0.475000X0.250000X0*%
%TD*%
%TA.AperFunction,SMDPad,CuDef*%
%ADD46RoundRect,0.250000X0.475000X-0.250000X0.475000X0.250000X-0.475000X0.250000X-0.475000X-0.250000X0*%
%TD*%
%TA.AperFunction,ViaPad*%
%ADD47C,0.800000*%
%TD*%
%TA.AperFunction,Conductor*%
%ADD48C,0.250000*%
%TD*%
%TA.AperFunction,Conductor*%
%ADD49C,0.500000*%
%TD*%
G04 APERTURE END LIST*
%TA.AperFunction,EtchedComponent*%
%TO.C,JP1*%
G36*
X136096000Y-125116000D02*
G01*
X135596000Y-125116000D01*
X135596000Y-124716000D01*
X136096000Y-124716000D01*
X136096000Y-125116000D01*
G37*
%TD.AperFunction*%
%TA.AperFunction,EtchedComponent*%
G36*
X136096000Y-124316000D02*
G01*
X135596000Y-124316000D01*
X135596000Y-123916000D01*
X136096000Y-123916000D01*
X136096000Y-124316000D01*
G37*
%TD.AperFunction*%
%TA.AperFunction,EtchedComponent*%
%TO.C,JP2*%
G36*
X142924000Y-124316000D02*
G01*
X142424000Y-124316000D01*
X142424000Y-123916000D01*
X142924000Y-123916000D01*
X142924000Y-124316000D01*
G37*
%TD.AperFunction*%
%TA.AperFunction,EtchedComponent*%
G36*
X142924000Y-125116000D02*
G01*
X142424000Y-125116000D01*
X142424000Y-124716000D01*
X142924000Y-124716000D01*
X142924000Y-125116000D01*
G37*
%TD.AperFunction*%
%TD*%
D10*
%TO.P,D5,1,K*%
%TO.N,GND*%
X144400000Y-107675000D03*
%TO.P,D5,2,A*%
%TO.N,Net-(D5-A)*%
X144400000Y-106100000D03*
%TD*%
D11*
%TO.P,R12,1*%
%TO.N,Net-(D5-A)*%
X146400000Y-106075000D03*
%TO.P,R12,2*%
%TO.N,GPIO0*%
X146400000Y-107725000D03*
%TD*%
D12*
%TO.P,SW2,1,1*%
%TO.N,GPIO0*%
X147896000Y-124680000D03*
%TO.P,SW2,2,2*%
%TO.N,GND*%
X147896000Y-132480000D03*
%TD*%
D13*
%TO.P,C8,1*%
%TO.N,RESET*%
X129862000Y-122738000D03*
%TO.P,C8,2*%
%TO.N,GND*%
X131412000Y-122738000D03*
%TD*%
D14*
%TO.P,J2,1,Pin_1*%
%TO.N,GND*%
X126560000Y-83627000D03*
D15*
%TO.P,J2,2,Pin_2*%
%TO.N,+3V3*%
X126560000Y-86167000D03*
%TO.P,J2,3,Pin_3*%
%TO.N,RESET*%
X126560000Y-88707000D03*
%TO.P,J2,4,Pin_4*%
%TO.N,GPIO4*%
X126560000Y-91247000D03*
%TO.P,J2,5,Pin_5*%
%TO.N,GPIO5*%
X126560000Y-93787000D03*
%TO.P,J2,6,Pin_6*%
%TO.N,GPIO6*%
X126560000Y-96327000D03*
%TO.P,J2,7,Pin_7*%
%TO.N,GPIO7*%
X126560000Y-98867000D03*
%TO.P,J2,8,Pin_8*%
%TO.N,GPIO15*%
X126560000Y-101407000D03*
%TO.P,J2,9,Pin_9*%
%TO.N,GPIO16*%
X126560000Y-103947000D03*
%TO.P,J2,10,Pin_10*%
%TO.N,GPIO17*%
X126560000Y-106487000D03*
%TO.P,J2,11,Pin_11*%
%TO.N,GPIO18*%
X126560000Y-109027000D03*
%TO.P,J2,12,Pin_12*%
%TO.N,GPIO8*%
X126560000Y-111567000D03*
%TO.P,J2,13,Pin_13*%
%TO.N,GPIO19*%
X126560000Y-114107000D03*
%TO.P,J2,14,Pin_14*%
%TO.N,GPIO20*%
X126560000Y-116647000D03*
%TO.P,J2,15,Pin_15*%
%TO.N,GPIO3*%
X126560000Y-119187000D03*
%TO.P,J2,16,Pin_16*%
%TO.N,GPIO46*%
X126560000Y-121727000D03*
%TO.P,J2,17,Pin_17*%
%TO.N,GPIO9*%
X126560000Y-124267000D03*
%TO.P,J2,18,Pin_18*%
%TO.N,GPIO10*%
X126560000Y-126807000D03*
%TO.P,J2,19,Pin_19*%
%TO.N,GPIO11*%
X126560000Y-129347000D03*
%TO.P,J2,20,Pin_20*%
%TO.N,GPIO12*%
X126560000Y-131887000D03*
%TD*%
D16*
%TO.P,R11,1*%
%TO.N,DTR*%
X134942000Y-120832000D03*
%TO.P,R11,2*%
%TO.N,Net-(Q1B-G)*%
X134942000Y-119182000D03*
%TD*%
D17*
%TO.P,C7,1*%
%TO.N,GND*%
X139514000Y-102926000D03*
%TO.P,C7,2*%
%TO.N,+3V3*%
X139514000Y-104476000D03*
%TD*%
D18*
%TO.P,R8,1*%
%TO.N,+3V3*%
X145747000Y-114864000D03*
%TO.P,R8,2*%
%TO.N,Net-(U3-~{RST})*%
X144097000Y-114864000D03*
%TD*%
D17*
%TO.P,C6,1*%
%TO.N,GND*%
X144400000Y-109276000D03*
%TO.P,C6,2*%
%TO.N,+5V*%
X144400000Y-110826000D03*
%TD*%
D19*
%TO.P,D4,1,K*%
%TO.N,+5V*%
X148404000Y-116134000D03*
%TO.P,D4,2,A*%
%TO.N,VBUS*%
X148404000Y-119434000D03*
%TD*%
D20*
%TO.P,U3,1,~{DCD}*%
%TO.N,unconnected-(U3-~{DCD}-Pad1)*%
X138164000Y-120870000D03*
%TO.P,U3,2,~{RI}/CLK*%
%TO.N,unconnected-(U3-~{RI}{slash}CLK-Pad2)*%
X138664000Y-120870000D03*
%TO.P,U3,3,GND*%
%TO.N,GND*%
X139164000Y-120870000D03*
%TO.P,U3,4,D+*%
%TO.N,Net-(JP2-A)*%
X139664000Y-120870000D03*
%TO.P,U3,5,D-*%
%TO.N,Net-(JP1-A)*%
X140164000Y-120870000D03*
%TO.P,U3,6,VDD*%
%TO.N,+3V3*%
X140664000Y-120870000D03*
%TO.P,U3,7,VREGIN*%
X141164000Y-120870000D03*
D21*
%TO.P,U3,8,VBUS*%
%TO.N,Net-(U3-VBUS)*%
X142114000Y-119920000D03*
%TO.P,U3,9,~{RST}*%
%TO.N,Net-(U3-~{RST})*%
X142114000Y-119420000D03*
%TO.P,U3,10,NC*%
%TO.N,unconnected-(U3-NC-Pad10)*%
X142114000Y-118920000D03*
%TO.P,U3,11,~{SUSPEND}*%
%TO.N,Net-(U3-~{SUSPEND})*%
X142114000Y-118420000D03*
%TO.P,U3,12,SUSPEND*%
%TO.N,unconnected-(U3-SUSPEND-Pad12)*%
X142114000Y-117920000D03*
%TO.P,U3,13,CHREN*%
%TO.N,unconnected-(U3-CHREN-Pad13)*%
X142114000Y-117420000D03*
%TO.P,U3,14,CHR1*%
%TO.N,unconnected-(U3-CHR1-Pad14)*%
X142114000Y-116920000D03*
D20*
%TO.P,U3,15,CHR0*%
%TO.N,unconnected-(U3-CHR0-Pad15)*%
X141164000Y-115970000D03*
%TO.P,U3,16,~{WAKEUP}/GPIO.3*%
%TO.N,unconnected-(U3-~{WAKEUP}{slash}GPIO.3-Pad16)*%
X140664000Y-115970000D03*
%TO.P,U3,17,RS485/GPIO.2*%
%TO.N,unconnected-(U3-RS485{slash}GPIO.2-Pad17)*%
X140164000Y-115970000D03*
%TO.P,U3,18,~{RXT}/GPIO.1*%
%TO.N,unconnected-(U3-~{RXT}{slash}GPIO.1-Pad18)*%
X139664000Y-115970000D03*
%TO.P,U3,19,~{TXT}/GPIO.0*%
%TO.N,unconnected-(U3-~{TXT}{slash}GPIO.0-Pad19)*%
X139164000Y-115970000D03*
%TO.P,U3,20,GPIO.6*%
%TO.N,unconnected-(U3-GPIO.6-Pad20)*%
X138664000Y-115970000D03*
%TO.P,U3,21,GPIO.5*%
%TO.N,unconnected-(U3-GPIO.5-Pad21)*%
X138164000Y-115970000D03*
D21*
%TO.P,U3,22,GPIO.4*%
%TO.N,unconnected-(U3-GPIO.4-Pad22)*%
X137214000Y-116920000D03*
%TO.P,U3,23,~{CTS}*%
%TO.N,unconnected-(U3-~{CTS}-Pad23)*%
X137214000Y-117420000D03*
%TO.P,U3,24,~{RTS}*%
%TO.N,RTS*%
X137214000Y-117920000D03*
%TO.P,U3,25,RXD*%
%TO.N,TXD0*%
X137214000Y-118420000D03*
%TO.P,U3,26,TXD*%
%TO.N,RXD0*%
X137214000Y-118920000D03*
%TO.P,U3,27,~{DSR}*%
%TO.N,unconnected-(U3-~{DSR}-Pad27)*%
X137214000Y-119420000D03*
%TO.P,U3,28,~{DTR}*%
%TO.N,DTR*%
X137214000Y-119920000D03*
D22*
%TO.P,U3,29,GND*%
%TO.N,GND*%
X139664000Y-118420000D03*
%TD*%
D23*
%TO.P,R7,1*%
%TO.N,Net-(U3-VBUS)*%
X144097000Y-116515000D03*
%TO.P,R7,2*%
%TO.N,GND*%
X145747000Y-116515000D03*
%TD*%
D24*
%TO.P,D1,1,A1*%
%TO.N,Net-(D1-A1)*%
X134815000Y-122357000D03*
%TO.P,D1,2,A2*%
%TO.N,GND*%
X133415000Y-122357000D03*
%TD*%
D16*
%TO.P,R4,1*%
%TO.N,Net-(J1-CC2)*%
X140149000Y-124896000D03*
%TO.P,R4,2*%
%TO.N,GND*%
X140149000Y-123246000D03*
%TD*%
D11*
%TO.P,R2,1*%
%TO.N,GPIO18*%
X131640000Y-108705000D03*
%TO.P,R2,2*%
%TO.N,+3V3*%
X131640000Y-110355000D03*
%TD*%
D25*
%TO.P,Q1,1,S*%
%TO.N,DTR*%
X132844000Y-119070000D03*
%TO.P,Q1,2,G*%
%TO.N,Net-(Q1A-G)*%
X132844000Y-118420000D03*
%TO.P,Q1,3,D*%
%TO.N,RESET*%
X132844000Y-117770000D03*
%TO.P,Q1,4,S*%
%TO.N,RTS*%
X130944000Y-117770000D03*
%TO.P,Q1,5,G*%
%TO.N,Net-(Q1B-G)*%
X130944000Y-118420000D03*
%TO.P,Q1,6,D*%
%TO.N,GPIO0*%
X130944000Y-119070000D03*
%TD*%
D16*
%TO.P,R1,1*%
%TO.N,+3V3*%
X135958000Y-104513000D03*
%TO.P,R1,2*%
%TO.N,RESET*%
X135958000Y-102863000D03*
%TD*%
D17*
%TO.P,C4,1*%
%TO.N,GPIO15*%
X131640000Y-105567000D03*
%TO.P,C4,2*%
%TO.N,GND*%
X131640000Y-107117000D03*
%TD*%
D26*
%TO.P,D3,1,A1*%
%TO.N,VBUS*%
X144825000Y-121087000D03*
%TO.P,D3,2,A2*%
%TO.N,GND*%
X143855000Y-121087000D03*
%TD*%
D27*
%TO.P,J1,A1,GND*%
%TO.N,GND*%
X135550000Y-127345000D03*
%TO.P,J1,A4,VBUS*%
%TO.N,VBUS*%
X136350000Y-127345000D03*
D28*
%TO.P,J1,A5,CC1*%
%TO.N,Net-(J1-CC1)*%
X137500000Y-127345000D03*
%TO.P,J1,A6,D+*%
%TO.N,Net-(D2-A1)*%
X138500000Y-127345000D03*
%TO.P,J1,A7,D-*%
%TO.N,Net-(D1-A1)*%
X139000000Y-127345000D03*
%TO.P,J1,A8,SBU1*%
%TO.N,unconnected-(J1-SBU1-PadA8)*%
X140000000Y-127345000D03*
D27*
%TO.P,J1,A9,VBUS*%
%TO.N,VBUS*%
X141150000Y-127345000D03*
%TO.P,J1,A12,GND*%
%TO.N,GND*%
X141950000Y-127345000D03*
%TO.P,J1,B1,GND*%
X141950000Y-127345000D03*
%TO.P,J1,B4,VBUS*%
%TO.N,VBUS*%
X141150000Y-127345000D03*
D28*
%TO.P,J1,B5,CC2*%
%TO.N,Net-(J1-CC2)*%
X140500000Y-127345000D03*
%TO.P,J1,B6,D+*%
%TO.N,Net-(D2-A1)*%
X139500000Y-127345000D03*
%TO.P,J1,B7,D-*%
%TO.N,Net-(D1-A1)*%
X138000000Y-127345000D03*
%TO.P,J1,B8,SBU2*%
%TO.N,unconnected-(J1-SBU2-PadB8)*%
X137000000Y-127345000D03*
D27*
%TO.P,J1,B9,VBUS*%
%TO.N,VBUS*%
X136350000Y-127345000D03*
%TO.P,J1,B12,GND*%
%TO.N,GND*%
X135550000Y-127345000D03*
D29*
%TO.P,J1,S1,SHIELD*%
X134430000Y-127945000D03*
D30*
X134430000Y-132145000D03*
D29*
X143070000Y-127945000D03*
D30*
X143070000Y-132145000D03*
%TD*%
D31*
%TO.P,C2,1*%
%TO.N,GND*%
X137736000Y-104476000D03*
%TO.P,C2,2*%
%TO.N,RESET*%
X137736000Y-102926000D03*
%TD*%
D14*
%TO.P,J3,1,Pin_1*%
%TO.N,GND*%
X151960000Y-83622000D03*
D15*
%TO.P,J3,2,Pin_2*%
%TO.N,VBUS*%
X151960000Y-86162000D03*
%TO.P,J3,3,Pin_3*%
%TO.N,+5V*%
X151960000Y-88702000D03*
%TO.P,J3,4,Pin_4*%
%TO.N,GPIO1*%
X151960000Y-91242000D03*
%TO.P,J3,5,Pin_5*%
%TO.N,GPIO2*%
X151960000Y-93782000D03*
%TO.P,J3,6,Pin_6*%
%TO.N,GPIO42*%
X151960000Y-96322000D03*
%TO.P,J3,7,Pin_7*%
%TO.N,GPIO41*%
X151960000Y-98862000D03*
%TO.P,J3,8,Pin_8*%
%TO.N,GPIO40*%
X151960000Y-101402000D03*
%TO.P,J3,9,Pin_9*%
%TO.N,GPIO39*%
X151960000Y-103942000D03*
%TO.P,J3,10,Pin_10*%
%TO.N,GPIO38*%
X151960000Y-106482000D03*
%TO.P,J3,11,Pin_11*%
%TO.N,GPIO37*%
X151960000Y-109022000D03*
%TO.P,J3,12,Pin_12*%
%TO.N,GPIO36*%
X151960000Y-111562000D03*
%TO.P,J3,13,Pin_13*%
%TO.N,GPIO35*%
X151960000Y-114102000D03*
%TO.P,J3,14,Pin_14*%
%TO.N,GPIO0*%
X151960000Y-116642000D03*
%TO.P,J3,15,Pin_15*%
%TO.N,GPIO45*%
X151960000Y-119182000D03*
%TO.P,J3,16,Pin_16*%
%TO.N,GPIO48*%
X151960000Y-121722000D03*
%TO.P,J3,17,Pin_17*%
%TO.N,GPIO47*%
X151960000Y-124262000D03*
%TO.P,J3,18,Pin_18*%
%TO.N,GPIO21*%
X151960000Y-126802000D03*
%TO.P,J3,19,Pin_19*%
%TO.N,GPIO14*%
X151960000Y-129342000D03*
%TO.P,J3,20,Pin_20*%
%TO.N,GPIO13*%
X151960000Y-131882000D03*
%TD*%
D32*
%TO.P,JP1,1,A*%
%TO.N,Net-(JP1-A)*%
X136496000Y-124516000D03*
D33*
%TO.P,JP1,2,C*%
%TO.N,Net-(D1-A1)*%
X135196000Y-124516000D03*
D34*
%TO.P,JP1,3,B*%
%TO.N,GPIO19*%
X133896000Y-124516000D03*
%TD*%
D35*
%TO.P,U2,1,GND*%
%TO.N,GND*%
X136960000Y-113315000D03*
%TO.P,U2,2,VO*%
%TO.N,+3V3*%
X139260000Y-113315000D03*
D36*
X139260000Y-107015000D03*
D35*
%TO.P,U2,3,VI*%
%TO.N,+5V*%
X141560000Y-113315000D03*
%TD*%
D31*
%TO.P,C3,2*%
%TO.N,GND*%
X143080000Y-102926000D03*
%TO.P,C3,1*%
%TO.N,+3V3*%
X143080000Y-104476000D03*
%TD*%
D18*
%TO.P,R6,1*%
%TO.N,VBUS*%
X145748000Y-119817000D03*
%TO.P,R6,2*%
%TO.N,Net-(U3-VBUS)*%
X144098000Y-119817000D03*
%TD*%
D37*
%TO.P,JP2,1,A*%
%TO.N,Net-(JP2-A)*%
X142024000Y-124516000D03*
D33*
%TO.P,JP2,2,C*%
%TO.N,Net-(D2-A1)*%
X143324000Y-124516000D03*
D38*
%TO.P,JP2,3,B*%
%TO.N,GPIO20*%
X144624000Y-124516000D03*
%TD*%
D39*
%TO.P,D2,1,A1*%
%TO.N,Net-(D2-A1)*%
X143767000Y-122357000D03*
%TO.P,D2,2,A2*%
%TO.N,GND*%
X145167000Y-122357000D03*
%TD*%
D31*
%TO.P,C9,1*%
%TO.N,+3V3*%
X141292000Y-104476000D03*
%TO.P,C9,2*%
%TO.N,GND*%
X141292000Y-102926000D03*
%TD*%
D23*
%TO.P,R9,1*%
%TO.N,Net-(U3-~{SUSPEND})*%
X144097000Y-113086000D03*
%TO.P,R9,2*%
%TO.N,GND*%
X145747000Y-113086000D03*
%TD*%
D40*
%TO.P,U1,1,GND*%
%TO.N,GND*%
X130510000Y-82934000D03*
%TO.P,U1,2,3V3*%
%TO.N,+3V3*%
X130510000Y-84204000D03*
%TO.P,U1,3,EN*%
%TO.N,RESET*%
X130510000Y-85474000D03*
%TO.P,U1,4,IO4*%
%TO.N,GPIO4*%
X130510000Y-86744000D03*
%TO.P,U1,5,IO5*%
%TO.N,GPIO5*%
X130510000Y-88014000D03*
%TO.P,U1,6,IO6*%
%TO.N,GPIO6*%
X130510000Y-89284000D03*
%TO.P,U1,7,IO7*%
%TO.N,GPIO7*%
X130510000Y-90554000D03*
%TO.P,U1,8,IO15*%
%TO.N,GPIO15*%
X130510000Y-91824000D03*
%TO.P,U1,9,IO16*%
%TO.N,GPIO16*%
X130510000Y-93094000D03*
%TO.P,U1,10,IO17*%
%TO.N,GPIO17*%
X130510000Y-94364000D03*
%TO.P,U1,11,IO18*%
%TO.N,GPIO18*%
X130510000Y-95634000D03*
%TO.P,U1,12,IO8*%
%TO.N,GPIO8*%
X130510000Y-96904000D03*
%TO.P,U1,13,IO19*%
%TO.N,GPIO19*%
X130510000Y-98174000D03*
%TO.P,U1,14,IO20*%
%TO.N,GPIO20*%
X130510000Y-99444000D03*
D41*
%TO.P,U1,15,IO3*%
%TO.N,GPIO3*%
X132275000Y-100694000D03*
%TO.P,U1,16,IO46*%
%TO.N,GPIO46*%
X133545000Y-100694000D03*
%TO.P,U1,17,IO9*%
%TO.N,GPIO9*%
X134815000Y-100694000D03*
%TO.P,U1,18,IO10*%
%TO.N,GPIO10*%
X136085000Y-100694000D03*
%TO.P,U1,19,IO11*%
%TO.N,GPIO11*%
X137355000Y-100694000D03*
%TO.P,U1,20,IO12*%
%TO.N,GPIO12*%
X138625000Y-100694000D03*
%TO.P,U1,21,IO13*%
%TO.N,GPIO13*%
X139895000Y-100694000D03*
%TO.P,U1,22,IO14*%
%TO.N,GPIO14*%
X141165000Y-100694000D03*
%TO.P,U1,23,IO21*%
%TO.N,GPIO21*%
X142435000Y-100694000D03*
%TO.P,U1,24,IO47*%
%TO.N,GPIO47*%
X143705000Y-100694000D03*
%TO.P,U1,25,IO48*%
%TO.N,GPIO48*%
X144975000Y-100694000D03*
%TO.P,U1,26,IO45*%
%TO.N,GPIO45*%
X146245000Y-100694000D03*
D40*
%TO.P,U1,27,IO0*%
%TO.N,GPIO0*%
X148010000Y-99444000D03*
%TO.P,U1,28,IO35*%
%TO.N,GPIO35*%
X148010000Y-98174000D03*
%TO.P,U1,29,IO36*%
%TO.N,GPIO36*%
X148010000Y-96904000D03*
%TO.P,U1,30,IO37*%
%TO.N,GPIO37*%
X148010000Y-95634000D03*
%TO.P,U1,31,IO38*%
%TO.N,GPIO38*%
X148010000Y-94364000D03*
%TO.P,U1,32,IO39*%
%TO.N,GPIO39*%
X148010000Y-93094000D03*
%TO.P,U1,33,IO40*%
%TO.N,GPIO40*%
X148010000Y-91824000D03*
%TO.P,U1,34,IO41*%
%TO.N,GPIO41*%
X148010000Y-90554000D03*
%TO.P,U1,35,IO42*%
%TO.N,GPIO42*%
X148010000Y-89284000D03*
%TO.P,U1,36,RXD0*%
%TO.N,RXD0*%
X148010000Y-88014000D03*
%TO.P,U1,37,TXD0*%
%TO.N,TXD0*%
X148010000Y-86744000D03*
%TO.P,U1,38,IO2*%
%TO.N,GPIO2*%
X148010000Y-85474000D03*
%TO.P,U1,39,IO1*%
%TO.N,GPIO1*%
X148010000Y-84204000D03*
%TO.P,U1,40,GND*%
%TO.N,GND*%
X148010000Y-82934000D03*
D42*
%TO.P,U1,41,GND*%
X136360000Y-89954000D03*
X136360000Y-91354000D03*
X137060000Y-89254000D03*
X137060000Y-90654000D03*
X137060000Y-92054000D03*
X137760000Y-89954000D03*
D43*
X137760000Y-90654000D03*
D42*
X137760000Y-91354000D03*
X138460000Y-89254000D03*
X138460000Y-90654000D03*
X138460000Y-92054000D03*
X139160000Y-89954000D03*
X139160000Y-91354000D03*
%TD*%
D16*
%TO.P,R10,1*%
%TO.N,RTS*%
X134942000Y-117530000D03*
%TO.P,R10,2*%
%TO.N,Net-(Q1A-G)*%
X134942000Y-115880000D03*
%TD*%
D44*
%TO.P,Y1,1,1*%
%TO.N,GPIO16*%
X134140000Y-103434000D03*
%TO.P,Y1,2,2*%
%TO.N,GPIO15*%
X131640000Y-103434000D03*
%TD*%
D11*
%TO.P,R3,1*%
%TO.N,GND*%
X138371000Y-123246000D03*
%TO.P,R3,2*%
%TO.N,Net-(J1-CC1)*%
X138371000Y-124896000D03*
%TD*%
D18*
%TO.P,R5,1*%
%TO.N,VBUS*%
X145747000Y-118166000D03*
%TO.P,R5,2*%
%TO.N,Net-(U3-VBUS)*%
X144097000Y-118166000D03*
%TD*%
D45*
%TO.P,C1,1*%
%TO.N,+3V3*%
X134180000Y-109215000D03*
%TO.P,C1,2*%
%TO.N,GND*%
X134180000Y-111115000D03*
%TD*%
D13*
%TO.P,C10,1*%
%TO.N,GPIO0*%
X147108000Y-122738000D03*
%TO.P,C10,2*%
%TO.N,GND*%
X148658000Y-122738000D03*
%TD*%
D31*
%TO.P,C5,1*%
%TO.N,GND*%
X134180000Y-107143000D03*
%TO.P,C5,2*%
%TO.N,GPIO16*%
X134180000Y-105593000D03*
%TD*%
D46*
%TO.P,C11,1*%
%TO.N,+3V3*%
X147388000Y-104572000D03*
%TO.P,C11,2*%
%TO.N,GND*%
X147388000Y-102672000D03*
%TD*%
D12*
%TO.P,SW1,1,1*%
%TO.N,GND*%
X130624000Y-132480000D03*
%TO.P,SW1,2,2*%
%TO.N,RESET*%
X130624000Y-124680000D03*
%TD*%
D46*
%TO.P,C12,1*%
%TO.N,+3V3*%
X145102000Y-104572000D03*
%TO.P,C12,2*%
%TO.N,GND*%
X145102000Y-102672000D03*
%TD*%
D47*
%TO.N,GND*%
X143324000Y-111816000D03*
X140397500Y-102164000D03*
X137482000Y-121722000D03*
X148260500Y-121722000D03*
X136974000Y-111562000D03*
X138498000Y-105415498D03*
X137353000Y-125683226D03*
X140784000Y-123947851D03*
X136924685Y-108934500D03*
X137486299Y-123250299D03*
X143324000Y-109276000D03*
X147896000Y-126294000D03*
%TO.N,+3V3*%
X146880000Y-114610000D03*
X146597500Y-118928000D03*
X146459500Y-109022000D03*
X132148000Y-84384000D03*
X135450000Y-109276000D03*
X142302316Y-120912667D03*
%TO.N,RESET*%
X132910000Y-114102000D03*
X131894000Y-117658000D03*
X131386000Y-121468000D03*
X133418000Y-85654000D03*
X138498000Y-102164000D03*
%TO.N,GPIO15*%
X130259500Y-101407000D03*
%TO.N,GPIO16*%
X131894000Y-93020000D03*
X133164000Y-103434000D03*
%TO.N,+5V*%
X145610000Y-110800000D03*
%TO.N,GPIO0*%
X145706921Y-121396010D03*
X132402000Y-121468000D03*
%TO.N,Net-(D1-A1)*%
X135577000Y-122357000D03*
X138077500Y-128961000D03*
%TO.N,Net-(D2-A1)*%
X142689000Y-122357000D03*
X139260000Y-126040000D03*
%TO.N,VBUS*%
X147810500Y-117178120D03*
X136212000Y-126040000D03*
X148260500Y-120706000D03*
X144594000Y-126548000D03*
%TO.N,Net-(JP2-A)*%
X141699543Y-122498351D03*
X139269513Y-121868102D03*
%TO.N,GPIO3*%
X132306500Y-98608000D03*
%TO.N,GPIO8*%
X130259500Y-102406503D03*
X129354000Y-109022000D03*
X131894000Y-96830000D03*
%TO.N,GPIO9*%
X133343500Y-96830000D03*
%TO.N,GPIO10*%
X133343500Y-95560000D03*
%TO.N,GPIO11*%
X133343500Y-94290000D03*
%TO.N,GPIO12*%
X133418000Y-93020000D03*
%TO.N,GPIO13*%
X145102000Y-94544000D03*
%TO.N,GPIO14*%
X145102000Y-95560000D03*
%TO.N,GPIO39*%
X146626000Y-93020000D03*
%TO.N,GPIO37*%
X146626000Y-95560000D03*
%TO.N,GPIO21*%
X145102000Y-96576000D03*
%TO.N,GPIO20*%
X130804500Y-114610000D03*
X144594000Y-123246000D03*
%TO.N,GPIO19*%
X130804500Y-115634061D03*
X132148000Y-124516000D03*
%TO.N,GPIO18*%
X130433850Y-108086937D03*
%TO.N,DTR*%
X136212000Y-120832000D03*
X132910000Y-119944000D03*
%TO.N,RTS*%
X131640000Y-116642000D03*
X135958000Y-116642000D03*
%TO.N,GPIO46*%
X133031871Y-97920365D03*
%TO.N,GPIO47*%
X145102000Y-97592000D03*
%TO.N,GPIO48*%
X145102000Y-98608000D03*
%TO.N,GPIO45*%
X146118000Y-99116000D03*
%TO.N,RXD0*%
X138498000Y-98354000D03*
X136086743Y-119365721D03*
%TO.N,TXD0*%
X138244000Y-97338000D03*
X135958000Y-118305862D03*
%TD*%
D48*
%TO.N,Net-(D5-A)*%
X146375000Y-106100000D02*
X146400000Y-106075000D01*
X144200000Y-106100000D02*
X146375000Y-106100000D01*
D49*
%TO.N,+3V3*%
X148000000Y-105184000D02*
X147388000Y-104572000D01*
X148000000Y-108400000D02*
X148000000Y-105184000D01*
X147378000Y-109022000D02*
X148000000Y-108400000D01*
X146459500Y-109022000D02*
X147378000Y-109022000D01*
D48*
%TO.N,GPIO0*%
X145600000Y-109500000D02*
X146000000Y-109900000D01*
X145600000Y-108100000D02*
X145600000Y-109500000D01*
X145975000Y-107725000D02*
X145600000Y-108100000D01*
X146400000Y-107725000D02*
X145975000Y-107725000D01*
X149885000Y-105437889D02*
X149885000Y-109900000D01*
X149885000Y-109900000D02*
X149885000Y-114567000D01*
X146000000Y-109900000D02*
X149885000Y-109900000D01*
%TO.N,GND*%
X140974543Y-122198046D02*
X140974543Y-122801457D01*
X134180000Y-107244000D02*
X134180000Y-107143000D01*
X143855000Y-121423249D02*
X144788751Y-122357000D01*
X145022000Y-113811000D02*
X145747000Y-113086000D01*
X151272000Y-82934000D02*
X151960000Y-83622000D01*
X143855000Y-121087000D02*
X143855000Y-121423249D01*
X137490598Y-123246000D02*
X137486299Y-123250299D01*
X145747000Y-112207000D02*
X145747000Y-113086000D01*
X142816000Y-102926000D02*
X144848000Y-102926000D01*
X140530000Y-123246000D02*
X140149000Y-123246000D01*
X133034000Y-122738000D02*
X133415000Y-122357000D01*
X143324000Y-111816000D02*
X145356000Y-111816000D01*
X145022000Y-115790000D02*
X145022000Y-113811000D01*
X140149000Y-123246000D02*
X140149000Y-123312851D01*
X135550000Y-127345000D02*
X135030000Y-127345000D01*
X138371000Y-123246000D02*
X140149000Y-123246000D01*
X144788751Y-122357000D02*
X145167000Y-122357000D01*
X143474000Y-121468000D02*
X143153305Y-121468000D01*
X141292000Y-102926000D02*
X142816000Y-102926000D01*
X139664000Y-118420000D02*
X139662008Y-118420000D01*
X147896000Y-126294000D02*
X146626000Y-126294000D01*
X144340000Y-109276000D02*
X143324000Y-109276000D01*
X136960000Y-115717992D02*
X136960000Y-113315000D01*
X140149000Y-123312851D02*
X140784000Y-123947851D01*
X138498000Y-105415498D02*
X138498000Y-105238000D01*
X148658000Y-122119500D02*
X148260500Y-121722000D01*
X148010000Y-82934000D02*
X137916000Y-82934000D01*
X141399238Y-121773351D02*
X140974543Y-122198046D01*
X142989305Y-121632000D02*
X142388695Y-121632000D01*
X140276000Y-102926000D02*
X141292000Y-102926000D01*
X137482000Y-121722000D02*
X137392000Y-121632000D01*
X135030000Y-127345000D02*
X134430000Y-127945000D01*
X137916000Y-82934000D02*
X136720000Y-84130000D01*
X142247344Y-121773351D02*
X141399238Y-121773351D01*
X134430000Y-132145000D02*
X143070000Y-132145000D01*
X135450000Y-113340000D02*
X135475000Y-113315000D01*
X145356000Y-111816000D02*
X145747000Y-112207000D01*
X135524000Y-82934000D02*
X136720000Y-84130000D01*
X144848000Y-102926000D02*
X145102000Y-102672000D01*
X146626000Y-126294000D02*
X146118000Y-125786000D01*
X141950000Y-127345000D02*
X142470000Y-127345000D01*
X143153305Y-121468000D02*
X142989305Y-121632000D01*
X130624000Y-132480000D02*
X134095000Y-132480000D01*
X137664000Y-120420000D02*
X137664000Y-120452000D01*
X137760000Y-85170000D02*
X137760000Y-90654000D01*
X131386000Y-122712000D02*
X131412000Y-122738000D01*
X140974543Y-122801457D02*
X140530000Y-123246000D01*
X128841000Y-83627000D02*
X126560000Y-83627000D01*
X146118000Y-125786000D02*
X146118000Y-123308000D01*
X135196000Y-108260000D02*
X134180000Y-107244000D01*
X139514000Y-102926000D02*
X140276000Y-102926000D01*
X145102000Y-102672000D02*
X147388000Y-102672000D01*
X138371000Y-123246000D02*
X137490598Y-123246000D01*
X137482000Y-120602000D02*
X137482000Y-121722000D01*
X142470000Y-127345000D02*
X143070000Y-127945000D01*
X143070000Y-127945000D02*
X143070000Y-132145000D01*
X133762000Y-121632000D02*
X133415000Y-121979000D01*
X145747000Y-116515000D02*
X145022000Y-115790000D01*
X129534000Y-82934000D02*
X128841000Y-83627000D01*
X136250185Y-108260000D02*
X135196000Y-108260000D01*
X139286000Y-102926000D02*
X137736000Y-104476000D01*
X131666000Y-107143000D02*
X131640000Y-107117000D01*
X130510000Y-82934000D02*
X135524000Y-82934000D01*
X135475000Y-113315000D02*
X136960000Y-113315000D01*
X136960000Y-113315000D02*
X136960000Y-111576000D01*
X148658000Y-122738000D02*
X148658000Y-122119500D01*
X134180000Y-112070000D02*
X135450000Y-113340000D01*
X143855000Y-121087000D02*
X143474000Y-121468000D01*
X139662008Y-118420000D02*
X136960000Y-115717992D01*
X140397500Y-102164000D02*
X140397500Y-102804500D01*
X137486299Y-123250299D02*
X137486299Y-125549927D01*
X147896000Y-132480000D02*
X143405000Y-132480000D01*
X134095000Y-132480000D02*
X134430000Y-132145000D01*
X139164000Y-118920000D02*
X139664000Y-118420000D01*
X133415000Y-121979000D02*
X133415000Y-122357000D01*
X134180000Y-107143000D02*
X131666000Y-107143000D01*
X130510000Y-82934000D02*
X129534000Y-82934000D01*
X139164000Y-120870000D02*
X139164000Y-118920000D01*
X139664000Y-118420000D02*
X137664000Y-120420000D01*
X143405000Y-132480000D02*
X143070000Y-132145000D01*
X139514000Y-102926000D02*
X139286000Y-102926000D01*
X134430000Y-127945000D02*
X134430000Y-132145000D01*
X138498000Y-105238000D02*
X137736000Y-104476000D01*
X131412000Y-122738000D02*
X133034000Y-122738000D01*
X142388695Y-121632000D02*
X142247344Y-121773351D01*
X137664000Y-120420000D02*
X137482000Y-120602000D01*
X136960000Y-111576000D02*
X136974000Y-111562000D01*
X140397500Y-102804500D02*
X140276000Y-102926000D01*
X137392000Y-121632000D02*
X133762000Y-121632000D01*
X136924685Y-108934500D02*
X136250185Y-108260000D01*
X134180000Y-111115000D02*
X134180000Y-112070000D01*
X146118000Y-123308000D02*
X145167000Y-122357000D01*
X148010000Y-82934000D02*
X151272000Y-82934000D01*
X136720000Y-84130000D02*
X137760000Y-85170000D01*
X137486299Y-125549927D02*
X137353000Y-125683226D01*
D49*
%TO.N,+3V3*%
X131968000Y-84204000D02*
X132148000Y-84384000D01*
X139514000Y-106761000D02*
X139260000Y-107015000D01*
X136237000Y-107015000D02*
X139260000Y-107015000D01*
X130510000Y-84204000D02*
X131968000Y-84204000D01*
X146597500Y-118928000D02*
X146626000Y-118899500D01*
X139514000Y-104476000D02*
X139514000Y-106761000D01*
X138752000Y-109784000D02*
X139260000Y-109276000D01*
X131449000Y-110546000D02*
X131640000Y-110355000D01*
X146626000Y-118899500D02*
X146626000Y-114864000D01*
X145006000Y-104476000D02*
X145102000Y-104572000D01*
X135450000Y-109276000D02*
X135958000Y-109784000D01*
X132085000Y-110355000D02*
X133225000Y-109215000D01*
X134241000Y-109276000D02*
X134180000Y-109215000D01*
X139514000Y-104476000D02*
X141292000Y-104476000D01*
X129280000Y-84204000D02*
X130510000Y-84204000D01*
X142302316Y-120912667D02*
X140739000Y-120912667D01*
X127825000Y-86167000D02*
X128211000Y-85781000D01*
X135450000Y-109276000D02*
X134241000Y-109276000D01*
X140739000Y-120912667D02*
X140739000Y-120870000D01*
X133225000Y-109215000D02*
X134180000Y-109215000D01*
X139260000Y-109276000D02*
X139260000Y-107015000D01*
X142816000Y-104476000D02*
X141292000Y-104476000D01*
X131640000Y-110355000D02*
X132085000Y-110355000D01*
X135958000Y-109784000D02*
X138752000Y-109784000D01*
X147388000Y-104572000D02*
X145102000Y-104572000D01*
X135958000Y-104513000D02*
X135958000Y-106736000D01*
X139260000Y-113315000D02*
X139260000Y-109276000D01*
X142816000Y-104476000D02*
X145006000Y-104476000D01*
X135958000Y-106736000D02*
X136237000Y-107015000D01*
X128592000Y-85400000D02*
X128592000Y-84892000D01*
X146626000Y-114864000D02*
X146880000Y-114610000D01*
X128211000Y-85781000D02*
X128592000Y-85400000D01*
X126560000Y-86167000D02*
X127825000Y-86167000D01*
X128592000Y-84892000D02*
X129280000Y-84204000D01*
X145747000Y-114864000D02*
X146626000Y-114864000D01*
D48*
%TO.N,RESET*%
X129862000Y-121976000D02*
X129862000Y-122738000D01*
X129331172Y-85474000D02*
X130510000Y-85474000D01*
X132910000Y-116642000D02*
X131894000Y-117658000D01*
X133418000Y-85654000D02*
X133238000Y-85474000D01*
X127576000Y-87229172D02*
X129331172Y-85474000D01*
X126560000Y-88707000D02*
X127063000Y-88707000D01*
X135958000Y-102863000D02*
X137673000Y-102863000D01*
X133238000Y-85474000D02*
X130510000Y-85474000D01*
X137673000Y-102863000D02*
X137736000Y-102926000D01*
X137736000Y-102926000D02*
X138498000Y-102164000D01*
X132910000Y-114102000D02*
X132910000Y-116642000D01*
X129862000Y-123918000D02*
X130624000Y-124680000D01*
X127576000Y-88194000D02*
X127576000Y-87229172D01*
X130624000Y-124680000D02*
X130968000Y-124680000D01*
X129862000Y-122738000D02*
X129862000Y-123918000D01*
X130370000Y-121468000D02*
X129862000Y-121976000D01*
X132006000Y-117770000D02*
X131894000Y-117658000D01*
X127063000Y-88707000D02*
X127576000Y-88194000D01*
X131386000Y-121468000D02*
X130370000Y-121468000D01*
X132844000Y-117770000D02*
X132006000Y-117770000D01*
%TO.N,GPIO15*%
X128185000Y-95207792D02*
X128185000Y-97000097D01*
X131640000Y-102164000D02*
X131640000Y-103434000D01*
X131640000Y-105567000D02*
X131640000Y-103434000D01*
X130510000Y-91824000D02*
X129280000Y-91824000D01*
X129280000Y-91824000D02*
X129085000Y-92019000D01*
X128185000Y-97000097D02*
X127735000Y-97450097D01*
X130259500Y-101407000D02*
X130883000Y-101407000D01*
X127735000Y-100232000D02*
X126560000Y-101407000D01*
X129085000Y-94307792D02*
X128185000Y-95207792D01*
X130883000Y-101407000D02*
X131640000Y-102164000D01*
X129085000Y-92019000D02*
X129085000Y-94307792D01*
X127735000Y-97450097D02*
X127735000Y-100232000D01*
%TO.N,GPIO16*%
X131820000Y-93094000D02*
X131894000Y-93020000D01*
X134180000Y-105593000D02*
X134180000Y-103474000D01*
X134180000Y-103474000D02*
X134140000Y-103434000D01*
X133164000Y-103434000D02*
X134140000Y-103434000D01*
X130510000Y-93094000D02*
X131820000Y-93094000D01*
D49*
%TO.N,+5V*%
X148404000Y-111562000D02*
X148404000Y-116134000D01*
X142536000Y-110826000D02*
X141560000Y-111802000D01*
X141560000Y-111802000D02*
X141560000Y-113315000D01*
X145610000Y-110800000D02*
X147642000Y-110800000D01*
X145610000Y-110800000D02*
X144366000Y-110800000D01*
X144340000Y-110826000D02*
X142536000Y-110826000D01*
X147642000Y-110800000D02*
X148404000Y-111562000D01*
X144366000Y-110800000D02*
X144340000Y-110826000D01*
D48*
%TO.N,GPIO0*%
X148010000Y-99444000D02*
X148010000Y-99997584D01*
X148010000Y-99997584D02*
X149435000Y-101422584D01*
X150436000Y-123246000D02*
X149002000Y-124680000D01*
X149435000Y-104987889D02*
X149885000Y-105437889D01*
X147896000Y-124680000D02*
X147134000Y-123918000D01*
X131771653Y-120828348D02*
X132402000Y-121458695D01*
X147134000Y-122764000D02*
X147108000Y-122738000D01*
X149885000Y-114567000D02*
X151960000Y-116642000D01*
X151960000Y-116642000D02*
X150944000Y-116642000D01*
X130944000Y-119070000D02*
X130944000Y-120000695D01*
X149002000Y-124680000D02*
X147896000Y-124680000D01*
X149435000Y-101422584D02*
X149435000Y-104987889D01*
X147134000Y-123918000D02*
X147134000Y-122764000D01*
X145766010Y-121396010D02*
X147108000Y-122738000D01*
X150436000Y-117150000D02*
X150436000Y-123246000D01*
X132402000Y-121458695D02*
X132402000Y-121468000D01*
X130944000Y-120000695D02*
X131771653Y-120828348D01*
X145706921Y-121396010D02*
X145766010Y-121396010D01*
X150944000Y-116642000D02*
X150436000Y-117150000D01*
%TO.N,Net-(D1-A1)*%
X139000000Y-127345000D02*
X139000000Y-128586000D01*
X138204500Y-128834000D02*
X138752000Y-128834000D01*
X139000000Y-128586000D02*
X138752000Y-128834000D01*
X134815000Y-122357000D02*
X135577000Y-122357000D01*
X138077500Y-128961000D02*
X138204500Y-128834000D01*
X138000000Y-128883500D02*
X138077500Y-128961000D01*
X135196000Y-122738000D02*
X135577000Y-122357000D01*
X138000000Y-127345000D02*
X138000000Y-128883500D01*
X135196000Y-124516000D02*
X135196000Y-122738000D01*
%TO.N,Net-(D2-A1)*%
X138752000Y-126040000D02*
X139260000Y-126040000D01*
X143767000Y-122357000D02*
X142689000Y-122357000D01*
X138500000Y-126292000D02*
X138752000Y-126040000D01*
X139500000Y-126280000D02*
X139260000Y-126040000D01*
X139500000Y-127345000D02*
X139500000Y-126280000D01*
X138500000Y-127345000D02*
X138500000Y-126292000D01*
X143324000Y-124516000D02*
X143324000Y-122800000D01*
X143324000Y-122800000D02*
X143767000Y-122357000D01*
D49*
%TO.N,VBUS*%
X145748000Y-118167000D02*
X145747000Y-118166000D01*
X136350000Y-127345000D02*
X136350000Y-126178000D01*
X141546000Y-126040000D02*
X144086000Y-126040000D01*
X144825000Y-121087000D02*
X144825000Y-120729000D01*
X148404000Y-119434000D02*
X148404000Y-117771620D01*
X141150000Y-127345000D02*
X141150000Y-126436000D01*
X141150000Y-126436000D02*
X141546000Y-126040000D01*
X136350000Y-126178000D02*
X136212000Y-126040000D01*
X145748000Y-119817000D02*
X145748000Y-118167000D01*
X148260500Y-120706000D02*
X148260500Y-119577500D01*
X145875000Y-119944000D02*
X145748000Y-119817000D01*
X144825000Y-120729000D02*
X145737000Y-119817000D01*
X147894000Y-119944000D02*
X145875000Y-119944000D01*
X144086000Y-126040000D02*
X144594000Y-126548000D01*
X145737000Y-119817000D02*
X145748000Y-119817000D01*
X148404000Y-117771620D02*
X147810500Y-117178120D01*
X148404000Y-119434000D02*
X147894000Y-119944000D01*
X148260500Y-119577500D02*
X148404000Y-119434000D01*
D48*
%TO.N,Net-(J1-CC1)*%
X137630000Y-126400000D02*
X137755604Y-126400000D01*
X137482000Y-126548000D02*
X137630000Y-126400000D01*
X137755604Y-126400000D02*
X138371000Y-125784604D01*
X138371000Y-125784604D02*
X138371000Y-124896000D01*
X137500000Y-127345000D02*
X137500000Y-126566000D01*
X137500000Y-126566000D02*
X137482000Y-126548000D01*
%TO.N,Net-(JP1-A)*%
X136466000Y-123246000D02*
X136466000Y-124486000D01*
X137228000Y-122484000D02*
X136466000Y-123246000D01*
X140164000Y-122230000D02*
X139910000Y-122484000D01*
X139910000Y-122484000D02*
X139693538Y-122484000D01*
X139476769Y-122700769D02*
X139043231Y-122700769D01*
X140164000Y-120870000D02*
X140164000Y-122230000D01*
X139043231Y-122700769D02*
X138826462Y-122484000D01*
X139693538Y-122484000D02*
X139476769Y-122700769D01*
X136466000Y-124486000D02*
X136496000Y-124516000D01*
X138826462Y-122484000D02*
X137228000Y-122484000D01*
%TO.N,Net-(J1-CC2)*%
X140149000Y-124896000D02*
X140402000Y-124896000D01*
X140500000Y-125247000D02*
X140149000Y-124896000D01*
X140500000Y-127345000D02*
X140500000Y-125247000D01*
%TO.N,Net-(JP2-A)*%
X139664000Y-121473615D02*
X139269513Y-121868102D01*
X142024000Y-124516000D02*
X142054000Y-124486000D01*
X142054000Y-124486000D02*
X142054000Y-122852808D01*
X142054000Y-122852808D02*
X141699543Y-122498351D01*
X139664000Y-120870000D02*
X139664000Y-121473615D01*
%TO.N,GPIO1*%
X149494000Y-84204000D02*
X148010000Y-84204000D01*
X151960000Y-91242000D02*
X150785000Y-90067000D01*
X150785000Y-90067000D02*
X150785000Y-85495000D01*
X150785000Y-85495000D02*
X149494000Y-84204000D01*
%TO.N,GPIO2*%
X150690000Y-90734000D02*
X150690000Y-92512000D01*
X150335000Y-86162000D02*
X150335000Y-90379000D01*
X148010000Y-85474000D02*
X149647000Y-85474000D01*
X150335000Y-90379000D02*
X150690000Y-90734000D01*
X150690000Y-92512000D02*
X151960000Y-93782000D01*
X149647000Y-85474000D02*
X150335000Y-86162000D01*
%TO.N,GPIO3*%
X132275000Y-100694000D02*
X132275000Y-98639500D01*
X132275000Y-98639500D02*
X132306500Y-98608000D01*
%TO.N,GPIO4*%
X128026000Y-89014000D02*
X126560000Y-90480000D01*
X126560000Y-90480000D02*
X126560000Y-91247000D01*
X130510000Y-86744000D02*
X128697568Y-86744000D01*
X128697568Y-86744000D02*
X128026000Y-87415568D01*
X128026000Y-87415568D02*
X128026000Y-89014000D01*
%TO.N,GPIO5*%
X128476000Y-89200396D02*
X128476000Y-88827604D01*
X129289604Y-88014000D02*
X130510000Y-88014000D01*
X128476000Y-88827604D02*
X129289604Y-88014000D01*
X127735000Y-92612000D02*
X127735000Y-89941396D01*
X127735000Y-89941396D02*
X128476000Y-89200396D01*
X126560000Y-93787000D02*
X127735000Y-92612000D01*
%TO.N,GPIO6*%
X129028792Y-89284000D02*
X128185000Y-90127792D01*
X126560000Y-95560000D02*
X126560000Y-96327000D01*
X130510000Y-89284000D02*
X129028792Y-89284000D01*
X128185000Y-90127792D02*
X128185000Y-93935000D01*
X128185000Y-93935000D02*
X126560000Y-95560000D01*
%TO.N,GPIO7*%
X129069000Y-90554000D02*
X128635000Y-90988000D01*
X126560000Y-97988701D02*
X126956701Y-97592000D01*
X127735000Y-96322000D02*
X127735000Y-96813701D01*
X128635000Y-94121396D02*
X128371396Y-94385000D01*
X126560000Y-98867000D02*
X126560000Y-97988701D01*
X128371396Y-94385000D02*
X127735000Y-95021396D01*
X128635000Y-90988000D02*
X128635000Y-94121396D01*
X127735000Y-95021396D02*
X127735000Y-96322000D01*
X130510000Y-90554000D02*
X129069000Y-90554000D01*
X127735000Y-96813701D02*
X126956701Y-97592000D01*
%TO.N,GPIO8*%
X129985000Y-102681003D02*
X129985000Y-107511188D01*
X131820000Y-96904000D02*
X130510000Y-96904000D01*
X130259500Y-102406503D02*
X129985000Y-102681003D01*
X131894000Y-96830000D02*
X131820000Y-96904000D01*
X129985000Y-107511188D02*
X129354000Y-108142188D01*
X129354000Y-108142188D02*
X129354000Y-109022000D01*
%TO.N,GPIO9*%
X134592557Y-98079057D02*
X134592557Y-100471557D01*
X133343500Y-96830000D02*
X134592557Y-98079057D01*
X134592557Y-100471557D02*
X134815000Y-100694000D01*
%TO.N,GPIO10*%
X136085000Y-100114000D02*
X136085000Y-100694000D01*
X133343500Y-95560000D02*
X135042557Y-97259057D01*
X135042557Y-99071557D02*
X136085000Y-100114000D01*
X135042557Y-97259057D02*
X135042557Y-99071557D01*
%TO.N,GPIO11*%
X135492557Y-96439057D02*
X135492557Y-97635263D01*
X135492557Y-97635263D02*
X137355000Y-99497706D01*
X137355000Y-99497706D02*
X137355000Y-100694000D01*
X133343500Y-94290000D02*
X135492557Y-96439057D01*
%TO.N,GPIO12*%
X133418000Y-93020000D02*
X133418000Y-93565000D01*
X138625000Y-99497000D02*
X138625000Y-100694000D01*
X133418000Y-93565000D02*
X133643805Y-93565000D01*
X133643805Y-93565000D02*
X135942557Y-95863752D01*
X137863690Y-99370000D02*
X138498000Y-99370000D01*
X135942557Y-97448867D02*
X137863690Y-99370000D01*
X138498000Y-99370000D02*
X138625000Y-99497000D01*
X135942557Y-95863752D02*
X135942557Y-97448867D01*
%TO.N,GPIO13*%
X145092695Y-94544000D02*
X139895000Y-99741695D01*
X145102000Y-94544000D02*
X145092695Y-94544000D01*
X139895000Y-99741695D02*
X139895000Y-100694000D01*
%TO.N,GPIO14*%
X145092695Y-95560000D02*
X141165000Y-99487695D01*
X145102000Y-95560000D02*
X145092695Y-95560000D01*
X141165000Y-99487695D02*
X141165000Y-100694000D01*
%TO.N,GPIO42*%
X149240000Y-89284000D02*
X149885000Y-89929000D01*
X149885000Y-89929000D02*
X149885000Y-90565396D01*
X150785000Y-95147000D02*
X151960000Y-96322000D01*
X150240000Y-90920396D02*
X150240000Y-92698396D01*
X148010000Y-89284000D02*
X149240000Y-89284000D01*
X150240000Y-92698396D02*
X150785000Y-93243396D01*
X149885000Y-90565396D02*
X150240000Y-90920396D01*
X150785000Y-93243396D02*
X150785000Y-95147000D01*
%TO.N,GPIO41*%
X149790000Y-92884792D02*
X150335000Y-93429792D01*
X149790000Y-91242000D02*
X149790000Y-92884792D01*
X151960000Y-98100000D02*
X151960000Y-98862000D01*
X150785000Y-95783396D02*
X150785000Y-96925000D01*
X150335000Y-95333396D02*
X150785000Y-95783396D01*
X150785000Y-96925000D02*
X151960000Y-98100000D01*
X149102000Y-90554000D02*
X149790000Y-91242000D01*
X150335000Y-93429792D02*
X150335000Y-95333396D01*
X148010000Y-90554000D02*
X149102000Y-90554000D01*
%TO.N,GPIO40*%
X150335000Y-97111396D02*
X150785000Y-97561396D01*
X149340000Y-93071188D02*
X149885000Y-93616188D01*
X149885000Y-93616188D02*
X149885000Y-95519792D01*
X149010000Y-91824000D02*
X149340000Y-92154000D01*
X149340000Y-92154000D02*
X149340000Y-93071188D01*
X150335000Y-95969792D02*
X150335000Y-97111396D01*
X150785000Y-97561396D02*
X150785000Y-100227000D01*
X149885000Y-95519792D02*
X150335000Y-95969792D01*
X148010000Y-91824000D02*
X149010000Y-91824000D01*
X150785000Y-100227000D02*
X151960000Y-101402000D01*
%TO.N,GPIO39*%
X146700000Y-93094000D02*
X146626000Y-93020000D01*
X148010000Y-93094000D02*
X146700000Y-93094000D01*
%TO.N,GPIO38*%
X149435000Y-95706188D02*
X149885000Y-96156188D01*
X148010000Y-94364000D02*
X149240000Y-94364000D01*
X150335000Y-100413396D02*
X150810952Y-100889348D01*
X149435000Y-94559000D02*
X149435000Y-95706188D01*
X151960000Y-105603701D02*
X151960000Y-106482000D01*
X150810952Y-100889348D02*
X150785000Y-100915300D01*
X150785000Y-104428701D02*
X151960000Y-105603701D01*
X150785000Y-100915300D02*
X150785000Y-104428701D01*
X149240000Y-94364000D02*
X149435000Y-94559000D01*
X149885000Y-97297792D02*
X150335000Y-97747792D01*
X149885000Y-96156188D02*
X149885000Y-97297792D01*
X150335000Y-97747792D02*
X150335000Y-100413396D01*
%TO.N,GPIO37*%
X146700000Y-95634000D02*
X146626000Y-95560000D01*
X148010000Y-95634000D02*
X146700000Y-95634000D01*
%TO.N,GPIO36*%
X150335000Y-104615097D02*
X150785000Y-105065097D01*
X149435000Y-97484188D02*
X149885000Y-97934188D01*
X149885000Y-100599792D02*
X150335000Y-101049792D01*
X149435000Y-97099000D02*
X149435000Y-97484188D01*
X148010000Y-96904000D02*
X149240000Y-96904000D01*
X150335000Y-101049792D02*
X150335000Y-104615097D01*
X149885000Y-97934188D02*
X149885000Y-100599792D01*
X151960000Y-110683701D02*
X151960000Y-111562000D01*
X150785000Y-109508701D02*
X151960000Y-110683701D01*
X150785000Y-105065097D02*
X150785000Y-109508701D01*
X149240000Y-96904000D02*
X149435000Y-97099000D01*
%TO.N,GPIO35*%
X150335000Y-105251493D02*
X150335000Y-112477000D01*
X149435000Y-100786188D02*
X149885000Y-101236188D01*
X149885000Y-104801493D02*
X150335000Y-105251493D01*
X150335000Y-112477000D02*
X151960000Y-114102000D01*
X148010000Y-98174000D02*
X149240000Y-98174000D01*
X149240000Y-98174000D02*
X149435000Y-98369000D01*
X149435000Y-98369000D02*
X149435000Y-100786188D01*
X149885000Y-101236188D02*
X149885000Y-104801493D01*
%TO.N,GPIO21*%
X145092695Y-96576000D02*
X144377000Y-97291695D01*
X144377000Y-97291695D02*
X144377000Y-97301000D01*
X142435000Y-99243000D02*
X142435000Y-100694000D01*
X145102000Y-96576000D02*
X145092695Y-96576000D01*
X144377000Y-97301000D02*
X142435000Y-99243000D01*
%TO.N,GPIO20*%
X130510000Y-99484000D02*
X130510000Y-99444000D01*
X144624000Y-124516000D02*
X144624000Y-123276000D01*
X128600698Y-108259094D02*
X129535000Y-107324792D01*
X128604396Y-114610000D02*
X130804500Y-114610000D01*
X129535000Y-107324792D02*
X129535000Y-100459000D01*
X144624000Y-123276000D02*
X144594000Y-123246000D01*
X129535000Y-100459000D02*
X130510000Y-99484000D01*
X126560000Y-116647000D02*
X128600698Y-114606302D01*
X128600698Y-114606302D02*
X128604396Y-114610000D01*
X128600698Y-114606302D02*
X128600698Y-108259094D01*
%TO.N,GPIO19*%
X133896000Y-124516000D02*
X132148000Y-124516000D01*
X128150698Y-108072698D02*
X128150698Y-111749302D01*
X128526561Y-117912000D02*
X126052000Y-117912000D01*
X126052000Y-117912000D02*
X125385000Y-117245000D01*
X125385000Y-117245000D02*
X125385000Y-115282000D01*
X130804500Y-115634061D02*
X128526561Y-117912000D01*
X129510000Y-98174000D02*
X129085000Y-98599000D01*
X126560000Y-113340000D02*
X126560000Y-114107000D01*
X128150698Y-111749302D02*
X126560000Y-113340000D01*
X129085000Y-98599000D02*
X129085000Y-107138396D01*
X125385000Y-115282000D02*
X126560000Y-114107000D01*
X129085000Y-107138396D02*
X128150698Y-108072698D01*
X130510000Y-98174000D02*
X129510000Y-98174000D01*
%TO.N,GPIO18*%
X129100000Y-96322000D02*
X129788000Y-95634000D01*
X130433850Y-108086937D02*
X131021937Y-108086937D01*
X129788000Y-95634000D02*
X130510000Y-95634000D01*
X128635000Y-97931396D02*
X129100000Y-97466396D01*
X131021937Y-108086937D02*
X131640000Y-108705000D01*
X129100000Y-97466396D02*
X129100000Y-96322000D01*
X128635000Y-106952000D02*
X128635000Y-97931396D01*
X130690000Y-95814000D02*
X130510000Y-95634000D01*
X126560000Y-109027000D02*
X128635000Y-106952000D01*
%TO.N,GPIO17*%
X129665188Y-94364000D02*
X128635000Y-95394188D01*
X128185000Y-104862000D02*
X126560000Y-106487000D01*
X128185000Y-97745000D02*
X128185000Y-104862000D01*
X128635000Y-97295000D02*
X128185000Y-97745000D01*
X128635000Y-95394188D02*
X128635000Y-97295000D01*
X130510000Y-94364000D02*
X129665188Y-94364000D01*
%TO.N,DTR*%
X132844000Y-119070000D02*
X132844000Y-119878000D01*
X136594000Y-120832000D02*
X137214000Y-120212000D01*
X132844000Y-119878000D02*
X132910000Y-119944000D01*
X136212000Y-120832000D02*
X134942000Y-120832000D01*
X136212000Y-120832000D02*
X136594000Y-120832000D01*
X137214000Y-120212000D02*
X137214000Y-119920000D01*
%TO.N,Net-(Q1A-G)*%
X132844000Y-118420000D02*
X133418000Y-118420000D01*
X133672000Y-118166000D02*
X133672000Y-116134000D01*
X133418000Y-118420000D02*
X133672000Y-118166000D01*
X133926000Y-115880000D02*
X134942000Y-115880000D01*
X133672000Y-116134000D02*
X133926000Y-115880000D01*
%TO.N,RTS*%
X131640000Y-116642000D02*
X130944000Y-117338000D01*
X130944000Y-117338000D02*
X130944000Y-117770000D01*
X134942000Y-117530000D02*
X135958000Y-117530000D01*
X135958000Y-117530000D02*
X135958000Y-116642000D01*
X135958000Y-117530000D02*
X136338000Y-117530000D01*
X136338000Y-117530000D02*
X136728000Y-117920000D01*
X136728000Y-117920000D02*
X137214000Y-117920000D01*
%TO.N,Net-(Q1B-G)*%
X131894000Y-118674000D02*
X131640000Y-118420000D01*
X134942000Y-119182000D02*
X134434000Y-119182000D01*
X132402000Y-120706000D02*
X131894000Y-120198000D01*
X134434000Y-119182000D02*
X133926000Y-119690000D01*
X133418000Y-120706000D02*
X132402000Y-120706000D01*
X133926000Y-120198000D02*
X133418000Y-120706000D01*
X131640000Y-118420000D02*
X130944000Y-118420000D01*
X133926000Y-119690000D02*
X133926000Y-120198000D01*
X131894000Y-120198000D02*
X131894000Y-118674000D01*
%TO.N,Net-(U3-VBUS)*%
X144097000Y-118166000D02*
X144097000Y-119816000D01*
X144097000Y-119816000D02*
X144098000Y-119817000D01*
X144097000Y-116515000D02*
X144097000Y-118166000D01*
X143995000Y-119920000D02*
X144098000Y-119817000D01*
X142114000Y-119920000D02*
X143920000Y-119920000D01*
%TO.N,Net-(U3-~{RST})*%
X143086000Y-119420000D02*
X142114000Y-119420000D01*
X143372000Y-119134000D02*
X143086000Y-119420000D01*
X144097000Y-114864000D02*
X143372000Y-115589000D01*
X143372000Y-115589000D02*
X143372000Y-119134000D01*
%TO.N,Net-(U3-~{SUSPEND})*%
X142816000Y-118420000D02*
X142922000Y-118314000D01*
X142922000Y-118314000D02*
X142922000Y-114261000D01*
X142922000Y-114261000D02*
X144097000Y-113086000D01*
X142114000Y-118420000D02*
X142816000Y-118420000D01*
%TO.N,GPIO46*%
X133031871Y-97920365D02*
X133545000Y-98433494D01*
X133545000Y-98433494D02*
X133545000Y-100694000D01*
%TO.N,GPIO47*%
X145102000Y-97592000D02*
X145092695Y-97592000D01*
X143705000Y-98979695D02*
X143705000Y-100694000D01*
X145092695Y-97592000D02*
X143705000Y-98979695D01*
%TO.N,GPIO48*%
X145102000Y-98608000D02*
X144975000Y-98735000D01*
X144975000Y-98735000D02*
X144975000Y-100694000D01*
%TO.N,GPIO45*%
X146245000Y-99243000D02*
X146245000Y-100694000D01*
X146118000Y-99116000D02*
X146245000Y-99243000D01*
%TO.N,RXD0*%
X142562000Y-90354396D02*
X144902396Y-88014000D01*
X144902396Y-88014000D02*
X148010000Y-88014000D01*
X136086743Y-119365721D02*
X136086743Y-119307257D01*
X136474000Y-118920000D02*
X137214000Y-118920000D01*
X142562000Y-95180396D02*
X142562000Y-90354396D01*
X136086743Y-119307257D02*
X136474000Y-118920000D01*
X138498000Y-98354000D02*
X139388396Y-98354000D01*
X139388396Y-98354000D02*
X142562000Y-95180396D01*
%TO.N,TXD0*%
X143832000Y-88448000D02*
X142054000Y-90226000D01*
X142054000Y-95052000D02*
X139768000Y-97338000D01*
X139768000Y-97338000D02*
X138244000Y-97338000D01*
X145536000Y-86744000D02*
X143832000Y-88448000D01*
X142054000Y-90226000D02*
X142054000Y-95052000D01*
X135958000Y-118305862D02*
X136072138Y-118420000D01*
X148010000Y-86744000D02*
X145536000Y-86744000D01*
X136072138Y-118420000D02*
X137214000Y-118420000D01*
X147936000Y-86670000D02*
X148010000Y-86744000D01*
%TD*%
%TA.AperFunction,Conductor*%
%TO.N,GND*%
G36*
X152644867Y-81450579D02*
G01*
X152651427Y-81452806D01*
X152783755Y-81502161D01*
X152789488Y-81504637D01*
X152904572Y-81561390D01*
X152904952Y-81561578D01*
X153026906Y-81628170D01*
X153031634Y-81631032D01*
X153088571Y-81669076D01*
X153138649Y-81702537D01*
X153141358Y-81704454D01*
X153250652Y-81786271D01*
X153254345Y-81789265D01*
X153351502Y-81874469D01*
X153354448Y-81877228D01*
X153450769Y-81973549D01*
X153453526Y-81976492D01*
X153538729Y-82073648D01*
X153541732Y-82077353D01*
X153593564Y-82146592D01*
X153623543Y-82186639D01*
X153625461Y-82189349D01*
X153696962Y-82296357D01*
X153699828Y-82301091D01*
X153766421Y-82423047D01*
X153823355Y-82538499D01*
X153825841Y-82544257D01*
X153862212Y-82641768D01*
X153875196Y-82676578D01*
X153893049Y-82729172D01*
X153915597Y-82795596D01*
X153917472Y-82802352D01*
X153948846Y-82946579D01*
X153971980Y-83062880D01*
X153973015Y-83070560D01*
X153986017Y-83252350D01*
X153991367Y-83333966D01*
X153991500Y-83338023D01*
X153991500Y-132927975D01*
X153991367Y-132932026D01*
X153990191Y-132949978D01*
X153986017Y-133013648D01*
X153973015Y-133195438D01*
X153971980Y-133203118D01*
X153948846Y-133319420D01*
X153917472Y-133463646D01*
X153915597Y-133470401D01*
X153899316Y-133518366D01*
X153875208Y-133589388D01*
X153875195Y-133589425D01*
X153825841Y-133721741D01*
X153823355Y-133727499D01*
X153766421Y-133842952D01*
X153699828Y-133964907D01*
X153696961Y-133969641D01*
X153625461Y-134076649D01*
X153623543Y-134079359D01*
X153541744Y-134188631D01*
X153538723Y-134192357D01*
X153453529Y-134289502D01*
X153450755Y-134292464D01*
X153354464Y-134388755D01*
X153351502Y-134391529D01*
X153254357Y-134476723D01*
X153250631Y-134479744D01*
X153141359Y-134561543D01*
X153138649Y-134563461D01*
X153031641Y-134634961D01*
X153026907Y-134637828D01*
X152904952Y-134704421D01*
X152789499Y-134761355D01*
X152783741Y-134763841D01*
X152662956Y-134808893D01*
X152651418Y-134813197D01*
X152532401Y-134853597D01*
X152525646Y-134855472D01*
X152381420Y-134886846D01*
X152265118Y-134909980D01*
X152257438Y-134911015D01*
X152075648Y-134924017D01*
X152024582Y-134927364D01*
X151994025Y-134929367D01*
X151989976Y-134929500D01*
X126530024Y-134929500D01*
X126525974Y-134929367D01*
X126487954Y-134926875D01*
X126444350Y-134924017D01*
X126262560Y-134911015D01*
X126254880Y-134909980D01*
X126138579Y-134886846D01*
X125994352Y-134855472D01*
X125987596Y-134853597D01*
X125955881Y-134842831D01*
X125868578Y-134813196D01*
X125833768Y-134800212D01*
X125736257Y-134763841D01*
X125730499Y-134761355D01*
X125615047Y-134704421D01*
X125493091Y-134637828D01*
X125488357Y-134634962D01*
X125381349Y-134563461D01*
X125378639Y-134561543D01*
X125338592Y-134531564D01*
X125269353Y-134479732D01*
X125265648Y-134476729D01*
X125168492Y-134391526D01*
X125165549Y-134388769D01*
X125069228Y-134292448D01*
X125066469Y-134289502D01*
X125033450Y-134251851D01*
X124981265Y-134192345D01*
X124978271Y-134188652D01*
X124896454Y-134079358D01*
X124894537Y-134076649D01*
X124823036Y-133969641D01*
X124820170Y-133964906D01*
X124753578Y-133842952D01*
X124696643Y-133727499D01*
X124694157Y-133721741D01*
X124676109Y-133673354D01*
X124644805Y-133589425D01*
X124604395Y-133470383D01*
X124602531Y-133463666D01*
X124575597Y-133339850D01*
X124571153Y-133319420D01*
X124562025Y-133273531D01*
X124548015Y-133203100D01*
X124546985Y-133195459D01*
X124533986Y-133013708D01*
X124530164Y-132955381D01*
X124528633Y-132932019D01*
X124528500Y-132927964D01*
X124528500Y-117425885D01*
X124548185Y-117358846D01*
X124600989Y-117313091D01*
X124670147Y-117303147D01*
X124733703Y-117332172D01*
X124771477Y-117390950D01*
X124772604Y-117395044D01*
X124774337Y-117401796D01*
X124791490Y-117445119D01*
X124793382Y-117450647D01*
X124806381Y-117495388D01*
X124816580Y-117512634D01*
X124825138Y-117530103D01*
X124832514Y-117548732D01*
X124859898Y-117586423D01*
X124863106Y-117591307D01*
X124886827Y-117631416D01*
X124886833Y-117631424D01*
X124900990Y-117645580D01*
X124913628Y-117660376D01*
X124925405Y-117676586D01*
X124925406Y-117676587D01*
X124961309Y-117706288D01*
X124965620Y-117710210D01*
X125347985Y-118092576D01*
X125468318Y-118212909D01*
X125501803Y-118274232D01*
X125496819Y-118343924D01*
X125482212Y-118371713D01*
X125385965Y-118509169D01*
X125385964Y-118509171D01*
X125296005Y-118702089D01*
X125288430Y-118718335D01*
X125286098Y-118723335D01*
X125286094Y-118723344D01*
X125224938Y-118951586D01*
X125224936Y-118951596D01*
X125204341Y-119186999D01*
X125204341Y-119187000D01*
X125224936Y-119422403D01*
X125224938Y-119422413D01*
X125286094Y-119650655D01*
X125286096Y-119650659D01*
X125286097Y-119650663D01*
X125312532Y-119707352D01*
X125385965Y-119864830D01*
X125385967Y-119864834D01*
X125521501Y-120058395D01*
X125521506Y-120058402D01*
X125688597Y-120225493D01*
X125688603Y-120225498D01*
X125874158Y-120355425D01*
X125917783Y-120410002D01*
X125924977Y-120479500D01*
X125893454Y-120541855D01*
X125874158Y-120558575D01*
X125688597Y-120688505D01*
X125521505Y-120855597D01*
X125385965Y-121049169D01*
X125385964Y-121049171D01*
X125323510Y-121183105D01*
X125288430Y-121258335D01*
X125286098Y-121263335D01*
X125286094Y-121263344D01*
X125224938Y-121491586D01*
X125224936Y-121491596D01*
X125204341Y-121726999D01*
X125204341Y-121727000D01*
X125224936Y-121962403D01*
X125224938Y-121962413D01*
X125286094Y-122190655D01*
X125286096Y-122190659D01*
X125286097Y-122190663D01*
X125376651Y-122384856D01*
X125385965Y-122404830D01*
X125385967Y-122404834D01*
X125484086Y-122544961D01*
X125503797Y-122573112D01*
X125521501Y-122598395D01*
X125521506Y-122598402D01*
X125688597Y-122765493D01*
X125688603Y-122765498D01*
X125874158Y-122895425D01*
X125917783Y-122950002D01*
X125924977Y-123019500D01*
X125893454Y-123081855D01*
X125874158Y-123098575D01*
X125688597Y-123228505D01*
X125521505Y-123395597D01*
X125385965Y-123589169D01*
X125385964Y-123589171D01*
X125292401Y-123789816D01*
X125288430Y-123798335D01*
X125286098Y-123803335D01*
X125286094Y-123803344D01*
X125224938Y-124031586D01*
X125224936Y-124031596D01*
X125204341Y-124266999D01*
X125204341Y-124267000D01*
X125224936Y-124502403D01*
X125224938Y-124502413D01*
X125286094Y-124730655D01*
X125286096Y-124730659D01*
X125286097Y-124730663D01*
X125383633Y-124939830D01*
X125385965Y-124944830D01*
X125385967Y-124944834D01*
X125494172Y-125099365D01*
X125507478Y-125118369D01*
X125521501Y-125138395D01*
X125521506Y-125138402D01*
X125688597Y-125305493D01*
X125688603Y-125305498D01*
X125874158Y-125435425D01*
X125917783Y-125490002D01*
X125924977Y-125559500D01*
X125893454Y-125621855D01*
X125874158Y-125638575D01*
X125688597Y-125768505D01*
X125521505Y-125935597D01*
X125385965Y-126129169D01*
X125385964Y-126129171D01*
X125314863Y-126281649D01*
X125288430Y-126338335D01*
X125286098Y-126343335D01*
X125286094Y-126343344D01*
X125224938Y-126571586D01*
X125224936Y-126571596D01*
X125204341Y-126806999D01*
X125204341Y-126807000D01*
X125224936Y-127042403D01*
X125224938Y-127042413D01*
X125286094Y-127270655D01*
X125286096Y-127270659D01*
X125286097Y-127270663D01*
X125336415Y-127378569D01*
X125385965Y-127484830D01*
X125385967Y-127484834D01*
X125521501Y-127678395D01*
X125521506Y-127678402D01*
X125688597Y-127845493D01*
X125688603Y-127845498D01*
X125874158Y-127975425D01*
X125917783Y-128030002D01*
X125924977Y-128099500D01*
X125893454Y-128161855D01*
X125874158Y-128178575D01*
X125688597Y-128308505D01*
X125521505Y-128475597D01*
X125385965Y-128669169D01*
X125385964Y-128669171D01*
X125313316Y-128824966D01*
X125288430Y-128878335D01*
X125286098Y-128883335D01*
X125286094Y-128883344D01*
X125224938Y-129111586D01*
X125224936Y-129111596D01*
X125204341Y-129346999D01*
X125204341Y-129347000D01*
X125224936Y-129582403D01*
X125224938Y-129582413D01*
X125286094Y-129810655D01*
X125286096Y-129810659D01*
X125286097Y-129810663D01*
X125291450Y-129822142D01*
X125385965Y-130024830D01*
X125385967Y-130024834D01*
X125521501Y-130218395D01*
X125521506Y-130218402D01*
X125688597Y-130385493D01*
X125688603Y-130385498D01*
X125874158Y-130515425D01*
X125917783Y-130570002D01*
X125924977Y-130639500D01*
X125893454Y-130701855D01*
X125874158Y-130718575D01*
X125688597Y-130848505D01*
X125521505Y-131015597D01*
X125385965Y-131209169D01*
X125385964Y-131209171D01*
X125319721Y-131351230D01*
X125288430Y-131418335D01*
X125286098Y-131423335D01*
X125286094Y-131423344D01*
X125224938Y-131651586D01*
X125224936Y-131651596D01*
X125204341Y-131886999D01*
X125204341Y-131887000D01*
X125224936Y-132122403D01*
X125224938Y-132122413D01*
X125286094Y-132350655D01*
X125286096Y-132350659D01*
X125286097Y-132350663D01*
X125306772Y-132395000D01*
X125385965Y-132564830D01*
X125385967Y-132564834D01*
X125494281Y-132719521D01*
X125521505Y-132758401D01*
X125688599Y-132925495D01*
X125731281Y-132955381D01*
X125882165Y-133061032D01*
X125882167Y-133061033D01*
X125882170Y-133061035D01*
X126096337Y-133160903D01*
X126324592Y-133222063D01*
X126502851Y-133237659D01*
X126559999Y-133242659D01*
X126560000Y-133242659D01*
X126560001Y-133242659D01*
X126617149Y-133237659D01*
X126795408Y-133222063D01*
X127023663Y-133160903D01*
X127237830Y-133061035D01*
X127431401Y-132925495D01*
X127598495Y-132758401D01*
X127618382Y-132730000D01*
X129374000Y-132730000D01*
X129374000Y-133277844D01*
X129380401Y-133337372D01*
X129380403Y-133337379D01*
X129430645Y-133472086D01*
X129430649Y-133472093D01*
X129516809Y-133587187D01*
X129516812Y-133587190D01*
X129631906Y-133673350D01*
X129631913Y-133673354D01*
X129766620Y-133723596D01*
X129766627Y-133723598D01*
X129826155Y-133729999D01*
X129826172Y-133730000D01*
X130374000Y-133730000D01*
X130873999Y-133730000D01*
X131421828Y-133730000D01*
X131421844Y-133729999D01*
X131481372Y-133723598D01*
X131481379Y-133723596D01*
X131616086Y-133673354D01*
X131616093Y-133673350D01*
X131731187Y-133587190D01*
X131731190Y-133587187D01*
X131817350Y-133472093D01*
X131817354Y-133472086D01*
X131867596Y-133337379D01*
X131867598Y-133337372D01*
X131873999Y-133277844D01*
X131874000Y-133277827D01*
X131874000Y-132730000D01*
X130874000Y-132730000D01*
X130873999Y-133730000D01*
X130374000Y-133730000D01*
X130374000Y-132730000D01*
X129374000Y-132730000D01*
X127618382Y-132730000D01*
X127712411Y-132595713D01*
X133430000Y-132595713D01*
X133445418Y-132747338D01*
X133506299Y-132941381D01*
X133506304Y-132941391D01*
X133605005Y-133119215D01*
X133605005Y-133119216D01*
X133737478Y-133273530D01*
X133737479Y-133273531D01*
X133898304Y-133398018D01*
X134080907Y-133487589D01*
X134180000Y-133513244D01*
X134180000Y-132949978D01*
X134199685Y-132882939D01*
X134252489Y-132837184D01*
X134321647Y-132827240D01*
X134337926Y-132830709D01*
X134401840Y-132848895D01*
X134513521Y-132838546D01*
X134513526Y-132838543D01*
X134522063Y-132836115D01*
X134591930Y-132836701D01*
X134650390Y-132874966D01*
X134678881Y-132938763D01*
X134680000Y-132955381D01*
X134680000Y-133518366D01*
X134681944Y-133518069D01*
X134681945Y-133518069D01*
X134872660Y-133447436D01*
X134872664Y-133447434D01*
X135045267Y-133339850D01*
X135192668Y-133199735D01*
X135192669Y-133199733D01*
X135308856Y-133032804D01*
X135389059Y-132845907D01*
X135430000Y-132646690D01*
X135430000Y-132595713D01*
X142070000Y-132595713D01*
X142085418Y-132747338D01*
X142146299Y-132941381D01*
X142146304Y-132941391D01*
X142245005Y-133119215D01*
X142245005Y-133119216D01*
X142377478Y-133273530D01*
X142377479Y-133273531D01*
X142538304Y-133398018D01*
X142720907Y-133487589D01*
X142820000Y-133513244D01*
X142820000Y-132949978D01*
X142839685Y-132882939D01*
X142892489Y-132837184D01*
X142961647Y-132827240D01*
X142977926Y-132830709D01*
X143041840Y-132848895D01*
X143153521Y-132838546D01*
X143153526Y-132838543D01*
X143162063Y-132836115D01*
X143231930Y-132836701D01*
X143290390Y-132874966D01*
X143318881Y-132938763D01*
X143320000Y-132955381D01*
X143320000Y-133518366D01*
X143321944Y-133518069D01*
X143321945Y-133518069D01*
X143512660Y-133447436D01*
X143512664Y-133447434D01*
X143685267Y-133339850D01*
X143832668Y-133199735D01*
X143832669Y-133199733D01*
X143948856Y-133032804D01*
X144029059Y-132845907D01*
X144052879Y-132730000D01*
X146646000Y-132730000D01*
X146646000Y-133277844D01*
X146652401Y-133337372D01*
X146652403Y-133337379D01*
X146702645Y-133472086D01*
X146702649Y-133472093D01*
X146788809Y-133587187D01*
X146788812Y-133587190D01*
X146903906Y-133673350D01*
X146903913Y-133673354D01*
X147038620Y-133723596D01*
X147038627Y-133723598D01*
X147098155Y-133729999D01*
X147098172Y-133730000D01*
X147646000Y-133730000D01*
X147646000Y-132730000D01*
X148146000Y-132730000D01*
X148146000Y-133730000D01*
X148693828Y-133730000D01*
X148693844Y-133729999D01*
X148753372Y-133723598D01*
X148753379Y-133723596D01*
X148888086Y-133673354D01*
X148888093Y-133673350D01*
X149003187Y-133587190D01*
X149003190Y-133587187D01*
X149089350Y-133472093D01*
X149089354Y-133472086D01*
X149139596Y-133337379D01*
X149139598Y-133337372D01*
X149145999Y-133277844D01*
X149146000Y-133277827D01*
X149146000Y-132730000D01*
X148146000Y-132730000D01*
X147646000Y-132730000D01*
X146646000Y-132730000D01*
X144052879Y-132730000D01*
X144070000Y-132646690D01*
X144070000Y-132395000D01*
X143494000Y-132395000D01*
X143426961Y-132375315D01*
X143381206Y-132322511D01*
X143370000Y-132271000D01*
X143370000Y-132230000D01*
X146646000Y-132230000D01*
X147646000Y-132230000D01*
X147646000Y-131230000D01*
X148146000Y-131230000D01*
X148146000Y-132230000D01*
X149146000Y-132230000D01*
X149146000Y-131682172D01*
X149145999Y-131682155D01*
X149139598Y-131622627D01*
X149139596Y-131622620D01*
X149089354Y-131487913D01*
X149089350Y-131487906D01*
X149003190Y-131372812D01*
X149003187Y-131372809D01*
X148888093Y-131286649D01*
X148888086Y-131286645D01*
X148753379Y-131236403D01*
X148753372Y-131236401D01*
X148693844Y-131230000D01*
X148146000Y-131230000D01*
X147646000Y-131230000D01*
X147098155Y-131230000D01*
X147038627Y-131236401D01*
X147038620Y-131236403D01*
X146903913Y-131286645D01*
X146903906Y-131286649D01*
X146788812Y-131372809D01*
X146788809Y-131372812D01*
X146702649Y-131487906D01*
X146702645Y-131487913D01*
X146652403Y-131622620D01*
X146652401Y-131622627D01*
X146646000Y-131682155D01*
X146646000Y-132230000D01*
X143370000Y-132230000D01*
X143370000Y-132019000D01*
X143389685Y-131951961D01*
X143442489Y-131906206D01*
X143494000Y-131895000D01*
X144070000Y-131895000D01*
X144070000Y-131694286D01*
X144054581Y-131542661D01*
X143993700Y-131348618D01*
X143993695Y-131348608D01*
X143894994Y-131170784D01*
X143894994Y-131170783D01*
X143762521Y-131016469D01*
X143762520Y-131016468D01*
X143601695Y-130891981D01*
X143419093Y-130802411D01*
X143320000Y-130776753D01*
X143320000Y-131340021D01*
X143300315Y-131407060D01*
X143247511Y-131452815D01*
X143178353Y-131462759D01*
X143162066Y-131459287D01*
X143098162Y-131441105D01*
X143098162Y-131441104D01*
X142986475Y-131451454D01*
X142977931Y-131453885D01*
X142908064Y-131453297D01*
X142849606Y-131415028D01*
X142821118Y-131351230D01*
X142820000Y-131334618D01*
X142820000Y-130771633D01*
X142818053Y-130771931D01*
X142818047Y-130771933D01*
X142627342Y-130842562D01*
X142627335Y-130842565D01*
X142454732Y-130950149D01*
X142307331Y-131090264D01*
X142307330Y-131090266D01*
X142191143Y-131257195D01*
X142110940Y-131444092D01*
X142070000Y-131643309D01*
X142070000Y-131895000D01*
X142646000Y-131895000D01*
X142713039Y-131914685D01*
X142758794Y-131967489D01*
X142770000Y-132019000D01*
X142770000Y-132271000D01*
X142750315Y-132338039D01*
X142697511Y-132383794D01*
X142646000Y-132395000D01*
X142070000Y-132395000D01*
X142070000Y-132595713D01*
X135430000Y-132595713D01*
X135430000Y-132395000D01*
X134854000Y-132395000D01*
X134786961Y-132375315D01*
X134741206Y-132322511D01*
X134730000Y-132271000D01*
X134730000Y-132019000D01*
X134749685Y-131951961D01*
X134802489Y-131906206D01*
X134854000Y-131895000D01*
X135430000Y-131895000D01*
X135430000Y-131694286D01*
X135414581Y-131542661D01*
X135353700Y-131348618D01*
X135353695Y-131348608D01*
X135254994Y-131170784D01*
X135254994Y-131170783D01*
X135122521Y-131016469D01*
X135122520Y-131016468D01*
X134961695Y-130891981D01*
X134779093Y-130802411D01*
X134680000Y-130776753D01*
X134680000Y-131340021D01*
X134660315Y-131407060D01*
X134607511Y-131452815D01*
X134538353Y-131462759D01*
X134522066Y-131459287D01*
X134458162Y-131441105D01*
X134458162Y-131441104D01*
X134346478Y-131451453D01*
X134337929Y-131453886D01*
X134268061Y-131453296D01*
X134209604Y-131415027D01*
X134181117Y-131351229D01*
X134179999Y-131334618D01*
X134179999Y-130771633D01*
X134178053Y-130771931D01*
X134178047Y-130771933D01*
X133987342Y-130842562D01*
X133987335Y-130842565D01*
X133814732Y-130950149D01*
X133667331Y-131090264D01*
X133667330Y-131090266D01*
X133551143Y-131257195D01*
X133470940Y-131444092D01*
X133430000Y-131643309D01*
X133430000Y-131895000D01*
X134006000Y-131895000D01*
X134073039Y-131914685D01*
X134118794Y-131967489D01*
X134130000Y-132019000D01*
X134130000Y-132271000D01*
X134110315Y-132338039D01*
X134057511Y-132383794D01*
X134006000Y-132395000D01*
X133430000Y-132395000D01*
X133430000Y-132595713D01*
X127712411Y-132595713D01*
X127734035Y-132564830D01*
X127833903Y-132350663D01*
X127866234Y-132230000D01*
X129374000Y-132230000D01*
X130374000Y-132230000D01*
X130374000Y-132229999D01*
X130873999Y-132229999D01*
X130874000Y-132230000D01*
X131874000Y-132230000D01*
X131874000Y-131682172D01*
X131873999Y-131682155D01*
X131867598Y-131622627D01*
X131867596Y-131622620D01*
X131817354Y-131487913D01*
X131817350Y-131487906D01*
X131731190Y-131372812D01*
X131731187Y-131372809D01*
X131616093Y-131286649D01*
X131616086Y-131286645D01*
X131481379Y-131236403D01*
X131481372Y-131236401D01*
X131421844Y-131230000D01*
X130874000Y-131230000D01*
X130873999Y-132229999D01*
X130374000Y-132229999D01*
X130374000Y-131230000D01*
X129826155Y-131230000D01*
X129766627Y-131236401D01*
X129766620Y-131236403D01*
X129631913Y-131286645D01*
X129631906Y-131286649D01*
X129516812Y-131372809D01*
X129516809Y-131372812D01*
X129430649Y-131487906D01*
X129430645Y-131487913D01*
X129380403Y-131622620D01*
X129380401Y-131622627D01*
X129374000Y-131682155D01*
X129374000Y-132230000D01*
X127866234Y-132230000D01*
X127895063Y-132122408D01*
X127915659Y-131887000D01*
X127915221Y-131881999D01*
X127895063Y-131651596D01*
X127895063Y-131651592D01*
X127843536Y-131459287D01*
X127833905Y-131423344D01*
X127833904Y-131423343D01*
X127833903Y-131423337D01*
X127734035Y-131209171D01*
X127707157Y-131170784D01*
X127598494Y-131015597D01*
X127431402Y-130848506D01*
X127431396Y-130848501D01*
X127245842Y-130718575D01*
X127202217Y-130663998D01*
X127195023Y-130594500D01*
X127226546Y-130532145D01*
X127245842Y-130515425D01*
X127268026Y-130499891D01*
X127431401Y-130385495D01*
X127598495Y-130218401D01*
X127734035Y-130024830D01*
X127833903Y-129810663D01*
X127895063Y-129582408D01*
X127915659Y-129347000D01*
X127915221Y-129341999D01*
X127907467Y-129253366D01*
X127895063Y-129111592D01*
X127840226Y-128906936D01*
X127833905Y-128883344D01*
X127833904Y-128883343D01*
X127833903Y-128883337D01*
X127734035Y-128669171D01*
X127717099Y-128644983D01*
X127598494Y-128475597D01*
X127431402Y-128308506D01*
X127431396Y-128308501D01*
X127245842Y-128178575D01*
X127202217Y-128123998D01*
X127195023Y-128054500D01*
X127226546Y-127992145D01*
X127245842Y-127975425D01*
X127268026Y-127959891D01*
X127431401Y-127845495D01*
X127598495Y-127678401D01*
X127734035Y-127484830D01*
X127833903Y-127270663D01*
X127895063Y-127042408D01*
X127915659Y-126807000D01*
X127915221Y-126801999D01*
X127897561Y-126600149D01*
X127895063Y-126571592D01*
X127833903Y-126343337D01*
X127734035Y-126129171D01*
X127663962Y-126029095D01*
X127598494Y-125935597D01*
X127431402Y-125768506D01*
X127431396Y-125768501D01*
X127245842Y-125638575D01*
X127202217Y-125583998D01*
X127195023Y-125514500D01*
X127226546Y-125452145D01*
X127245842Y-125435425D01*
X127327163Y-125378483D01*
X127431401Y-125305495D01*
X127598495Y-125138401D01*
X127734035Y-124944830D01*
X127833903Y-124730663D01*
X127895063Y-124502408D01*
X127915659Y-124267000D01*
X127915221Y-124261999D01*
X127909276Y-124194039D01*
X127895063Y-124031592D01*
X127833903Y-123803337D01*
X127734035Y-123589171D01*
X127722770Y-123573082D01*
X127598494Y-123395597D01*
X127431402Y-123228506D01*
X127431396Y-123228501D01*
X127245842Y-123098575D01*
X127202217Y-123043998D01*
X127195023Y-122974500D01*
X127226546Y-122912145D01*
X127245842Y-122895425D01*
X127357276Y-122817398D01*
X127431401Y-122765495D01*
X127598495Y-122598401D01*
X127734035Y-122404830D01*
X127833903Y-122190663D01*
X127895063Y-121962408D01*
X127915659Y-121727000D01*
X127915221Y-121721999D01*
X127909470Y-121656256D01*
X127895063Y-121491592D01*
X127833903Y-121263337D01*
X127734035Y-121049171D01*
X127730632Y-121044310D01*
X127598494Y-120855597D01*
X127431402Y-120688506D01*
X127431396Y-120688501D01*
X127245842Y-120558575D01*
X127202217Y-120503998D01*
X127195023Y-120434500D01*
X127226546Y-120372145D01*
X127245842Y-120355425D01*
X127291163Y-120323691D01*
X127431401Y-120225495D01*
X127598495Y-120058401D01*
X127734035Y-119864830D01*
X127833903Y-119650663D01*
X127895063Y-119422408D01*
X127915659Y-119187000D01*
X127915221Y-119181999D01*
X127908644Y-119106815D01*
X127895063Y-118951592D01*
X127839708Y-118745000D01*
X127833905Y-118723344D01*
X127833900Y-118723329D01*
X127829504Y-118713902D01*
X127819013Y-118644825D01*
X127847535Y-118581041D01*
X127906012Y-118542803D01*
X127941887Y-118537500D01*
X128443818Y-118537500D01*
X128459438Y-118539224D01*
X128459465Y-118538939D01*
X128467221Y-118539671D01*
X128467228Y-118539673D01*
X128536375Y-118537500D01*
X128565911Y-118537500D01*
X128572789Y-118536630D01*
X128578602Y-118536172D01*
X128625188Y-118534709D01*
X128644430Y-118529117D01*
X128663473Y-118525174D01*
X128683353Y-118522664D01*
X128726683Y-118505507D01*
X128732207Y-118503617D01*
X128735957Y-118502527D01*
X128776951Y-118490618D01*
X128794190Y-118480422D01*
X128811664Y-118471862D01*
X128830288Y-118464488D01*
X128830288Y-118464487D01*
X128830293Y-118464486D01*
X128868010Y-118437082D01*
X128872866Y-118433892D01*
X128912981Y-118410170D01*
X128927150Y-118395999D01*
X128941940Y-118383368D01*
X128958148Y-118371594D01*
X128987860Y-118335676D01*
X128991773Y-118331376D01*
X129908202Y-117414948D01*
X129969524Y-117381464D01*
X130039216Y-117386448D01*
X130095149Y-117428320D01*
X130119566Y-117493784D01*
X130119172Y-117515875D01*
X130118500Y-117522127D01*
X130118500Y-117522132D01*
X130118500Y-117522133D01*
X130118500Y-118017870D01*
X130118501Y-118017879D01*
X130125367Y-118081751D01*
X130125367Y-118108257D01*
X130124909Y-118112516D01*
X130124909Y-118112517D01*
X130118500Y-118172127D01*
X130118500Y-118172132D01*
X130118500Y-118172133D01*
X130118500Y-118667870D01*
X130118501Y-118667879D01*
X130125367Y-118731751D01*
X130125367Y-118758257D01*
X130124909Y-118762516D01*
X130124909Y-118762517D01*
X130118500Y-118822127D01*
X130118500Y-118822132D01*
X130118500Y-118822133D01*
X130118500Y-119317870D01*
X130118501Y-119317876D01*
X130124908Y-119377483D01*
X130175202Y-119512328D01*
X130175203Y-119512329D01*
X130175204Y-119512331D01*
X130180497Y-119519401D01*
X130261454Y-119627546D01*
X130268808Y-119633051D01*
X130310681Y-119688983D01*
X130318500Y-119732321D01*
X130318499Y-119917951D01*
X130316776Y-119933567D01*
X130317061Y-119933594D01*
X130316326Y-119941360D01*
X130318500Y-120010509D01*
X130318500Y-120040038D01*
X130318501Y-120040055D01*
X130319368Y-120046926D01*
X130319826Y-120052745D01*
X130321290Y-120099319D01*
X130321291Y-120099322D01*
X130326880Y-120118562D01*
X130330824Y-120137606D01*
X130333336Y-120157487D01*
X130347553Y-120193396D01*
X130350490Y-120200814D01*
X130352382Y-120206342D01*
X130365381Y-120251083D01*
X130375580Y-120268329D01*
X130384138Y-120285798D01*
X130391514Y-120304427D01*
X130418898Y-120342118D01*
X130422106Y-120347002D01*
X130445827Y-120387111D01*
X130445833Y-120387119D01*
X130459990Y-120401275D01*
X130472628Y-120416071D01*
X130484405Y-120432281D01*
X130484406Y-120432282D01*
X130520309Y-120461983D01*
X130524620Y-120465905D01*
X130611680Y-120552965D01*
X130689534Y-120630819D01*
X130723019Y-120692142D01*
X130718035Y-120761834D01*
X130676163Y-120817767D01*
X130610699Y-120842184D01*
X130601853Y-120842500D01*
X130452737Y-120842500D01*
X130437120Y-120840776D01*
X130437093Y-120841062D01*
X130429331Y-120840327D01*
X130360203Y-120842500D01*
X130330650Y-120842500D01*
X130329929Y-120842590D01*
X130323757Y-120843369D01*
X130317945Y-120843826D01*
X130271372Y-120845290D01*
X130271369Y-120845291D01*
X130252126Y-120850881D01*
X130233083Y-120854825D01*
X130213204Y-120857336D01*
X130213203Y-120857337D01*
X130169878Y-120874490D01*
X130164352Y-120876382D01*
X130119608Y-120889383D01*
X130119604Y-120889385D01*
X130102365Y-120899580D01*
X130084898Y-120908137D01*
X130066269Y-120915512D01*
X130066267Y-120915513D01*
X130028564Y-120942906D01*
X130023682Y-120946112D01*
X129983580Y-120969828D01*
X129969408Y-120984000D01*
X129954623Y-120996628D01*
X129938412Y-121008407D01*
X129908709Y-121044310D01*
X129904777Y-121048631D01*
X129478208Y-121475199D01*
X129465951Y-121485020D01*
X129466134Y-121485241D01*
X129460123Y-121490213D01*
X129412772Y-121540636D01*
X129391889Y-121561519D01*
X129391877Y-121561532D01*
X129387621Y-121567017D01*
X129383837Y-121571447D01*
X129351937Y-121605418D01*
X129351936Y-121605420D01*
X129342284Y-121622976D01*
X129331610Y-121639226D01*
X129319329Y-121655061D01*
X129319324Y-121655068D01*
X129300815Y-121697838D01*
X129298245Y-121703084D01*
X129275803Y-121743906D01*
X129270822Y-121763307D01*
X129264521Y-121781710D01*
X129256562Y-121800102D01*
X129256559Y-121800112D01*
X129253155Y-121821602D01*
X129223223Y-121884736D01*
X129195787Y-121907733D01*
X129183957Y-121915030D01*
X129183956Y-121915031D01*
X129064029Y-122034959D01*
X128975001Y-122179294D01*
X128974996Y-122179305D01*
X128921651Y-122340290D01*
X128911500Y-122439647D01*
X128911500Y-123036337D01*
X128911501Y-123036355D01*
X128921650Y-123135707D01*
X128921651Y-123135710D01*
X128974996Y-123296694D01*
X128975001Y-123296705D01*
X129064029Y-123441040D01*
X129064032Y-123441044D01*
X129183956Y-123560968D01*
X129183963Y-123560972D01*
X129189404Y-123565274D01*
X129229785Y-123622293D01*
X129236500Y-123662546D01*
X129236500Y-123835255D01*
X129234775Y-123850872D01*
X129235061Y-123850899D01*
X129234326Y-123858665D01*
X129236500Y-123927814D01*
X129236500Y-123957343D01*
X129236501Y-123957360D01*
X129237368Y-123964231D01*
X129237826Y-123970050D01*
X129239290Y-124016624D01*
X129239291Y-124016627D01*
X129244880Y-124035867D01*
X129248824Y-124054911D01*
X129251336Y-124074792D01*
X129268490Y-124118119D01*
X129270382Y-124123647D01*
X129283381Y-124168388D01*
X129293580Y-124185634D01*
X129302138Y-124203103D01*
X129309514Y-124221732D01*
X129336898Y-124259423D01*
X129340105Y-124264306D01*
X129356230Y-124291570D01*
X129373500Y-124354694D01*
X129373500Y-125477870D01*
X129373501Y-125477876D01*
X129379908Y-125537483D01*
X129430202Y-125672328D01*
X129430206Y-125672335D01*
X129516452Y-125787544D01*
X129516455Y-125787547D01*
X129631664Y-125873793D01*
X129631671Y-125873797D01*
X129766517Y-125924091D01*
X129766516Y-125924091D01*
X129773444Y-125924835D01*
X129826127Y-125930500D01*
X131421872Y-125930499D01*
X131481483Y-125924091D01*
X131616331Y-125873796D01*
X131731546Y-125787546D01*
X131817796Y-125672331D01*
X131868091Y-125537483D01*
X131870260Y-125517302D01*
X131896999Y-125452751D01*
X131954392Y-125412903D01*
X132019330Y-125409268D01*
X132053354Y-125416500D01*
X132053355Y-125416500D01*
X132242644Y-125416500D01*
X132242646Y-125416500D01*
X132427803Y-125377144D01*
X132600730Y-125300151D01*
X132753871Y-125188888D01*
X132756788Y-125185647D01*
X132759600Y-125182526D01*
X132819087Y-125145879D01*
X132851748Y-125141500D01*
X132882242Y-125141500D01*
X132949281Y-125161185D01*
X132995035Y-125213986D01*
X133006852Y-125239862D01*
X133011095Y-125249153D01*
X133011105Y-125249171D01*
X133088896Y-125370216D01*
X133088911Y-125370237D01*
X133155553Y-125447145D01*
X133183057Y-125478887D01*
X133183060Y-125478890D01*
X133291830Y-125573139D01*
X133292093Y-125573308D01*
X133412778Y-125650868D01*
X133412780Y-125650868D01*
X133412784Y-125650871D01*
X133543700Y-125710658D01*
X133681655Y-125751165D01*
X133824111Y-125771647D01*
X133824114Y-125771647D01*
X134446000Y-125771647D01*
X134517961Y-125766500D01*
X134530013Y-125762960D01*
X134580551Y-125761607D01*
X134580804Y-125759261D01*
X134588513Y-125760089D01*
X134588517Y-125760091D01*
X134648127Y-125766500D01*
X135197570Y-125766499D01*
X135264609Y-125786183D01*
X135310364Y-125838987D01*
X135320890Y-125903458D01*
X135309085Y-126015784D01*
X135306540Y-126040000D01*
X135311670Y-126088810D01*
X135299100Y-126157540D01*
X135251368Y-126208564D01*
X135201606Y-126225060D01*
X135142626Y-126231401D01*
X135142620Y-126231403D01*
X135007913Y-126281645D01*
X135007906Y-126281649D01*
X134892814Y-126367808D01*
X134892807Y-126367814D01*
X134871136Y-126396764D01*
X134815202Y-126438634D01*
X134745510Y-126443618D01*
X134740788Y-126442493D01*
X134680000Y-126426753D01*
X134680000Y-126990021D01*
X134660315Y-127057060D01*
X134607511Y-127102815D01*
X134538353Y-127112759D01*
X134522066Y-127109287D01*
X134458162Y-127091105D01*
X134458162Y-127091104D01*
X134346478Y-127101453D01*
X134337929Y-127103886D01*
X134268061Y-127103296D01*
X134209604Y-127065027D01*
X134181117Y-127001229D01*
X134179999Y-126984618D01*
X134179999Y-126421633D01*
X134179998Y-126421632D01*
X134178063Y-126421929D01*
X134178049Y-126421932D01*
X133987342Y-126492562D01*
X133987335Y-126492565D01*
X133814732Y-126600149D01*
X133667331Y-126740264D01*
X133667330Y-126740266D01*
X133551143Y-126907195D01*
X133470940Y-127094092D01*
X133430000Y-127293309D01*
X133430000Y-127695000D01*
X134006000Y-127695000D01*
X134073039Y-127714685D01*
X134118794Y-127767489D01*
X134130000Y-127819000D01*
X134130000Y-128071000D01*
X134110315Y-128138039D01*
X134057511Y-128183794D01*
X134006000Y-128195000D01*
X133430000Y-128195000D01*
X133430000Y-128545713D01*
X133445418Y-128697338D01*
X133506299Y-128891381D01*
X133506304Y-128891391D01*
X133605005Y-129069215D01*
X133605005Y-129069216D01*
X133737478Y-129223530D01*
X133737479Y-129223531D01*
X133898304Y-129348018D01*
X134080902Y-129437586D01*
X134080903Y-129437587D01*
X134179999Y-129463244D01*
X134179999Y-128899978D01*
X134199684Y-128832939D01*
X134252488Y-128787184D01*
X134321646Y-128777240D01*
X134337932Y-128780711D01*
X134401840Y-128798895D01*
X134513521Y-128788546D01*
X134513526Y-128788543D01*
X134522063Y-128786115D01*
X134591930Y-128786701D01*
X134650390Y-128824966D01*
X134678881Y-128888763D01*
X134680000Y-128905381D01*
X134680000Y-129468365D01*
X134681944Y-129468069D01*
X134681945Y-129468069D01*
X134872660Y-129397436D01*
X134872664Y-129397434D01*
X135045267Y-129289850D01*
X135192668Y-129149735D01*
X135192669Y-129149733D01*
X135308857Y-128982803D01*
X135346144Y-128895913D01*
X135390670Y-128842069D01*
X135457238Y-128820845D01*
X135524714Y-128838980D01*
X135541294Y-128851096D01*
X135586627Y-128890377D01*
X135717543Y-128950165D01*
X135824201Y-128965500D01*
X135824204Y-128965500D01*
X135895796Y-128965500D01*
X135895799Y-128965500D01*
X136002457Y-128950165D01*
X136133373Y-128890377D01*
X136242143Y-128796128D01*
X136319953Y-128675053D01*
X136319954Y-128675051D01*
X136355332Y-128554564D01*
X136393106Y-128495786D01*
X136456662Y-128466761D01*
X136474309Y-128465499D01*
X136697872Y-128465499D01*
X136697885Y-128465498D01*
X136736744Y-128461320D01*
X136763252Y-128461320D01*
X136802127Y-128465500D01*
X137120984Y-128465499D01*
X137188023Y-128485183D01*
X137233778Y-128537987D01*
X137243722Y-128607146D01*
X137238915Y-128627817D01*
X137193302Y-128768201D01*
X137191826Y-128772744D01*
X137172040Y-128961000D01*
X137191826Y-129149256D01*
X137191827Y-129149259D01*
X137250318Y-129329277D01*
X137250321Y-129329284D01*
X137344967Y-129493216D01*
X137420770Y-129577403D01*
X137471629Y-129633888D01*
X137624765Y-129745148D01*
X137624770Y-129745151D01*
X137797692Y-129822142D01*
X137797697Y-129822144D01*
X137982854Y-129861500D01*
X137982855Y-129861500D01*
X138172144Y-129861500D01*
X138172146Y-129861500D01*
X138357303Y-129822144D01*
X138530230Y-129745151D01*
X138683371Y-129633888D01*
X138810033Y-129493216D01*
X138810032Y-129493216D01*
X138814382Y-129488386D01*
X138816244Y-129490063D01*
X138862623Y-129454262D01*
X138892132Y-129446767D01*
X138908792Y-129444664D01*
X138952122Y-129427507D01*
X138957646Y-129425617D01*
X138961396Y-129424527D01*
X139002390Y-129412618D01*
X139019629Y-129402422D01*
X139037103Y-129393862D01*
X139055727Y-129386488D01*
X139055727Y-129386487D01*
X139055732Y-129386486D01*
X139093449Y-129359082D01*
X139098305Y-129355892D01*
X139138420Y-129332170D01*
X139152589Y-129317999D01*
X139167379Y-129305368D01*
X139183587Y-129293594D01*
X139213289Y-129257688D01*
X139217211Y-129253377D01*
X139383793Y-129086796D01*
X139396049Y-129076979D01*
X139395867Y-129076758D01*
X139401876Y-129071787D01*
X139449227Y-129021363D01*
X139470115Y-129000476D01*
X139470115Y-129000475D01*
X139470120Y-129000471D01*
X139474379Y-128994978D01*
X139478152Y-128990561D01*
X139510062Y-128956582D01*
X139519715Y-128939020D01*
X139530389Y-128922770D01*
X139542673Y-128906936D01*
X139561180Y-128864167D01*
X139563749Y-128858924D01*
X139576685Y-128835393D01*
X139586197Y-128818092D01*
X139591177Y-128798691D01*
X139597478Y-128780288D01*
X139605438Y-128761896D01*
X139612730Y-128715849D01*
X139613911Y-128710152D01*
X139616361Y-128700610D01*
X139625500Y-128665019D01*
X139625500Y-128644982D01*
X139627027Y-128625582D01*
X139629947Y-128607146D01*
X139630160Y-128605804D01*
X139629287Y-128596572D01*
X139642575Y-128527979D01*
X139690838Y-128477458D01*
X139758754Y-128461049D01*
X139765960Y-128461611D01*
X139802127Y-128465500D01*
X140197872Y-128465499D01*
X140197873Y-128465498D01*
X140197885Y-128465498D01*
X140236744Y-128461320D01*
X140263252Y-128461320D01*
X140302127Y-128465500D01*
X140697872Y-128465499D01*
X140697873Y-128465498D01*
X140697885Y-128465498D01*
X140736744Y-128461320D01*
X140763252Y-128461320D01*
X140802127Y-128465500D01*
X141025691Y-128465499D01*
X141092730Y-128485183D01*
X141138485Y-128537987D01*
X141144668Y-128554564D01*
X141180045Y-128675051D01*
X141206283Y-128715877D01*
X141257857Y-128796128D01*
X141366627Y-128890377D01*
X141497543Y-128950165D01*
X141604201Y-128965500D01*
X141604204Y-128965500D01*
X141675796Y-128965500D01*
X141675799Y-128965500D01*
X141782457Y-128950165D01*
X141913373Y-128890377D01*
X141954806Y-128854474D01*
X142018360Y-128825450D01*
X142087518Y-128835393D01*
X142140323Y-128881148D01*
X142144427Y-128888010D01*
X142245005Y-129069215D01*
X142245005Y-129069216D01*
X142377478Y-129223530D01*
X142377479Y-129223531D01*
X142538304Y-129348018D01*
X142720907Y-129437589D01*
X142820000Y-129463244D01*
X142820000Y-128899978D01*
X142839685Y-128832939D01*
X142892489Y-128787184D01*
X142961647Y-128777240D01*
X142977926Y-128780709D01*
X143041840Y-128798895D01*
X143153521Y-128788546D01*
X143153526Y-128788543D01*
X143162063Y-128786115D01*
X143231930Y-128786701D01*
X143290390Y-128824966D01*
X143318881Y-128888763D01*
X143320000Y-128905381D01*
X143320000Y-129468366D01*
X143321944Y-129468069D01*
X143321945Y-129468069D01*
X143512660Y-129397436D01*
X143512664Y-129397434D01*
X143685267Y-129289850D01*
X143832668Y-129149735D01*
X143832669Y-129149733D01*
X143948856Y-128982804D01*
X144029059Y-128795907D01*
X144070000Y-128596690D01*
X144070000Y-128195000D01*
X143494000Y-128195000D01*
X143426961Y-128175315D01*
X143381206Y-128122511D01*
X143370000Y-128071000D01*
X143370000Y-127819000D01*
X143389685Y-127751961D01*
X143442489Y-127706206D01*
X143494000Y-127695000D01*
X144070000Y-127695000D01*
X144070000Y-127491363D01*
X144089685Y-127424324D01*
X144142489Y-127378569D01*
X144211647Y-127368625D01*
X144244434Y-127378083D01*
X144314197Y-127409144D01*
X144499354Y-127448500D01*
X144499355Y-127448500D01*
X144688644Y-127448500D01*
X144688646Y-127448500D01*
X144873803Y-127409144D01*
X145046730Y-127332151D01*
X145199871Y-127220888D01*
X145326533Y-127080216D01*
X145421179Y-126916284D01*
X145479674Y-126736256D01*
X145499460Y-126548000D01*
X145479674Y-126359744D01*
X145421179Y-126179716D01*
X145326533Y-126015784D01*
X145199871Y-125875112D01*
X145199583Y-125874903D01*
X145139317Y-125831117D01*
X145096651Y-125775787D01*
X145090672Y-125706174D01*
X145123277Y-125644379D01*
X145145161Y-125626485D01*
X145228166Y-125573141D01*
X145228170Y-125573140D01*
X145228174Y-125573136D01*
X145336939Y-125478891D01*
X145336943Y-125478887D01*
X145431088Y-125370237D01*
X145431090Y-125370233D01*
X145431097Y-125370226D01*
X145508904Y-125249155D01*
X145508907Y-125249147D01*
X145508910Y-125249143D01*
X145550942Y-125157105D01*
X145568632Y-125118370D01*
X145568632Y-125118369D01*
X145568632Y-125118367D01*
X145568814Y-125117970D01*
X145569250Y-125116262D01*
X145609180Y-124980277D01*
X145629642Y-124837962D01*
X145629642Y-124781602D01*
X145629647Y-124781584D01*
X145629647Y-124250443D01*
X145629642Y-124250397D01*
X145629642Y-124194039D01*
X145629642Y-124194038D01*
X145612497Y-124074791D01*
X145609180Y-124051720D01*
X145568632Y-123913631D01*
X145568627Y-123913618D01*
X145508910Y-123782856D01*
X145508901Y-123782840D01*
X145457074Y-123702195D01*
X145446040Y-123685027D01*
X145426356Y-123617988D01*
X145432423Y-123579675D01*
X145479674Y-123434256D01*
X145497840Y-123261406D01*
X145524424Y-123196793D01*
X145571919Y-123160566D01*
X145577197Y-123158281D01*
X145718552Y-123074685D01*
X145718561Y-123074678D01*
X145834678Y-122958561D01*
X145834685Y-122958552D01*
X145918281Y-122817198D01*
X145919698Y-122813925D01*
X145921493Y-122811766D01*
X145922253Y-122810483D01*
X145922460Y-122810605D01*
X145964387Y-122760217D01*
X146031019Y-122739195D01*
X146098439Y-122757534D01*
X146145241Y-122809412D01*
X146157500Y-122863169D01*
X146157500Y-123036336D01*
X146157501Y-123036355D01*
X146167650Y-123135707D01*
X146167651Y-123135710D01*
X146220996Y-123296694D01*
X146221001Y-123296705D01*
X146310029Y-123441040D01*
X146310032Y-123441044D01*
X146429956Y-123560968D01*
X146449596Y-123573082D01*
X146496321Y-123625030D01*
X146508500Y-123678621D01*
X146508500Y-123835255D01*
X146506775Y-123850872D01*
X146507061Y-123850899D01*
X146506326Y-123858665D01*
X146508500Y-123927814D01*
X146508500Y-123957343D01*
X146508501Y-123957360D01*
X146509368Y-123964231D01*
X146509826Y-123970050D01*
X146511290Y-124016624D01*
X146511291Y-124016627D01*
X146516880Y-124035867D01*
X146520824Y-124054911D01*
X146523336Y-124074792D01*
X146540490Y-124118119D01*
X146542382Y-124123647D01*
X146555381Y-124168388D01*
X146565580Y-124185634D01*
X146574138Y-124203103D01*
X146581514Y-124221732D01*
X146608898Y-124259423D01*
X146612105Y-124264306D01*
X146628230Y-124291570D01*
X146645500Y-124354694D01*
X146645500Y-125477870D01*
X146645501Y-125477876D01*
X146651908Y-125537483D01*
X146702202Y-125672328D01*
X146702206Y-125672335D01*
X146788452Y-125787544D01*
X146788455Y-125787547D01*
X146903664Y-125873793D01*
X146903671Y-125873797D01*
X147038517Y-125924091D01*
X147038516Y-125924091D01*
X147045444Y-125924835D01*
X147098127Y-125930500D01*
X148693872Y-125930499D01*
X148753483Y-125924091D01*
X148888331Y-125873796D01*
X149003546Y-125787546D01*
X149089796Y-125672331D01*
X149140091Y-125537483D01*
X149146500Y-125477873D01*
X149146499Y-125382482D01*
X149166183Y-125315445D01*
X149218986Y-125269689D01*
X149235896Y-125263409D01*
X149252390Y-125258618D01*
X149269629Y-125248422D01*
X149287103Y-125239862D01*
X149305727Y-125232488D01*
X149305727Y-125232487D01*
X149305732Y-125232486D01*
X149343449Y-125205082D01*
X149348305Y-125201892D01*
X149388420Y-125178170D01*
X149402589Y-125163999D01*
X149417379Y-125151368D01*
X149433587Y-125139594D01*
X149463299Y-125103676D01*
X149467212Y-125099376D01*
X150392661Y-124173928D01*
X150453983Y-124140444D01*
X150523675Y-124145428D01*
X150579608Y-124187300D01*
X150604025Y-124252764D01*
X150604341Y-124261610D01*
X150604341Y-124262000D01*
X150624936Y-124497403D01*
X150624938Y-124497413D01*
X150686094Y-124725655D01*
X150686096Y-124725659D01*
X150686097Y-124725663D01*
X150712182Y-124781602D01*
X150785965Y-124939830D01*
X150785967Y-124939834D01*
X150894281Y-125094521D01*
X150910979Y-125118369D01*
X150921501Y-125133395D01*
X150921506Y-125133402D01*
X151088597Y-125300493D01*
X151088603Y-125300498D01*
X151274158Y-125430425D01*
X151317783Y-125485002D01*
X151324977Y-125554500D01*
X151293454Y-125616855D01*
X151274158Y-125633575D01*
X151088597Y-125763505D01*
X150921505Y-125930597D01*
X150785965Y-126124169D01*
X150785964Y-126124171D01*
X150686098Y-126338335D01*
X150686094Y-126338344D01*
X150624938Y-126566586D01*
X150624936Y-126566596D01*
X150604341Y-126801999D01*
X150604341Y-126802000D01*
X150624936Y-127037403D01*
X150624938Y-127037413D01*
X150686094Y-127265655D01*
X150686096Y-127265659D01*
X150686097Y-127265663D01*
X150785964Y-127479829D01*
X150785965Y-127479830D01*
X150785967Y-127479834D01*
X150921501Y-127673395D01*
X150921506Y-127673402D01*
X151088597Y-127840493D01*
X151088603Y-127840498D01*
X151274158Y-127970425D01*
X151317783Y-128025002D01*
X151324977Y-128094500D01*
X151293454Y-128156855D01*
X151274158Y-128173575D01*
X151088597Y-128303505D01*
X150921505Y-128470597D01*
X150785965Y-128664169D01*
X150785964Y-128664171D01*
X150686098Y-128878335D01*
X150686094Y-128878344D01*
X150624938Y-129106586D01*
X150624936Y-129106596D01*
X150604341Y-129341999D01*
X150604341Y-129342000D01*
X150624936Y-129577403D01*
X150624938Y-129577413D01*
X150686094Y-129805655D01*
X150686096Y-129805659D01*
X150686097Y-129805663D01*
X150785964Y-130019830D01*
X150785965Y-130019830D01*
X150785967Y-130019834D01*
X150921501Y-130213395D01*
X150921506Y-130213402D01*
X151088597Y-130380493D01*
X151088603Y-130380498D01*
X151274158Y-130510425D01*
X151317783Y-130565002D01*
X151324977Y-130634500D01*
X151293454Y-130696855D01*
X151274158Y-130713575D01*
X151088597Y-130843505D01*
X150921505Y-131010597D01*
X150785965Y-131204169D01*
X150785964Y-131204171D01*
X150707327Y-131372809D01*
X150687641Y-131415027D01*
X150686098Y-131418335D01*
X150686094Y-131418344D01*
X150624938Y-131646586D01*
X150624936Y-131646596D01*
X150604341Y-131881999D01*
X150604341Y-131882000D01*
X150624936Y-132117403D01*
X150624938Y-132117413D01*
X150686094Y-132345655D01*
X150686096Y-132345659D01*
X150686097Y-132345663D01*
X150785964Y-132559830D01*
X150785965Y-132559830D01*
X150785967Y-132559834D01*
X150846785Y-132646690D01*
X150921505Y-132753401D01*
X151088599Y-132920495D01*
X151185384Y-132988264D01*
X151282165Y-133056032D01*
X151282167Y-133056033D01*
X151282170Y-133056035D01*
X151496337Y-133155903D01*
X151724592Y-133217063D01*
X151912918Y-133233539D01*
X151959999Y-133237659D01*
X151960000Y-133237659D01*
X151960001Y-133237659D01*
X151999234Y-133234226D01*
X152195408Y-133217063D01*
X152423663Y-133155903D01*
X152637830Y-133056035D01*
X152831401Y-132920495D01*
X152998495Y-132753401D01*
X153134035Y-132559830D01*
X153233903Y-132345663D01*
X153295063Y-132117408D01*
X153315659Y-131882000D01*
X153295063Y-131646592D01*
X153233903Y-131418337D01*
X153134035Y-131204171D01*
X153110658Y-131170784D01*
X152998494Y-131010597D01*
X152831402Y-130843506D01*
X152831396Y-130843501D01*
X152645842Y-130713575D01*
X152602217Y-130658998D01*
X152595023Y-130589500D01*
X152626546Y-130527145D01*
X152645842Y-130510425D01*
X152668026Y-130494891D01*
X152831401Y-130380495D01*
X152998495Y-130213401D01*
X153134035Y-130019830D01*
X153233903Y-129805663D01*
X153295063Y-129577408D01*
X153315659Y-129342000D01*
X153314546Y-129329284D01*
X153305294Y-129223530D01*
X153295063Y-129106592D01*
X153239702Y-128899978D01*
X153233905Y-128878344D01*
X153233904Y-128878343D01*
X153233903Y-128878337D01*
X153134035Y-128664171D01*
X153120600Y-128644983D01*
X152998494Y-128470597D01*
X152831402Y-128303506D01*
X152831396Y-128303501D01*
X152645842Y-128173575D01*
X152602217Y-128118998D01*
X152595023Y-128049500D01*
X152626546Y-127987145D01*
X152645842Y-127970425D01*
X152668026Y-127954891D01*
X152831401Y-127840495D01*
X152998495Y-127673401D01*
X153134035Y-127479830D01*
X153233903Y-127265663D01*
X153295063Y-127037408D01*
X153315659Y-126802000D01*
X153295063Y-126566592D01*
X153233903Y-126338337D01*
X153134035Y-126124171D01*
X153067463Y-126029095D01*
X152998494Y-125930597D01*
X152831402Y-125763506D01*
X152831396Y-125763501D01*
X152645842Y-125633575D01*
X152602217Y-125578998D01*
X152595023Y-125509500D01*
X152626546Y-125447145D01*
X152645842Y-125430425D01*
X152709850Y-125385606D01*
X152831401Y-125300495D01*
X152998495Y-125133401D01*
X153134035Y-124939830D01*
X153233903Y-124725663D01*
X153295063Y-124497408D01*
X153315659Y-124262000D01*
X153295063Y-124026592D01*
X153233903Y-123798337D01*
X153134035Y-123584171D01*
X153126271Y-123573082D01*
X152998494Y-123390597D01*
X152831402Y-123223506D01*
X152831396Y-123223501D01*
X152645842Y-123093575D01*
X152602217Y-123038998D01*
X152595023Y-122969500D01*
X152626546Y-122907145D01*
X152645842Y-122890425D01*
X152668026Y-122874891D01*
X152831401Y-122760495D01*
X152998495Y-122593401D01*
X153134035Y-122399830D01*
X153233903Y-122185663D01*
X153295063Y-121957408D01*
X153315659Y-121722000D01*
X153295063Y-121486592D01*
X153238214Y-121274426D01*
X153233905Y-121258344D01*
X153233904Y-121258343D01*
X153233903Y-121258337D01*
X153134035Y-121044171D01*
X153122525Y-121027732D01*
X152998494Y-120850597D01*
X152831402Y-120683506D01*
X152831396Y-120683501D01*
X152645842Y-120553575D01*
X152602217Y-120498998D01*
X152595023Y-120429500D01*
X152626546Y-120367145D01*
X152645842Y-120350425D01*
X152711534Y-120304427D01*
X152831401Y-120220495D01*
X152998495Y-120053401D01*
X153134035Y-119859830D01*
X153233903Y-119645663D01*
X153295063Y-119417408D01*
X153315659Y-119182000D01*
X153295063Y-118946592D01*
X153233903Y-118718337D01*
X153134035Y-118504171D01*
X153124546Y-118490618D01*
X152998494Y-118310597D01*
X152831402Y-118143506D01*
X152831396Y-118143501D01*
X152645842Y-118013575D01*
X152602217Y-117958998D01*
X152595023Y-117889500D01*
X152626546Y-117827145D01*
X152645842Y-117810425D01*
X152669880Y-117793593D01*
X152831401Y-117680495D01*
X152998495Y-117513401D01*
X153134035Y-117319830D01*
X153233903Y-117105663D01*
X153295063Y-116877408D01*
X153315659Y-116642000D01*
X153295063Y-116406592D01*
X153233903Y-116178337D01*
X153134035Y-115964171D01*
X153124389Y-115950394D01*
X152998494Y-115770597D01*
X152831402Y-115603506D01*
X152831396Y-115603501D01*
X152645842Y-115473575D01*
X152602217Y-115418998D01*
X152595023Y-115349500D01*
X152626546Y-115287145D01*
X152645842Y-115270425D01*
X152671687Y-115252328D01*
X152831401Y-115140495D01*
X152998495Y-114973401D01*
X153134035Y-114779830D01*
X153233903Y-114565663D01*
X153295063Y-114337408D01*
X153315659Y-114102000D01*
X153295063Y-113866592D01*
X153241494Y-113666667D01*
X153233905Y-113638344D01*
X153233904Y-113638343D01*
X153233903Y-113638337D01*
X153134035Y-113424171D01*
X153129446Y-113417616D01*
X152998494Y-113230597D01*
X152831402Y-113063506D01*
X152831396Y-113063501D01*
X152645842Y-112933575D01*
X152602217Y-112878998D01*
X152595023Y-112809500D01*
X152626546Y-112747145D01*
X152645842Y-112730425D01*
X152712419Y-112683807D01*
X152831401Y-112600495D01*
X152998495Y-112433401D01*
X153134035Y-112239830D01*
X153233903Y-112025663D01*
X153295063Y-111797408D01*
X153315659Y-111562000D01*
X153295063Y-111326592D01*
X153237154Y-111110469D01*
X153233905Y-111098344D01*
X153233904Y-111098343D01*
X153233903Y-111098337D01*
X153134035Y-110884171D01*
X153129702Y-110877982D01*
X152998494Y-110690597D01*
X152831402Y-110523506D01*
X152831396Y-110523501D01*
X152645842Y-110393575D01*
X152602217Y-110338998D01*
X152595023Y-110269500D01*
X152626546Y-110207145D01*
X152645842Y-110190425D01*
X152691258Y-110158624D01*
X152831401Y-110060495D01*
X152998495Y-109893401D01*
X153134035Y-109699830D01*
X153233903Y-109485663D01*
X153295063Y-109257408D01*
X153315659Y-109022000D01*
X153295063Y-108786592D01*
X153233903Y-108558337D01*
X153134035Y-108344171D01*
X153089234Y-108280187D01*
X152998494Y-108150597D01*
X152831402Y-107983506D01*
X152831396Y-107983501D01*
X152645842Y-107853575D01*
X152602217Y-107798998D01*
X152595023Y-107729500D01*
X152626546Y-107667145D01*
X152645842Y-107650425D01*
X152693839Y-107616817D01*
X152831401Y-107520495D01*
X152998495Y-107353401D01*
X153134035Y-107159830D01*
X153233903Y-106945663D01*
X153295063Y-106717408D01*
X153315659Y-106482000D01*
X153295063Y-106246592D01*
X153233903Y-106018337D01*
X153134035Y-105804171D01*
X153126739Y-105793750D01*
X152998494Y-105610597D01*
X152831402Y-105443506D01*
X152831396Y-105443501D01*
X152645842Y-105313575D01*
X152602217Y-105258998D01*
X152595023Y-105189500D01*
X152626546Y-105127145D01*
X152645842Y-105110425D01*
X152718849Y-105059305D01*
X152831401Y-104980495D01*
X152998495Y-104813401D01*
X153134035Y-104619830D01*
X153233903Y-104405663D01*
X153295063Y-104177408D01*
X153315659Y-103942000D01*
X153295063Y-103706592D01*
X153233903Y-103478337D01*
X153134035Y-103264171D01*
X153117898Y-103241124D01*
X152998494Y-103070597D01*
X152831402Y-102903506D01*
X152831396Y-102903501D01*
X152645842Y-102773575D01*
X152602217Y-102718998D01*
X152595023Y-102649500D01*
X152626546Y-102587145D01*
X152645842Y-102570425D01*
X152700313Y-102532284D01*
X152831401Y-102440495D01*
X152998495Y-102273401D01*
X153134035Y-102079830D01*
X153233903Y-101865663D01*
X153295063Y-101637408D01*
X153315659Y-101402000D01*
X153295063Y-101166592D01*
X153233903Y-100938337D01*
X153134035Y-100724171D01*
X153058759Y-100616664D01*
X152998494Y-100530597D01*
X152831402Y-100363506D01*
X152831396Y-100363501D01*
X152645842Y-100233575D01*
X152602217Y-100178998D01*
X152595023Y-100109500D01*
X152626546Y-100047145D01*
X152645842Y-100030425D01*
X152668026Y-100014891D01*
X152831401Y-99900495D01*
X152998495Y-99733401D01*
X153134035Y-99539830D01*
X153233903Y-99325663D01*
X153295063Y-99097408D01*
X153315659Y-98862000D01*
X153295063Y-98626592D01*
X153233903Y-98398337D01*
X153134035Y-98184171D01*
X153123174Y-98168659D01*
X152998494Y-97990597D01*
X152831402Y-97823506D01*
X152831396Y-97823501D01*
X152645842Y-97693575D01*
X152602217Y-97638998D01*
X152595023Y-97569500D01*
X152626546Y-97507145D01*
X152645842Y-97490425D01*
X152769635Y-97403744D01*
X152831401Y-97360495D01*
X152998495Y-97193401D01*
X153134035Y-96999830D01*
X153233903Y-96785663D01*
X153295063Y-96557408D01*
X153315659Y-96322000D01*
X153295063Y-96086592D01*
X153233903Y-95858337D01*
X153134035Y-95644171D01*
X153114142Y-95615760D01*
X152998494Y-95450597D01*
X152831402Y-95283506D01*
X152831396Y-95283501D01*
X152645842Y-95153575D01*
X152602217Y-95098998D01*
X152595023Y-95029500D01*
X152626546Y-94967145D01*
X152645842Y-94950425D01*
X152668026Y-94934891D01*
X152831401Y-94820495D01*
X152998495Y-94653401D01*
X153134035Y-94459830D01*
X153233903Y-94245663D01*
X153295063Y-94017408D01*
X153315659Y-93782000D01*
X153295063Y-93546592D01*
X153233903Y-93318337D01*
X153134035Y-93104171D01*
X153133916Y-93104000D01*
X152998494Y-92910597D01*
X152831402Y-92743506D01*
X152831396Y-92743501D01*
X152645842Y-92613575D01*
X152602217Y-92558998D01*
X152595023Y-92489500D01*
X152626546Y-92427145D01*
X152645842Y-92410425D01*
X152736262Y-92347112D01*
X152831401Y-92280495D01*
X152998495Y-92113401D01*
X153134035Y-91919830D01*
X153233903Y-91705663D01*
X153295063Y-91477408D01*
X153315659Y-91242000D01*
X153295063Y-91006592D01*
X153233903Y-90778337D01*
X153134035Y-90564171D01*
X153126914Y-90554000D01*
X152998494Y-90370597D01*
X152831402Y-90203506D01*
X152831396Y-90203501D01*
X152645842Y-90073575D01*
X152602217Y-90018998D01*
X152595023Y-89949500D01*
X152626546Y-89887145D01*
X152645842Y-89870425D01*
X152669299Y-89854000D01*
X152831401Y-89740495D01*
X152998495Y-89573401D01*
X153134035Y-89379830D01*
X153233903Y-89165663D01*
X153295063Y-88937408D01*
X153315659Y-88702000D01*
X153314304Y-88686518D01*
X153308716Y-88622640D01*
X153295063Y-88466592D01*
X153233903Y-88238337D01*
X153134035Y-88024171D01*
X152998495Y-87830599D01*
X152998494Y-87830597D01*
X152831402Y-87663506D01*
X152831396Y-87663501D01*
X152645842Y-87533575D01*
X152602217Y-87478998D01*
X152595023Y-87409500D01*
X152626546Y-87347145D01*
X152645842Y-87330425D01*
X152687178Y-87301481D01*
X152831401Y-87200495D01*
X152998495Y-87033401D01*
X153134035Y-86839830D01*
X153233903Y-86625663D01*
X153295063Y-86397408D01*
X153315659Y-86162000D01*
X153312931Y-86130825D01*
X153303435Y-86022284D01*
X153295063Y-85926592D01*
X153233903Y-85698337D01*
X153134035Y-85484171D01*
X153121132Y-85465744D01*
X152998496Y-85290600D01*
X152962583Y-85254687D01*
X152876179Y-85168283D01*
X152842696Y-85106963D01*
X152847680Y-85037271D01*
X152889551Y-84981337D01*
X152920529Y-84964422D01*
X153052086Y-84915354D01*
X153052093Y-84915350D01*
X153167187Y-84829190D01*
X153167190Y-84829187D01*
X153253350Y-84714093D01*
X153253354Y-84714086D01*
X153303596Y-84579379D01*
X153303598Y-84579372D01*
X153309999Y-84519844D01*
X153310000Y-84519827D01*
X153310000Y-83872000D01*
X152573347Y-83872000D01*
X152506308Y-83852315D01*
X152460553Y-83799511D01*
X152450609Y-83730353D01*
X152454369Y-83713067D01*
X152458532Y-83698888D01*
X152460000Y-83693889D01*
X152460000Y-83550111D01*
X152454368Y-83530933D01*
X152454370Y-83461064D01*
X152492145Y-83402286D01*
X152555701Y-83373262D01*
X152573347Y-83372000D01*
X153310000Y-83372000D01*
X153310000Y-82724172D01*
X153309999Y-82724155D01*
X153303598Y-82664627D01*
X153303596Y-82664620D01*
X153253354Y-82529913D01*
X153253350Y-82529906D01*
X153167190Y-82414812D01*
X153167187Y-82414809D01*
X153052093Y-82328649D01*
X153052086Y-82328645D01*
X152917379Y-82278403D01*
X152917372Y-82278401D01*
X152857844Y-82272000D01*
X152210000Y-82272000D01*
X152210000Y-83009698D01*
X152190315Y-83076737D01*
X152137511Y-83122492D01*
X152068355Y-83132436D01*
X151995766Y-83122000D01*
X151995763Y-83122000D01*
X151924237Y-83122000D01*
X151924233Y-83122000D01*
X151851645Y-83132436D01*
X151782487Y-83122492D01*
X151729684Y-83076736D01*
X151710000Y-83009698D01*
X151710000Y-82272000D01*
X151062155Y-82272000D01*
X151002627Y-82278401D01*
X151002620Y-82278403D01*
X150867913Y-82328645D01*
X150867906Y-82328649D01*
X150752812Y-82414809D01*
X150752809Y-82414812D01*
X150666649Y-82529906D01*
X150666645Y-82529913D01*
X150616403Y-82664620D01*
X150616401Y-82664627D01*
X150610000Y-82724155D01*
X150610000Y-83372000D01*
X151346653Y-83372000D01*
X151413692Y-83391685D01*
X151459447Y-83444489D01*
X151469391Y-83513647D01*
X151465631Y-83530933D01*
X151460000Y-83550111D01*
X151460000Y-83693889D01*
X151461468Y-83698888D01*
X151465631Y-83713067D01*
X151465630Y-83782936D01*
X151427855Y-83841714D01*
X151364299Y-83870738D01*
X151346653Y-83872000D01*
X150610000Y-83872000D01*
X150610000Y-84136047D01*
X150590315Y-84203086D01*
X150537511Y-84248841D01*
X150468353Y-84258785D01*
X150404797Y-84229760D01*
X150398319Y-84223728D01*
X149994803Y-83820212D01*
X149984980Y-83807950D01*
X149984759Y-83808134D01*
X149979786Y-83802123D01*
X149979786Y-83802122D01*
X149929364Y-83754773D01*
X149918919Y-83744328D01*
X149908475Y-83733883D01*
X149905409Y-83731505D01*
X149902984Y-83729624D01*
X149898561Y-83725847D01*
X149864582Y-83693938D01*
X149864580Y-83693936D01*
X149864577Y-83693935D01*
X149847029Y-83684288D01*
X149830763Y-83673604D01*
X149814933Y-83661325D01*
X149772168Y-83642818D01*
X149766922Y-83640248D01*
X149726093Y-83617803D01*
X149726092Y-83617802D01*
X149706693Y-83612822D01*
X149688281Y-83606518D01*
X149669898Y-83598562D01*
X149669892Y-83598560D01*
X149623874Y-83591272D01*
X149618152Y-83590087D01*
X149573021Y-83578500D01*
X149573019Y-83578500D01*
X149552984Y-83578500D01*
X149533586Y-83576973D01*
X149526162Y-83575797D01*
X149513805Y-83573840D01*
X149513804Y-83573840D01*
X149467416Y-83578225D01*
X149461578Y-83578500D01*
X149382277Y-83578500D01*
X149315238Y-83558815D01*
X149269483Y-83506011D01*
X149258988Y-83441240D01*
X149259999Y-83431834D01*
X149260000Y-83431827D01*
X149260000Y-83184000D01*
X146760000Y-83184000D01*
X146760000Y-83431844D01*
X146766401Y-83491372D01*
X146766403Y-83491379D01*
X146778925Y-83524952D01*
X146783909Y-83594643D01*
X146778925Y-83611617D01*
X146765909Y-83646514D01*
X146765908Y-83646516D01*
X146759501Y-83706116D01*
X146759500Y-83706135D01*
X146759500Y-84701870D01*
X146759501Y-84701876D01*
X146765908Y-84761481D01*
X146778659Y-84795669D01*
X146783642Y-84865361D01*
X146778659Y-84882331D01*
X146765908Y-84916518D01*
X146759501Y-84976116D01*
X146759500Y-84976135D01*
X146759500Y-85971870D01*
X146759501Y-85971885D01*
X146760508Y-85981243D01*
X146748104Y-86050003D01*
X146700494Y-86101141D01*
X146637219Y-86118500D01*
X145618743Y-86118500D01*
X145603122Y-86116775D01*
X145603096Y-86117061D01*
X145595334Y-86116327D01*
X145595333Y-86116327D01*
X145526186Y-86118500D01*
X145496649Y-86118500D01*
X145489766Y-86119369D01*
X145483949Y-86119826D01*
X145437373Y-86121290D01*
X145418129Y-86126881D01*
X145399079Y-86130825D01*
X145379211Y-86133334D01*
X145335884Y-86150488D01*
X145330358Y-86152379D01*
X145285614Y-86165379D01*
X145285610Y-86165381D01*
X145268366Y-86175579D01*
X145250905Y-86184133D01*
X145232274Y-86191510D01*
X145232262Y-86191517D01*
X145194570Y-86218902D01*
X145189687Y-86222109D01*
X145149580Y-86245829D01*
X145135414Y-86259995D01*
X145120624Y-86272627D01*
X145104414Y-86284404D01*
X145104411Y-86284407D01*
X145074710Y-86320309D01*
X145070777Y-86324631D01*
X143361880Y-88033529D01*
X143361876Y-88033533D01*
X141670208Y-89725199D01*
X141657951Y-89735020D01*
X141658134Y-89735241D01*
X141652123Y-89740213D01*
X141604772Y-89790636D01*
X141583889Y-89811519D01*
X141583877Y-89811532D01*
X141579621Y-89817017D01*
X141575837Y-89821447D01*
X141543937Y-89855418D01*
X141543936Y-89855420D01*
X141534284Y-89872976D01*
X141523610Y-89889226D01*
X141511329Y-89905061D01*
X141511324Y-89905068D01*
X141492815Y-89947838D01*
X141490245Y-89953084D01*
X141467803Y-89993906D01*
X141462822Y-90013307D01*
X141456521Y-90031710D01*
X141448562Y-90050102D01*
X141448561Y-90050105D01*
X141441271Y-90096127D01*
X141440087Y-90101846D01*
X141428501Y-90146972D01*
X141428500Y-90146982D01*
X141428500Y-90167016D01*
X141426973Y-90186415D01*
X141423840Y-90206194D01*
X141423840Y-90206195D01*
X141428225Y-90252583D01*
X141428500Y-90258421D01*
X141428500Y-94741546D01*
X141408815Y-94808585D01*
X141392181Y-94829227D01*
X139545228Y-96676181D01*
X139483905Y-96709666D01*
X139457547Y-96712500D01*
X138947748Y-96712500D01*
X138880709Y-96692815D01*
X138855600Y-96671474D01*
X138849873Y-96665114D01*
X138849869Y-96665110D01*
X138696734Y-96553851D01*
X138696729Y-96553848D01*
X138523807Y-96476857D01*
X138523802Y-96476855D01*
X138378000Y-96445865D01*
X138338646Y-96437500D01*
X138149354Y-96437500D01*
X138116897Y-96444398D01*
X137964197Y-96476855D01*
X137964192Y-96476857D01*
X137791270Y-96553848D01*
X137791265Y-96553851D01*
X137638129Y-96665111D01*
X137511466Y-96805785D01*
X137416821Y-96969715D01*
X137416818Y-96969722D01*
X137358327Y-97149740D01*
X137358326Y-97149744D01*
X137338540Y-97338000D01*
X137358326Y-97526256D01*
X137358327Y-97526259D01*
X137417130Y-97707238D01*
X137419125Y-97777079D01*
X137383044Y-97836912D01*
X137320343Y-97867740D01*
X137250929Y-97859775D01*
X137211518Y-97833237D01*
X137085519Y-97707238D01*
X136604376Y-97226094D01*
X136570891Y-97164771D01*
X136568057Y-97138413D01*
X136568057Y-95946489D01*
X136569781Y-95930875D01*
X136569495Y-95930848D01*
X136570229Y-95923085D01*
X136568057Y-95853955D01*
X136568057Y-95824403D01*
X136568057Y-95824402D01*
X136567186Y-95817511D01*
X136566729Y-95811697D01*
X136566534Y-95805500D01*
X136565266Y-95765125D01*
X136560365Y-95748259D01*
X136559679Y-95745896D01*
X136555731Y-95726836D01*
X136553221Y-95706960D01*
X136536064Y-95663627D01*
X136534176Y-95658111D01*
X136521176Y-95613364D01*
X136510975Y-95596115D01*
X136502417Y-95578646D01*
X136495043Y-95560020D01*
X136495040Y-95560016D01*
X136495040Y-95560015D01*
X136467655Y-95522323D01*
X136464447Y-95517439D01*
X136440729Y-95477334D01*
X136440720Y-95477323D01*
X136426562Y-95463165D01*
X136413927Y-95448372D01*
X136402150Y-95432164D01*
X136366250Y-95402465D01*
X136361938Y-95398542D01*
X134325028Y-93361631D01*
X134291543Y-93300309D01*
X134294779Y-93235631D01*
X134303674Y-93208256D01*
X134323460Y-93020000D01*
X134303674Y-92831744D01*
X134245179Y-92651716D01*
X134150533Y-92487784D01*
X134023871Y-92347112D01*
X134023870Y-92347111D01*
X133870734Y-92235851D01*
X133870729Y-92235848D01*
X133697807Y-92158857D01*
X133697802Y-92158855D01*
X133519632Y-92120985D01*
X133512646Y-92119500D01*
X133323354Y-92119500D01*
X133316368Y-92120985D01*
X133138197Y-92158855D01*
X133138192Y-92158857D01*
X132965270Y-92235848D01*
X132965265Y-92235851D01*
X132812129Y-92347111D01*
X132812128Y-92347112D01*
X132748148Y-92418168D01*
X132688661Y-92454816D01*
X132618804Y-92453485D01*
X132563849Y-92418167D01*
X132561929Y-92416035D01*
X132499871Y-92347112D01*
X132499870Y-92347111D01*
X132346734Y-92235851D01*
X132346729Y-92235848D01*
X132173807Y-92158857D01*
X132173802Y-92158855D01*
X131995632Y-92120985D01*
X131988646Y-92119500D01*
X131884499Y-92119500D01*
X131817460Y-92099815D01*
X131771705Y-92047011D01*
X131760499Y-91995500D01*
X131760499Y-91326129D01*
X131760498Y-91326123D01*
X131760497Y-91326116D01*
X131754091Y-91266517D01*
X131749422Y-91254000D01*
X131741341Y-91232332D01*
X131736357Y-91162640D01*
X131741342Y-91145664D01*
X131754091Y-91111483D01*
X131755742Y-91096123D01*
X131760500Y-91051873D01*
X131760500Y-90904000D01*
X135310000Y-90904000D01*
X135310000Y-92651844D01*
X135316401Y-92711372D01*
X135316403Y-92711379D01*
X135366645Y-92846086D01*
X135366649Y-92846093D01*
X135452809Y-92961187D01*
X135452812Y-92961190D01*
X135567906Y-93047350D01*
X135567913Y-93047354D01*
X135702620Y-93097596D01*
X135702627Y-93097598D01*
X135762155Y-93103999D01*
X135762172Y-93104000D01*
X137510000Y-93104000D01*
X138010000Y-93104000D01*
X139757828Y-93104000D01*
X139757844Y-93103999D01*
X139817372Y-93097598D01*
X139817379Y-93097596D01*
X139952086Y-93047354D01*
X139952093Y-93047350D01*
X140067187Y-92961190D01*
X140067190Y-92961187D01*
X140153350Y-92846093D01*
X140153354Y-92846086D01*
X140203596Y-92711379D01*
X140203598Y-92711372D01*
X140209999Y-92651844D01*
X140210000Y-92651827D01*
X140210000Y-90904000D01*
X139063553Y-90904000D01*
X139204635Y-91045082D01*
X139238120Y-91106405D01*
X139233136Y-91176097D01*
X139191264Y-91232030D01*
X139152596Y-91248374D01*
X139153444Y-91250984D01*
X139098196Y-91268935D01*
X139060000Y-91321507D01*
X139060000Y-91321508D01*
X139060000Y-91386492D01*
X139098197Y-91439065D01*
X139144162Y-91454000D01*
X139153444Y-91457016D01*
X139152358Y-91460357D01*
X139199453Y-91482662D01*
X139236406Y-91541960D01*
X139235434Y-91611823D01*
X139204635Y-91662917D01*
X138771681Y-92095871D01*
X138710358Y-92129356D01*
X138640666Y-92124372D01*
X138584733Y-92082500D01*
X138568639Y-92039350D01*
X138566069Y-92040186D01*
X138560000Y-92021508D01*
X138521803Y-91968935D01*
X138475839Y-91954000D01*
X138475838Y-91954000D01*
X138444162Y-91954000D01*
X138444160Y-91954000D01*
X138398196Y-91968935D01*
X138359999Y-92021508D01*
X138353931Y-92040186D01*
X138350894Y-92039199D01*
X138340315Y-92075229D01*
X138287511Y-92120984D01*
X138218353Y-92130928D01*
X138154797Y-92101903D01*
X138148319Y-92095871D01*
X138010000Y-91957551D01*
X138010000Y-93104000D01*
X137510000Y-93104000D01*
X137510000Y-91957552D01*
X137509999Y-91957551D01*
X137371681Y-92095871D01*
X137310358Y-92129356D01*
X137240667Y-92124372D01*
X137184733Y-92082501D01*
X137168638Y-92039350D01*
X137166069Y-92040186D01*
X137160000Y-92021508D01*
X137121803Y-91968935D01*
X137075839Y-91954000D01*
X137075838Y-91954000D01*
X137044162Y-91954000D01*
X137044160Y-91954000D01*
X136998196Y-91968935D01*
X136959999Y-92021508D01*
X136953931Y-92040186D01*
X136950894Y-92039199D01*
X136940315Y-92075230D01*
X136887511Y-92120985D01*
X136818353Y-92130929D01*
X136754797Y-92101904D01*
X136748319Y-92095872D01*
X136315364Y-91662917D01*
X136281879Y-91601594D01*
X136286863Y-91531902D01*
X136328735Y-91475969D01*
X136367407Y-91459635D01*
X136366556Y-91457016D01*
X136375838Y-91454000D01*
X136421803Y-91439065D01*
X136460000Y-91386492D01*
X136460000Y-91354000D01*
X136713553Y-91354000D01*
X137060000Y-91700446D01*
X137373955Y-91386492D01*
X137660000Y-91386492D01*
X137698197Y-91439065D01*
X137744162Y-91454000D01*
X137744163Y-91454000D01*
X137775837Y-91454000D01*
X137775838Y-91454000D01*
X137821803Y-91439065D01*
X137860000Y-91386492D01*
X137860000Y-91354000D01*
X138113553Y-91354000D01*
X138460000Y-91700447D01*
X138806447Y-91354000D01*
X138460000Y-91007553D01*
X138113553Y-91354000D01*
X137860000Y-91354000D01*
X137860000Y-91321508D01*
X137821803Y-91268935D01*
X137814358Y-91266516D01*
X137775839Y-91254000D01*
X137775838Y-91254000D01*
X137744162Y-91254000D01*
X137744160Y-91254000D01*
X137698196Y-91268935D01*
X137660000Y-91321507D01*
X137660000Y-91321508D01*
X137660000Y-91386492D01*
X137373955Y-91386492D01*
X137406447Y-91354000D01*
X137060000Y-91007553D01*
X136713553Y-91354000D01*
X136460000Y-91354000D01*
X136460000Y-91321508D01*
X136421803Y-91268935D01*
X136375838Y-91254000D01*
X136366556Y-91250984D01*
X136367639Y-91247649D01*
X136320505Y-91225300D01*
X136283578Y-91165985D01*
X136284582Y-91096123D01*
X136315365Y-91045081D01*
X136360000Y-91000446D01*
X136456447Y-90904000D01*
X135310000Y-90904000D01*
X131760500Y-90904000D01*
X131760500Y-90686492D01*
X136960000Y-90686492D01*
X136998197Y-90739065D01*
X137044162Y-90754000D01*
X137044163Y-90754000D01*
X137075837Y-90754000D01*
X137075838Y-90754000D01*
X137121803Y-90739065D01*
X137160000Y-90686492D01*
X138360000Y-90686492D01*
X138398197Y-90739065D01*
X138444162Y-90754000D01*
X138444163Y-90754000D01*
X138475837Y-90754000D01*
X138475838Y-90754000D01*
X138521803Y-90739065D01*
X138560000Y-90686492D01*
X138560000Y-90621508D01*
X138521803Y-90568935D01*
X138507135Y-90564169D01*
X138475839Y-90554000D01*
X138475838Y-90554000D01*
X138444162Y-90554000D01*
X138444160Y-90554000D01*
X138398196Y-90568935D01*
X138377219Y-90597808D01*
X138360000Y-90621508D01*
X138360000Y-90686492D01*
X137160000Y-90686492D01*
X137160000Y-90621508D01*
X137121803Y-90568935D01*
X137107135Y-90564169D01*
X137075839Y-90554000D01*
X137075838Y-90554000D01*
X137044162Y-90554000D01*
X137044160Y-90554000D01*
X136998196Y-90568935D01*
X136977219Y-90597808D01*
X136960000Y-90621508D01*
X136960000Y-90686492D01*
X131760500Y-90686492D01*
X131760499Y-90404000D01*
X135310000Y-90404000D01*
X136456447Y-90404000D01*
X136456447Y-90403999D01*
X136315365Y-90262917D01*
X136281880Y-90201594D01*
X136286864Y-90131902D01*
X136328736Y-90075969D01*
X136367406Y-90059634D01*
X136366556Y-90057016D01*
X136375838Y-90054000D01*
X136421803Y-90039065D01*
X136460000Y-89986492D01*
X136460000Y-89954000D01*
X136713553Y-89954000D01*
X137060000Y-90300447D01*
X137373955Y-89986492D01*
X137660000Y-89986492D01*
X137698197Y-90039065D01*
X137744162Y-90054000D01*
X137744163Y-90054000D01*
X137775837Y-90054000D01*
X137775838Y-90054000D01*
X137821803Y-90039065D01*
X137860000Y-89986492D01*
X137860000Y-89954000D01*
X138113553Y-89954000D01*
X138460000Y-90300447D01*
X138806447Y-89954000D01*
X138806447Y-89953999D01*
X138460001Y-89607552D01*
X138459999Y-89607552D01*
X138113553Y-89953999D01*
X138113553Y-89954000D01*
X137860000Y-89954000D01*
X137860000Y-89921508D01*
X137821803Y-89868935D01*
X137821802Y-89868934D01*
X137775839Y-89854000D01*
X137775838Y-89854000D01*
X137744162Y-89854000D01*
X137744160Y-89854000D01*
X137698196Y-89868935D01*
X137668724Y-89909500D01*
X137660000Y-89921508D01*
X137660000Y-89986492D01*
X137373955Y-89986492D01*
X137406447Y-89954000D01*
X137406447Y-89953999D01*
X137060001Y-89607552D01*
X137059999Y-89607552D01*
X136713553Y-89953999D01*
X136713553Y-89954000D01*
X136460000Y-89954000D01*
X136460000Y-89921508D01*
X136421803Y-89868935D01*
X136375838Y-89854000D01*
X136366556Y-89850984D01*
X136367639Y-89847649D01*
X136320505Y-89825300D01*
X136283578Y-89765985D01*
X136284582Y-89696123D01*
X136315365Y-89645081D01*
X136360000Y-89600446D01*
X136748319Y-89212128D01*
X136809642Y-89178643D01*
X136879334Y-89183627D01*
X136935267Y-89225499D01*
X136951361Y-89268648D01*
X136953931Y-89267814D01*
X136959999Y-89286491D01*
X136960000Y-89286492D01*
X136998197Y-89339065D01*
X137044162Y-89354000D01*
X137044163Y-89354000D01*
X137075837Y-89354000D01*
X137075838Y-89354000D01*
X137121803Y-89339065D01*
X137160000Y-89286492D01*
X137160000Y-89286490D01*
X137166069Y-89267814D01*
X137169105Y-89268800D01*
X137179685Y-89232770D01*
X137232489Y-89187015D01*
X137301647Y-89177071D01*
X137365203Y-89206096D01*
X137371681Y-89212128D01*
X137509999Y-89350447D01*
X137510000Y-89350446D01*
X137510000Y-88204000D01*
X138010000Y-88204000D01*
X138010000Y-89350447D01*
X138148319Y-89212128D01*
X138209642Y-89178643D01*
X138279333Y-89183627D01*
X138335267Y-89225498D01*
X138351361Y-89268648D01*
X138353931Y-89267814D01*
X138359999Y-89286491D01*
X138360000Y-89286492D01*
X138398197Y-89339065D01*
X138444162Y-89354000D01*
X138444163Y-89354000D01*
X138475837Y-89354000D01*
X138475838Y-89354000D01*
X138521803Y-89339065D01*
X138560000Y-89286492D01*
X138560000Y-89286490D01*
X138566069Y-89267814D01*
X138569105Y-89268800D01*
X138579685Y-89232770D01*
X138632489Y-89187015D01*
X138701647Y-89177071D01*
X138765203Y-89206096D01*
X138771681Y-89212128D01*
X139204635Y-89645082D01*
X139238120Y-89706405D01*
X139233136Y-89776097D01*
X139191264Y-89832030D01*
X139152596Y-89848374D01*
X139153444Y-89850984D01*
X139098196Y-89868935D01*
X139068724Y-89909500D01*
X139060000Y-89921508D01*
X139060000Y-89986492D01*
X139098197Y-90039065D01*
X139144162Y-90054000D01*
X139153444Y-90057016D01*
X139152358Y-90060356D01*
X139199460Y-90082669D01*
X139236408Y-90141970D01*
X139235429Y-90211833D01*
X139204634Y-90262917D01*
X139063552Y-90403998D01*
X139063553Y-90404000D01*
X140210000Y-90404000D01*
X140210000Y-88656172D01*
X140209999Y-88656155D01*
X140203598Y-88596627D01*
X140203596Y-88596620D01*
X140153354Y-88461913D01*
X140153350Y-88461906D01*
X140067190Y-88346812D01*
X140067187Y-88346809D01*
X139952093Y-88260649D01*
X139952086Y-88260645D01*
X139817379Y-88210403D01*
X139817372Y-88210401D01*
X139757844Y-88204000D01*
X138010000Y-88204000D01*
X137510000Y-88204000D01*
X135762155Y-88204000D01*
X135702627Y-88210401D01*
X135702620Y-88210403D01*
X135567913Y-88260645D01*
X135567906Y-88260649D01*
X135452812Y-88346809D01*
X135452809Y-88346812D01*
X135366649Y-88461906D01*
X135366645Y-88461913D01*
X135316403Y-88596620D01*
X135316401Y-88596627D01*
X135310000Y-88656155D01*
X135310000Y-90404000D01*
X131760499Y-90404000D01*
X131760499Y-90056128D01*
X131754091Y-89996517D01*
X131741340Y-89962332D01*
X131736357Y-89892642D01*
X131741340Y-89875669D01*
X131754091Y-89841483D01*
X131760500Y-89781873D01*
X131760499Y-88786128D01*
X131754091Y-88726517D01*
X131751753Y-88720249D01*
X131741341Y-88692332D01*
X131736357Y-88622640D01*
X131741342Y-88605664D01*
X131754091Y-88571483D01*
X131754428Y-88568351D01*
X131760500Y-88511873D01*
X131760499Y-87516128D01*
X131754091Y-87456517D01*
X131741340Y-87422332D01*
X131736357Y-87352642D01*
X131741338Y-87335672D01*
X131754091Y-87301483D01*
X131760500Y-87241873D01*
X131760499Y-86246128D01*
X131760498Y-86246126D01*
X131760498Y-86246114D01*
X131759492Y-86236757D01*
X131771896Y-86167997D01*
X131819506Y-86116859D01*
X131882781Y-86099500D01*
X132563810Y-86099500D01*
X132630849Y-86119185D01*
X132671197Y-86161500D01*
X132674372Y-86166999D01*
X132685467Y-86186216D01*
X132751898Y-86259995D01*
X132812129Y-86326888D01*
X132965265Y-86438148D01*
X132965270Y-86438151D01*
X133138192Y-86515142D01*
X133138197Y-86515144D01*
X133323354Y-86554500D01*
X133323355Y-86554500D01*
X133512644Y-86554500D01*
X133512646Y-86554500D01*
X133697803Y-86515144D01*
X133870730Y-86438151D01*
X134023871Y-86326888D01*
X134150533Y-86186216D01*
X134245179Y-86022284D01*
X134303674Y-85842256D01*
X134323460Y-85654000D01*
X134303674Y-85465744D01*
X134245179Y-85285716D01*
X134150533Y-85121784D01*
X134023871Y-84981112D01*
X134007780Y-84969421D01*
X133870734Y-84869851D01*
X133870729Y-84869848D01*
X133697807Y-84792857D01*
X133697802Y-84792855D01*
X133550194Y-84761481D01*
X133512646Y-84753500D01*
X133323354Y-84753500D01*
X133209148Y-84777774D01*
X133159004Y-84788433D01*
X133089337Y-84783116D01*
X133033604Y-84740978D01*
X133009499Y-84675398D01*
X133015294Y-84628822D01*
X133033674Y-84572256D01*
X133053460Y-84384000D01*
X133033674Y-84195744D01*
X132975179Y-84015716D01*
X132880533Y-83851784D01*
X132753871Y-83711112D01*
X132746995Y-83706116D01*
X132600734Y-83599851D01*
X132600729Y-83599848D01*
X132427807Y-83522857D01*
X132427802Y-83522855D01*
X132279681Y-83491372D01*
X132242646Y-83483500D01*
X132242645Y-83483500D01*
X132202635Y-83483500D01*
X132177560Y-83480938D01*
X132130435Y-83471207D01*
X132055714Y-83453498D01*
X132048547Y-83452661D01*
X132048553Y-83452601D01*
X132041055Y-83451835D01*
X132041050Y-83451895D01*
X132033860Y-83451265D01*
X131957083Y-83453500D01*
X131884000Y-83453500D01*
X131816961Y-83433815D01*
X131771206Y-83381011D01*
X131760000Y-83329500D01*
X131760000Y-83184000D01*
X129260000Y-83184000D01*
X129260000Y-83338757D01*
X129240315Y-83405796D01*
X129187511Y-83451551D01*
X129146810Y-83462285D01*
X129127198Y-83464001D01*
X129120132Y-83465460D01*
X129120120Y-83465404D01*
X129112763Y-83467035D01*
X129112777Y-83467092D01*
X129105743Y-83468759D01*
X129033575Y-83495025D01*
X128960675Y-83519181D01*
X128954126Y-83522236D01*
X128954101Y-83522183D01*
X128947308Y-83525471D01*
X128947334Y-83525523D01*
X128940880Y-83528764D01*
X128876708Y-83570971D01*
X128811347Y-83611285D01*
X128805683Y-83615765D01*
X128805647Y-83615719D01*
X128799798Y-83620484D01*
X128799835Y-83620528D01*
X128794310Y-83625164D01*
X128794304Y-83625169D01*
X128794304Y-83625170D01*
X128778748Y-83641658D01*
X128741598Y-83681034D01*
X128121681Y-84300950D01*
X128060358Y-84334435D01*
X127990666Y-84329451D01*
X127934733Y-84287579D01*
X127910316Y-84222115D01*
X127910000Y-84213269D01*
X127910000Y-83877000D01*
X127173347Y-83877000D01*
X127106308Y-83857315D01*
X127060553Y-83804511D01*
X127050609Y-83735353D01*
X127054369Y-83718067D01*
X127060000Y-83698888D01*
X127060000Y-83555111D01*
X127054369Y-83535933D01*
X127054370Y-83466064D01*
X127092145Y-83407286D01*
X127155701Y-83378262D01*
X127173347Y-83377000D01*
X127910000Y-83377000D01*
X127910000Y-82729172D01*
X127909999Y-82729155D01*
X127905144Y-82684000D01*
X129260000Y-82684000D01*
X130260000Y-82684000D01*
X130260000Y-81984000D01*
X130760000Y-81984000D01*
X130760000Y-82684000D01*
X131760000Y-82684000D01*
X146760000Y-82684000D01*
X147760000Y-82684000D01*
X147760000Y-81984000D01*
X148260000Y-81984000D01*
X148260000Y-82684000D01*
X149260000Y-82684000D01*
X149260000Y-82436172D01*
X149259999Y-82436155D01*
X149253598Y-82376627D01*
X149253596Y-82376620D01*
X149203354Y-82241913D01*
X149203350Y-82241906D01*
X149117190Y-82126812D01*
X149117187Y-82126809D01*
X149002093Y-82040649D01*
X149002086Y-82040645D01*
X148867379Y-81990403D01*
X148867372Y-81990401D01*
X148807844Y-81984000D01*
X148260000Y-81984000D01*
X147760000Y-81984000D01*
X147212155Y-81984000D01*
X147152627Y-81990401D01*
X147152620Y-81990403D01*
X147017913Y-82040645D01*
X147017906Y-82040649D01*
X146902812Y-82126809D01*
X146902809Y-82126812D01*
X146816649Y-82241906D01*
X146816645Y-82241913D01*
X146766403Y-82376620D01*
X146766401Y-82376627D01*
X146760000Y-82436155D01*
X146760000Y-82684000D01*
X131760000Y-82684000D01*
X131760000Y-82436172D01*
X131759999Y-82436155D01*
X131753598Y-82376627D01*
X131753596Y-82376620D01*
X131703354Y-82241913D01*
X131703350Y-82241906D01*
X131617190Y-82126812D01*
X131617187Y-82126809D01*
X131502093Y-82040649D01*
X131502086Y-82040645D01*
X131367379Y-81990403D01*
X131367372Y-81990401D01*
X131307844Y-81984000D01*
X130760000Y-81984000D01*
X130260000Y-81984000D01*
X129712155Y-81984000D01*
X129652627Y-81990401D01*
X129652620Y-81990403D01*
X129517913Y-82040645D01*
X129517906Y-82040649D01*
X129402812Y-82126809D01*
X129402809Y-82126812D01*
X129316649Y-82241906D01*
X129316645Y-82241913D01*
X129266403Y-82376620D01*
X129266401Y-82376627D01*
X129260000Y-82436155D01*
X129260000Y-82684000D01*
X127905144Y-82684000D01*
X127903598Y-82669627D01*
X127903596Y-82669620D01*
X127853354Y-82534913D01*
X127853350Y-82534906D01*
X127767190Y-82419812D01*
X127767187Y-82419809D01*
X127652093Y-82333649D01*
X127652086Y-82333645D01*
X127517379Y-82283403D01*
X127517372Y-82283401D01*
X127457844Y-82277000D01*
X126810000Y-82277000D01*
X126810000Y-83014698D01*
X126790315Y-83081737D01*
X126737511Y-83127492D01*
X126668355Y-83137436D01*
X126595766Y-83127000D01*
X126595763Y-83127000D01*
X126524237Y-83127000D01*
X126524233Y-83127000D01*
X126451645Y-83137436D01*
X126382487Y-83127492D01*
X126329684Y-83081736D01*
X126310000Y-83014698D01*
X126310000Y-82277000D01*
X125662155Y-82277000D01*
X125602627Y-82283401D01*
X125602620Y-82283403D01*
X125467913Y-82333645D01*
X125467906Y-82333649D01*
X125352812Y-82419809D01*
X125352809Y-82419812D01*
X125266649Y-82534906D01*
X125266645Y-82534913D01*
X125216403Y-82669620D01*
X125216401Y-82669627D01*
X125210000Y-82729155D01*
X125210000Y-83377000D01*
X125946653Y-83377000D01*
X126013692Y-83396685D01*
X126059447Y-83449489D01*
X126069391Y-83518647D01*
X126065631Y-83535933D01*
X126060000Y-83555111D01*
X126060000Y-83698888D01*
X126065631Y-83718067D01*
X126065630Y-83787936D01*
X126027855Y-83846714D01*
X125964299Y-83875738D01*
X125946653Y-83877000D01*
X125210000Y-83877000D01*
X125210000Y-84524844D01*
X125216401Y-84584372D01*
X125216403Y-84584379D01*
X125266645Y-84719086D01*
X125266649Y-84719093D01*
X125352809Y-84834187D01*
X125352812Y-84834190D01*
X125467906Y-84920350D01*
X125467913Y-84920354D01*
X125599470Y-84969421D01*
X125655403Y-85011292D01*
X125679821Y-85076756D01*
X125664970Y-85145029D01*
X125643819Y-85173284D01*
X125521503Y-85295600D01*
X125385965Y-85489169D01*
X125385964Y-85489171D01*
X125309104Y-85653999D01*
X125288430Y-85698335D01*
X125286098Y-85703335D01*
X125286094Y-85703344D01*
X125224938Y-85931586D01*
X125224936Y-85931596D01*
X125204341Y-86166999D01*
X125204341Y-86167000D01*
X125224936Y-86402403D01*
X125224938Y-86402413D01*
X125286094Y-86630655D01*
X125286096Y-86630659D01*
X125286097Y-86630663D01*
X125383633Y-86839830D01*
X125385965Y-86844830D01*
X125385967Y-86844834D01*
X125521501Y-87038395D01*
X125521506Y-87038402D01*
X125688597Y-87205493D01*
X125688603Y-87205498D01*
X125874158Y-87335425D01*
X125917783Y-87390002D01*
X125924977Y-87459500D01*
X125893454Y-87521855D01*
X125874158Y-87538575D01*
X125688597Y-87668505D01*
X125521505Y-87835597D01*
X125385965Y-88029169D01*
X125385964Y-88029171D01*
X125304440Y-88204000D01*
X125288430Y-88238335D01*
X125286098Y-88243335D01*
X125286094Y-88243344D01*
X125224938Y-88471586D01*
X125224936Y-88471596D01*
X125204341Y-88706999D01*
X125204341Y-88707000D01*
X125224936Y-88942403D01*
X125224938Y-88942413D01*
X125286094Y-89170655D01*
X125286096Y-89170659D01*
X125286097Y-89170663D01*
X125369932Y-89350447D01*
X125385965Y-89384830D01*
X125385967Y-89384834D01*
X125521501Y-89578395D01*
X125521506Y-89578402D01*
X125688597Y-89745493D01*
X125688603Y-89745498D01*
X125874158Y-89875425D01*
X125917783Y-89930002D01*
X125924977Y-89999500D01*
X125893454Y-90061855D01*
X125874158Y-90078575D01*
X125688597Y-90208505D01*
X125521505Y-90375597D01*
X125385965Y-90569169D01*
X125385964Y-90569171D01*
X125299778Y-90753999D01*
X125288430Y-90778335D01*
X125286098Y-90783335D01*
X125286094Y-90783344D01*
X125224938Y-91011586D01*
X125224936Y-91011596D01*
X125204341Y-91246999D01*
X125204341Y-91247000D01*
X125224936Y-91482403D01*
X125224938Y-91482413D01*
X125286094Y-91710655D01*
X125286096Y-91710659D01*
X125286097Y-91710663D01*
X125383633Y-91919830D01*
X125385965Y-91924830D01*
X125385967Y-91924834D01*
X125521501Y-92118395D01*
X125521506Y-92118402D01*
X125688597Y-92285493D01*
X125688603Y-92285498D01*
X125874158Y-92415425D01*
X125917783Y-92470002D01*
X125924977Y-92539500D01*
X125893454Y-92601855D01*
X125874158Y-92618575D01*
X125688597Y-92748505D01*
X125521505Y-92915597D01*
X125385965Y-93109169D01*
X125385964Y-93109171D01*
X125326995Y-93235631D01*
X125288430Y-93318335D01*
X125286098Y-93323335D01*
X125286094Y-93323344D01*
X125224938Y-93551586D01*
X125224936Y-93551596D01*
X125204341Y-93786999D01*
X125204341Y-93787000D01*
X125224936Y-94022403D01*
X125224938Y-94022413D01*
X125286094Y-94250655D01*
X125286096Y-94250659D01*
X125286097Y-94250663D01*
X125335097Y-94355744D01*
X125385965Y-94464830D01*
X125385967Y-94464834D01*
X125521501Y-94658395D01*
X125521506Y-94658402D01*
X125688597Y-94825493D01*
X125688603Y-94825498D01*
X125874158Y-94955425D01*
X125917783Y-95010002D01*
X125924977Y-95079500D01*
X125893454Y-95141855D01*
X125874158Y-95158575D01*
X125688597Y-95288505D01*
X125521505Y-95455597D01*
X125385965Y-95649169D01*
X125385964Y-95649171D01*
X125331894Y-95765125D01*
X125288430Y-95858335D01*
X125286098Y-95863335D01*
X125286094Y-95863344D01*
X125224938Y-96091586D01*
X125224936Y-96091596D01*
X125204341Y-96326999D01*
X125204341Y-96327000D01*
X125224936Y-96562403D01*
X125224938Y-96562413D01*
X125286094Y-96790655D01*
X125286096Y-96790659D01*
X125286097Y-96790663D01*
X125293149Y-96805785D01*
X125385965Y-97004830D01*
X125385967Y-97004834D01*
X125521501Y-97198395D01*
X125521506Y-97198402D01*
X125688597Y-97365493D01*
X125688603Y-97365498D01*
X125874158Y-97495425D01*
X125917783Y-97550002D01*
X125924977Y-97619500D01*
X125893454Y-97681855D01*
X125874158Y-97698575D01*
X125688597Y-97828505D01*
X125521505Y-97995597D01*
X125385965Y-98189169D01*
X125385964Y-98189171D01*
X125292401Y-98389816D01*
X125288430Y-98398335D01*
X125286098Y-98403335D01*
X125286094Y-98403344D01*
X125224938Y-98631586D01*
X125224936Y-98631596D01*
X125204341Y-98866999D01*
X125204341Y-98867000D01*
X125224936Y-99102403D01*
X125224938Y-99102413D01*
X125286094Y-99330655D01*
X125286096Y-99330659D01*
X125286097Y-99330663D01*
X125345312Y-99457650D01*
X125385965Y-99544830D01*
X125385967Y-99544834D01*
X125521501Y-99738395D01*
X125521506Y-99738402D01*
X125688597Y-99905493D01*
X125688603Y-99905498D01*
X125874158Y-100035425D01*
X125917783Y-100090002D01*
X125924977Y-100159500D01*
X125893454Y-100221855D01*
X125874158Y-100238575D01*
X125688597Y-100368505D01*
X125521505Y-100535597D01*
X125385965Y-100729169D01*
X125385964Y-100729171D01*
X125322940Y-100864327D01*
X125288430Y-100938335D01*
X125286098Y-100943335D01*
X125286094Y-100943344D01*
X125224938Y-101171586D01*
X125224936Y-101171596D01*
X125204341Y-101406999D01*
X125204341Y-101407000D01*
X125224936Y-101642403D01*
X125224938Y-101642413D01*
X125286094Y-101870655D01*
X125286096Y-101870659D01*
X125286097Y-101870663D01*
X125337965Y-101981893D01*
X125385965Y-102084830D01*
X125385967Y-102084834D01*
X125521501Y-102278395D01*
X125521506Y-102278402D01*
X125688597Y-102445493D01*
X125688603Y-102445498D01*
X125874158Y-102575425D01*
X125917783Y-102630002D01*
X125924977Y-102699500D01*
X125893454Y-102761855D01*
X125874158Y-102778575D01*
X125688597Y-102908505D01*
X125521505Y-103075597D01*
X125385965Y-103269169D01*
X125385964Y-103269171D01*
X125339480Y-103368857D01*
X125288430Y-103478335D01*
X125286098Y-103483335D01*
X125286094Y-103483344D01*
X125224938Y-103711586D01*
X125224936Y-103711596D01*
X125204341Y-103946999D01*
X125204341Y-103947000D01*
X125224936Y-104182403D01*
X125224938Y-104182413D01*
X125286094Y-104410655D01*
X125286096Y-104410659D01*
X125286097Y-104410663D01*
X125363351Y-104576335D01*
X125385965Y-104624830D01*
X125385967Y-104624834D01*
X125487345Y-104769616D01*
X125498878Y-104786087D01*
X125521501Y-104818395D01*
X125521506Y-104818402D01*
X125688597Y-104985493D01*
X125688603Y-104985498D01*
X125874158Y-105115425D01*
X125917783Y-105170002D01*
X125924977Y-105239500D01*
X125893454Y-105301855D01*
X125874158Y-105318575D01*
X125688597Y-105448505D01*
X125521505Y-105615597D01*
X125385965Y-105809169D01*
X125385964Y-105809171D01*
X125312970Y-105965708D01*
X125288430Y-106018335D01*
X125286098Y-106023335D01*
X125286094Y-106023344D01*
X125224938Y-106251586D01*
X125224936Y-106251596D01*
X125204341Y-106486999D01*
X125204341Y-106487000D01*
X125224936Y-106722403D01*
X125224938Y-106722413D01*
X125286094Y-106950655D01*
X125286096Y-106950659D01*
X125286097Y-106950663D01*
X125344131Y-107075117D01*
X125385965Y-107164830D01*
X125385967Y-107164834D01*
X125482563Y-107302786D01*
X125513742Y-107347315D01*
X125521501Y-107358395D01*
X125521506Y-107358402D01*
X125688597Y-107525493D01*
X125688603Y-107525498D01*
X125874158Y-107655425D01*
X125917783Y-107710002D01*
X125924977Y-107779500D01*
X125893454Y-107841855D01*
X125874158Y-107858575D01*
X125688597Y-107988505D01*
X125521505Y-108155597D01*
X125385965Y-108349169D01*
X125385964Y-108349171D01*
X125298852Y-108535983D01*
X125288430Y-108558335D01*
X125286098Y-108563335D01*
X125286094Y-108563344D01*
X125224938Y-108791586D01*
X125224936Y-108791596D01*
X125204341Y-109026999D01*
X125204341Y-109027000D01*
X125224936Y-109262403D01*
X125224938Y-109262413D01*
X125286094Y-109490655D01*
X125286096Y-109490659D01*
X125286097Y-109490663D01*
X125381329Y-109694888D01*
X125385965Y-109704830D01*
X125385967Y-109704834D01*
X125521501Y-109898395D01*
X125521506Y-109898402D01*
X125688597Y-110065493D01*
X125688603Y-110065498D01*
X125874158Y-110195425D01*
X125917783Y-110250002D01*
X125924977Y-110319500D01*
X125893454Y-110381855D01*
X125874158Y-110398575D01*
X125688597Y-110528505D01*
X125521505Y-110695597D01*
X125385965Y-110889169D01*
X125385964Y-110889171D01*
X125298703Y-111076304D01*
X125288430Y-111098335D01*
X125286098Y-111103335D01*
X125286094Y-111103344D01*
X125224938Y-111331586D01*
X125224936Y-111331596D01*
X125204341Y-111566999D01*
X125204341Y-111567000D01*
X125224936Y-111802403D01*
X125224938Y-111802413D01*
X125286094Y-112030655D01*
X125286096Y-112030659D01*
X125286097Y-112030663D01*
X125349916Y-112167522D01*
X125385965Y-112244830D01*
X125385967Y-112244834D01*
X125521501Y-112438395D01*
X125521506Y-112438402D01*
X125688597Y-112605493D01*
X125688603Y-112605498D01*
X125874158Y-112735425D01*
X125917783Y-112790002D01*
X125924977Y-112859500D01*
X125893454Y-112921855D01*
X125874158Y-112938575D01*
X125688597Y-113068505D01*
X125521505Y-113235597D01*
X125385965Y-113429169D01*
X125385964Y-113429171D01*
X125320395Y-113569785D01*
X125288430Y-113638335D01*
X125286098Y-113643335D01*
X125286094Y-113643344D01*
X125224938Y-113871586D01*
X125224936Y-113871596D01*
X125204341Y-114106999D01*
X125204341Y-114107000D01*
X125224937Y-114342408D01*
X125251855Y-114442873D01*
X125250192Y-114512723D01*
X125219761Y-114562646D01*
X125001208Y-114781199D01*
X124988951Y-114791020D01*
X124989134Y-114791241D01*
X124983123Y-114796213D01*
X124935772Y-114846636D01*
X124914889Y-114867519D01*
X124914877Y-114867532D01*
X124910621Y-114873017D01*
X124906837Y-114877447D01*
X124874937Y-114911418D01*
X124874936Y-114911420D01*
X124865284Y-114928976D01*
X124854610Y-114945226D01*
X124842329Y-114961061D01*
X124842324Y-114961068D01*
X124823815Y-115003838D01*
X124821245Y-115009084D01*
X124798803Y-115049906D01*
X124793822Y-115069307D01*
X124787521Y-115087710D01*
X124779562Y-115106102D01*
X124779560Y-115106107D01*
X124774973Y-115135073D01*
X124745043Y-115198208D01*
X124685731Y-115235138D01*
X124615869Y-115234140D01*
X124557636Y-115195529D01*
X124529522Y-115131565D01*
X124528500Y-115115674D01*
X124528500Y-83338035D01*
X124528633Y-83333980D01*
X124531436Y-83291202D01*
X124533989Y-83252244D01*
X124546986Y-83070536D01*
X124548014Y-83062903D01*
X124571153Y-82946579D01*
X124572118Y-82942141D01*
X124602533Y-82802323D01*
X124604392Y-82795625D01*
X124644815Y-82676543D01*
X124694159Y-82544251D01*
X124696633Y-82538520D01*
X124753583Y-82423036D01*
X124820179Y-82301076D01*
X124823019Y-82296384D01*
X124894563Y-82189311D01*
X124896428Y-82186676D01*
X124978291Y-82077321D01*
X124981244Y-82073678D01*
X125066503Y-81976459D01*
X125069198Y-81973581D01*
X125165581Y-81877198D01*
X125168459Y-81874503D01*
X125265678Y-81789244D01*
X125269321Y-81786291D01*
X125378676Y-81704428D01*
X125381311Y-81702563D01*
X125488384Y-81631019D01*
X125493076Y-81628179D01*
X125615036Y-81561583D01*
X125730525Y-81504630D01*
X125736230Y-81502167D01*
X125868569Y-81452807D01*
X125875131Y-81450579D01*
X125914986Y-81444000D01*
X152605015Y-81444000D01*
X152644867Y-81450579D01*
G37*
%TD.AperFunction*%
%TA.AperFunction,Conductor*%
G36*
X135505203Y-126602215D02*
G01*
X135516144Y-126612950D01*
X135517652Y-126614625D01*
X135547880Y-126677616D01*
X135549500Y-126697594D01*
X135549500Y-127338920D01*
X135549501Y-127471000D01*
X135529817Y-127538039D01*
X135477013Y-127583794D01*
X135425501Y-127595000D01*
X134854000Y-127595000D01*
X134786961Y-127575315D01*
X134741206Y-127522511D01*
X134730000Y-127471000D01*
X134730000Y-127367200D01*
X134730000Y-127367198D01*
X134714588Y-127284750D01*
X134714586Y-127284748D01*
X134712476Y-127273456D01*
X134714365Y-127273102D01*
X134710000Y-127249728D01*
X134710000Y-127219000D01*
X134729685Y-127151961D01*
X134782489Y-127106206D01*
X134834000Y-127095000D01*
X135300000Y-127095000D01*
X135300000Y-126695928D01*
X135319685Y-126628889D01*
X135372489Y-126583134D01*
X135441647Y-126573190D01*
X135505203Y-126602215D01*
G37*
%TD.AperFunction*%
%TA.AperFunction,Conductor*%
G36*
X142143039Y-126810185D02*
G01*
X142188794Y-126862989D01*
X142200000Y-126914500D01*
X142200000Y-127471000D01*
X142180315Y-127538039D01*
X142127511Y-127583794D01*
X142076000Y-127595000D01*
X142074500Y-127595000D01*
X142007461Y-127575315D01*
X141961706Y-127522511D01*
X141950500Y-127471000D01*
X141950499Y-126914500D01*
X141970183Y-126847461D01*
X142022987Y-126801706D01*
X142074499Y-126790500D01*
X142076000Y-126790500D01*
X142143039Y-126810185D01*
G37*
%TD.AperFunction*%
%TA.AperFunction,Conductor*%
G36*
X137461427Y-125403803D02*
G01*
X137473828Y-125420851D01*
X137508915Y-125478891D01*
X137540528Y-125531185D01*
X137552496Y-125543153D01*
X137585981Y-125604476D01*
X137580997Y-125674168D01*
X137552496Y-125718515D01*
X137505384Y-125765627D01*
X137463347Y-125793240D01*
X137429884Y-125806488D01*
X137424358Y-125808379D01*
X137379614Y-125821379D01*
X137379610Y-125821381D01*
X137362366Y-125831579D01*
X137344905Y-125840133D01*
X137326274Y-125847510D01*
X137326262Y-125847517D01*
X137288569Y-125874903D01*
X137283684Y-125878111D01*
X137268063Y-125887349D01*
X137200339Y-125904530D01*
X137134077Y-125882370D01*
X137090315Y-125827903D01*
X137087018Y-125818949D01*
X137052742Y-125713461D01*
X137050748Y-125643622D01*
X137086828Y-125583789D01*
X137099926Y-125573308D01*
X137100170Y-125573139D01*
X137100174Y-125573136D01*
X137201886Y-125485002D01*
X137208939Y-125478891D01*
X137208940Y-125478890D01*
X137209819Y-125477876D01*
X137274003Y-125403802D01*
X137332779Y-125366029D01*
X137402649Y-125366029D01*
X137461427Y-125403803D01*
G37*
%TD.AperFunction*%
%TA.AperFunction,Conductor*%
G36*
X132558039Y-122388185D02*
G01*
X132603794Y-122440989D01*
X132615000Y-122492500D01*
X132615000Y-122622644D01*
X132617899Y-122659489D01*
X132617900Y-122659495D01*
X132663716Y-122817193D01*
X132663717Y-122817196D01*
X132747314Y-122958552D01*
X132747321Y-122958561D01*
X132863438Y-123074678D01*
X132863447Y-123074685D01*
X133004803Y-123158282D01*
X133004806Y-123158283D01*
X133162504Y-123204099D01*
X133162510Y-123204100D01*
X133199356Y-123207000D01*
X133261428Y-123207000D01*
X133328467Y-123226685D01*
X133374222Y-123279489D01*
X133384166Y-123348647D01*
X133355141Y-123412203D01*
X133328467Y-123435316D01*
X133291831Y-123458860D01*
X133291829Y-123458861D01*
X133291830Y-123458861D01*
X133291826Y-123458864D01*
X133278596Y-123470327D01*
X133183060Y-123553108D01*
X133183058Y-123553110D01*
X133088911Y-123661762D01*
X133088896Y-123661783D01*
X133011105Y-123782828D01*
X133011095Y-123782846D01*
X132995036Y-123818012D01*
X132949281Y-123870816D01*
X132882242Y-123890500D01*
X132851748Y-123890500D01*
X132784709Y-123870815D01*
X132759600Y-123849474D01*
X132753873Y-123843114D01*
X132753869Y-123843110D01*
X132600734Y-123731851D01*
X132600729Y-123731848D01*
X132427807Y-123654857D01*
X132427802Y-123654855D01*
X132290255Y-123625619D01*
X132228773Y-123592427D01*
X132194997Y-123531264D01*
X132199649Y-123461549D01*
X132210498Y-123439231D01*
X132298544Y-123296488D01*
X132298547Y-123296481D01*
X132351855Y-123135606D01*
X132361999Y-123036322D01*
X132362000Y-123036309D01*
X132362000Y-122988000D01*
X131286000Y-122988000D01*
X131218961Y-122968315D01*
X131173206Y-122915511D01*
X131162000Y-122864000D01*
X131162000Y-122612000D01*
X131181685Y-122544961D01*
X131234489Y-122499206D01*
X131286000Y-122488000D01*
X132361999Y-122488000D01*
X132363869Y-122486129D01*
X132381684Y-122425461D01*
X132434488Y-122379706D01*
X132485999Y-122368500D01*
X132491000Y-122368500D01*
X132558039Y-122388185D01*
G37*
%TD.AperFunction*%
%TA.AperFunction,Conductor*%
G36*
X138582688Y-123129185D02*
G01*
X138600531Y-123143107D01*
X138607882Y-123150010D01*
X138628761Y-123170889D01*
X138634235Y-123175135D01*
X138638673Y-123178925D01*
X138672649Y-123210831D01*
X138690204Y-123220482D01*
X138706462Y-123231161D01*
X138722295Y-123243443D01*
X138743871Y-123252779D01*
X138756393Y-123258198D01*
X138810102Y-123302888D01*
X138831123Y-123369520D01*
X138812783Y-123436940D01*
X138760905Y-123483742D01*
X138707148Y-123496000D01*
X138245000Y-123496000D01*
X138177961Y-123476315D01*
X138132206Y-123423511D01*
X138121000Y-123372000D01*
X138121000Y-123233500D01*
X138140685Y-123166461D01*
X138193489Y-123120706D01*
X138245000Y-123109500D01*
X138515649Y-123109500D01*
X138582688Y-123129185D01*
G37*
%TD.AperFunction*%
%TA.AperFunction,Conductor*%
G36*
X140349016Y-123044819D02*
G01*
X140391053Y-123100628D01*
X140399000Y-123144306D01*
X140399000Y-123372000D01*
X140379315Y-123439039D01*
X140326511Y-123484794D01*
X140275000Y-123496000D01*
X139817429Y-123496000D01*
X139750390Y-123476315D01*
X139704635Y-123423511D01*
X139694691Y-123354353D01*
X139723716Y-123290797D01*
X139771783Y-123256707D01*
X139775132Y-123255380D01*
X139780501Y-123253255D01*
X139818218Y-123225851D01*
X139823074Y-123222661D01*
X139863189Y-123198939D01*
X139877358Y-123184768D01*
X139892148Y-123172137D01*
X139908356Y-123160363D01*
X139910077Y-123158283D01*
X139915559Y-123151656D01*
X139973457Y-123112546D01*
X140007217Y-123106753D01*
X140008627Y-123106709D01*
X140027869Y-123101117D01*
X140046912Y-123097174D01*
X140066792Y-123094664D01*
X140110122Y-123077507D01*
X140115646Y-123075617D01*
X140119396Y-123074527D01*
X140160390Y-123062618D01*
X140177629Y-123052422D01*
X140195103Y-123043862D01*
X140213729Y-123036487D01*
X140213727Y-123036487D01*
X140213732Y-123036486D01*
X140213735Y-123036483D01*
X140215251Y-123035651D01*
X140216588Y-123035355D01*
X140220988Y-123033614D01*
X140221268Y-123034323D01*
X140283479Y-123020596D01*
X140349016Y-123044819D01*
G37*
%TD.AperFunction*%
%TA.AperFunction,Conductor*%
G36*
X149359703Y-114920126D02*
G01*
X149385233Y-114950720D01*
X149386827Y-114953416D01*
X149386833Y-114953424D01*
X149400990Y-114967580D01*
X149413628Y-114982376D01*
X149425405Y-114998586D01*
X149425406Y-114998587D01*
X149461309Y-115028288D01*
X149465620Y-115032210D01*
X149986214Y-115552804D01*
X150479442Y-116046032D01*
X150512927Y-116107355D01*
X150507943Y-116177047D01*
X150487314Y-116212742D01*
X150482718Y-116218299D01*
X150478780Y-116222627D01*
X150052208Y-116649199D01*
X150039951Y-116659020D01*
X150040134Y-116659241D01*
X150034123Y-116664213D01*
X149986772Y-116714636D01*
X149965889Y-116735519D01*
X149965877Y-116735532D01*
X149961621Y-116741017D01*
X149957837Y-116745447D01*
X149925937Y-116779418D01*
X149925936Y-116779420D01*
X149916284Y-116796976D01*
X149905610Y-116813226D01*
X149893329Y-116829061D01*
X149893324Y-116829068D01*
X149874815Y-116871838D01*
X149872245Y-116877084D01*
X149849803Y-116917906D01*
X149844822Y-116937307D01*
X149838521Y-116955710D01*
X149830562Y-116974102D01*
X149830561Y-116974105D01*
X149823271Y-117020127D01*
X149822087Y-117025846D01*
X149810501Y-117070972D01*
X149810500Y-117070982D01*
X149810500Y-117091016D01*
X149808973Y-117110415D01*
X149805840Y-117130194D01*
X149805840Y-117130195D01*
X149810225Y-117176583D01*
X149810500Y-117182421D01*
X149810500Y-122213685D01*
X149790815Y-122280724D01*
X149738011Y-122326479D01*
X149668853Y-122336423D01*
X149605297Y-122307398D01*
X149568794Y-122252689D01*
X149544547Y-122179518D01*
X149544542Y-122179507D01*
X149455575Y-122035271D01*
X149455572Y-122035267D01*
X149335732Y-121915427D01*
X149335728Y-121915424D01*
X149191492Y-121826457D01*
X149191481Y-121826452D01*
X149030606Y-121773144D01*
X148931322Y-121763000D01*
X148908000Y-121763000D01*
X148908000Y-122864000D01*
X148888315Y-122931039D01*
X148835511Y-122976794D01*
X148784000Y-122988000D01*
X148532000Y-122988000D01*
X148464961Y-122968315D01*
X148419206Y-122915511D01*
X148408000Y-122864000D01*
X148408000Y-121743748D01*
X148397674Y-121724839D01*
X148402656Y-121655147D01*
X148444525Y-121599212D01*
X148493055Y-121577186D01*
X148540303Y-121567144D01*
X148540307Y-121567142D01*
X148540308Y-121567142D01*
X148658881Y-121514349D01*
X148713230Y-121490151D01*
X148866371Y-121378888D01*
X148993033Y-121238216D01*
X149087679Y-121074284D01*
X149146174Y-120894256D01*
X149165960Y-120706000D01*
X149146174Y-120517744D01*
X149113274Y-120416491D01*
X149111280Y-120346652D01*
X149147360Y-120286819D01*
X149166103Y-120272640D01*
X149232044Y-120231968D01*
X149351968Y-120112044D01*
X149441003Y-119967697D01*
X149494349Y-119806708D01*
X149504500Y-119707345D01*
X149504499Y-119160656D01*
X149494349Y-119061292D01*
X149441003Y-118900303D01*
X149440999Y-118900297D01*
X149440998Y-118900294D01*
X149351970Y-118755959D01*
X149351969Y-118755958D01*
X149351968Y-118755956D01*
X149232044Y-118636032D01*
X149213399Y-118624531D01*
X149166677Y-118572582D01*
X149154500Y-118518995D01*
X149154500Y-117835325D01*
X149155809Y-117817355D01*
X149156824Y-117810425D01*
X149159289Y-117793597D01*
X149154735Y-117741551D01*
X149154500Y-117736148D01*
X149154500Y-117727917D01*
X149154500Y-117727911D01*
X149150693Y-117695344D01*
X149147634Y-117660376D01*
X149143999Y-117618821D01*
X149142539Y-117611749D01*
X149142597Y-117611736D01*
X149140965Y-117604377D01*
X149140906Y-117604392D01*
X149139242Y-117597373D01*
X149139241Y-117597365D01*
X149112974Y-117525196D01*
X149088814Y-117452286D01*
X149088809Y-117452279D01*
X149085760Y-117445738D01*
X149085815Y-117445711D01*
X149082533Y-117438933D01*
X149082480Y-117438960D01*
X149079235Y-117432500D01*
X149037028Y-117368328D01*
X148996710Y-117302962D01*
X148992234Y-117297302D01*
X148992281Y-117297264D01*
X148987519Y-117291419D01*
X148987474Y-117291458D01*
X148982834Y-117285929D01*
X148982832Y-117285927D01*
X148982830Y-117285924D01*
X148953377Y-117258136D01*
X148918124Y-117197814D01*
X148921080Y-117128007D01*
X148961308Y-117070880D01*
X148999468Y-117050238D01*
X149087697Y-117021003D01*
X149232044Y-116931968D01*
X149351968Y-116812044D01*
X149441003Y-116667697D01*
X149494349Y-116506708D01*
X149504500Y-116407345D01*
X149504499Y-115860656D01*
X149504330Y-115859005D01*
X149494349Y-115761292D01*
X149494348Y-115761289D01*
X149487791Y-115741500D01*
X149441003Y-115600303D01*
X149440999Y-115600297D01*
X149440998Y-115600294D01*
X149351970Y-115455959D01*
X149351969Y-115455958D01*
X149351968Y-115455956D01*
X149232044Y-115336032D01*
X149213399Y-115324531D01*
X149166677Y-115272582D01*
X149154500Y-115218995D01*
X149154500Y-115013839D01*
X149174185Y-114946800D01*
X149226989Y-114901045D01*
X149296147Y-114891101D01*
X149359703Y-114920126D01*
G37*
%TD.AperFunction*%
%TA.AperFunction,Conductor*%
G36*
X137457834Y-120955268D02*
G01*
X137513767Y-120997140D01*
X137538184Y-121062604D01*
X137538500Y-121071449D01*
X137538500Y-121244403D01*
X137552988Y-121354463D01*
X137552991Y-121354472D01*
X137609217Y-121490214D01*
X137609721Y-121491429D01*
X137699964Y-121609036D01*
X137735268Y-121636126D01*
X137776469Y-121692552D01*
X137780624Y-121762298D01*
X137746412Y-121823219D01*
X137684694Y-121855971D01*
X137659780Y-121858500D01*
X137310743Y-121858500D01*
X137295122Y-121856775D01*
X137295095Y-121857061D01*
X137287333Y-121856326D01*
X137218172Y-121858500D01*
X137188649Y-121858500D01*
X137181778Y-121859367D01*
X137175959Y-121859825D01*
X137129374Y-121861289D01*
X137129368Y-121861290D01*
X137110126Y-121866880D01*
X137091087Y-121870823D01*
X137071217Y-121873334D01*
X137071203Y-121873337D01*
X137027883Y-121890488D01*
X137022358Y-121892380D01*
X136977613Y-121905380D01*
X136977610Y-121905381D01*
X136960366Y-121915579D01*
X136942905Y-121924133D01*
X136924274Y-121931510D01*
X136924262Y-121931517D01*
X136886570Y-121958902D01*
X136881687Y-121962109D01*
X136841580Y-121985829D01*
X136827414Y-121999995D01*
X136812624Y-122012627D01*
X136796414Y-122024404D01*
X136796411Y-122024407D01*
X136766710Y-122060309D01*
X136762777Y-122064631D01*
X136653820Y-122173588D01*
X136592497Y-122207072D01*
X136522805Y-122202088D01*
X136466872Y-122160216D01*
X136448208Y-122124224D01*
X136438225Y-122093500D01*
X136419306Y-122035271D01*
X136404181Y-121988721D01*
X136404178Y-121988715D01*
X136347095Y-121889844D01*
X136330623Y-121821946D01*
X136353476Y-121755919D01*
X136408397Y-121712728D01*
X136428689Y-121706559D01*
X136491803Y-121693144D01*
X136491807Y-121693142D01*
X136491808Y-121693142D01*
X136574654Y-121656256D01*
X136664730Y-121616151D01*
X136817871Y-121504888D01*
X136944533Y-121364216D01*
X136944539Y-121364205D01*
X136945766Y-121362517D01*
X136947407Y-121361023D01*
X136948882Y-121359386D01*
X136949045Y-121359533D01*
X136975006Y-121335912D01*
X136974259Y-121334948D01*
X136980411Y-121330174D01*
X136980420Y-121330170D01*
X136994589Y-121315999D01*
X137009379Y-121303368D01*
X137025587Y-121291594D01*
X137055299Y-121255676D01*
X137059212Y-121251376D01*
X137326822Y-120983767D01*
X137388142Y-120950284D01*
X137457834Y-120955268D01*
G37*
%TD.AperFunction*%
%TA.AperFunction,Conductor*%
G36*
X147309220Y-120714185D02*
G01*
X147354975Y-120766989D01*
X147365501Y-120805535D01*
X147374826Y-120894256D01*
X147374827Y-120894259D01*
X147433318Y-121074277D01*
X147433321Y-121074284D01*
X147527967Y-121238216D01*
X147641418Y-121364216D01*
X147654629Y-121378888D01*
X147807765Y-121490148D01*
X147807770Y-121490151D01*
X147980691Y-121567142D01*
X147980693Y-121567142D01*
X147980697Y-121567144D01*
X148098965Y-121592282D01*
X148160443Y-121625473D01*
X148194220Y-121686635D01*
X148189568Y-121756350D01*
X148147964Y-121812483D01*
X148125599Y-121825947D01*
X148124518Y-121826450D01*
X147980271Y-121915424D01*
X147980265Y-121915428D01*
X147971031Y-121924663D01*
X147909707Y-121958146D01*
X147840015Y-121953159D01*
X147795672Y-121924660D01*
X147786044Y-121915032D01*
X147786040Y-121915029D01*
X147641705Y-121826001D01*
X147641699Y-121825998D01*
X147641697Y-121825997D01*
X147641546Y-121825947D01*
X147480709Y-121772651D01*
X147381352Y-121762500D01*
X147381345Y-121762500D01*
X147068453Y-121762500D01*
X147001414Y-121742815D01*
X146980772Y-121726181D01*
X146638942Y-121384351D01*
X146605457Y-121323028D01*
X146603302Y-121309632D01*
X146603247Y-121309105D01*
X146592595Y-121207754D01*
X146534100Y-121027726D01*
X146449098Y-120880499D01*
X146432626Y-120812600D01*
X146455479Y-120746573D01*
X146510400Y-120703382D01*
X146556486Y-120694500D01*
X147242181Y-120694500D01*
X147309220Y-120714185D01*
G37*
%TD.AperFunction*%
%TA.AperFunction,Conductor*%
G36*
X133943733Y-121187840D02*
G01*
X133993980Y-121236389D01*
X134004568Y-121260782D01*
X134014438Y-121292453D01*
X134023522Y-121321606D01*
X134099201Y-121446794D01*
X134117037Y-121514349D01*
X134095519Y-121580823D01*
X134041479Y-121625110D01*
X133972073Y-121633151D01*
X133929963Y-121617676D01*
X133825196Y-121555717D01*
X133825193Y-121555715D01*
X133687297Y-121515653D01*
X133628411Y-121478047D01*
X133599205Y-121414574D01*
X133608951Y-121345388D01*
X133654555Y-121292453D01*
X133661696Y-121288634D01*
X133661671Y-121288592D01*
X133674590Y-121280951D01*
X133685629Y-121274422D01*
X133703103Y-121265862D01*
X133721727Y-121258488D01*
X133721727Y-121258487D01*
X133721732Y-121258486D01*
X133759449Y-121231082D01*
X133764305Y-121227892D01*
X133804420Y-121204170D01*
X133804425Y-121204164D01*
X133810180Y-121199701D01*
X133875215Y-121174163D01*
X133943733Y-121187840D01*
G37*
%TD.AperFunction*%
%TA.AperFunction,Conductor*%
G36*
X130608100Y-108990635D02*
G01*
X130663837Y-109032768D01*
X130682606Y-109069718D01*
X130721522Y-109194606D01*
X130744303Y-109232291D01*
X130809530Y-109340188D01*
X130911661Y-109442319D01*
X130945146Y-109503642D01*
X130940162Y-109573334D01*
X130911661Y-109617681D01*
X130809531Y-109719810D01*
X130809530Y-109719811D01*
X130721522Y-109865393D01*
X130670913Y-110027807D01*
X130664500Y-110098386D01*
X130664500Y-110611613D01*
X130670913Y-110682192D01*
X130670913Y-110682194D01*
X130670914Y-110682196D01*
X130721522Y-110844606D01*
X130783851Y-110947711D01*
X130809530Y-110990188D01*
X130929811Y-111110469D01*
X130929813Y-111110470D01*
X130929815Y-111110472D01*
X130990655Y-111147251D01*
X131051551Y-111184064D01*
X131055031Y-111186331D01*
X131090388Y-111211088D01*
X131090393Y-111211090D01*
X131090395Y-111211091D01*
X131253429Y-111275861D01*
X131253431Y-111275861D01*
X131253433Y-111275862D01*
X131427023Y-111301289D01*
X131601797Y-111285999D01*
X131674842Y-111261794D01*
X131713847Y-111255500D01*
X131971613Y-111255500D01*
X131971616Y-111255500D01*
X132042196Y-111249086D01*
X132204606Y-111198478D01*
X132350185Y-111110472D01*
X132433574Y-111027081D01*
X132453110Y-111011166D01*
X132488283Y-110988034D01*
X132553656Y-110947712D01*
X132553664Y-110947703D01*
X132559325Y-110943229D01*
X132559362Y-110943277D01*
X132565204Y-110938518D01*
X132565164Y-110938471D01*
X132570686Y-110933836D01*
X132570696Y-110933830D01*
X132592398Y-110910825D01*
X132623386Y-110877982D01*
X132686354Y-110815013D01*
X132743320Y-110758046D01*
X132804641Y-110724563D01*
X132874333Y-110729547D01*
X132930267Y-110771418D01*
X132954684Y-110836882D01*
X132955000Y-110845729D01*
X132955000Y-110865000D01*
X135404999Y-110865000D01*
X135404999Y-110815028D01*
X135404998Y-110815013D01*
X135394506Y-110712304D01*
X135338608Y-110543619D01*
X135336206Y-110473790D01*
X135371937Y-110413748D01*
X135434458Y-110382555D01*
X135503917Y-110390115D01*
X135536020Y-110409625D01*
X135542786Y-110415302D01*
X135542788Y-110415303D01*
X135548823Y-110419272D01*
X135548789Y-110419322D01*
X135555144Y-110423370D01*
X135555177Y-110423318D01*
X135561319Y-110427107D01*
X135561323Y-110427110D01*
X135630913Y-110459561D01*
X135630914Y-110459561D01*
X135699558Y-110494036D01*
X135699561Y-110494037D01*
X135699567Y-110494040D01*
X135699572Y-110494041D01*
X135706355Y-110496510D01*
X135706334Y-110496567D01*
X135713451Y-110499040D01*
X135713470Y-110498984D01*
X135720330Y-110501257D01*
X135795532Y-110516784D01*
X135870279Y-110534500D01*
X135870288Y-110534500D01*
X135877452Y-110535338D01*
X135877445Y-110535397D01*
X135884946Y-110536163D01*
X135884952Y-110536104D01*
X135892140Y-110536733D01*
X135892143Y-110536732D01*
X135892144Y-110536733D01*
X135968898Y-110534500D01*
X138385500Y-110534500D01*
X138452539Y-110554185D01*
X138498294Y-110606989D01*
X138509500Y-110658500D01*
X138509500Y-111698023D01*
X138489815Y-111765062D01*
X138437011Y-111810817D01*
X138409865Y-111818266D01*
X138410068Y-111819124D01*
X138402520Y-111820907D01*
X138267671Y-111871202D01*
X138267669Y-111871204D01*
X138183894Y-111933918D01*
X138118430Y-111958335D01*
X138050157Y-111943484D01*
X138035272Y-111933918D01*
X137952088Y-111871646D01*
X137952086Y-111871645D01*
X137817379Y-111821403D01*
X137817372Y-111821401D01*
X137757844Y-111815000D01*
X137210000Y-111815000D01*
X137210000Y-114815000D01*
X137757828Y-114815000D01*
X137757844Y-114814999D01*
X137817372Y-114808598D01*
X137817379Y-114808596D01*
X137952086Y-114758354D01*
X137952089Y-114758352D01*
X138035271Y-114696082D01*
X138100735Y-114671664D01*
X138169008Y-114686515D01*
X138183887Y-114696077D01*
X138267076Y-114758352D01*
X138267668Y-114758795D01*
X138267671Y-114758797D01*
X138402517Y-114809091D01*
X138402516Y-114809091D01*
X138409444Y-114809835D01*
X138462127Y-114815500D01*
X140057872Y-114815499D01*
X140117483Y-114809091D01*
X140252331Y-114758796D01*
X140335689Y-114696393D01*
X140401153Y-114671977D01*
X140469426Y-114686828D01*
X140484311Y-114696394D01*
X140567669Y-114758796D01*
X140567671Y-114758797D01*
X140702517Y-114809091D01*
X140702516Y-114809091D01*
X140709444Y-114809835D01*
X140762127Y-114815500D01*
X142172500Y-114815499D01*
X142239539Y-114835184D01*
X142285294Y-114887987D01*
X142296500Y-114939499D01*
X142296500Y-116170500D01*
X142276815Y-116237539D01*
X142224011Y-116283294D01*
X142172500Y-116294500D01*
X141913499Y-116294500D01*
X141846460Y-116274815D01*
X141800705Y-116222011D01*
X141789499Y-116170500D01*
X141789499Y-115595596D01*
X141775011Y-115485536D01*
X141775009Y-115485529D01*
X141775009Y-115485528D01*
X141718279Y-115348571D01*
X141628036Y-115230964D01*
X141510429Y-115140721D01*
X141510425Y-115140719D01*
X141373472Y-115083991D01*
X141373470Y-115083990D01*
X141263401Y-115069500D01*
X141064596Y-115069500D01*
X140954529Y-115083989D01*
X140946681Y-115086093D01*
X140945808Y-115082836D01*
X140891779Y-115088554D01*
X140881476Y-115085523D01*
X140881323Y-115086095D01*
X140873470Y-115083990D01*
X140763401Y-115069500D01*
X140564596Y-115069500D01*
X140454531Y-115083989D01*
X140446678Y-115086094D01*
X140445802Y-115082824D01*
X140391853Y-115088567D01*
X140381477Y-115085518D01*
X140381323Y-115086095D01*
X140373470Y-115083990D01*
X140263401Y-115069500D01*
X140064596Y-115069500D01*
X139954531Y-115083989D01*
X139946678Y-115086094D01*
X139945802Y-115082824D01*
X139891853Y-115088567D01*
X139881477Y-115085518D01*
X139881323Y-115086095D01*
X139873470Y-115083990D01*
X139763401Y-115069500D01*
X139564596Y-115069500D01*
X139454531Y-115083989D01*
X139446678Y-115086094D01*
X139445802Y-115082824D01*
X139391853Y-115088567D01*
X139381477Y-115085518D01*
X139381323Y-115086095D01*
X139373470Y-115083990D01*
X139263401Y-115069500D01*
X139064596Y-115069500D01*
X138954531Y-115083989D01*
X138946678Y-115086094D01*
X138945802Y-115082824D01*
X138891853Y-115088567D01*
X138881477Y-115085518D01*
X138881323Y-115086095D01*
X138873470Y-115083990D01*
X138763401Y-115069500D01*
X138564596Y-115069500D01*
X138454531Y-115083989D01*
X138446678Y-115086094D01*
X138445802Y-115082824D01*
X138391853Y-115088567D01*
X138381477Y-115085518D01*
X138381323Y-115086095D01*
X138373470Y-115083990D01*
X138263401Y-115069500D01*
X138064596Y-115069500D01*
X137954536Y-115083988D01*
X137954527Y-115083991D01*
X137817574Y-115140719D01*
X137817571Y-115140720D01*
X137817571Y-115140721D01*
X137699964Y-115230964D01*
X137645931Y-115301382D01*
X137609719Y-115348574D01*
X137552991Y-115485527D01*
X137552990Y-115485529D01*
X137541319Y-115574185D01*
X137538501Y-115595596D01*
X137538500Y-115595605D01*
X137538500Y-116170500D01*
X137518815Y-116237539D01*
X137466011Y-116283294D01*
X137414500Y-116294500D01*
X136868771Y-116294500D01*
X136801732Y-116274815D01*
X136761384Y-116232500D01*
X136690534Y-116109785D01*
X136563870Y-115969111D01*
X136410734Y-115857851D01*
X136410729Y-115857848D01*
X136237807Y-115780857D01*
X136237802Y-115780855D01*
X136092000Y-115749865D01*
X136052646Y-115741500D01*
X136052645Y-115741500D01*
X136041360Y-115741500D01*
X135974321Y-115721815D01*
X135928566Y-115669011D01*
X135918218Y-115626139D01*
X135917754Y-115626182D01*
X135916621Y-115613710D01*
X135911086Y-115552804D01*
X135860478Y-115390394D01*
X135772472Y-115244815D01*
X135772470Y-115244813D01*
X135772469Y-115244811D01*
X135652188Y-115124530D01*
X135637538Y-115115674D01*
X135506606Y-115036522D01*
X135344196Y-114985914D01*
X135344194Y-114985913D01*
X135344192Y-114985913D01*
X135294778Y-114981423D01*
X135273616Y-114979500D01*
X134610384Y-114979500D01*
X134591144Y-114981248D01*
X134539807Y-114985913D01*
X134377393Y-115036522D01*
X134231811Y-115124530D01*
X134231810Y-115124531D01*
X134138161Y-115218181D01*
X134076838Y-115251666D01*
X134050480Y-115254500D01*
X134008737Y-115254500D01*
X133993120Y-115252776D01*
X133993093Y-115253062D01*
X133985331Y-115252327D01*
X133916203Y-115254500D01*
X133886650Y-115254500D01*
X133885929Y-115254590D01*
X133879757Y-115255369D01*
X133873945Y-115255826D01*
X133827373Y-115257290D01*
X133827372Y-115257290D01*
X133808129Y-115262881D01*
X133789079Y-115266825D01*
X133769211Y-115269334D01*
X133769209Y-115269335D01*
X133725884Y-115286488D01*
X133720357Y-115288381D01*
X133694097Y-115296010D01*
X133624228Y-115295813D01*
X133565557Y-115257872D01*
X133536712Y-115194235D01*
X133535499Y-115176944D01*
X133535499Y-114800685D01*
X133555184Y-114733647D01*
X133567351Y-114717712D01*
X133586547Y-114696394D01*
X133608020Y-114672546D01*
X133642530Y-114634220D01*
X133642531Y-114634217D01*
X133642533Y-114634216D01*
X133737179Y-114470284D01*
X133795674Y-114290256D01*
X133815460Y-114102000D01*
X133795674Y-113913744D01*
X133737179Y-113733716D01*
X133642533Y-113569784D01*
X133638225Y-113565000D01*
X135710000Y-113565000D01*
X135710000Y-114362844D01*
X135716401Y-114422372D01*
X135716403Y-114422379D01*
X135766645Y-114557086D01*
X135766649Y-114557093D01*
X135852809Y-114672187D01*
X135852812Y-114672190D01*
X135967906Y-114758350D01*
X135967913Y-114758354D01*
X136102620Y-114808596D01*
X136102627Y-114808598D01*
X136162155Y-114814999D01*
X136162172Y-114815000D01*
X136710000Y-114815000D01*
X136710000Y-113565000D01*
X135710000Y-113565000D01*
X133638225Y-113565000D01*
X133515871Y-113429112D01*
X133515870Y-113429111D01*
X133362734Y-113317851D01*
X133362729Y-113317848D01*
X133189807Y-113240857D01*
X133189802Y-113240855D01*
X133044000Y-113209865D01*
X133004646Y-113201500D01*
X132815354Y-113201500D01*
X132782897Y-113208398D01*
X132630197Y-113240855D01*
X132630192Y-113240857D01*
X132457270Y-113317848D01*
X132457265Y-113317851D01*
X132304129Y-113429111D01*
X132177466Y-113569785D01*
X132082821Y-113733715D01*
X132082818Y-113733722D01*
X132033027Y-113886965D01*
X132024326Y-113913744D01*
X132004540Y-114102000D01*
X132024326Y-114290256D01*
X132024327Y-114290259D01*
X132082818Y-114470277D01*
X132082821Y-114470284D01*
X132177467Y-114634216D01*
X132211657Y-114672187D01*
X132252650Y-114717715D01*
X132282880Y-114780706D01*
X132284500Y-114800687D01*
X132284500Y-115753814D01*
X132264815Y-115820853D01*
X132212011Y-115866608D01*
X132142853Y-115876552D01*
X132099572Y-115859005D01*
X132098363Y-115861101D01*
X132092729Y-115857848D01*
X131919807Y-115780857D01*
X131919802Y-115780855D01*
X131808179Y-115757129D01*
X131746697Y-115723936D01*
X131712921Y-115662773D01*
X131709960Y-115635839D01*
X131709960Y-115634063D01*
X131707821Y-115613710D01*
X131690174Y-115445805D01*
X131631679Y-115265777D01*
X131584481Y-115184028D01*
X131568009Y-115116130D01*
X131584480Y-115060033D01*
X131631679Y-114978284D01*
X131690174Y-114798256D01*
X131709960Y-114610000D01*
X131690174Y-114421744D01*
X131631679Y-114241716D01*
X131537033Y-114077784D01*
X131410371Y-113937112D01*
X131410370Y-113937111D01*
X131257234Y-113825851D01*
X131257229Y-113825848D01*
X131084307Y-113748857D01*
X131084302Y-113748855D01*
X130938500Y-113717865D01*
X130899146Y-113709500D01*
X130709854Y-113709500D01*
X130677397Y-113716398D01*
X130524697Y-113748855D01*
X130524692Y-113748857D01*
X130351770Y-113825848D01*
X130351765Y-113825851D01*
X130198630Y-113937110D01*
X130198626Y-113937114D01*
X130192900Y-113943474D01*
X130133413Y-113980121D01*
X130100752Y-113984500D01*
X129350198Y-113984500D01*
X129283159Y-113964815D01*
X129237404Y-113912011D01*
X129226198Y-113860500D01*
X129226198Y-113065000D01*
X135710000Y-113065000D01*
X136710000Y-113065000D01*
X136710000Y-111815000D01*
X136162155Y-111815000D01*
X136102627Y-111821401D01*
X136102620Y-111821403D01*
X135967913Y-111871645D01*
X135967906Y-111871649D01*
X135852812Y-111957809D01*
X135852809Y-111957812D01*
X135766649Y-112072906D01*
X135766645Y-112072913D01*
X135716403Y-112207620D01*
X135716401Y-112207627D01*
X135710000Y-112267155D01*
X135710000Y-113065000D01*
X129226198Y-113065000D01*
X129226198Y-111365000D01*
X132955001Y-111365000D01*
X132955001Y-111414986D01*
X132965494Y-111517697D01*
X133020641Y-111684119D01*
X133020643Y-111684124D01*
X133112684Y-111833345D01*
X133236654Y-111957315D01*
X133385875Y-112049356D01*
X133385880Y-112049358D01*
X133552302Y-112104505D01*
X133552309Y-112104506D01*
X133655019Y-112114999D01*
X133929999Y-112114999D01*
X133930000Y-112114998D01*
X133930000Y-111365000D01*
X134430000Y-111365000D01*
X134430000Y-112114999D01*
X134704972Y-112114999D01*
X134704986Y-112114998D01*
X134807697Y-112104505D01*
X134974119Y-112049358D01*
X134974124Y-112049356D01*
X135123345Y-111957315D01*
X135247315Y-111833345D01*
X135339356Y-111684124D01*
X135339358Y-111684119D01*
X135394505Y-111517697D01*
X135394506Y-111517690D01*
X135404999Y-111414986D01*
X135405000Y-111414973D01*
X135405000Y-111365000D01*
X134430000Y-111365000D01*
X133930000Y-111365000D01*
X132955001Y-111365000D01*
X129226198Y-111365000D01*
X129226198Y-110046500D01*
X129245883Y-109979461D01*
X129298687Y-109933706D01*
X129350198Y-109922500D01*
X129448644Y-109922500D01*
X129448646Y-109922500D01*
X129633803Y-109883144D01*
X129806730Y-109806151D01*
X129959871Y-109694888D01*
X130086533Y-109554216D01*
X130181179Y-109390284D01*
X130239674Y-109210256D01*
X130251422Y-109098473D01*
X130278007Y-109033861D01*
X130335304Y-108993876D01*
X130374743Y-108987437D01*
X130528491Y-108987437D01*
X130528496Y-108987437D01*
X130538439Y-108985323D01*
X130608100Y-108990635D01*
G37*
%TD.AperFunction*%
%TA.AperFunction,Conductor*%
G36*
X144965687Y-113785483D02*
G01*
X145010034Y-113813984D01*
X145083015Y-113886965D01*
X145116500Y-113948288D01*
X145111516Y-114017980D01*
X145083015Y-114062328D01*
X145009681Y-114135661D01*
X144948357Y-114169145D01*
X144878666Y-114164160D01*
X144834319Y-114135661D01*
X144761338Y-114062681D01*
X144727853Y-114001358D01*
X144732837Y-113931666D01*
X144761336Y-113887320D01*
X144834674Y-113813982D01*
X144895995Y-113780499D01*
X144965687Y-113785483D01*
G37*
%TD.AperFunction*%
%TA.AperFunction,Conductor*%
G36*
X147346809Y-111570185D02*
G01*
X147367451Y-111586819D01*
X147617181Y-111836549D01*
X147650666Y-111897872D01*
X147653500Y-111924230D01*
X147653500Y-113815538D01*
X147633815Y-113882577D01*
X147581011Y-113928332D01*
X147511853Y-113938276D01*
X147456615Y-113915856D01*
X147332734Y-113825851D01*
X147332729Y-113825848D01*
X147159807Y-113748857D01*
X147159802Y-113748855D01*
X147014000Y-113717865D01*
X146974646Y-113709500D01*
X146785354Y-113709500D01*
X146785353Y-113709500D01*
X146763618Y-113714120D01*
X146693951Y-113708804D01*
X146638218Y-113666667D01*
X146614113Y-113601087D01*
X146619453Y-113555940D01*
X146640590Y-113488106D01*
X146647000Y-113417572D01*
X146647000Y-113336000D01*
X145621000Y-113336000D01*
X145553961Y-113316315D01*
X145508206Y-113263511D01*
X145497000Y-113212000D01*
X145497000Y-112111000D01*
X145997000Y-112111000D01*
X145997000Y-112836000D01*
X146646999Y-112836000D01*
X146646999Y-112754417D01*
X146640591Y-112683897D01*
X146640590Y-112683892D01*
X146590018Y-112521603D01*
X146502072Y-112376122D01*
X146381877Y-112255927D01*
X146236395Y-112167980D01*
X146236396Y-112167980D01*
X146074105Y-112117409D01*
X146074106Y-112117409D01*
X146003572Y-112111000D01*
X145997000Y-112111000D01*
X145497000Y-112111000D01*
X145496999Y-112110999D01*
X145490436Y-112111000D01*
X145490417Y-112111001D01*
X145419897Y-112117408D01*
X145419892Y-112117409D01*
X145257603Y-112167981D01*
X145112122Y-112255927D01*
X145112121Y-112255928D01*
X145010035Y-112358015D01*
X144948712Y-112391500D01*
X144879020Y-112386516D01*
X144834673Y-112358015D01*
X144732188Y-112255530D01*
X144586606Y-112167522D01*
X144586606Y-112167521D01*
X144424196Y-112116914D01*
X144424194Y-112116913D01*
X144424192Y-112116913D01*
X144374778Y-112112423D01*
X144353616Y-112110500D01*
X143840384Y-112110500D01*
X143821144Y-112112248D01*
X143769807Y-112116913D01*
X143607393Y-112167522D01*
X143461811Y-112255530D01*
X143341530Y-112375811D01*
X143253522Y-112521393D01*
X143202913Y-112683807D01*
X143196500Y-112754386D01*
X143196500Y-113050546D01*
X143176815Y-113117585D01*
X143160181Y-113138227D01*
X143022180Y-113276228D01*
X142960857Y-113309713D01*
X142891165Y-113304729D01*
X142835232Y-113262857D01*
X142810815Y-113197393D01*
X142810499Y-113188547D01*
X142810499Y-112267129D01*
X142810498Y-112267123D01*
X142807564Y-112239830D01*
X142804091Y-112207517D01*
X142770298Y-112116914D01*
X142753797Y-112072671D01*
X142753793Y-112072664D01*
X142702123Y-112003643D01*
X142667546Y-111957454D01*
X142666791Y-111956889D01*
X142666227Y-111956135D01*
X142661275Y-111951183D01*
X142661987Y-111950470D01*
X142624922Y-111900957D01*
X142619938Y-111831265D01*
X142653420Y-111769946D01*
X142810550Y-111612816D01*
X142871871Y-111579334D01*
X142898229Y-111576500D01*
X143598126Y-111576500D01*
X143665165Y-111596185D01*
X143685807Y-111612819D01*
X143696955Y-111623967D01*
X143696959Y-111623970D01*
X143841294Y-111712998D01*
X143841297Y-111712999D01*
X143841303Y-111713003D01*
X144002292Y-111766349D01*
X144101655Y-111776500D01*
X144698344Y-111776499D01*
X144698352Y-111776498D01*
X144698355Y-111776498D01*
X144762534Y-111769942D01*
X144797708Y-111766349D01*
X144958697Y-111713003D01*
X145103044Y-111623968D01*
X145103046Y-111623965D01*
X145107543Y-111621192D01*
X145174936Y-111602751D01*
X145223077Y-111613451D01*
X145330192Y-111661142D01*
X145330197Y-111661144D01*
X145515354Y-111700500D01*
X145515355Y-111700500D01*
X145704644Y-111700500D01*
X145704646Y-111700500D01*
X145889803Y-111661144D01*
X146062730Y-111584151D01*
X146069360Y-111579334D01*
X146076452Y-111574182D01*
X146142258Y-111550702D01*
X146149337Y-111550500D01*
X147279770Y-111550500D01*
X147346809Y-111570185D01*
G37*
%TD.AperFunction*%
%TA.AperFunction,Conductor*%
G36*
X142345165Y-105246185D02*
G01*
X142365807Y-105262819D01*
X142376955Y-105273967D01*
X142376959Y-105273970D01*
X142521294Y-105362998D01*
X142521297Y-105362999D01*
X142521303Y-105363003D01*
X142682292Y-105416349D01*
X142781655Y-105426500D01*
X143365010Y-105426499D01*
X143432049Y-105446183D01*
X143477804Y-105498987D01*
X143487748Y-105568146D01*
X143482716Y-105589500D01*
X143462747Y-105649766D01*
X143434564Y-105734815D01*
X143434563Y-105734816D01*
X143424500Y-105833318D01*
X143424500Y-106366681D01*
X143434563Y-106465183D01*
X143487450Y-106624784D01*
X143487455Y-106624795D01*
X143575716Y-106767887D01*
X143575719Y-106767892D01*
X143608000Y-106800173D01*
X143641485Y-106861497D01*
X143636499Y-106931188D01*
X143608000Y-106975533D01*
X143576114Y-107007419D01*
X143487908Y-107150422D01*
X143487906Y-107150427D01*
X143435057Y-107309916D01*
X143425000Y-107408349D01*
X143425000Y-107425000D01*
X144526000Y-107425000D01*
X144593039Y-107444685D01*
X144638794Y-107497489D01*
X144650000Y-107549000D01*
X144650000Y-109402000D01*
X144630315Y-109469039D01*
X144577511Y-109514794D01*
X144526000Y-109526000D01*
X143425001Y-109526000D01*
X143425001Y-109549322D01*
X143435144Y-109648607D01*
X143488452Y-109809481D01*
X143488457Y-109809492D01*
X143535897Y-109886403D01*
X143554338Y-109953795D01*
X143533416Y-110020459D01*
X143479774Y-110065228D01*
X143430359Y-110075500D01*
X142599705Y-110075500D01*
X142581735Y-110074191D01*
X142557972Y-110070710D01*
X142512890Y-110074655D01*
X142505933Y-110075264D01*
X142500532Y-110075500D01*
X142492288Y-110075500D01*
X142459707Y-110079308D01*
X142383199Y-110086001D01*
X142376133Y-110087461D01*
X142376121Y-110087404D01*
X142368754Y-110089038D01*
X142368768Y-110089094D01*
X142361751Y-110090756D01*
X142289573Y-110117026D01*
X142216662Y-110141187D01*
X142210119Y-110144238D01*
X142210094Y-110144186D01*
X142203314Y-110147468D01*
X142203340Y-110147520D01*
X142196881Y-110150764D01*
X142132709Y-110192970D01*
X142067345Y-110233288D01*
X142061677Y-110237770D01*
X142061641Y-110237724D01*
X142055798Y-110242484D01*
X142055835Y-110242528D01*
X142050310Y-110247164D01*
X142050304Y-110247169D01*
X142050304Y-110247170D01*
X142023081Y-110276024D01*
X141997598Y-110303034D01*
X141074358Y-111226272D01*
X141060729Y-111238051D01*
X141041468Y-111252390D01*
X141007898Y-111292397D01*
X141004253Y-111296376D01*
X140998409Y-111302222D01*
X140978059Y-111327959D01*
X140928695Y-111386789D01*
X140924729Y-111392819D01*
X140924682Y-111392788D01*
X140920630Y-111399147D01*
X140920679Y-111399177D01*
X140916889Y-111405321D01*
X140884424Y-111474941D01*
X140849960Y-111543566D01*
X140847488Y-111550357D01*
X140847432Y-111550336D01*
X140844960Y-111557450D01*
X140845015Y-111557469D01*
X140842742Y-111564327D01*
X140834975Y-111601945D01*
X140827207Y-111639565D01*
X140809500Y-111714279D01*
X140809500Y-111714281D01*
X140807835Y-111721307D01*
X140806082Y-111720891D01*
X140782388Y-111776615D01*
X140724625Y-111815924D01*
X140710044Y-111819024D01*
X140710068Y-111819124D01*
X140702520Y-111820907D01*
X140567671Y-111871202D01*
X140567669Y-111871203D01*
X140484311Y-111933606D01*
X140418847Y-111958023D01*
X140350574Y-111943172D01*
X140335689Y-111933606D01*
X140323164Y-111924230D01*
X140254554Y-111872868D01*
X140252330Y-111871203D01*
X140252328Y-111871202D01*
X140117482Y-111820908D01*
X140109938Y-111819126D01*
X140110474Y-111816853D01*
X140056688Y-111794571D01*
X140016843Y-111737177D01*
X140010500Y-111698024D01*
X140010500Y-109365340D01*
X140012164Y-109349056D01*
X140012104Y-109349051D01*
X140012733Y-109341860D01*
X140010500Y-109265103D01*
X140010500Y-109026000D01*
X143425000Y-109026000D01*
X144150000Y-109026000D01*
X144150000Y-107925000D01*
X143425001Y-107925000D01*
X143425001Y-107941652D01*
X143435056Y-108040083D01*
X143487906Y-108199572D01*
X143487908Y-108199577D01*
X143576114Y-108342580D01*
X143616933Y-108383399D01*
X143650418Y-108444722D01*
X143645434Y-108514414D01*
X143616934Y-108558760D01*
X143577427Y-108598267D01*
X143577424Y-108598271D01*
X143488457Y-108742507D01*
X143488452Y-108742518D01*
X143435144Y-108903393D01*
X143425000Y-109002677D01*
X143425000Y-109026000D01*
X140010500Y-109026000D01*
X140010500Y-108639499D01*
X140030185Y-108572460D01*
X140082989Y-108526705D01*
X140134500Y-108515499D01*
X141207871Y-108515499D01*
X141207872Y-108515499D01*
X141267483Y-108509091D01*
X141402331Y-108458796D01*
X141517546Y-108372546D01*
X141603796Y-108257331D01*
X141654091Y-108122483D01*
X141660500Y-108062873D01*
X141660499Y-105967128D01*
X141654091Y-105907517D01*
X141638734Y-105866344D01*
X141603797Y-105772671D01*
X141603793Y-105772664D01*
X141517547Y-105657455D01*
X141517546Y-105657454D01*
X141507276Y-105649766D01*
X141465404Y-105593833D01*
X141460420Y-105524141D01*
X141493905Y-105462818D01*
X141555228Y-105429333D01*
X141581585Y-105426499D01*
X141590344Y-105426499D01*
X141590352Y-105426498D01*
X141590355Y-105426498D01*
X141666986Y-105418670D01*
X141689708Y-105416349D01*
X141850697Y-105363003D01*
X141995044Y-105273968D01*
X142006193Y-105262819D01*
X142067516Y-105229334D01*
X142093874Y-105226500D01*
X142278126Y-105226500D01*
X142345165Y-105246185D01*
G37*
%TD.AperFunction*%
%TA.AperFunction,Conductor*%
G36*
X135360201Y-107201337D02*
G01*
X135373755Y-107216804D01*
X135374524Y-107216160D01*
X135379169Y-107221695D01*
X135435021Y-107274390D01*
X135496671Y-107336039D01*
X135661274Y-107500641D01*
X135673050Y-107514268D01*
X135687390Y-107533530D01*
X135727415Y-107567116D01*
X135731403Y-107570771D01*
X135737218Y-107576586D01*
X135737227Y-107576594D01*
X135762947Y-107596931D01*
X135821788Y-107646304D01*
X135827818Y-107650270D01*
X135827785Y-107650319D01*
X135834143Y-107654369D01*
X135834175Y-107654319D01*
X135840320Y-107658109D01*
X135840323Y-107658111D01*
X135909936Y-107690572D01*
X135978567Y-107725040D01*
X135978572Y-107725041D01*
X135985361Y-107727513D01*
X135985340Y-107727570D01*
X135992455Y-107730043D01*
X135992475Y-107729986D01*
X135999330Y-107732258D01*
X136074558Y-107747790D01*
X136149279Y-107765500D01*
X136149289Y-107765500D01*
X136156452Y-107766338D01*
X136156444Y-107766397D01*
X136163945Y-107767164D01*
X136163951Y-107767105D01*
X136171140Y-107767734D01*
X136171144Y-107767733D01*
X136171145Y-107767734D01*
X136247918Y-107765500D01*
X136735501Y-107765500D01*
X136802540Y-107785185D01*
X136848295Y-107837989D01*
X136859501Y-107889500D01*
X136859501Y-108062876D01*
X136865908Y-108122483D01*
X136916202Y-108257328D01*
X136916206Y-108257335D01*
X137002452Y-108372544D01*
X137002455Y-108372547D01*
X137117664Y-108458793D01*
X137117671Y-108458797D01*
X137252517Y-108509091D01*
X137252516Y-108509091D01*
X137259444Y-108509835D01*
X137312127Y-108515500D01*
X138385500Y-108515499D01*
X138452539Y-108535183D01*
X138498294Y-108587987D01*
X138509500Y-108639499D01*
X138509500Y-108909500D01*
X138489815Y-108976539D01*
X138437011Y-109022294D01*
X138385500Y-109033500D01*
X136408140Y-109033500D01*
X136341101Y-109013815D01*
X136295346Y-108961011D01*
X136290209Y-108947818D01*
X136277181Y-108907721D01*
X136277178Y-108907715D01*
X136277066Y-108907521D01*
X136182533Y-108743784D01*
X136055871Y-108603112D01*
X136049208Y-108598271D01*
X135902734Y-108491851D01*
X135902729Y-108491848D01*
X135729807Y-108414857D01*
X135729802Y-108414855D01*
X135581808Y-108383399D01*
X135544646Y-108375500D01*
X135355354Y-108375500D01*
X135232774Y-108401555D01*
X135163107Y-108396238D01*
X135130552Y-108375206D01*
X135129319Y-108376766D01*
X135123658Y-108372290D01*
X135123656Y-108372288D01*
X134974334Y-108280186D01*
X134974331Y-108280185D01*
X134808990Y-108225396D01*
X134751545Y-108185623D01*
X134724722Y-108121107D01*
X134737037Y-108052331D01*
X134782897Y-108002151D01*
X134882733Y-107940571D01*
X135002572Y-107820732D01*
X135002575Y-107820728D01*
X135091542Y-107676492D01*
X135091547Y-107676481D01*
X135144855Y-107515606D01*
X135154999Y-107416322D01*
X135154999Y-107295052D01*
X135174683Y-107228012D01*
X135227487Y-107182257D01*
X135296645Y-107172313D01*
X135360201Y-107201337D01*
G37*
%TD.AperFunction*%
%TA.AperFunction,Conductor*%
G36*
X132814931Y-104264304D02*
G01*
X132884197Y-104295144D01*
X133048024Y-104329966D01*
X133109506Y-104363158D01*
X133143283Y-104424321D01*
X133145533Y-104437994D01*
X133145908Y-104441481D01*
X133196202Y-104576328D01*
X133196206Y-104576335D01*
X133228767Y-104619830D01*
X133282454Y-104691546D01*
X133338343Y-104733384D01*
X133380213Y-104789317D01*
X133385197Y-104859009D01*
X133361302Y-104909555D01*
X133357030Y-104914957D01*
X133268001Y-105059294D01*
X133267996Y-105059305D01*
X133214651Y-105220290D01*
X133204500Y-105319647D01*
X133204500Y-105866337D01*
X133204501Y-105866355D01*
X133214650Y-105965707D01*
X133214651Y-105965710D01*
X133267996Y-106126694D01*
X133268001Y-106126705D01*
X133357029Y-106271040D01*
X133357032Y-106271044D01*
X133366660Y-106280672D01*
X133400145Y-106341995D01*
X133395161Y-106411687D01*
X133366663Y-106456031D01*
X133357428Y-106465265D01*
X133357424Y-106465271D01*
X133268457Y-106609507D01*
X133268452Y-106609518D01*
X133215144Y-106770393D01*
X133205000Y-106869677D01*
X133205000Y-106893000D01*
X134306000Y-106893000D01*
X134373039Y-106912685D01*
X134418794Y-106965489D01*
X134430000Y-107017000D01*
X134430000Y-107269000D01*
X134410315Y-107336039D01*
X134357511Y-107381794D01*
X134306000Y-107393000D01*
X133205001Y-107393000D01*
X133205001Y-107416322D01*
X133215144Y-107515607D01*
X133268452Y-107676481D01*
X133268457Y-107676492D01*
X133357424Y-107820728D01*
X133357427Y-107820732D01*
X133477267Y-107940572D01*
X133477271Y-107940575D01*
X133577102Y-108002152D01*
X133623827Y-108054099D01*
X133635048Y-108123062D01*
X133607205Y-108187144D01*
X133551010Y-108225396D01*
X133385666Y-108280186D01*
X133385663Y-108280187D01*
X133236338Y-108372292D01*
X133171430Y-108437199D01*
X133110106Y-108470684D01*
X133094561Y-108473045D01*
X133072199Y-108475002D01*
X133065133Y-108476461D01*
X133065121Y-108476404D01*
X133057752Y-108478038D01*
X133057766Y-108478095D01*
X133050741Y-108479759D01*
X132978556Y-108506033D01*
X132905670Y-108530185D01*
X132905667Y-108530186D01*
X132905665Y-108530187D01*
X132905662Y-108530188D01*
X132899128Y-108533236D01*
X132899102Y-108533182D01*
X132892306Y-108536472D01*
X132892332Y-108536524D01*
X132885884Y-108539762D01*
X132821697Y-108581978D01*
X132804593Y-108592527D01*
X132737200Y-108610965D01*
X132670537Y-108590040D01*
X132625769Y-108536396D01*
X132615500Y-108486986D01*
X132615500Y-108448386D01*
X132615167Y-108444722D01*
X132609086Y-108377804D01*
X132558478Y-108215394D01*
X132470472Y-108069815D01*
X132470470Y-108069813D01*
X132470469Y-108069811D01*
X132416662Y-108016004D01*
X132383177Y-107954681D01*
X132388161Y-107884989D01*
X132416663Y-107840641D01*
X132462572Y-107794731D01*
X132462575Y-107794728D01*
X132551542Y-107650492D01*
X132551547Y-107650481D01*
X132604855Y-107489606D01*
X132614999Y-107390322D01*
X132615000Y-107390309D01*
X132615000Y-107367000D01*
X131514000Y-107367000D01*
X131446961Y-107347315D01*
X131401206Y-107294511D01*
X131390000Y-107243000D01*
X131390000Y-106991000D01*
X131409685Y-106923961D01*
X131462489Y-106878206D01*
X131514000Y-106867000D01*
X132614999Y-106867000D01*
X132614999Y-106843692D01*
X132614998Y-106843677D01*
X132604855Y-106744392D01*
X132551547Y-106583518D01*
X132551542Y-106583507D01*
X132462575Y-106439271D01*
X132462572Y-106439267D01*
X132453339Y-106430034D01*
X132419854Y-106368711D01*
X132424838Y-106299019D01*
X132453343Y-106254668D01*
X132462968Y-106245044D01*
X132552003Y-106100697D01*
X132605349Y-105939708D01*
X132615500Y-105840345D01*
X132615499Y-105293656D01*
X132613447Y-105273572D01*
X132605349Y-105194292D01*
X132605348Y-105194289D01*
X132589624Y-105146838D01*
X132552003Y-105033303D01*
X132551999Y-105033297D01*
X132551998Y-105033294D01*
X132462970Y-104888959D01*
X132458490Y-104883293D01*
X132460439Y-104881751D01*
X132432578Y-104830728D01*
X132437562Y-104761036D01*
X132479431Y-104705106D01*
X132497546Y-104691546D01*
X132583796Y-104576331D01*
X132634091Y-104441483D01*
X132640500Y-104381873D01*
X132640499Y-104377597D01*
X132660175Y-104310559D01*
X132712973Y-104264797D01*
X132782130Y-104254845D01*
X132814931Y-104264304D01*
G37*
%TD.AperFunction*%
%TA.AperFunction,Conductor*%
G36*
X138667979Y-105146838D02*
G01*
X138712327Y-105175339D01*
X138727181Y-105190193D01*
X138760666Y-105251516D01*
X138763500Y-105277874D01*
X138763500Y-105390500D01*
X138743815Y-105457539D01*
X138691011Y-105503294D01*
X138639500Y-105514500D01*
X138485365Y-105514500D01*
X138418326Y-105494815D01*
X138372571Y-105442011D01*
X138362627Y-105372853D01*
X138391652Y-105309297D01*
X138420269Y-105284961D01*
X138438729Y-105273574D01*
X138536964Y-105175339D01*
X138598287Y-105141854D01*
X138667979Y-105146838D01*
G37*
%TD.AperFunction*%
%TA.AperFunction,Conductor*%
G36*
X143273039Y-102695685D02*
G01*
X143318794Y-102748489D01*
X143330000Y-102800000D01*
X143330000Y-103052000D01*
X143310315Y-103119039D01*
X143257511Y-103164794D01*
X143206000Y-103176000D01*
X139388000Y-103176000D01*
X139320961Y-103156315D01*
X139275206Y-103103511D01*
X139264000Y-103052000D01*
X139264000Y-102800000D01*
X139283685Y-102732961D01*
X139336489Y-102687206D01*
X139388000Y-102676000D01*
X143206000Y-102676000D01*
X143273039Y-102695685D01*
G37*
%TD.AperFunction*%
%TA.AperFunction,Conductor*%
G36*
X147531226Y-100414184D02*
G01*
X147543934Y-100424754D01*
X147544395Y-100424198D01*
X147550405Y-100429170D01*
X147550406Y-100429171D01*
X147577349Y-100451460D01*
X147586309Y-100458872D01*
X147590620Y-100462794D01*
X148294412Y-101166586D01*
X148773181Y-101645355D01*
X148806666Y-101706678D01*
X148809500Y-101733036D01*
X148809500Y-102125546D01*
X148789815Y-102192585D01*
X148737011Y-102238340D01*
X148667853Y-102248284D01*
X148604297Y-102219259D01*
X148567794Y-102164551D01*
X148547357Y-102102878D01*
X148547356Y-102102875D01*
X148455315Y-101953654D01*
X148331345Y-101829684D01*
X148182124Y-101737643D01*
X148182119Y-101737641D01*
X148015697Y-101682494D01*
X148015690Y-101682493D01*
X147912986Y-101672000D01*
X147638000Y-101672000D01*
X147638000Y-102798000D01*
X147618315Y-102865039D01*
X147565511Y-102910794D01*
X147514000Y-102922000D01*
X144976000Y-102922000D01*
X144908961Y-102902315D01*
X144863206Y-102849511D01*
X144852000Y-102798000D01*
X144852000Y-102546000D01*
X144871685Y-102478961D01*
X144924489Y-102433206D01*
X144976000Y-102422000D01*
X147138000Y-102422000D01*
X147138000Y-101710836D01*
X147145817Y-101667505D01*
X147189091Y-101551483D01*
X147195500Y-101491873D01*
X147195499Y-100518498D01*
X147215183Y-100451460D01*
X147267987Y-100405705D01*
X147319495Y-100394499D01*
X147464187Y-100394499D01*
X147531226Y-100414184D01*
G37*
%TD.AperFunction*%
%TA.AperFunction,Conductor*%
G36*
X140460225Y-101937534D02*
G01*
X140525599Y-101941032D01*
X140582275Y-101981893D01*
X140607863Y-102046909D01*
X140594239Y-102115437D01*
X140572040Y-102145654D01*
X140490682Y-102227013D01*
X140429359Y-102260498D01*
X140359667Y-102255514D01*
X140315319Y-102227014D01*
X140244485Y-102156181D01*
X140211000Y-102094858D01*
X140215984Y-102025166D01*
X140257855Y-101969232D01*
X140323319Y-101944815D01*
X140332164Y-101944499D01*
X140392872Y-101944499D01*
X140452483Y-101938091D01*
X140452495Y-101938086D01*
X140455830Y-101937299D01*
X140458515Y-101937442D01*
X140460196Y-101937262D01*
X140460225Y-101937534D01*
G37*
%TD.AperFunction*%
%TD*%
M02*
