%TF.GenerationSoftware,KiCad,Pcbnew,7.0.7*%
%TF.CreationDate,2024-04-13T12:00:14-04:00*%
%TF.ProjectId,ESP32_S2_Breakout,45535033-325f-4533-925f-427265616b6f,rev?*%
%TF.SameCoordinates,Original*%
%TF.FileFunction,Copper,L2,Bot*%
%TF.FilePolarity,Positive*%
%FSLAX46Y46*%
G04 Gerber Fmt 4.6, Leading zero omitted, Abs format (unit mm)*
G04 Created by KiCad (PCBNEW 7.0.7) date 2024-04-13 12:00:14*
%MOMM*%
%LPD*%
G01*
G04 APERTURE LIST*
%TA.AperFunction,ComponentPad*%
%ADD10R,1.700000X1.700000*%
%TD*%
%TA.AperFunction,ComponentPad*%
%ADD11O,1.700000X1.700000*%
%TD*%
%TA.AperFunction,ComponentPad*%
%ADD12O,1.000000X2.100000*%
%TD*%
%TA.AperFunction,ComponentPad*%
%ADD13O,1.000000X1.800000*%
%TD*%
%TA.AperFunction,HeatsinkPad*%
%ADD14C,0.600000*%
%TD*%
%TA.AperFunction,ViaPad*%
%ADD15C,0.800000*%
%TD*%
%TA.AperFunction,Conductor*%
%ADD16C,0.250000*%
%TD*%
%TA.AperFunction,Conductor*%
%ADD17C,0.500000*%
%TD*%
G04 APERTURE END LIST*
D10*
%TO.P,J2,1,Pin_1*%
%TO.N,GND*%
X126560000Y-83627000D03*
D11*
%TO.P,J2,2,Pin_2*%
%TO.N,+3V3*%
X126560000Y-86167000D03*
%TO.P,J2,3,Pin_3*%
%TO.N,RESET*%
X126560000Y-88707000D03*
%TO.P,J2,4,Pin_4*%
%TO.N,GPIO4*%
X126560000Y-91247000D03*
%TO.P,J2,5,Pin_5*%
%TO.N,GPIO5*%
X126560000Y-93787000D03*
%TO.P,J2,6,Pin_6*%
%TO.N,GPIO6*%
X126560000Y-96327000D03*
%TO.P,J2,7,Pin_7*%
%TO.N,GPIO7*%
X126560000Y-98867000D03*
%TO.P,J2,8,Pin_8*%
%TO.N,GPIO15*%
X126560000Y-101407000D03*
%TO.P,J2,9,Pin_9*%
%TO.N,GPIO16*%
X126560000Y-103947000D03*
%TO.P,J2,10,Pin_10*%
%TO.N,GPIO17*%
X126560000Y-106487000D03*
%TO.P,J2,11,Pin_11*%
%TO.N,GPIO18*%
X126560000Y-109027000D03*
%TO.P,J2,12,Pin_12*%
%TO.N,GPIO8*%
X126560000Y-111567000D03*
%TO.P,J2,13,Pin_13*%
%TO.N,GPIO19*%
X126560000Y-114107000D03*
%TO.P,J2,14,Pin_14*%
%TO.N,GPIO20*%
X126560000Y-116647000D03*
%TO.P,J2,15,Pin_15*%
%TO.N,GPIO3*%
X126560000Y-119187000D03*
%TO.P,J2,16,Pin_16*%
%TO.N,GPIO46*%
X126560000Y-121727000D03*
%TO.P,J2,17,Pin_17*%
%TO.N,GPIO9*%
X126560000Y-124267000D03*
%TO.P,J2,18,Pin_18*%
%TO.N,GPIO10*%
X126560000Y-126807000D03*
%TO.P,J2,19,Pin_19*%
%TO.N,GPIO11*%
X126560000Y-129347000D03*
%TO.P,J2,20,Pin_20*%
%TO.N,GPIO12*%
X126560000Y-131887000D03*
%TD*%
D12*
%TO.P,J1,S1,SHIELD*%
%TO.N,GND*%
X134430000Y-127945000D03*
D13*
X134430000Y-132145000D03*
D12*
X143070000Y-127945000D03*
D13*
X143070000Y-132145000D03*
%TD*%
D10*
%TO.P,J3,1,Pin_1*%
%TO.N,GND*%
X151960000Y-83622000D03*
D11*
%TO.P,J3,2,Pin_2*%
%TO.N,VBUS*%
X151960000Y-86162000D03*
%TO.P,J3,3,Pin_3*%
%TO.N,+5V*%
X151960000Y-88702000D03*
%TO.P,J3,4,Pin_4*%
%TO.N,GPIO1*%
X151960000Y-91242000D03*
%TO.P,J3,5,Pin_5*%
%TO.N,GPIO2*%
X151960000Y-93782000D03*
%TO.P,J3,6,Pin_6*%
%TO.N,GPIO42*%
X151960000Y-96322000D03*
%TO.P,J3,7,Pin_7*%
%TO.N,GPIO41*%
X151960000Y-98862000D03*
%TO.P,J3,8,Pin_8*%
%TO.N,GPIO40*%
X151960000Y-101402000D03*
%TO.P,J3,9,Pin_9*%
%TO.N,GPIO39*%
X151960000Y-103942000D03*
%TO.P,J3,10,Pin_10*%
%TO.N,GPIO38*%
X151960000Y-106482000D03*
%TO.P,J3,11,Pin_11*%
%TO.N,GPIO37*%
X151960000Y-109022000D03*
%TO.P,J3,12,Pin_12*%
%TO.N,GPIO36*%
X151960000Y-111562000D03*
%TO.P,J3,13,Pin_13*%
%TO.N,GPIO35*%
X151960000Y-114102000D03*
%TO.P,J3,14,Pin_14*%
%TO.N,GPIO0*%
X151960000Y-116642000D03*
%TO.P,J3,15,Pin_15*%
%TO.N,GPIO45*%
X151960000Y-119182000D03*
%TO.P,J3,16,Pin_16*%
%TO.N,GPIO48*%
X151960000Y-121722000D03*
%TO.P,J3,17,Pin_17*%
%TO.N,GPIO47*%
X151960000Y-124262000D03*
%TO.P,J3,18,Pin_18*%
%TO.N,GPIO21*%
X151960000Y-126802000D03*
%TO.P,J3,19,Pin_19*%
%TO.N,GPIO14*%
X151960000Y-129342000D03*
%TO.P,J3,20,Pin_20*%
%TO.N,GPIO13*%
X151960000Y-131882000D03*
%TD*%
D14*
%TO.P,U1,41,GND*%
%TO.N,GND*%
X136360000Y-89954000D03*
X136360000Y-91354000D03*
X137060000Y-89254000D03*
X137060000Y-90654000D03*
X137060000Y-92054000D03*
X137760000Y-89954000D03*
X137760000Y-91354000D03*
X138460000Y-89254000D03*
X138460000Y-90654000D03*
X138460000Y-92054000D03*
X139160000Y-89954000D03*
X139160000Y-91354000D03*
%TD*%
D15*
%TO.N,GND*%
X143324000Y-111816000D03*
X140397500Y-102164000D03*
X137482000Y-121722000D03*
X148260500Y-121722000D03*
X136974000Y-111562000D03*
X138498000Y-105415498D03*
X137353000Y-125683226D03*
X140784000Y-123947851D03*
X136924685Y-108934500D03*
X137486299Y-123250299D03*
X143324000Y-109276000D03*
X147896000Y-126294000D03*
%TO.N,+3V3*%
X146880000Y-114610000D03*
X146597500Y-118928000D03*
X146459500Y-109022000D03*
X132148000Y-84384000D03*
X135450000Y-109276000D03*
X142302316Y-120912667D03*
%TO.N,RESET*%
X132910000Y-114102000D03*
X131894000Y-117658000D03*
X131386000Y-121468000D03*
X133418000Y-85654000D03*
X138498000Y-102164000D03*
%TO.N,GPIO15*%
X130259500Y-101407000D03*
%TO.N,GPIO16*%
X131894000Y-93020000D03*
X133164000Y-103434000D03*
%TO.N,+5V*%
X145610000Y-110800000D03*
%TO.N,GPIO0*%
X145706921Y-121396010D03*
X132402000Y-121468000D03*
%TO.N,Net-(D1-A1)*%
X135577000Y-122357000D03*
X138077500Y-128961000D03*
%TO.N,Net-(D2-A1)*%
X142689000Y-122357000D03*
X139260000Y-126040000D03*
%TO.N,VBUS*%
X147810500Y-117178120D03*
X136212000Y-126040000D03*
X148260500Y-120706000D03*
X144594000Y-126548000D03*
%TO.N,Net-(JP2-A)*%
X141699543Y-122498351D03*
X139269513Y-121868102D03*
%TO.N,GPIO3*%
X132306500Y-98608000D03*
%TO.N,GPIO8*%
X130259500Y-102406503D03*
X129354000Y-109022000D03*
X131894000Y-96830000D03*
%TO.N,GPIO9*%
X133343500Y-96830000D03*
%TO.N,GPIO10*%
X133343500Y-95560000D03*
%TO.N,GPIO11*%
X133343500Y-94290000D03*
%TO.N,GPIO12*%
X133418000Y-93020000D03*
%TO.N,GPIO13*%
X145102000Y-94544000D03*
%TO.N,GPIO14*%
X145102000Y-95560000D03*
%TO.N,GPIO39*%
X146626000Y-93020000D03*
%TO.N,GPIO37*%
X146626000Y-95560000D03*
%TO.N,GPIO21*%
X145102000Y-96576000D03*
%TO.N,GPIO20*%
X130804500Y-114610000D03*
X144594000Y-123246000D03*
%TO.N,GPIO19*%
X130804500Y-115634061D03*
X132148000Y-124516000D03*
%TO.N,GPIO18*%
X130433850Y-108086937D03*
%TO.N,DTR*%
X136212000Y-120832000D03*
X132910000Y-119944000D03*
%TO.N,RTS*%
X131640000Y-116642000D03*
X135958000Y-116642000D03*
%TO.N,GPIO46*%
X133031871Y-97920365D03*
%TO.N,GPIO47*%
X145102000Y-97592000D03*
%TO.N,GPIO48*%
X145102000Y-98608000D03*
%TO.N,GPIO45*%
X146118000Y-99116000D03*
%TO.N,RXD0*%
X138498000Y-98354000D03*
X136086743Y-119365721D03*
%TO.N,TXD0*%
X138244000Y-97338000D03*
X135958000Y-118305862D03*
%TD*%
D16*
%TO.N,GND*%
X137760000Y-91354000D02*
X140397500Y-93991500D01*
X143324000Y-109276000D02*
X143324000Y-111816000D01*
X136974000Y-108983815D02*
X136974000Y-111562000D01*
X136924685Y-108934500D02*
X136974000Y-108983815D01*
X137486299Y-123250299D02*
X137486299Y-121726299D01*
X143070000Y-126233851D02*
X143070000Y-127945000D01*
X137745000Y-105711000D02*
X137745000Y-107474117D01*
X134430000Y-125790000D02*
X134430000Y-127945000D01*
X136924685Y-108294431D02*
X136924685Y-108934500D01*
X138040502Y-105415498D02*
X137745000Y-105711000D01*
X136693774Y-125024000D02*
X135196000Y-125024000D01*
X140397500Y-93991500D02*
X140397500Y-102164000D01*
X137486299Y-121726299D02*
X137482000Y-121722000D01*
X148260500Y-125929500D02*
X147896000Y-126294000D01*
X137353000Y-125683226D02*
X136693774Y-125024000D01*
X137745000Y-107474117D02*
X136924685Y-108294431D01*
X135196000Y-125024000D02*
X134430000Y-125790000D01*
X140784000Y-123947851D02*
X143070000Y-126233851D01*
X138498000Y-105415498D02*
X138040502Y-105415498D01*
X148260500Y-121722000D02*
X148260500Y-125929500D01*
D17*
%TO.N,+3V3*%
X136720000Y-95052000D02*
X132148000Y-90480000D01*
X143233767Y-119981216D02*
X142302316Y-120912667D01*
X146880000Y-111943000D02*
X146460000Y-111523000D01*
X136720000Y-107049548D02*
X136720000Y-95052000D01*
X135450000Y-109276000D02*
X135450000Y-108319548D01*
X132148000Y-90480000D02*
X132148000Y-84384000D01*
X146460000Y-111523000D02*
X146460000Y-109022500D01*
X146597500Y-118928000D02*
X146597500Y-119538932D01*
X146155216Y-119981216D02*
X143233767Y-119981216D01*
X146597500Y-119538932D02*
X146155216Y-119981216D01*
X135450000Y-108319548D02*
X136720000Y-107049548D01*
X146460000Y-109022500D02*
X146459500Y-109022000D01*
X146880000Y-114610000D02*
X146880000Y-111943000D01*
D16*
%TO.N,RESET*%
X131386000Y-118166000D02*
X131386000Y-121468000D01*
X132910000Y-113340000D02*
X136212000Y-110038000D01*
X132723000Y-86924000D02*
X132723000Y-86349000D01*
X131894000Y-117658000D02*
X131386000Y-118166000D01*
X136199685Y-110025685D02*
X136199685Y-108383035D01*
X138498000Y-102164000D02*
X137295000Y-103367000D01*
X137295000Y-107287721D02*
X137295000Y-103942000D01*
X132723000Y-86349000D02*
X133418000Y-85654000D01*
X137295000Y-101469000D02*
X137295000Y-100640000D01*
X137295000Y-94813828D02*
X136872586Y-94391414D01*
X138498000Y-102164000D02*
X137990000Y-102164000D01*
X136872586Y-94391414D02*
X132723000Y-90241828D01*
X136212000Y-110038000D02*
X136199685Y-110025685D01*
X132723000Y-90241828D02*
X132723000Y-86924000D01*
X132910000Y-114102000D02*
X132910000Y-113340000D01*
X137990000Y-102164000D02*
X137295000Y-101469000D01*
X137295000Y-103367000D02*
X137295000Y-103942000D01*
X136199685Y-108383035D02*
X137295000Y-107287721D01*
X137295000Y-100640000D02*
X137295000Y-94813828D01*
%TO.N,GPIO15*%
X130259500Y-101407000D02*
X126560000Y-101407000D01*
%TO.N,GPIO16*%
X132619000Y-97130305D02*
X132619000Y-93745000D01*
X132619000Y-93745000D02*
X131894000Y-93020000D01*
X131582000Y-98167305D02*
X132619000Y-97130305D01*
X126560000Y-103947000D02*
X132651000Y-103947000D01*
X133164000Y-103434000D02*
X131582000Y-101852000D01*
X131582000Y-101852000D02*
X131582000Y-98167305D01*
X132651000Y-103947000D02*
X133164000Y-103434000D01*
D17*
%TO.N,+5V*%
X144582731Y-102216000D02*
X145610000Y-103243269D01*
X142452000Y-100085269D02*
X144582731Y-102216000D01*
X144594000Y-88702000D02*
X143832000Y-89464000D01*
X142452000Y-90844000D02*
X142452000Y-98608000D01*
X145610000Y-103243269D02*
X145610000Y-110800000D01*
X143832000Y-89464000D02*
X142452000Y-90844000D01*
X142452000Y-98608000D02*
X142452000Y-100085269D01*
X151960000Y-88702000D02*
X144594000Y-88702000D01*
D16*
%TO.N,GPIO0*%
X147446000Y-118606396D02*
X147446000Y-119503604D01*
X146693604Y-117854000D02*
X147446000Y-118606396D01*
X136937000Y-120435396D02*
X139518396Y-117854000D01*
X132491000Y-121557000D02*
X136512305Y-121557000D01*
X136512305Y-121557000D02*
X136937000Y-121132305D01*
X147446000Y-119503604D02*
X145706921Y-121242683D01*
X145706921Y-121242683D02*
X145706921Y-121396010D01*
X139518396Y-117854000D02*
X146693604Y-117854000D01*
X132402000Y-121468000D02*
X132491000Y-121557000D01*
X136937000Y-121132305D02*
X136937000Y-120435396D01*
%TO.N,Net-(D1-A1)*%
X137703299Y-123975299D02*
X137185994Y-123975299D01*
X136761299Y-122779299D02*
X136339000Y-122357000D01*
X136339000Y-122357000D02*
X135577000Y-122357000D01*
X138077500Y-128961000D02*
X138077500Y-124349500D01*
X138077500Y-124349500D02*
X137703299Y-123975299D01*
X137185994Y-123975299D02*
X136761299Y-123550604D01*
X136761299Y-123550604D02*
X136761299Y-122779299D01*
%TO.N,Net-(D2-A1)*%
X139260000Y-126040000D02*
X139260000Y-124008000D01*
X142038248Y-123223351D02*
X142689000Y-122572599D01*
X139260000Y-124008000D02*
X140044649Y-123223351D01*
X140044649Y-123223351D02*
X142038248Y-123223351D01*
X142689000Y-122572599D02*
X142689000Y-122357000D01*
D17*
%TO.N,VBUS*%
X141752000Y-100375219D02*
X144760000Y-103383218D01*
X141752000Y-90528000D02*
X141752000Y-100375219D01*
X144594000Y-125786000D02*
X147134000Y-123246000D01*
X144760000Y-103383218D02*
X144760000Y-113760000D01*
X151960000Y-86162000D02*
X146118000Y-86162000D01*
X137228000Y-129850000D02*
X137736000Y-130358000D01*
X148260500Y-120706000D02*
X147896000Y-120706000D01*
X137228000Y-127056000D02*
X137228000Y-129850000D01*
X136212000Y-126040000D02*
X137228000Y-127056000D01*
X143070000Y-130358000D02*
X144594000Y-128834000D01*
X144594000Y-128834000D02*
X144594000Y-126548000D01*
X147810500Y-117178120D02*
X147810500Y-116810500D01*
X137736000Y-130358000D02*
X143070000Y-130358000D01*
X144594000Y-126548000D02*
X144594000Y-125786000D01*
X147810500Y-116810500D02*
X144760000Y-113760000D01*
X146118000Y-86162000D02*
X141752000Y-90528000D01*
X147896000Y-120706000D02*
X147134000Y-121468000D01*
X147134000Y-123246000D02*
X147134000Y-121468000D01*
D16*
%TO.N,Net-(JP2-A)*%
X139269513Y-121868102D02*
X141069294Y-121868102D01*
X141069294Y-121868102D02*
X141699543Y-122498351D01*
%TO.N,GPIO3*%
X127830000Y-117917000D02*
X126560000Y-119187000D01*
X127830000Y-111944396D02*
X127830000Y-117917000D01*
X133889000Y-105885396D02*
X127830000Y-111944396D01*
X132306500Y-98608000D02*
X132306500Y-101306500D01*
X133889000Y-102889000D02*
X133889000Y-105885396D01*
X132306500Y-101306500D02*
X133889000Y-102889000D01*
%TO.N,GPIO8*%
X129354000Y-109022000D02*
X129354000Y-109784000D01*
X131132000Y-102164000D02*
X130889497Y-102406503D01*
X131894000Y-96830000D02*
X131132000Y-97592000D01*
X131132000Y-97592000D02*
X131132000Y-102164000D01*
X127571000Y-111567000D02*
X126560000Y-111567000D01*
X130889497Y-102406503D02*
X130259500Y-102406503D01*
X129354000Y-109784000D02*
X127571000Y-111567000D01*
%TO.N,GPIO9*%
X133343500Y-96830000D02*
X134042000Y-97528500D01*
X134042000Y-101769208D02*
X134789000Y-102516208D01*
X134789000Y-106258188D02*
X128730000Y-112317188D01*
X128730000Y-112317188D02*
X128730000Y-122097000D01*
X128730000Y-122097000D02*
X126560000Y-124267000D01*
X134789000Y-102516208D02*
X134789000Y-106258188D01*
X134042000Y-97528500D02*
X134042000Y-101769208D01*
%TO.N,GPIO10*%
X134492000Y-96708500D02*
X134492000Y-101582812D01*
X129180000Y-112503584D02*
X129180000Y-124187000D01*
X135239000Y-102329812D02*
X135239000Y-106444584D01*
X129180000Y-124187000D02*
X126560000Y-126807000D01*
X134492000Y-101582812D02*
X135239000Y-102329812D01*
X135239000Y-106444584D02*
X129180000Y-112503584D01*
X133343500Y-95560000D02*
X134492000Y-96708500D01*
%TO.N,GPIO11*%
X135689000Y-102143416D02*
X135689000Y-106630980D01*
X133343500Y-94290000D02*
X134942000Y-95888500D01*
X134942000Y-95888500D02*
X134942000Y-101396416D01*
X129630000Y-126277000D02*
X126560000Y-129347000D01*
X135689000Y-106630980D02*
X129630000Y-112689980D01*
X129630000Y-112689980D02*
X129630000Y-126277000D01*
X134942000Y-101396416D02*
X135689000Y-102143416D01*
%TO.N,GPIO12*%
X136139000Y-96060195D02*
X136139000Y-106817376D01*
X130080000Y-112876376D02*
X130080000Y-128367000D01*
X130080000Y-128367000D02*
X126560000Y-131887000D01*
X133643805Y-93245805D02*
X133643805Y-93565000D01*
X136139000Y-106817376D02*
X130080000Y-112876376D01*
X133418000Y-93020000D02*
X133643805Y-93245805D01*
X133643805Y-93565000D02*
X136139000Y-96060195D01*
%TO.N,GPIO13*%
X144801695Y-94835000D02*
X143027000Y-96609695D01*
X145383695Y-94835000D02*
X144801695Y-94835000D01*
X149884998Y-124096186D02*
X149884998Y-126051693D01*
X148535000Y-109538188D02*
X148535000Y-118938980D01*
X145092695Y-94544000D02*
X145383695Y-94835000D01*
X144820903Y-101641000D02*
X147241812Y-101641000D01*
X147540000Y-101939188D02*
X147540000Y-108543188D01*
X147540000Y-108543188D02*
X148535000Y-109538188D01*
X148535000Y-118938980D02*
X148985000Y-119388980D01*
X149884998Y-126051693D02*
X150335000Y-126501695D01*
X148985000Y-119388980D02*
X148985000Y-123196188D01*
X147241812Y-101641000D02*
X147540000Y-101939188D01*
X143027000Y-99847097D02*
X144820903Y-101641000D01*
X143027000Y-96609695D02*
X143027000Y-99847097D01*
X150335000Y-126501695D02*
X150335000Y-130257000D01*
X145102000Y-94544000D02*
X145092695Y-94544000D01*
X150335000Y-130257000D02*
X151960000Y-131882000D01*
X148985000Y-123196188D02*
X149884998Y-124096186D01*
%TO.N,GPIO14*%
X148985000Y-118752584D02*
X149435000Y-119202584D01*
X143477000Y-97175695D02*
X143477000Y-99660701D01*
X150334998Y-123909790D02*
X150334998Y-125865297D01*
X147990000Y-108356792D02*
X148985000Y-109351792D01*
X145092695Y-95560000D02*
X143477000Y-97175695D01*
X147428208Y-101191000D02*
X147990000Y-101752792D01*
X150785000Y-128167000D02*
X151960000Y-129342000D01*
X147990000Y-101752792D02*
X147990000Y-108356792D01*
X150334998Y-125865297D02*
X150785000Y-126315299D01*
X149435000Y-123009792D02*
X150334998Y-123909790D01*
X148985000Y-109351792D02*
X148985000Y-118752584D01*
X143477000Y-99660701D02*
X145007299Y-101191000D01*
X149435000Y-119202584D02*
X149435000Y-123009792D01*
X145007299Y-101191000D02*
X147428208Y-101191000D01*
X145102000Y-95560000D02*
X145092695Y-95560000D01*
X150785000Y-126315299D02*
X150785000Y-128167000D01*
%TO.N,GPIO39*%
X149420000Y-93020000D02*
X150690000Y-94290000D01*
X146626000Y-93020000D02*
X149420000Y-93020000D01*
X150690000Y-94290000D02*
X150690000Y-102672000D01*
X150690000Y-102672000D02*
X151960000Y-103942000D01*
%TO.N,GPIO37*%
X149420000Y-95560000D02*
X150240000Y-96380000D01*
X150240000Y-107302000D02*
X151960000Y-109022000D01*
X146626000Y-95560000D02*
X149420000Y-95560000D01*
X150240000Y-96380000D02*
X150240000Y-107302000D01*
%TO.N,GPIO21*%
X145193695Y-100741000D02*
X147614604Y-100741000D01*
X143927000Y-99474305D02*
X145193695Y-100741000D01*
X143927000Y-97741695D02*
X143927000Y-99474305D01*
X148440000Y-108170396D02*
X149435000Y-109165396D01*
X145092695Y-96576000D02*
X143927000Y-97741695D01*
X149435000Y-109165396D02*
X149435000Y-118566188D01*
X150785000Y-123775299D02*
X150785000Y-125627000D01*
X148440000Y-101566396D02*
X148440000Y-108170396D01*
X150785000Y-125627000D02*
X151960000Y-126802000D01*
X149885000Y-122823396D02*
X150810952Y-123749348D01*
X150810952Y-123749348D02*
X150785000Y-123775299D01*
X147614604Y-100741000D02*
X148440000Y-101566396D01*
X149435000Y-118566188D02*
X149885000Y-119016188D01*
X149885000Y-119016188D02*
X149885000Y-122823396D01*
X145102000Y-96576000D02*
X145092695Y-96576000D01*
%TO.N,GPIO20*%
X131476250Y-114610000D02*
X132783250Y-115917000D01*
X135704000Y-117404000D02*
X135196000Y-117912000D01*
X135803424Y-120107000D02*
X136629000Y-120107000D01*
X132783250Y-115917000D02*
X136258305Y-115917000D01*
X147896000Y-119690000D02*
X146559000Y-121027000D01*
X146559000Y-121027000D02*
X146559000Y-122805000D01*
X136258305Y-115917000D02*
X136683000Y-116341695D01*
X146880000Y-117404000D02*
X147896000Y-118420000D01*
X135196000Y-117912000D02*
X135196000Y-119499576D01*
X139332000Y-117404000D02*
X146880000Y-117404000D01*
X144848000Y-122992000D02*
X144594000Y-123246000D01*
X144594000Y-123246000D02*
X144594000Y-123236695D01*
X136629000Y-120107000D02*
X139332000Y-117404000D01*
X135196000Y-119499576D02*
X135803424Y-120107000D01*
X136683000Y-116341695D02*
X136683000Y-117187000D01*
X146372000Y-122992000D02*
X144848000Y-122992000D01*
X147896000Y-118420000D02*
X147896000Y-119690000D01*
X136683000Y-117187000D02*
X136466000Y-117404000D01*
X130804500Y-114610000D02*
X131476250Y-114610000D01*
X136466000Y-117404000D02*
X135704000Y-117404000D01*
X146559000Y-122805000D02*
X146372000Y-122992000D01*
%TO.N,GPIO19*%
X130804500Y-115634061D02*
X130530000Y-115908561D01*
X130530000Y-115908561D02*
X130530000Y-122898000D01*
X130530000Y-122898000D02*
X132148000Y-124516000D01*
%TO.N,GPIO18*%
X127500063Y-108086937D02*
X130433850Y-108086937D01*
X126560000Y-109027000D02*
X127500063Y-108086937D01*
%TO.N,DTR*%
X133798000Y-120832000D02*
X132910000Y-119944000D01*
X136212000Y-120832000D02*
X133798000Y-120832000D01*
%TO.N,RTS*%
X135958000Y-116642000D02*
X131640000Y-116642000D01*
%TO.N,GPIO46*%
X128280000Y-120007000D02*
X126560000Y-121727000D01*
X133592000Y-101955604D02*
X134339000Y-102702604D01*
X133592000Y-98480494D02*
X133592000Y-101955604D01*
X128280000Y-112130792D02*
X128280000Y-120007000D01*
X134339000Y-106071792D02*
X128280000Y-112130792D01*
X134339000Y-102702604D02*
X134339000Y-106071792D01*
X133031871Y-97920365D02*
X133592000Y-98480494D01*
%TO.N,GPIO47*%
X150335000Y-118829792D02*
X150335000Y-122637000D01*
X149885000Y-108979000D02*
X149885000Y-118379792D01*
X145092695Y-97592000D02*
X144377000Y-98307695D01*
X144377000Y-98307695D02*
X144377000Y-99036701D01*
X144377000Y-99036701D02*
X145631299Y-100291000D01*
X148890000Y-101380000D02*
X148890000Y-107984000D01*
X145631299Y-100291000D02*
X147801000Y-100291000D01*
X150335000Y-122637000D02*
X151960000Y-124262000D01*
X149885000Y-118379792D02*
X150335000Y-118829792D01*
X145102000Y-97592000D02*
X145092695Y-97592000D01*
X148890000Y-107984000D02*
X149885000Y-108979000D01*
X147801000Y-100291000D02*
X148890000Y-101380000D01*
%TO.N,GPIO48*%
X149340000Y-101068000D02*
X149340000Y-107674792D01*
X150335000Y-118193396D02*
X150785000Y-118643396D01*
X145102000Y-98608000D02*
X145102000Y-99125305D01*
X145817695Y-99841000D02*
X148113000Y-99841000D01*
X148113000Y-99841000D02*
X149340000Y-101068000D01*
X150335000Y-108669792D02*
X150335000Y-118193396D01*
X150785000Y-120547000D02*
X151960000Y-121722000D01*
X149340000Y-107674792D02*
X150335000Y-108669792D01*
X145102000Y-99125305D02*
X145817695Y-99841000D01*
X150785000Y-118643396D02*
X150785000Y-120547000D01*
%TO.N,GPIO45*%
X146118000Y-99116000D02*
X149536000Y-99116000D01*
X149790000Y-107488396D02*
X150785000Y-108483396D01*
X150785000Y-108483396D02*
X150785000Y-118007000D01*
X149790000Y-99370000D02*
X149790000Y-107488396D01*
X149536000Y-99116000D02*
X149790000Y-99370000D01*
X150785000Y-118007000D02*
X151960000Y-119182000D01*
%TO.N,RXD0*%
X139673000Y-113055396D02*
X139673000Y-99529000D01*
X139673000Y-99529000D02*
X138498000Y-98354000D01*
X136086743Y-119365721D02*
X137736000Y-117716464D01*
X137736000Y-114992396D02*
X139673000Y-113055396D01*
X137736000Y-117716464D02*
X137736000Y-114992396D01*
%TO.N,TXD0*%
X137286000Y-114806000D02*
X139223000Y-112869000D01*
X137745000Y-97837000D02*
X138244000Y-97338000D01*
X135958000Y-118305862D02*
X136368941Y-118305862D01*
X139223000Y-101864000D02*
X137745000Y-100386000D01*
X136368941Y-118305862D02*
X137286000Y-117388803D01*
X137286000Y-117388803D02*
X137286000Y-114806000D01*
X137745000Y-100386000D02*
X137745000Y-97837000D01*
X139223000Y-112869000D02*
X139223000Y-101864000D01*
%TD*%
%TA.AperFunction,Conductor*%
%TO.N,GND*%
G36*
X144902908Y-120751401D02*
G01*
X144948663Y-120804205D01*
X144958607Y-120873363D01*
X144943256Y-120917716D01*
X144879742Y-121027725D01*
X144879739Y-121027732D01*
X144825321Y-121195216D01*
X144821247Y-121207754D01*
X144801461Y-121396010D01*
X144821247Y-121584266D01*
X144821248Y-121584269D01*
X144879739Y-121764287D01*
X144879742Y-121764294D01*
X144974388Y-121928226D01*
X145053955Y-122016594D01*
X145101050Y-122068898D01*
X145201917Y-122142182D01*
X145244583Y-122197512D01*
X145250562Y-122267125D01*
X145217957Y-122328920D01*
X145157118Y-122363277D01*
X145129032Y-122366500D01*
X144930737Y-122366500D01*
X144915120Y-122364776D01*
X144915093Y-122365062D01*
X144907331Y-122364327D01*
X144838203Y-122366500D01*
X144804756Y-122366500D01*
X144804756Y-122366136D01*
X144775674Y-122363998D01*
X144688646Y-122345500D01*
X144499354Y-122345500D01*
X144466897Y-122352398D01*
X144314197Y-122384855D01*
X144314192Y-122384857D01*
X144141270Y-122461848D01*
X144141265Y-122461851D01*
X143988129Y-122573111D01*
X143861466Y-122713785D01*
X143766821Y-122877715D01*
X143766818Y-122877722D01*
X143720752Y-123019500D01*
X143708326Y-123057744D01*
X143688540Y-123246000D01*
X143708326Y-123434256D01*
X143708327Y-123434259D01*
X143766818Y-123614277D01*
X143766821Y-123614284D01*
X143861467Y-123778216D01*
X143963943Y-123892027D01*
X143988129Y-123918888D01*
X144141265Y-124030148D01*
X144141270Y-124030151D01*
X144314192Y-124107142D01*
X144314197Y-124107144D01*
X144499354Y-124146500D01*
X144499355Y-124146500D01*
X144688644Y-124146500D01*
X144688646Y-124146500D01*
X144873803Y-124107144D01*
X144873805Y-124107142D01*
X144879987Y-124105135D01*
X144880598Y-124107017D01*
X144940523Y-124098974D01*
X145003805Y-124128592D01*
X145041027Y-124187722D01*
X145040373Y-124257588D01*
X145009409Y-124309222D01*
X144108358Y-125210272D01*
X144094729Y-125222051D01*
X144075468Y-125236390D01*
X144041898Y-125276397D01*
X144038253Y-125280376D01*
X144032409Y-125286222D01*
X144012059Y-125311959D01*
X143962695Y-125370789D01*
X143958729Y-125376819D01*
X143958682Y-125376788D01*
X143954630Y-125383147D01*
X143954679Y-125383177D01*
X143950889Y-125389321D01*
X143918424Y-125458941D01*
X143883960Y-125527566D01*
X143881488Y-125534357D01*
X143881432Y-125534336D01*
X143878960Y-125541450D01*
X143879015Y-125541469D01*
X143876742Y-125548327D01*
X143870410Y-125578998D01*
X143861207Y-125623565D01*
X143858835Y-125633575D01*
X143843498Y-125698286D01*
X143842661Y-125705454D01*
X143842601Y-125705447D01*
X143841835Y-125712945D01*
X143841895Y-125712951D01*
X143841265Y-125720140D01*
X143843500Y-125796916D01*
X143843500Y-126013677D01*
X143826887Y-126075677D01*
X143766821Y-126179714D01*
X143711053Y-126351351D01*
X143708326Y-126359744D01*
X143703439Y-126406245D01*
X143676854Y-126470859D01*
X143619556Y-126510843D01*
X143549737Y-126513503D01*
X143525510Y-126504610D01*
X143419096Y-126452412D01*
X143419095Y-126452411D01*
X143320000Y-126426753D01*
X143320000Y-126990021D01*
X143300315Y-127057060D01*
X143247511Y-127102815D01*
X143178353Y-127112759D01*
X143162066Y-127109287D01*
X143098162Y-127091105D01*
X143098162Y-127091104D01*
X142986475Y-127101454D01*
X142977931Y-127103885D01*
X142908064Y-127103297D01*
X142849606Y-127065028D01*
X142821118Y-127001230D01*
X142820000Y-126984618D01*
X142820000Y-126421633D01*
X142818053Y-126421931D01*
X142818047Y-126421933D01*
X142627342Y-126492562D01*
X142627335Y-126492565D01*
X142454732Y-126600149D01*
X142307331Y-126740264D01*
X142307330Y-126740266D01*
X142191143Y-126907195D01*
X142110940Y-127094092D01*
X142070000Y-127293309D01*
X142070000Y-127695000D01*
X142646000Y-127695000D01*
X142713039Y-127714685D01*
X142758794Y-127767489D01*
X142770000Y-127819000D01*
X142770000Y-128071000D01*
X142750315Y-128138039D01*
X142697511Y-128183794D01*
X142646000Y-128195000D01*
X142129137Y-128195000D01*
X142062098Y-128175315D01*
X142024822Y-128138040D01*
X142022144Y-128133874D01*
X142022143Y-128133872D01*
X141913373Y-128039623D01*
X141913371Y-128039622D01*
X141782456Y-127979834D01*
X141702611Y-127968355D01*
X141675799Y-127964500D01*
X141604201Y-127964500D01*
X141590794Y-127966427D01*
X141497543Y-127979834D01*
X141366628Y-128039622D01*
X141366626Y-128039623D01*
X141257856Y-128133873D01*
X141180045Y-128254949D01*
X141139500Y-128393036D01*
X141139500Y-128536963D01*
X141180045Y-128675050D01*
X141180047Y-128675053D01*
X141257857Y-128796128D01*
X141366627Y-128890377D01*
X141497543Y-128950165D01*
X141604201Y-128965500D01*
X141604204Y-128965500D01*
X141675796Y-128965500D01*
X141675799Y-128965500D01*
X141782457Y-128950165D01*
X141913373Y-128890377D01*
X141954806Y-128854474D01*
X142018360Y-128825450D01*
X142087518Y-128835393D01*
X142140323Y-128881148D01*
X142144427Y-128888010D01*
X142245005Y-129069215D01*
X142245005Y-129069216D01*
X142377478Y-129223530D01*
X142377479Y-129223531D01*
X142538305Y-129348019D01*
X142538306Y-129348020D01*
X142587544Y-129372172D01*
X142639064Y-129419368D01*
X142656889Y-129486926D01*
X142635359Y-129553396D01*
X142581311Y-129597675D01*
X142532936Y-129607500D01*
X138958825Y-129607500D01*
X138891786Y-129587815D01*
X138846031Y-129535011D01*
X138836087Y-129465853D01*
X138851438Y-129421500D01*
X138861921Y-129403343D01*
X138904679Y-129329284D01*
X138963174Y-129149256D01*
X138982960Y-128961000D01*
X138963174Y-128772744D01*
X138904679Y-128592716D01*
X138810033Y-128428784D01*
X138777848Y-128393039D01*
X138734850Y-128345284D01*
X138704620Y-128282292D01*
X138703000Y-128262312D01*
X138703000Y-126968670D01*
X138722685Y-126901631D01*
X138775489Y-126855876D01*
X138844647Y-126845932D01*
X138877432Y-126855389D01*
X138980197Y-126901144D01*
X139165354Y-126940500D01*
X139165355Y-126940500D01*
X139354644Y-126940500D01*
X139354646Y-126940500D01*
X139539803Y-126901144D01*
X139712730Y-126824151D01*
X139865871Y-126712888D01*
X139992533Y-126572216D01*
X140087179Y-126408284D01*
X140145674Y-126228256D01*
X140165460Y-126040000D01*
X140145674Y-125851744D01*
X140087179Y-125671716D01*
X139992533Y-125507784D01*
X139960440Y-125472141D01*
X139917350Y-125424284D01*
X139887120Y-125361292D01*
X139885500Y-125341312D01*
X139885500Y-124318452D01*
X139905185Y-124251413D01*
X139921819Y-124230771D01*
X140267421Y-123885170D01*
X140328744Y-123851685D01*
X140355102Y-123848851D01*
X141955505Y-123848851D01*
X141971125Y-123850575D01*
X141971152Y-123850290D01*
X141978908Y-123851022D01*
X141978915Y-123851024D01*
X142048062Y-123848851D01*
X142077598Y-123848851D01*
X142084476Y-123847981D01*
X142090289Y-123847523D01*
X142136875Y-123846060D01*
X142156117Y-123840468D01*
X142175160Y-123836525D01*
X142195040Y-123834015D01*
X142238370Y-123816858D01*
X142243894Y-123814968D01*
X142247644Y-123813878D01*
X142288638Y-123801969D01*
X142305877Y-123791773D01*
X142323351Y-123783213D01*
X142341975Y-123775839D01*
X142341975Y-123775838D01*
X142341980Y-123775837D01*
X142379697Y-123748433D01*
X142384553Y-123745243D01*
X142424668Y-123721521D01*
X142438837Y-123707350D01*
X142453627Y-123694719D01*
X142469835Y-123682945D01*
X142499547Y-123647027D01*
X142503460Y-123642727D01*
X142891072Y-123255116D01*
X142952393Y-123221633D01*
X142952743Y-123221557D01*
X142968803Y-123218144D01*
X142968807Y-123218142D01*
X142968808Y-123218142D01*
X143027675Y-123191932D01*
X143141730Y-123141151D01*
X143294871Y-123029888D01*
X143421533Y-122889216D01*
X143516179Y-122725284D01*
X143574674Y-122545256D01*
X143594460Y-122357000D01*
X143574674Y-122168744D01*
X143516179Y-121988716D01*
X143421533Y-121824784D01*
X143294871Y-121684112D01*
X143294870Y-121684111D01*
X143141732Y-121572850D01*
X143141730Y-121572849D01*
X143123739Y-121564839D01*
X143070503Y-121519589D01*
X143050182Y-121452740D01*
X143066788Y-121389562D01*
X143129495Y-121280951D01*
X143184838Y-121110622D01*
X143215085Y-121061264D01*
X143508315Y-120768035D01*
X143569638Y-120734550D01*
X143595996Y-120731716D01*
X144835869Y-120731716D01*
X144902908Y-120751401D01*
G37*
%TD.AperFunction*%
%TA.AperFunction,Conductor*%
G36*
X145692752Y-118499185D02*
G01*
X145738507Y-118551989D01*
X145748451Y-118621147D01*
X145743644Y-118641818D01*
X145717155Y-118723344D01*
X145711826Y-118739744D01*
X145692040Y-118928000D01*
X145709461Y-119093757D01*
X145696893Y-119162484D01*
X145649161Y-119213508D01*
X145586141Y-119230716D01*
X143297472Y-119230716D01*
X143279502Y-119229407D01*
X143255739Y-119225926D01*
X143210300Y-119229902D01*
X143203698Y-119230480D01*
X143198297Y-119230716D01*
X143190056Y-119230716D01*
X143168346Y-119233253D01*
X143157491Y-119234522D01*
X143142186Y-119235861D01*
X143080966Y-119241217D01*
X143073899Y-119242676D01*
X143073887Y-119242620D01*
X143066530Y-119244251D01*
X143066544Y-119244308D01*
X143059510Y-119245975D01*
X142987342Y-119272241D01*
X142914442Y-119296397D01*
X142907893Y-119299452D01*
X142907868Y-119299399D01*
X142901075Y-119302687D01*
X142901101Y-119302739D01*
X142894647Y-119305980D01*
X142830475Y-119348187D01*
X142765114Y-119388501D01*
X142759450Y-119392981D01*
X142759414Y-119392935D01*
X142753565Y-119397700D01*
X142753602Y-119397744D01*
X142748077Y-119402380D01*
X142748071Y-119402385D01*
X142748071Y-119402386D01*
X142719683Y-119432475D01*
X142695365Y-119458250D01*
X142149545Y-120004069D01*
X142088222Y-120037554D01*
X142087646Y-120037678D01*
X142022512Y-120051523D01*
X142022508Y-120051524D01*
X141849586Y-120128515D01*
X141849581Y-120128518D01*
X141696445Y-120239778D01*
X141569782Y-120380452D01*
X141475137Y-120544382D01*
X141475134Y-120544389D01*
X141426365Y-120694486D01*
X141416642Y-120724411D01*
X141396856Y-120912667D01*
X141416642Y-121100923D01*
X141416643Y-121100926D01*
X141420979Y-121114271D01*
X141422974Y-121184112D01*
X141386894Y-121243945D01*
X141324193Y-121274773D01*
X141254778Y-121266808D01*
X141253800Y-121266390D01*
X141245188Y-121262663D01*
X141245186Y-121262662D01*
X141199168Y-121255374D01*
X141193446Y-121254189D01*
X141148315Y-121242602D01*
X141148313Y-121242602D01*
X141128278Y-121242602D01*
X141108880Y-121241075D01*
X141101456Y-121239899D01*
X141089099Y-121237942D01*
X141089098Y-121237942D01*
X141042710Y-121242327D01*
X141036872Y-121242602D01*
X139973261Y-121242602D01*
X139906222Y-121222917D01*
X139881113Y-121201576D01*
X139875386Y-121195216D01*
X139875382Y-121195212D01*
X139722247Y-121083953D01*
X139722242Y-121083950D01*
X139549320Y-121006959D01*
X139549315Y-121006957D01*
X139403514Y-120975967D01*
X139364159Y-120967602D01*
X139174867Y-120967602D01*
X139142410Y-120974500D01*
X138989710Y-121006957D01*
X138989705Y-121006959D01*
X138816783Y-121083950D01*
X138816778Y-121083953D01*
X138663642Y-121195213D01*
X138536979Y-121335887D01*
X138442334Y-121499817D01*
X138442331Y-121499824D01*
X138398410Y-121635001D01*
X138383839Y-121679846D01*
X138364053Y-121868102D01*
X138383839Y-122056358D01*
X138383840Y-122056361D01*
X138442331Y-122236379D01*
X138442334Y-122236386D01*
X138536980Y-122400318D01*
X138619473Y-122491935D01*
X138663642Y-122540990D01*
X138816778Y-122652250D01*
X138816783Y-122652253D01*
X138989705Y-122729244D01*
X138989710Y-122729246D01*
X139174867Y-122768602D01*
X139174868Y-122768602D01*
X139315444Y-122768602D01*
X139382483Y-122788287D01*
X139428238Y-122841091D01*
X139438182Y-122910249D01*
X139409157Y-122973805D01*
X139403125Y-122980283D01*
X138876208Y-123507199D01*
X138863951Y-123517020D01*
X138864134Y-123517241D01*
X138858123Y-123522213D01*
X138810772Y-123572636D01*
X138789889Y-123593519D01*
X138789877Y-123593532D01*
X138785621Y-123599017D01*
X138781837Y-123603447D01*
X138749937Y-123637418D01*
X138749936Y-123637420D01*
X138740284Y-123654976D01*
X138729610Y-123671226D01*
X138717329Y-123687061D01*
X138717324Y-123687068D01*
X138698815Y-123729838D01*
X138696245Y-123735084D01*
X138673802Y-123775908D01*
X138669577Y-123792363D01*
X138633836Y-123852400D01*
X138571311Y-123883583D01*
X138501853Y-123876012D01*
X138461793Y-123849202D01*
X138204102Y-123591511D01*
X138194279Y-123579249D01*
X138194058Y-123579433D01*
X138189085Y-123573422D01*
X138175237Y-123560418D01*
X138138663Y-123526072D01*
X138128218Y-123515627D01*
X138117774Y-123505182D01*
X138112285Y-123500924D01*
X138107860Y-123497146D01*
X138073881Y-123465237D01*
X138073879Y-123465235D01*
X138073876Y-123465234D01*
X138056328Y-123455587D01*
X138040062Y-123444903D01*
X138024232Y-123432624D01*
X137981467Y-123414117D01*
X137976221Y-123411547D01*
X137935392Y-123389102D01*
X137935391Y-123389101D01*
X137915992Y-123384121D01*
X137897580Y-123377817D01*
X137879197Y-123369861D01*
X137879191Y-123369859D01*
X137833173Y-123362571D01*
X137827451Y-123361386D01*
X137782320Y-123349799D01*
X137782318Y-123349799D01*
X137762283Y-123349799D01*
X137742885Y-123348272D01*
X137735461Y-123347096D01*
X137723104Y-123345139D01*
X137723103Y-123345139D01*
X137676715Y-123349524D01*
X137670877Y-123349799D01*
X137510799Y-123349799D01*
X137443760Y-123330114D01*
X137398005Y-123277310D01*
X137386799Y-123225799D01*
X137386799Y-122862041D01*
X137388523Y-122846421D01*
X137388238Y-122846395D01*
X137388970Y-122838639D01*
X137388972Y-122838632D01*
X137386799Y-122769484D01*
X137386799Y-122739949D01*
X137385930Y-122733071D01*
X137385471Y-122727242D01*
X137385409Y-122725284D01*
X137384008Y-122680672D01*
X137381158Y-122670865D01*
X137378421Y-122661443D01*
X137374473Y-122642383D01*
X137371962Y-122622503D01*
X137354811Y-122579186D01*
X137352918Y-122573657D01*
X137339917Y-122528908D01*
X137339915Y-122528905D01*
X137329722Y-122511670D01*
X137321160Y-122494193D01*
X137313786Y-122475569D01*
X137313785Y-122475567D01*
X137286378Y-122437844D01*
X137283187Y-122432985D01*
X137259471Y-122392882D01*
X137259464Y-122392873D01*
X137245305Y-122378714D01*
X137232667Y-122363918D01*
X137220893Y-122347712D01*
X137218219Y-122345500D01*
X137184987Y-122318008D01*
X137180675Y-122314085D01*
X136997923Y-122131333D01*
X136964438Y-122070010D01*
X136969422Y-122000318D01*
X136997923Y-121955971D01*
X137129110Y-121824784D01*
X137320785Y-121633108D01*
X137333041Y-121623292D01*
X137332858Y-121623070D01*
X137338875Y-121618092D01*
X137338874Y-121618092D01*
X137338877Y-121618091D01*
X137370641Y-121584266D01*
X137386227Y-121567669D01*
X137396671Y-121557223D01*
X137407120Y-121546776D01*
X137411379Y-121541283D01*
X137415152Y-121536866D01*
X137447062Y-121502887D01*
X137456713Y-121485329D01*
X137467396Y-121469066D01*
X137479673Y-121453241D01*
X137498185Y-121410458D01*
X137500738Y-121405246D01*
X137523197Y-121364397D01*
X137528180Y-121344985D01*
X137534481Y-121326585D01*
X137542437Y-121308201D01*
X137549729Y-121262157D01*
X137550906Y-121256476D01*
X137562500Y-121211324D01*
X137562500Y-121191288D01*
X137564027Y-121171887D01*
X137567160Y-121152109D01*
X137562775Y-121105720D01*
X137562500Y-121099882D01*
X137562500Y-120745848D01*
X137582185Y-120678809D01*
X137598819Y-120658167D01*
X139741168Y-118515819D01*
X139802491Y-118482334D01*
X139828849Y-118479500D01*
X145625713Y-118479500D01*
X145692752Y-118499185D01*
G37*
%TD.AperFunction*%
%TA.AperFunction,Conductor*%
G36*
X138516834Y-103132270D02*
G01*
X138572767Y-103174142D01*
X138597184Y-103239606D01*
X138597500Y-103248452D01*
X138597500Y-112558546D01*
X138577815Y-112625585D01*
X138561181Y-112646227D01*
X136902208Y-114305199D01*
X136889951Y-114315020D01*
X136890134Y-114315241D01*
X136884123Y-114320213D01*
X136836772Y-114370636D01*
X136815889Y-114391519D01*
X136815877Y-114391532D01*
X136811621Y-114397017D01*
X136807837Y-114401447D01*
X136775937Y-114435418D01*
X136775936Y-114435420D01*
X136766284Y-114452976D01*
X136755610Y-114469226D01*
X136743329Y-114485061D01*
X136743324Y-114485068D01*
X136724815Y-114527838D01*
X136722245Y-114533084D01*
X136699803Y-114573906D01*
X136694822Y-114593307D01*
X136688521Y-114611710D01*
X136680562Y-114630102D01*
X136680561Y-114630105D01*
X136673271Y-114676127D01*
X136672087Y-114681846D01*
X136660501Y-114726972D01*
X136660500Y-114726982D01*
X136660500Y-114747016D01*
X136658973Y-114766415D01*
X136655840Y-114786194D01*
X136655840Y-114786195D01*
X136660225Y-114832583D01*
X136660500Y-114838421D01*
X136660500Y-115215691D01*
X136640815Y-115282730D01*
X136588011Y-115328485D01*
X136518853Y-115338429D01*
X136490855Y-115330984D01*
X136490397Y-115330802D01*
X136470998Y-115325822D01*
X136452586Y-115319518D01*
X136434203Y-115311562D01*
X136434197Y-115311560D01*
X136388179Y-115304272D01*
X136382457Y-115303087D01*
X136337326Y-115291500D01*
X136337324Y-115291500D01*
X136317289Y-115291500D01*
X136297891Y-115289973D01*
X136290467Y-115288797D01*
X136278110Y-115286840D01*
X136278109Y-115286840D01*
X136231721Y-115291225D01*
X136225883Y-115291500D01*
X133093703Y-115291500D01*
X133026664Y-115271815D01*
X133006022Y-115255181D01*
X132958882Y-115208041D01*
X132925397Y-115146718D01*
X132930381Y-115077026D01*
X132972253Y-115021093D01*
X133020781Y-114999070D01*
X133189803Y-114963144D01*
X133362730Y-114886151D01*
X133515871Y-114774888D01*
X133642533Y-114634216D01*
X133737179Y-114470284D01*
X133795674Y-114290256D01*
X133815460Y-114102000D01*
X133795674Y-113913744D01*
X133737179Y-113733716D01*
X133661655Y-113602905D01*
X133645183Y-113535007D01*
X133668036Y-113468980D01*
X133681356Y-113453232D01*
X136604199Y-110530390D01*
X136622182Y-110515514D01*
X136628938Y-110510924D01*
X136666918Y-110467842D01*
X136669558Y-110465032D01*
X136682120Y-110452471D01*
X136693012Y-110438427D01*
X136695465Y-110435463D01*
X136733450Y-110392378D01*
X136737157Y-110385100D01*
X136749663Y-110365394D01*
X136754673Y-110358936D01*
X136777482Y-110306224D01*
X136779112Y-110302758D01*
X136805198Y-110251565D01*
X136806981Y-110243586D01*
X136814197Y-110221382D01*
X136817437Y-110213896D01*
X136826421Y-110157168D01*
X136827146Y-110153368D01*
X136828498Y-110147323D01*
X136839672Y-110097333D01*
X136839415Y-110089170D01*
X136840882Y-110065871D01*
X136841733Y-110060498D01*
X136842160Y-110057804D01*
X136836755Y-110000634D01*
X136836512Y-109996770D01*
X136834709Y-109939373D01*
X136832428Y-109931523D01*
X136828055Y-109908601D01*
X136827287Y-109900467D01*
X136827285Y-109900463D01*
X136826552Y-109892693D01*
X136826872Y-109892662D01*
X136825185Y-109877374D01*
X136825185Y-108693486D01*
X136844870Y-108626447D01*
X136861499Y-108605810D01*
X137678785Y-107788524D01*
X137691041Y-107778708D01*
X137690858Y-107778486D01*
X137696875Y-107773508D01*
X137696874Y-107773508D01*
X137696877Y-107773507D01*
X137721251Y-107747550D01*
X137744227Y-107723085D01*
X137754671Y-107712639D01*
X137765120Y-107702192D01*
X137769379Y-107696699D01*
X137773152Y-107692282D01*
X137805062Y-107658303D01*
X137814715Y-107640741D01*
X137825389Y-107624491D01*
X137837673Y-107608657D01*
X137856180Y-107565888D01*
X137858749Y-107560645D01*
X137866588Y-107546386D01*
X137881197Y-107519813D01*
X137886177Y-107500412D01*
X137892478Y-107482009D01*
X137900438Y-107463617D01*
X137907730Y-107417570D01*
X137908911Y-107411873D01*
X137920500Y-107366740D01*
X137920500Y-107346704D01*
X137922027Y-107327303D01*
X137923217Y-107319790D01*
X137925160Y-107307525D01*
X137920775Y-107261136D01*
X137920500Y-107255298D01*
X137920500Y-103677452D01*
X137940185Y-103610413D01*
X137956819Y-103589771D01*
X138068255Y-103478335D01*
X138385820Y-103160770D01*
X138447142Y-103127286D01*
X138516834Y-103132270D01*
G37*
%TD.AperFunction*%
%TA.AperFunction,Conductor*%
G36*
X152644867Y-81450579D02*
G01*
X152651427Y-81452806D01*
X152783755Y-81502161D01*
X152789488Y-81504637D01*
X152904572Y-81561390D01*
X152904952Y-81561578D01*
X153026906Y-81628170D01*
X153031634Y-81631032D01*
X153088571Y-81669076D01*
X153138649Y-81702537D01*
X153141358Y-81704454D01*
X153250652Y-81786271D01*
X153254345Y-81789265D01*
X153351502Y-81874469D01*
X153354448Y-81877228D01*
X153450769Y-81973549D01*
X153453526Y-81976492D01*
X153538729Y-82073648D01*
X153541732Y-82077353D01*
X153593564Y-82146592D01*
X153623543Y-82186639D01*
X153625461Y-82189349D01*
X153696962Y-82296357D01*
X153699828Y-82301091D01*
X153766421Y-82423047D01*
X153823355Y-82538499D01*
X153825841Y-82544257D01*
X153862212Y-82641768D01*
X153875196Y-82676578D01*
X153893049Y-82729172D01*
X153915597Y-82795596D01*
X153917472Y-82802352D01*
X153948846Y-82946579D01*
X153971980Y-83062880D01*
X153973015Y-83070560D01*
X153986017Y-83252350D01*
X153991367Y-83333966D01*
X153991500Y-83338023D01*
X153991500Y-132927975D01*
X153991367Y-132932026D01*
X153990191Y-132949978D01*
X153986017Y-133013648D01*
X153973015Y-133195438D01*
X153971980Y-133203118D01*
X153948846Y-133319420D01*
X153917472Y-133463646D01*
X153915597Y-133470401D01*
X153899316Y-133518366D01*
X153875208Y-133589388D01*
X153875195Y-133589425D01*
X153825841Y-133721741D01*
X153823355Y-133727499D01*
X153766421Y-133842952D01*
X153699828Y-133964907D01*
X153696961Y-133969641D01*
X153625461Y-134076649D01*
X153623543Y-134079359D01*
X153541744Y-134188631D01*
X153538723Y-134192357D01*
X153453529Y-134289502D01*
X153450755Y-134292464D01*
X153354464Y-134388755D01*
X153351502Y-134391529D01*
X153254357Y-134476723D01*
X153250631Y-134479744D01*
X153141359Y-134561543D01*
X153138649Y-134563461D01*
X153031641Y-134634961D01*
X153026907Y-134637828D01*
X152904952Y-134704421D01*
X152789499Y-134761355D01*
X152783741Y-134763841D01*
X152662956Y-134808893D01*
X152651418Y-134813197D01*
X152532401Y-134853597D01*
X152525646Y-134855472D01*
X152381420Y-134886846D01*
X152265118Y-134909980D01*
X152257438Y-134911015D01*
X152075648Y-134924017D01*
X152024582Y-134927364D01*
X151994025Y-134929367D01*
X151989976Y-134929500D01*
X126530024Y-134929500D01*
X126525974Y-134929367D01*
X126487954Y-134926875D01*
X126444350Y-134924017D01*
X126262560Y-134911015D01*
X126254880Y-134909980D01*
X126138579Y-134886846D01*
X125994352Y-134855472D01*
X125987596Y-134853597D01*
X125955881Y-134842831D01*
X125868578Y-134813196D01*
X125833768Y-134800212D01*
X125736257Y-134763841D01*
X125730499Y-134761355D01*
X125615047Y-134704421D01*
X125493091Y-134637828D01*
X125488357Y-134634962D01*
X125381349Y-134563461D01*
X125378639Y-134561543D01*
X125338592Y-134531564D01*
X125269353Y-134479732D01*
X125265648Y-134476729D01*
X125168492Y-134391526D01*
X125165549Y-134388769D01*
X125069228Y-134292448D01*
X125066469Y-134289502D01*
X125033450Y-134251851D01*
X124981265Y-134192345D01*
X124978271Y-134188652D01*
X124896454Y-134079358D01*
X124894537Y-134076649D01*
X124823036Y-133969641D01*
X124820170Y-133964906D01*
X124753578Y-133842952D01*
X124696643Y-133727499D01*
X124694157Y-133721741D01*
X124681076Y-133686671D01*
X124644805Y-133589425D01*
X124604395Y-133470383D01*
X124602531Y-133463666D01*
X124571153Y-133319420D01*
X124562025Y-133273531D01*
X124548015Y-133203100D01*
X124546985Y-133195459D01*
X124533986Y-133013708D01*
X124530164Y-132955381D01*
X124528633Y-132932019D01*
X124528500Y-132927964D01*
X124528500Y-131887000D01*
X125204341Y-131887000D01*
X125224936Y-132122403D01*
X125224938Y-132122413D01*
X125286094Y-132350655D01*
X125286096Y-132350659D01*
X125286097Y-132350663D01*
X125306772Y-132395000D01*
X125385965Y-132564830D01*
X125385967Y-132564834D01*
X125494281Y-132719521D01*
X125521505Y-132758401D01*
X125688599Y-132925495D01*
X125731281Y-132955381D01*
X125882165Y-133061032D01*
X125882167Y-133061033D01*
X125882170Y-133061035D01*
X126096337Y-133160903D01*
X126324592Y-133222063D01*
X126502851Y-133237659D01*
X126559999Y-133242659D01*
X126560000Y-133242659D01*
X126560001Y-133242659D01*
X126617149Y-133237659D01*
X126795408Y-133222063D01*
X127023663Y-133160903D01*
X127237830Y-133061035D01*
X127431401Y-132925495D01*
X127598495Y-132758401D01*
X127712410Y-132595713D01*
X133430000Y-132595713D01*
X133445418Y-132747338D01*
X133506299Y-132941381D01*
X133506304Y-132941391D01*
X133605005Y-133119215D01*
X133605005Y-133119216D01*
X133737478Y-133273530D01*
X133737479Y-133273531D01*
X133898304Y-133398018D01*
X134080907Y-133487589D01*
X134180000Y-133513244D01*
X134180000Y-132949978D01*
X134199685Y-132882939D01*
X134252489Y-132837184D01*
X134321647Y-132827240D01*
X134337926Y-132830709D01*
X134401840Y-132848895D01*
X134513521Y-132838546D01*
X134513526Y-132838543D01*
X134522063Y-132836115D01*
X134591930Y-132836701D01*
X134650390Y-132874966D01*
X134678881Y-132938763D01*
X134680000Y-132955381D01*
X134680000Y-133518366D01*
X134681944Y-133518069D01*
X134681945Y-133518069D01*
X134872660Y-133447436D01*
X134872664Y-133447434D01*
X135045267Y-133339850D01*
X135192668Y-133199735D01*
X135192669Y-133199733D01*
X135308856Y-133032804D01*
X135389059Y-132845907D01*
X135430000Y-132646690D01*
X135430000Y-132395000D01*
X134854000Y-132395000D01*
X134786961Y-132375315D01*
X134741206Y-132322511D01*
X134730000Y-132271000D01*
X134730000Y-132019000D01*
X134749685Y-131951961D01*
X134802489Y-131906206D01*
X134854000Y-131895000D01*
X135430000Y-131895000D01*
X135430000Y-131694286D01*
X135414581Y-131542661D01*
X135353700Y-131348618D01*
X135353695Y-131348608D01*
X135254994Y-131170784D01*
X135254994Y-131170783D01*
X135122521Y-131016469D01*
X135122520Y-131016468D01*
X134961695Y-130891981D01*
X134779093Y-130802411D01*
X134680000Y-130776753D01*
X134680000Y-131340021D01*
X134660315Y-131407060D01*
X134607511Y-131452815D01*
X134538353Y-131462759D01*
X134522066Y-131459287D01*
X134458162Y-131441105D01*
X134458162Y-131441104D01*
X134346478Y-131451453D01*
X134337929Y-131453886D01*
X134268061Y-131453296D01*
X134209604Y-131415027D01*
X134181117Y-131351229D01*
X134179999Y-131334618D01*
X134179999Y-130771633D01*
X134178053Y-130771931D01*
X134178047Y-130771933D01*
X133987342Y-130842562D01*
X133987335Y-130842565D01*
X133814732Y-130950149D01*
X133667331Y-131090264D01*
X133667330Y-131090266D01*
X133551143Y-131257195D01*
X133470940Y-131444092D01*
X133430000Y-131643309D01*
X133430000Y-131895000D01*
X134006000Y-131895000D01*
X134073039Y-131914685D01*
X134118794Y-131967489D01*
X134130000Y-132019000D01*
X134130000Y-132271000D01*
X134110315Y-132338039D01*
X134057511Y-132383794D01*
X134006000Y-132395000D01*
X133430000Y-132395000D01*
X133430000Y-132595713D01*
X127712410Y-132595713D01*
X127734035Y-132564830D01*
X127833903Y-132350663D01*
X127895063Y-132122408D01*
X127915659Y-131887000D01*
X127915221Y-131881999D01*
X127895063Y-131651596D01*
X127895063Y-131651592D01*
X127868142Y-131551125D01*
X127869806Y-131481276D01*
X127900235Y-131431353D01*
X130463786Y-128867802D01*
X130476048Y-128857980D01*
X130475865Y-128857759D01*
X130481867Y-128852792D01*
X130481877Y-128852786D01*
X130529241Y-128802348D01*
X130550120Y-128781470D01*
X130554373Y-128775986D01*
X130558150Y-128771563D01*
X130590062Y-128737582D01*
X130599714Y-128720023D01*
X130610389Y-128703772D01*
X130622674Y-128687936D01*
X130641186Y-128645152D01*
X130643742Y-128639935D01*
X130661383Y-128607848D01*
X130666194Y-128599098D01*
X130666194Y-128599097D01*
X130666197Y-128599092D01*
X130671180Y-128579680D01*
X130677477Y-128561291D01*
X130685438Y-128542895D01*
X130692729Y-128496853D01*
X130693906Y-128491166D01*
X130705500Y-128446019D01*
X130705499Y-128425986D01*
X130707027Y-128406583D01*
X130710159Y-128386808D01*
X130710160Y-128386806D01*
X130705775Y-128340415D01*
X130705500Y-128334577D01*
X130705500Y-124257452D01*
X130725185Y-124190413D01*
X130777989Y-124144658D01*
X130847147Y-124134714D01*
X130910703Y-124163739D01*
X130917181Y-124169771D01*
X131209038Y-124461628D01*
X131242523Y-124522951D01*
X131244678Y-124536347D01*
X131251481Y-124601074D01*
X131262326Y-124704256D01*
X131262327Y-124704259D01*
X131320818Y-124884277D01*
X131320821Y-124884284D01*
X131415467Y-125048216D01*
X131492163Y-125133395D01*
X131542129Y-125188888D01*
X131695265Y-125300148D01*
X131695270Y-125300151D01*
X131868192Y-125377142D01*
X131868197Y-125377144D01*
X132053354Y-125416500D01*
X132053355Y-125416500D01*
X132242644Y-125416500D01*
X132242646Y-125416500D01*
X132427803Y-125377144D01*
X132600730Y-125300151D01*
X132753871Y-125188888D01*
X132880533Y-125048216D01*
X132975179Y-124884284D01*
X133033674Y-124704256D01*
X133053460Y-124516000D01*
X133033674Y-124327744D01*
X132975179Y-124147716D01*
X132880533Y-123983784D01*
X132753871Y-123843112D01*
X132746488Y-123837748D01*
X132600734Y-123731851D01*
X132600729Y-123731848D01*
X132427807Y-123654857D01*
X132427802Y-123654855D01*
X132252055Y-123617500D01*
X132242646Y-123615500D01*
X132242645Y-123615500D01*
X132183452Y-123615500D01*
X132116413Y-123595815D01*
X132095771Y-123579181D01*
X131645650Y-123129060D01*
X131191816Y-122675225D01*
X131158333Y-122613905D01*
X131155500Y-122587555D01*
X131155500Y-122491934D01*
X131175185Y-122424895D01*
X131227990Y-122379141D01*
X131284854Y-122369863D01*
X131284855Y-122368500D01*
X131480644Y-122368500D01*
X131480646Y-122368500D01*
X131665803Y-122329144D01*
X131838730Y-122252151D01*
X131838734Y-122252148D01*
X131843563Y-122249998D01*
X131912813Y-122240712D01*
X131944437Y-122249998D01*
X131949265Y-122252148D01*
X131949270Y-122252151D01*
X132122197Y-122329144D01*
X132307354Y-122368500D01*
X132307355Y-122368500D01*
X132496644Y-122368500D01*
X132496646Y-122368500D01*
X132681803Y-122329144D01*
X132854730Y-122252151D01*
X132876429Y-122236386D01*
X132918002Y-122206182D01*
X132983808Y-122182702D01*
X132990887Y-122182500D01*
X134552165Y-122182500D01*
X134619204Y-122202185D01*
X134664959Y-122254989D01*
X134675485Y-122319459D01*
X134671540Y-122357000D01*
X134691326Y-122545256D01*
X134691327Y-122545259D01*
X134749818Y-122725277D01*
X134749821Y-122725284D01*
X134844467Y-122889216D01*
X134961776Y-123019500D01*
X134971129Y-123029888D01*
X135124265Y-123141148D01*
X135124270Y-123141151D01*
X135297192Y-123218142D01*
X135297197Y-123218144D01*
X135482354Y-123257500D01*
X135482355Y-123257500D01*
X135671644Y-123257500D01*
X135671646Y-123257500D01*
X135856803Y-123218144D01*
X135961364Y-123171589D01*
X136030612Y-123162304D01*
X136093889Y-123191932D01*
X136131103Y-123251067D01*
X136135799Y-123284869D01*
X136135799Y-123467859D01*
X136134074Y-123483476D01*
X136134360Y-123483503D01*
X136133625Y-123491269D01*
X136135799Y-123560418D01*
X136135799Y-123589947D01*
X136135800Y-123589964D01*
X136136667Y-123596835D01*
X136137125Y-123602654D01*
X136138589Y-123649228D01*
X136138590Y-123649231D01*
X136144179Y-123668471D01*
X136148123Y-123687515D01*
X136150635Y-123707396D01*
X136160317Y-123731851D01*
X136167789Y-123750723D01*
X136169681Y-123756251D01*
X136181116Y-123795610D01*
X136182681Y-123800994D01*
X136192064Y-123816861D01*
X136192879Y-123818238D01*
X136201435Y-123835704D01*
X136208813Y-123854336D01*
X136228198Y-123881018D01*
X136236197Y-123892027D01*
X136239405Y-123896911D01*
X136263126Y-123937020D01*
X136263132Y-123937028D01*
X136277289Y-123951184D01*
X136289927Y-123965980D01*
X136301704Y-123982190D01*
X136301705Y-123982191D01*
X136337608Y-124011892D01*
X136341919Y-124015814D01*
X136513827Y-124187722D01*
X136685188Y-124359083D01*
X136695011Y-124371344D01*
X136695233Y-124371162D01*
X136700206Y-124377174D01*
X136700207Y-124377175D01*
X136700208Y-124377176D01*
X136733822Y-124408742D01*
X136750630Y-124424526D01*
X136771517Y-124445414D01*
X136771521Y-124445417D01*
X136771523Y-124445419D01*
X136777005Y-124449672D01*
X136781437Y-124453456D01*
X136815412Y-124485361D01*
X136832970Y-124495013D01*
X136849229Y-124505694D01*
X136865058Y-124517972D01*
X136907832Y-124536481D01*
X136913050Y-124539037D01*
X136953902Y-124561496D01*
X136973310Y-124566479D01*
X136991711Y-124572779D01*
X137010098Y-124580736D01*
X137053482Y-124587607D01*
X137056113Y-124588024D01*
X137061833Y-124589208D01*
X137106975Y-124600799D01*
X137127010Y-124600799D01*
X137146408Y-124602325D01*
X137166188Y-124605458D01*
X137166189Y-124605459D01*
X137166189Y-124605458D01*
X137166190Y-124605459D01*
X137212577Y-124601074D01*
X137218416Y-124600799D01*
X137328000Y-124600799D01*
X137395039Y-124620484D01*
X137440794Y-124673288D01*
X137452000Y-124724799D01*
X137452000Y-125919269D01*
X137432315Y-125986308D01*
X137379511Y-126032063D01*
X137310353Y-126042007D01*
X137246797Y-126012982D01*
X137240319Y-126006951D01*
X137199914Y-125966546D01*
X137124768Y-125891400D01*
X137094521Y-125842041D01*
X137039179Y-125671716D01*
X136944533Y-125507784D01*
X136817871Y-125367112D01*
X136817870Y-125367111D01*
X136664734Y-125255851D01*
X136664729Y-125255848D01*
X136491807Y-125178857D01*
X136491802Y-125178855D01*
X136346001Y-125147865D01*
X136306646Y-125139500D01*
X136117354Y-125139500D01*
X136084897Y-125146398D01*
X135932197Y-125178855D01*
X135932192Y-125178857D01*
X135759270Y-125255848D01*
X135759265Y-125255851D01*
X135606129Y-125367111D01*
X135479466Y-125507785D01*
X135384821Y-125671715D01*
X135384818Y-125671722D01*
X135329479Y-125842039D01*
X135326326Y-125851744D01*
X135306540Y-126040000D01*
X135326326Y-126228256D01*
X135326327Y-126228259D01*
X135384818Y-126408277D01*
X135384821Y-126408284D01*
X135479467Y-126572216D01*
X135564332Y-126666468D01*
X135606129Y-126712888D01*
X135759265Y-126824148D01*
X135759270Y-126824151D01*
X135932191Y-126901142D01*
X135932193Y-126901142D01*
X135932197Y-126901144D01*
X135997329Y-126914987D01*
X136058809Y-126948178D01*
X136059228Y-126948596D01*
X136441181Y-127330549D01*
X136474666Y-127391872D01*
X136477500Y-127418230D01*
X136477500Y-128077789D01*
X136457815Y-128144828D01*
X136405011Y-128190583D01*
X136335853Y-128200527D01*
X136272297Y-128171502D01*
X136249185Y-128144829D01*
X136242144Y-128133874D01*
X136242143Y-128133872D01*
X136133373Y-128039623D01*
X136133371Y-128039622D01*
X136002456Y-127979834D01*
X135922611Y-127968355D01*
X135895799Y-127964500D01*
X135824201Y-127964500D01*
X135810794Y-127966427D01*
X135717543Y-127979834D01*
X135586628Y-128039622D01*
X135586626Y-128039623D01*
X135517525Y-128099500D01*
X135490969Y-128122511D01*
X135477855Y-128133874D01*
X135475178Y-128138040D01*
X135422374Y-128183795D01*
X135370863Y-128195000D01*
X134854000Y-128195000D01*
X134786961Y-128175315D01*
X134741206Y-128122511D01*
X134730000Y-128071000D01*
X134730000Y-127819000D01*
X134749685Y-127751961D01*
X134802489Y-127706206D01*
X134854000Y-127695000D01*
X135430000Y-127695000D01*
X135430000Y-127344286D01*
X135414581Y-127192661D01*
X135353700Y-126998618D01*
X135353695Y-126998608D01*
X135254994Y-126820784D01*
X135254994Y-126820783D01*
X135122521Y-126666469D01*
X135122520Y-126666468D01*
X134961695Y-126541981D01*
X134779093Y-126452411D01*
X134680000Y-126426753D01*
X134680000Y-126990021D01*
X134660315Y-127057060D01*
X134607511Y-127102815D01*
X134538353Y-127112759D01*
X134522066Y-127109287D01*
X134458162Y-127091105D01*
X134458162Y-127091104D01*
X134346478Y-127101453D01*
X134337929Y-127103886D01*
X134268061Y-127103296D01*
X134209604Y-127065027D01*
X134181117Y-127001229D01*
X134179999Y-126984618D01*
X134179999Y-126421633D01*
X134179998Y-126421632D01*
X134178063Y-126421929D01*
X134178049Y-126421932D01*
X133987342Y-126492562D01*
X133987335Y-126492565D01*
X133814732Y-126600149D01*
X133667331Y-126740264D01*
X133667330Y-126740266D01*
X133551143Y-126907195D01*
X133470940Y-127094092D01*
X133430000Y-127293309D01*
X133430000Y-127695000D01*
X134006000Y-127695000D01*
X134073039Y-127714685D01*
X134118794Y-127767489D01*
X134130000Y-127819000D01*
X134130000Y-128071000D01*
X134110315Y-128138039D01*
X134057511Y-128183794D01*
X134006000Y-128195000D01*
X133430000Y-128195000D01*
X133430000Y-128545713D01*
X133445418Y-128697338D01*
X133506299Y-128891381D01*
X133506304Y-128891391D01*
X133605005Y-129069215D01*
X133605005Y-129069216D01*
X133737478Y-129223530D01*
X133737479Y-129223531D01*
X133898304Y-129348018D01*
X134080902Y-129437586D01*
X134080903Y-129437587D01*
X134179999Y-129463244D01*
X134179999Y-128899978D01*
X134199684Y-128832939D01*
X134252488Y-128787184D01*
X134321646Y-128777240D01*
X134337932Y-128780711D01*
X134401840Y-128798895D01*
X134513521Y-128788546D01*
X134513526Y-128788543D01*
X134522063Y-128786115D01*
X134591930Y-128786701D01*
X134650390Y-128824966D01*
X134678881Y-128888763D01*
X134680000Y-128905381D01*
X134680000Y-129468365D01*
X134681944Y-129468069D01*
X134681945Y-129468069D01*
X134872660Y-129397436D01*
X134872664Y-129397434D01*
X135045267Y-129289850D01*
X135192668Y-129149735D01*
X135192669Y-129149733D01*
X135308857Y-128982803D01*
X135346144Y-128895913D01*
X135390670Y-128842069D01*
X135457238Y-128820845D01*
X135524714Y-128838980D01*
X135541294Y-128851096D01*
X135586627Y-128890377D01*
X135717543Y-128950165D01*
X135824201Y-128965500D01*
X135824204Y-128965500D01*
X135895796Y-128965500D01*
X135895799Y-128965500D01*
X136002457Y-128950165D01*
X136133373Y-128890377D01*
X136242143Y-128796128D01*
X136249183Y-128785172D01*
X136301986Y-128739417D01*
X136371145Y-128729472D01*
X136434701Y-128758495D01*
X136472476Y-128817273D01*
X136477500Y-128852210D01*
X136477500Y-129786294D01*
X136476191Y-129804263D01*
X136472710Y-129828025D01*
X136477264Y-129880064D01*
X136477500Y-129885470D01*
X136477500Y-129893709D01*
X136481306Y-129926274D01*
X136488000Y-130002791D01*
X136489461Y-130009867D01*
X136489403Y-130009878D01*
X136491034Y-130017237D01*
X136491092Y-130017224D01*
X136492757Y-130024250D01*
X136519025Y-130096424D01*
X136543185Y-130169331D01*
X136546236Y-130175874D01*
X136546182Y-130175898D01*
X136549470Y-130182688D01*
X136549521Y-130182663D01*
X136552761Y-130189113D01*
X136552762Y-130189114D01*
X136552763Y-130189117D01*
X136572019Y-130218395D01*
X136594965Y-130253283D01*
X136635287Y-130318655D01*
X136639766Y-130324319D01*
X136639719Y-130324356D01*
X136644482Y-130330202D01*
X136644528Y-130330164D01*
X136649173Y-130335700D01*
X136701954Y-130385495D01*
X136705019Y-130388387D01*
X136933632Y-130617000D01*
X137160268Y-130843635D01*
X137172049Y-130857267D01*
X137186390Y-130876530D01*
X137226420Y-130910119D01*
X137230392Y-130913759D01*
X137236223Y-130919590D01*
X137261939Y-130939923D01*
X137320786Y-130989302D01*
X137320788Y-130989303D01*
X137326823Y-130993272D01*
X137326789Y-130993322D01*
X137333144Y-130997370D01*
X137333177Y-130997318D01*
X137339319Y-131001107D01*
X137339323Y-131001110D01*
X137408219Y-131033237D01*
X137408914Y-131033561D01*
X137477558Y-131068036D01*
X137477561Y-131068037D01*
X137477567Y-131068040D01*
X137477572Y-131068041D01*
X137484355Y-131070510D01*
X137484334Y-131070567D01*
X137491451Y-131073040D01*
X137491470Y-131072984D01*
X137498330Y-131075257D01*
X137571023Y-131090266D01*
X137573532Y-131090784D01*
X137648279Y-131108500D01*
X137648288Y-131108500D01*
X137655452Y-131109338D01*
X137655445Y-131109397D01*
X137662946Y-131110163D01*
X137662952Y-131110104D01*
X137670140Y-131110733D01*
X137670143Y-131110732D01*
X137670144Y-131110733D01*
X137746898Y-131108500D01*
X142066806Y-131108500D01*
X142133845Y-131128185D01*
X142179600Y-131180989D01*
X142189544Y-131250147D01*
X142180757Y-131281400D01*
X142110940Y-131444092D01*
X142070000Y-131643309D01*
X142070000Y-131895000D01*
X142646000Y-131895000D01*
X142713039Y-131914685D01*
X142758794Y-131967489D01*
X142770000Y-132019000D01*
X142770000Y-132271000D01*
X142750315Y-132338039D01*
X142697511Y-132383794D01*
X142646000Y-132395000D01*
X142070000Y-132395000D01*
X142070000Y-132595713D01*
X142085418Y-132747338D01*
X142146299Y-132941381D01*
X142146304Y-132941391D01*
X142245005Y-133119215D01*
X142245005Y-133119216D01*
X142377478Y-133273530D01*
X142377479Y-133273531D01*
X142538304Y-133398018D01*
X142720907Y-133487589D01*
X142820000Y-133513244D01*
X142820000Y-132949978D01*
X142839685Y-132882939D01*
X142892489Y-132837184D01*
X142961647Y-132827240D01*
X142977926Y-132830709D01*
X143041840Y-132848895D01*
X143153521Y-132838546D01*
X143153526Y-132838543D01*
X143162063Y-132836115D01*
X143231930Y-132836701D01*
X143290390Y-132874966D01*
X143318881Y-132938763D01*
X143320000Y-132955381D01*
X143320000Y-133518366D01*
X143321944Y-133518069D01*
X143321945Y-133518069D01*
X143512660Y-133447436D01*
X143512664Y-133447434D01*
X143685267Y-133339850D01*
X143832668Y-133199735D01*
X143832669Y-133199733D01*
X143948856Y-133032804D01*
X144029059Y-132845907D01*
X144070000Y-132646690D01*
X144070000Y-132395000D01*
X143494000Y-132395000D01*
X143426961Y-132375315D01*
X143381206Y-132322511D01*
X143370000Y-132271000D01*
X143370000Y-132019000D01*
X143389685Y-131951961D01*
X143442489Y-131906206D01*
X143494000Y-131895000D01*
X144070000Y-131895000D01*
X144070000Y-131694286D01*
X144054581Y-131542661D01*
X143993700Y-131348618D01*
X143993695Y-131348608D01*
X143894994Y-131170784D01*
X143894994Y-131170783D01*
X143762521Y-131016469D01*
X143762520Y-131016468D01*
X143710602Y-130976281D01*
X143669638Y-130919680D01*
X143665778Y-130849917D01*
X143698820Y-130790546D01*
X145079638Y-129409727D01*
X145093267Y-129397950D01*
X145112530Y-129383610D01*
X145112532Y-129383606D01*
X145112534Y-129383606D01*
X145130663Y-129361999D01*
X145146113Y-129343585D01*
X145149767Y-129339599D01*
X145155590Y-129333777D01*
X145175923Y-129308060D01*
X145225302Y-129249214D01*
X145225309Y-129249198D01*
X145229272Y-129243176D01*
X145229324Y-129243210D01*
X145233371Y-129236858D01*
X145233317Y-129236825D01*
X145237104Y-129230684D01*
X145237110Y-129230677D01*
X145269561Y-129161086D01*
X145304036Y-129092440D01*
X145304040Y-129092433D01*
X145304042Y-129092421D01*
X145306510Y-129085644D01*
X145306568Y-129085665D01*
X145309043Y-129078546D01*
X145308985Y-129078527D01*
X145311256Y-129071672D01*
X145311764Y-129069215D01*
X145326784Y-128996467D01*
X145344500Y-128921721D01*
X145344500Y-128921720D01*
X145345339Y-128914548D01*
X145345397Y-128914554D01*
X145346164Y-128907056D01*
X145346104Y-128907051D01*
X145346733Y-128899860D01*
X145346485Y-128891351D01*
X145344500Y-128823102D01*
X145344500Y-127082320D01*
X145361113Y-127020321D01*
X145373649Y-126998608D01*
X145421179Y-126916284D01*
X145479674Y-126736256D01*
X145499460Y-126548000D01*
X145479674Y-126359744D01*
X145421179Y-126179716D01*
X145420723Y-126178926D01*
X145410362Y-126160979D01*
X145393889Y-126093078D01*
X145416742Y-126027052D01*
X145430062Y-126011304D01*
X147619638Y-123821727D01*
X147633267Y-123809950D01*
X147652530Y-123795610D01*
X147652532Y-123795606D01*
X147652534Y-123795606D01*
X147685555Y-123756251D01*
X147686113Y-123755585D01*
X147689767Y-123751599D01*
X147690643Y-123750723D01*
X147695590Y-123745777D01*
X147715923Y-123720060D01*
X147765302Y-123661214D01*
X147765309Y-123661198D01*
X147769272Y-123655176D01*
X147769324Y-123655210D01*
X147773371Y-123648858D01*
X147773317Y-123648825D01*
X147777104Y-123642684D01*
X147777110Y-123642677D01*
X147795773Y-123602654D01*
X147809561Y-123573086D01*
X147837718Y-123517020D01*
X147844040Y-123504433D01*
X147844042Y-123504421D01*
X147846510Y-123497644D01*
X147846568Y-123497665D01*
X147849043Y-123490546D01*
X147848985Y-123490527D01*
X147851256Y-123483672D01*
X147851297Y-123483476D01*
X147866784Y-123408467D01*
X147884500Y-123333721D01*
X147884500Y-123333720D01*
X147885339Y-123326548D01*
X147885397Y-123326554D01*
X147886164Y-123319056D01*
X147886104Y-123319051D01*
X147886733Y-123311860D01*
X147884500Y-123235103D01*
X147884500Y-121830229D01*
X147904185Y-121763190D01*
X147920810Y-121742557D01*
X148028368Y-121634998D01*
X148089687Y-121601516D01*
X148141822Y-121601392D01*
X148165854Y-121606500D01*
X148165859Y-121606500D01*
X148235500Y-121606500D01*
X148302539Y-121626185D01*
X148348294Y-121678989D01*
X148359500Y-121730500D01*
X148359500Y-123113443D01*
X148357775Y-123129060D01*
X148358061Y-123129087D01*
X148357326Y-123136853D01*
X148359500Y-123206002D01*
X148359500Y-123235531D01*
X148359501Y-123235548D01*
X148360368Y-123242419D01*
X148360826Y-123248238D01*
X148362290Y-123294812D01*
X148362291Y-123294815D01*
X148367880Y-123314055D01*
X148371824Y-123333099D01*
X148374336Y-123352980D01*
X148386665Y-123384121D01*
X148391490Y-123396307D01*
X148393382Y-123401835D01*
X148402802Y-123434259D01*
X148406382Y-123446578D01*
X148408928Y-123450884D01*
X148416580Y-123463822D01*
X148425136Y-123481288D01*
X148426081Y-123483673D01*
X148432514Y-123499920D01*
X148459898Y-123537611D01*
X148463106Y-123542495D01*
X148486827Y-123582604D01*
X148486833Y-123582612D01*
X148500990Y-123596768D01*
X148513627Y-123611563D01*
X148525406Y-123627775D01*
X148558140Y-123654855D01*
X148561309Y-123657476D01*
X148565620Y-123661398D01*
X148909928Y-124005706D01*
X149223179Y-124318957D01*
X149256664Y-124380280D01*
X149259498Y-124406638D01*
X149259498Y-125968948D01*
X149257773Y-125984565D01*
X149258059Y-125984592D01*
X149257324Y-125992358D01*
X149259498Y-126061507D01*
X149259498Y-126091036D01*
X149259499Y-126091053D01*
X149260366Y-126097924D01*
X149260824Y-126103743D01*
X149262288Y-126150317D01*
X149262289Y-126150320D01*
X149267878Y-126169560D01*
X149271822Y-126188604D01*
X149274334Y-126208484D01*
X149291488Y-126251812D01*
X149293380Y-126257340D01*
X149306379Y-126302081D01*
X149316578Y-126319327D01*
X149325134Y-126336793D01*
X149330899Y-126351351D01*
X149332512Y-126355425D01*
X149359896Y-126393116D01*
X149363104Y-126398000D01*
X149386825Y-126438109D01*
X149386831Y-126438117D01*
X149400988Y-126452273D01*
X149413625Y-126467068D01*
X149425404Y-126483280D01*
X149458722Y-126510843D01*
X149461307Y-126512981D01*
X149465618Y-126516903D01*
X149615183Y-126666468D01*
X149673181Y-126724466D01*
X149706666Y-126785789D01*
X149709500Y-126812147D01*
X149709500Y-130174255D01*
X149707775Y-130189872D01*
X149708061Y-130189899D01*
X149707326Y-130197665D01*
X149709500Y-130266814D01*
X149709500Y-130296343D01*
X149709501Y-130296360D01*
X149710368Y-130303231D01*
X149710826Y-130309050D01*
X149712290Y-130355624D01*
X149712291Y-130355627D01*
X149717880Y-130374867D01*
X149721824Y-130393911D01*
X149724336Y-130413791D01*
X149741490Y-130457119D01*
X149743382Y-130462647D01*
X149756382Y-130507390D01*
X149764451Y-130521035D01*
X149766580Y-130524634D01*
X149775138Y-130542103D01*
X149782514Y-130560732D01*
X149809898Y-130598423D01*
X149813106Y-130603307D01*
X149836827Y-130643416D01*
X149836833Y-130643424D01*
X149850990Y-130657580D01*
X149863627Y-130672375D01*
X149875406Y-130688587D01*
X149891444Y-130701855D01*
X149911309Y-130718288D01*
X149915620Y-130722210D01*
X150268666Y-131075256D01*
X150619762Y-131426352D01*
X150653247Y-131487675D01*
X150651856Y-131546126D01*
X150624938Y-131646586D01*
X150624936Y-131646596D01*
X150604341Y-131881999D01*
X150604341Y-131882000D01*
X150624936Y-132117403D01*
X150624938Y-132117413D01*
X150686094Y-132345655D01*
X150686096Y-132345659D01*
X150686097Y-132345663D01*
X150785964Y-132559830D01*
X150785965Y-132559830D01*
X150785967Y-132559834D01*
X150846785Y-132646690D01*
X150921505Y-132753401D01*
X151088599Y-132920495D01*
X151185384Y-132988264D01*
X151282165Y-133056032D01*
X151282167Y-133056033D01*
X151282170Y-133056035D01*
X151496337Y-133155903D01*
X151724592Y-133217063D01*
X151912918Y-133233539D01*
X151959999Y-133237659D01*
X151960000Y-133237659D01*
X151960001Y-133237659D01*
X151999234Y-133234226D01*
X152195408Y-133217063D01*
X152423663Y-133155903D01*
X152637830Y-133056035D01*
X152831401Y-132920495D01*
X152998495Y-132753401D01*
X153134035Y-132559830D01*
X153233903Y-132345663D01*
X153295063Y-132117408D01*
X153315659Y-131882000D01*
X153295063Y-131646592D01*
X153233903Y-131418337D01*
X153134035Y-131204171D01*
X153110658Y-131170784D01*
X152998494Y-131010597D01*
X152831402Y-130843506D01*
X152831396Y-130843501D01*
X152645842Y-130713575D01*
X152602217Y-130658998D01*
X152595023Y-130589500D01*
X152626546Y-130527145D01*
X152645842Y-130510425D01*
X152718089Y-130459837D01*
X152831401Y-130380495D01*
X152998495Y-130213401D01*
X153134035Y-130019830D01*
X153233903Y-129805663D01*
X153295063Y-129577408D01*
X153315659Y-129342000D01*
X153315616Y-129341514D01*
X153305294Y-129223530D01*
X153295063Y-129106592D01*
X153243606Y-128914548D01*
X153233905Y-128878344D01*
X153233904Y-128878343D01*
X153233903Y-128878337D01*
X153134035Y-128664171D01*
X153120731Y-128645170D01*
X152998494Y-128470597D01*
X152831402Y-128303506D01*
X152831396Y-128303501D01*
X152645842Y-128173575D01*
X152602217Y-128118998D01*
X152595023Y-128049500D01*
X152626546Y-127987145D01*
X152645842Y-127970425D01*
X152668026Y-127954891D01*
X152831401Y-127840495D01*
X152998495Y-127673401D01*
X153134035Y-127479830D01*
X153233903Y-127265663D01*
X153295063Y-127037408D01*
X153315659Y-126802000D01*
X153295063Y-126566592D01*
X153233903Y-126338337D01*
X153134035Y-126124171D01*
X153119732Y-126103743D01*
X152998494Y-125930597D01*
X152831402Y-125763506D01*
X152831396Y-125763501D01*
X152645842Y-125633575D01*
X152602217Y-125578998D01*
X152595023Y-125509500D01*
X152626546Y-125447145D01*
X152645842Y-125430425D01*
X152668026Y-125414891D01*
X152831401Y-125300495D01*
X152998495Y-125133401D01*
X153134035Y-124939830D01*
X153233903Y-124725663D01*
X153295063Y-124497408D01*
X153315659Y-124262000D01*
X153295063Y-124026592D01*
X153239235Y-123818238D01*
X153233905Y-123798344D01*
X153233904Y-123798343D01*
X153233903Y-123798337D01*
X153134035Y-123584171D01*
X153132944Y-123582612D01*
X152998494Y-123390597D01*
X152831402Y-123223506D01*
X152831396Y-123223501D01*
X152645842Y-123093575D01*
X152602217Y-123038998D01*
X152595023Y-122969500D01*
X152626546Y-122907145D01*
X152645842Y-122890425D01*
X152772257Y-122801908D01*
X152831401Y-122760495D01*
X152998495Y-122593401D01*
X153134035Y-122399830D01*
X153233903Y-122185663D01*
X153295063Y-121957408D01*
X153315659Y-121722000D01*
X153295063Y-121486592D01*
X153235242Y-121263335D01*
X153233905Y-121258344D01*
X153233904Y-121258343D01*
X153233903Y-121258337D01*
X153134035Y-121044171D01*
X153122525Y-121027732D01*
X152998494Y-120850597D01*
X152831402Y-120683506D01*
X152831396Y-120683501D01*
X152645842Y-120553575D01*
X152602217Y-120498998D01*
X152595023Y-120429500D01*
X152626546Y-120367145D01*
X152645842Y-120350425D01*
X152700313Y-120312284D01*
X152831401Y-120220495D01*
X152998495Y-120053401D01*
X153134035Y-119859830D01*
X153233903Y-119645663D01*
X153295063Y-119417408D01*
X153315659Y-119182000D01*
X153295063Y-118946592D01*
X153233903Y-118718337D01*
X153134035Y-118504171D01*
X153116761Y-118479500D01*
X152998494Y-118310597D01*
X152831402Y-118143506D01*
X152831396Y-118143501D01*
X152645842Y-118013575D01*
X152602217Y-117958998D01*
X152595023Y-117889500D01*
X152626546Y-117827145D01*
X152645842Y-117810425D01*
X152686256Y-117782127D01*
X152831401Y-117680495D01*
X152998495Y-117513401D01*
X153134035Y-117319830D01*
X153233903Y-117105663D01*
X153295063Y-116877408D01*
X153315659Y-116642000D01*
X153295063Y-116406592D01*
X153233903Y-116178337D01*
X153134035Y-115964171D01*
X152998495Y-115770599D01*
X152998494Y-115770597D01*
X152831402Y-115603506D01*
X152831396Y-115603501D01*
X152645842Y-115473575D01*
X152602217Y-115418998D01*
X152595023Y-115349500D01*
X152626546Y-115287145D01*
X152645842Y-115270425D01*
X152734935Y-115208041D01*
X152831401Y-115140495D01*
X152998495Y-114973401D01*
X153134035Y-114779830D01*
X153233903Y-114565663D01*
X153295063Y-114337408D01*
X153315659Y-114102000D01*
X153295063Y-113866592D01*
X153233903Y-113638337D01*
X153134035Y-113424171D01*
X153119430Y-113403312D01*
X152998494Y-113230597D01*
X152831402Y-113063506D01*
X152831396Y-113063501D01*
X152645842Y-112933575D01*
X152602217Y-112878998D01*
X152595023Y-112809500D01*
X152626546Y-112747145D01*
X152645842Y-112730425D01*
X152766089Y-112646227D01*
X152831401Y-112600495D01*
X152998495Y-112433401D01*
X153134035Y-112239830D01*
X153233903Y-112025663D01*
X153295063Y-111797408D01*
X153315659Y-111562000D01*
X153295063Y-111326592D01*
X153233903Y-111098337D01*
X153134035Y-110884171D01*
X152998495Y-110690599D01*
X152998494Y-110690597D01*
X152831402Y-110523506D01*
X152831396Y-110523501D01*
X152645842Y-110393575D01*
X152602217Y-110338998D01*
X152595023Y-110269500D01*
X152626546Y-110207145D01*
X152645842Y-110190425D01*
X152693296Y-110157197D01*
X152831401Y-110060495D01*
X152998495Y-109893401D01*
X153134035Y-109699830D01*
X153233903Y-109485663D01*
X153295063Y-109257408D01*
X153315659Y-109022000D01*
X153295063Y-108786592D01*
X153233903Y-108558337D01*
X153134035Y-108344171D01*
X153060743Y-108239498D01*
X152998494Y-108150597D01*
X152831402Y-107983506D01*
X152831396Y-107983501D01*
X152645842Y-107853575D01*
X152602217Y-107798998D01*
X152595023Y-107729500D01*
X152626546Y-107667145D01*
X152645842Y-107650425D01*
X152770403Y-107563206D01*
X152831401Y-107520495D01*
X152998495Y-107353401D01*
X153134035Y-107159830D01*
X153233903Y-106945663D01*
X153295063Y-106717408D01*
X153315659Y-106482000D01*
X153295063Y-106246592D01*
X153233903Y-106018337D01*
X153134035Y-105804171D01*
X153054500Y-105690582D01*
X152998494Y-105610597D01*
X152831402Y-105443506D01*
X152831396Y-105443501D01*
X152645842Y-105313575D01*
X152602217Y-105258998D01*
X152595023Y-105189500D01*
X152626546Y-105127145D01*
X152645842Y-105110425D01*
X152722486Y-105056758D01*
X152831401Y-104980495D01*
X152998495Y-104813401D01*
X153134035Y-104619830D01*
X153233903Y-104405663D01*
X153295063Y-104177408D01*
X153315659Y-103942000D01*
X153295063Y-103706592D01*
X153233903Y-103478337D01*
X153134035Y-103264171D01*
X153123029Y-103248452D01*
X152998494Y-103070597D01*
X152831402Y-102903506D01*
X152831396Y-102903501D01*
X152645842Y-102773575D01*
X152602217Y-102718998D01*
X152595023Y-102649500D01*
X152626546Y-102587145D01*
X152645842Y-102570425D01*
X152668026Y-102554891D01*
X152831401Y-102440495D01*
X152998495Y-102273401D01*
X153134035Y-102079830D01*
X153233903Y-101865663D01*
X153295063Y-101637408D01*
X153315659Y-101402000D01*
X153295063Y-101166592D01*
X153233903Y-100938337D01*
X153134035Y-100724171D01*
X153127149Y-100714336D01*
X152998494Y-100530597D01*
X152831402Y-100363506D01*
X152831396Y-100363501D01*
X152645842Y-100233575D01*
X152602217Y-100178998D01*
X152595023Y-100109500D01*
X152626546Y-100047145D01*
X152645842Y-100030425D01*
X152677998Y-100007909D01*
X152831401Y-99900495D01*
X152998495Y-99733401D01*
X153134035Y-99539830D01*
X153233903Y-99325663D01*
X153295063Y-99097408D01*
X153315659Y-98862000D01*
X153295063Y-98626592D01*
X153233903Y-98398337D01*
X153134035Y-98184171D01*
X153123174Y-98168659D01*
X152998494Y-97990597D01*
X152831402Y-97823506D01*
X152831396Y-97823501D01*
X152645842Y-97693575D01*
X152602217Y-97638998D01*
X152595023Y-97569500D01*
X152626546Y-97507145D01*
X152645842Y-97490425D01*
X152686256Y-97462127D01*
X152831401Y-97360495D01*
X152998495Y-97193401D01*
X153134035Y-96999830D01*
X153233903Y-96785663D01*
X153295063Y-96557408D01*
X153315659Y-96322000D01*
X153295063Y-96086592D01*
X153233903Y-95858337D01*
X153134035Y-95644171D01*
X152998495Y-95450599D01*
X152998494Y-95450597D01*
X152831402Y-95283506D01*
X152831396Y-95283501D01*
X152645842Y-95153575D01*
X152602217Y-95098998D01*
X152595023Y-95029500D01*
X152626546Y-94967145D01*
X152645842Y-94950425D01*
X152722755Y-94896570D01*
X152831401Y-94820495D01*
X152998495Y-94653401D01*
X153134035Y-94459830D01*
X153233903Y-94245663D01*
X153295063Y-94017408D01*
X153315659Y-93782000D01*
X153295063Y-93546592D01*
X153233903Y-93318337D01*
X153134035Y-93104171D01*
X152998495Y-92910599D01*
X152998494Y-92910597D01*
X152831402Y-92743506D01*
X152831396Y-92743501D01*
X152645842Y-92613575D01*
X152602217Y-92558998D01*
X152595023Y-92489500D01*
X152626546Y-92427145D01*
X152645842Y-92410425D01*
X152696698Y-92374815D01*
X152831401Y-92280495D01*
X152998495Y-92113401D01*
X153134035Y-91919830D01*
X153233903Y-91705663D01*
X153295063Y-91477408D01*
X153315659Y-91242000D01*
X153295063Y-91006592D01*
X153233903Y-90778337D01*
X153134035Y-90564171D01*
X153128507Y-90556275D01*
X152998494Y-90370597D01*
X152831402Y-90203506D01*
X152831396Y-90203501D01*
X152645842Y-90073575D01*
X152602217Y-90018998D01*
X152595023Y-89949500D01*
X152626546Y-89887145D01*
X152645842Y-89870425D01*
X152782321Y-89774861D01*
X152831401Y-89740495D01*
X152998495Y-89573401D01*
X153134035Y-89379830D01*
X153233903Y-89165663D01*
X153295063Y-88937408D01*
X153315659Y-88702000D01*
X153295063Y-88466592D01*
X153233903Y-88238337D01*
X153134035Y-88024171D01*
X153083151Y-87951500D01*
X152998494Y-87830597D01*
X152831402Y-87663506D01*
X152831396Y-87663501D01*
X152645842Y-87533575D01*
X152602217Y-87478998D01*
X152595023Y-87409500D01*
X152626546Y-87347145D01*
X152645842Y-87330425D01*
X152668026Y-87314891D01*
X152831401Y-87200495D01*
X152998495Y-87033401D01*
X153134035Y-86839830D01*
X153233903Y-86625663D01*
X153295063Y-86397408D01*
X153315659Y-86162000D01*
X153295063Y-85926592D01*
X153233903Y-85698337D01*
X153134035Y-85484171D01*
X153133579Y-85483520D01*
X152998496Y-85290600D01*
X152993611Y-85285715D01*
X152876179Y-85168283D01*
X152842696Y-85106963D01*
X152847680Y-85037271D01*
X152889551Y-84981337D01*
X152920529Y-84964422D01*
X153052086Y-84915354D01*
X153052093Y-84915350D01*
X153167187Y-84829190D01*
X153167190Y-84829187D01*
X153253350Y-84714093D01*
X153253354Y-84714086D01*
X153303596Y-84579379D01*
X153303598Y-84579372D01*
X153309999Y-84519844D01*
X153310000Y-84519827D01*
X153310000Y-83872000D01*
X152573347Y-83872000D01*
X152506308Y-83852315D01*
X152460553Y-83799511D01*
X152450609Y-83730353D01*
X152454369Y-83713067D01*
X152460000Y-83693888D01*
X152460000Y-83550111D01*
X152454369Y-83530933D01*
X152454370Y-83461064D01*
X152492145Y-83402286D01*
X152555701Y-83373262D01*
X152573347Y-83372000D01*
X153310000Y-83372000D01*
X153310000Y-82724172D01*
X153309999Y-82724155D01*
X153303598Y-82664627D01*
X153303596Y-82664620D01*
X153253354Y-82529913D01*
X153253350Y-82529906D01*
X153167190Y-82414812D01*
X153167187Y-82414809D01*
X153052093Y-82328649D01*
X153052086Y-82328645D01*
X152917379Y-82278403D01*
X152917372Y-82278401D01*
X152857844Y-82272000D01*
X152210000Y-82272000D01*
X152210000Y-83009698D01*
X152190315Y-83076737D01*
X152137511Y-83122492D01*
X152068355Y-83132436D01*
X151995766Y-83122000D01*
X151995763Y-83122000D01*
X151924237Y-83122000D01*
X151924233Y-83122000D01*
X151851645Y-83132436D01*
X151782487Y-83122492D01*
X151729684Y-83076736D01*
X151710000Y-83009698D01*
X151710000Y-82272000D01*
X151062155Y-82272000D01*
X151002627Y-82278401D01*
X151002620Y-82278403D01*
X150867913Y-82328645D01*
X150867906Y-82328649D01*
X150752812Y-82414809D01*
X150752809Y-82414812D01*
X150666649Y-82529906D01*
X150666645Y-82529913D01*
X150616403Y-82664620D01*
X150616401Y-82664627D01*
X150610000Y-82724155D01*
X150610000Y-83372000D01*
X151346653Y-83372000D01*
X151413692Y-83391685D01*
X151459447Y-83444489D01*
X151469391Y-83513647D01*
X151465631Y-83530933D01*
X151460000Y-83550111D01*
X151460000Y-83693888D01*
X151465631Y-83713067D01*
X151465630Y-83782936D01*
X151427855Y-83841714D01*
X151364299Y-83870738D01*
X151346653Y-83872000D01*
X150610000Y-83872000D01*
X150610000Y-84519844D01*
X150616401Y-84579372D01*
X150616403Y-84579379D01*
X150666645Y-84714086D01*
X150666649Y-84714093D01*
X150752809Y-84829187D01*
X150752812Y-84829190D01*
X150867906Y-84915350D01*
X150867913Y-84915354D01*
X150999470Y-84964421D01*
X151055403Y-85006292D01*
X151079821Y-85071756D01*
X151064970Y-85140029D01*
X151043819Y-85168284D01*
X150921503Y-85290600D01*
X150873874Y-85358623D01*
X150819297Y-85402248D01*
X150772299Y-85411500D01*
X146181705Y-85411500D01*
X146163735Y-85410191D01*
X146139972Y-85406710D01*
X146094890Y-85410655D01*
X146087933Y-85411264D01*
X146082532Y-85411500D01*
X146074288Y-85411500D01*
X146041707Y-85415308D01*
X145965199Y-85422001D01*
X145958133Y-85423461D01*
X145958121Y-85423404D01*
X145950754Y-85425038D01*
X145950768Y-85425094D01*
X145943751Y-85426756D01*
X145871573Y-85453026D01*
X145798662Y-85477187D01*
X145792119Y-85480238D01*
X145792094Y-85480186D01*
X145785314Y-85483468D01*
X145785340Y-85483520D01*
X145778881Y-85486764D01*
X145714709Y-85528970D01*
X145649345Y-85569288D01*
X145643677Y-85573770D01*
X145643641Y-85573724D01*
X145637798Y-85578484D01*
X145637835Y-85578528D01*
X145632310Y-85583164D01*
X145579597Y-85639035D01*
X141266358Y-89952272D01*
X141252729Y-89964051D01*
X141233468Y-89978390D01*
X141199898Y-90018397D01*
X141196253Y-90022376D01*
X141190409Y-90028222D01*
X141170059Y-90053959D01*
X141120695Y-90112789D01*
X141116729Y-90118819D01*
X141116682Y-90118788D01*
X141112630Y-90125147D01*
X141112679Y-90125177D01*
X141108889Y-90131321D01*
X141076424Y-90200941D01*
X141041960Y-90269566D01*
X141039488Y-90276357D01*
X141039432Y-90276336D01*
X141036960Y-90283450D01*
X141037015Y-90283469D01*
X141034742Y-90290327D01*
X141029213Y-90317107D01*
X141019207Y-90365565D01*
X141007184Y-90416294D01*
X141001498Y-90440286D01*
X141000661Y-90447454D01*
X141000601Y-90447447D01*
X140999835Y-90454945D01*
X140999895Y-90454951D01*
X140999265Y-90462140D01*
X141001500Y-90538916D01*
X141001500Y-100311513D01*
X141000191Y-100329482D01*
X140996710Y-100353244D01*
X141001264Y-100405283D01*
X141001500Y-100410689D01*
X141001500Y-100418928D01*
X141005306Y-100451493D01*
X141012000Y-100528010D01*
X141013461Y-100535086D01*
X141013403Y-100535097D01*
X141015034Y-100542456D01*
X141015092Y-100542443D01*
X141016757Y-100549469D01*
X141043025Y-100621643D01*
X141067185Y-100694550D01*
X141070236Y-100701093D01*
X141070182Y-100701117D01*
X141073470Y-100707907D01*
X141073521Y-100707882D01*
X141076761Y-100714332D01*
X141076762Y-100714333D01*
X141076763Y-100714336D01*
X141089770Y-100734112D01*
X141118965Y-100778502D01*
X141159287Y-100843874D01*
X141163766Y-100849538D01*
X141163719Y-100849575D01*
X141168482Y-100855421D01*
X141168528Y-100855383D01*
X141173173Y-100860919D01*
X141229017Y-100913604D01*
X141229018Y-100913605D01*
X143314350Y-102998936D01*
X143973181Y-103657766D01*
X144006666Y-103719089D01*
X144009500Y-103745447D01*
X144009500Y-113696294D01*
X144008191Y-113714263D01*
X144004710Y-113738025D01*
X144009264Y-113790064D01*
X144009500Y-113795470D01*
X144009500Y-113803709D01*
X144013306Y-113836274D01*
X144020000Y-113912791D01*
X144021461Y-113919867D01*
X144021403Y-113919878D01*
X144023034Y-113927237D01*
X144023092Y-113927224D01*
X144024757Y-113934250D01*
X144051025Y-114006424D01*
X144075185Y-114079331D01*
X144078236Y-114085874D01*
X144078182Y-114085898D01*
X144081470Y-114092688D01*
X144081521Y-114092663D01*
X144084761Y-114099113D01*
X144084762Y-114099114D01*
X144084763Y-114099117D01*
X144104661Y-114129371D01*
X144126965Y-114163283D01*
X144167287Y-114228655D01*
X144171766Y-114234319D01*
X144171719Y-114234356D01*
X144176482Y-114240202D01*
X144176528Y-114240164D01*
X144181173Y-114245700D01*
X144208536Y-114271515D01*
X144237018Y-114298386D01*
X145417207Y-115478575D01*
X146505452Y-116566819D01*
X146538937Y-116628142D01*
X146533953Y-116697834D01*
X146492081Y-116753767D01*
X146426617Y-116778184D01*
X146417771Y-116778500D01*
X139414737Y-116778500D01*
X139399120Y-116776776D01*
X139399093Y-116777062D01*
X139391331Y-116776327D01*
X139322203Y-116778500D01*
X139292650Y-116778500D01*
X139291929Y-116778590D01*
X139285757Y-116779369D01*
X139279945Y-116779826D01*
X139233373Y-116781290D01*
X139233372Y-116781290D01*
X139214129Y-116786881D01*
X139195079Y-116790825D01*
X139175211Y-116793334D01*
X139175209Y-116793335D01*
X139131884Y-116810488D01*
X139126357Y-116812380D01*
X139081610Y-116825381D01*
X139081609Y-116825382D01*
X139064367Y-116835579D01*
X139046899Y-116844137D01*
X139028269Y-116851513D01*
X139028267Y-116851514D01*
X138990576Y-116878898D01*
X138985694Y-116882105D01*
X138945579Y-116905830D01*
X138931408Y-116920000D01*
X138916623Y-116932628D01*
X138900412Y-116944407D01*
X138870709Y-116980310D01*
X138866777Y-116984631D01*
X138573181Y-117278227D01*
X138511858Y-117311712D01*
X138442167Y-117306728D01*
X138386233Y-117264857D01*
X138361816Y-117199392D01*
X138361500Y-117190546D01*
X138361500Y-115302847D01*
X138381185Y-115235808D01*
X138397814Y-115215171D01*
X140056786Y-113556198D01*
X140069048Y-113546376D01*
X140068865Y-113546155D01*
X140074867Y-113541188D01*
X140074877Y-113541182D01*
X140122241Y-113490744D01*
X140143120Y-113469866D01*
X140147373Y-113464382D01*
X140151150Y-113459959D01*
X140183062Y-113425978D01*
X140192714Y-113408419D01*
X140203389Y-113392168D01*
X140215674Y-113376332D01*
X140234186Y-113333548D01*
X140236742Y-113328331D01*
X140259197Y-113287488D01*
X140264180Y-113268076D01*
X140270477Y-113249687D01*
X140278438Y-113231291D01*
X140285729Y-113185249D01*
X140286908Y-113179558D01*
X140298500Y-113134415D01*
X140298500Y-113114379D01*
X140300027Y-113094978D01*
X140303160Y-113075200D01*
X140298775Y-113028811D01*
X140298500Y-113022973D01*
X140298500Y-99611742D01*
X140300224Y-99596122D01*
X140299939Y-99596096D01*
X140300671Y-99588340D01*
X140300673Y-99588333D01*
X140298500Y-99519185D01*
X140298500Y-99489650D01*
X140297631Y-99482772D01*
X140297172Y-99476943D01*
X140295709Y-99430372D01*
X140290122Y-99411144D01*
X140286174Y-99392084D01*
X140283663Y-99372204D01*
X140266512Y-99328887D01*
X140264619Y-99323358D01*
X140251618Y-99278609D01*
X140251616Y-99278606D01*
X140241423Y-99261371D01*
X140232861Y-99243894D01*
X140225487Y-99225270D01*
X140225486Y-99225268D01*
X140198079Y-99187545D01*
X140194888Y-99182686D01*
X140171172Y-99142583D01*
X140171165Y-99142574D01*
X140157006Y-99128415D01*
X140144368Y-99113619D01*
X140132594Y-99097413D01*
X140096688Y-99067709D01*
X140092376Y-99063786D01*
X139436960Y-98408369D01*
X139403475Y-98347046D01*
X139401323Y-98333668D01*
X139383674Y-98165744D01*
X139325179Y-97985716D01*
X139230533Y-97821784D01*
X139193141Y-97780256D01*
X139133762Y-97714308D01*
X139103532Y-97651316D01*
X139107980Y-97593019D01*
X139129674Y-97526256D01*
X139149460Y-97338000D01*
X139129674Y-97149744D01*
X139071179Y-96969716D01*
X138976533Y-96805784D01*
X138849871Y-96665112D01*
X138849870Y-96665111D01*
X138696734Y-96553851D01*
X138696729Y-96553848D01*
X138523807Y-96476857D01*
X138523802Y-96476855D01*
X138378000Y-96445865D01*
X138338646Y-96437500D01*
X138149354Y-96437500D01*
X138070278Y-96454307D01*
X138000613Y-96448991D01*
X137944880Y-96406853D01*
X137920775Y-96341273D01*
X137920500Y-96333017D01*
X137920500Y-94896570D01*
X137922224Y-94880950D01*
X137921939Y-94880923D01*
X137922673Y-94873161D01*
X137920500Y-94804000D01*
X137920500Y-94774484D01*
X137920500Y-94774478D01*
X137919631Y-94767607D01*
X137919173Y-94761780D01*
X137919022Y-94756978D01*
X137917710Y-94715201D01*
X137912119Y-94695958D01*
X137908173Y-94676906D01*
X137905664Y-94657036D01*
X137888504Y-94613695D01*
X137886624Y-94608207D01*
X137873618Y-94563438D01*
X137863422Y-94546198D01*
X137854861Y-94528722D01*
X137847487Y-94510098D01*
X137847486Y-94510096D01*
X137820079Y-94472373D01*
X137816888Y-94467514D01*
X137815303Y-94464834D01*
X137793170Y-94427408D01*
X137793168Y-94427406D01*
X137793165Y-94427402D01*
X137779006Y-94413243D01*
X137766368Y-94398447D01*
X137754594Y-94382241D01*
X137722564Y-94355744D01*
X137718688Y-94352537D01*
X137714376Y-94348614D01*
X137287057Y-93921294D01*
X137287056Y-93921293D01*
X137285811Y-93920048D01*
X137285792Y-93920030D01*
X136136423Y-92770660D01*
X136696891Y-92770660D01*
X136710697Y-92779335D01*
X136710701Y-92779337D01*
X136880858Y-92838877D01*
X136880861Y-92838878D01*
X137059997Y-92859062D01*
X137060003Y-92859062D01*
X137239138Y-92838878D01*
X137409307Y-92779333D01*
X137423107Y-92770661D01*
X137423107Y-92770660D01*
X138096891Y-92770660D01*
X138110697Y-92779335D01*
X138110701Y-92779337D01*
X138280858Y-92838877D01*
X138280861Y-92838878D01*
X138459997Y-92859062D01*
X138460003Y-92859062D01*
X138639138Y-92838878D01*
X138809307Y-92779333D01*
X138823107Y-92770661D01*
X138823107Y-92770660D01*
X138460001Y-92407553D01*
X138460000Y-92407553D01*
X138096891Y-92770660D01*
X137423107Y-92770660D01*
X137060001Y-92407553D01*
X137060000Y-92407553D01*
X136696891Y-92770660D01*
X136136423Y-92770660D01*
X135436423Y-92070660D01*
X135996891Y-92070660D01*
X136010697Y-92079335D01*
X136010701Y-92079337D01*
X136180859Y-92138878D01*
X136181644Y-92139057D01*
X136182099Y-92139311D01*
X136187430Y-92141177D01*
X136187103Y-92142110D01*
X136242623Y-92173166D01*
X136271952Y-92226875D01*
X136272823Y-92226571D01*
X136274672Y-92231855D01*
X136274940Y-92232346D01*
X136275120Y-92233137D01*
X136334662Y-92403298D01*
X136334667Y-92403308D01*
X136343338Y-92417108D01*
X136673955Y-92086492D01*
X136960000Y-92086492D01*
X136998197Y-92139065D01*
X137044162Y-92154000D01*
X137044163Y-92154000D01*
X137075837Y-92154000D01*
X137075838Y-92154000D01*
X137121803Y-92139065D01*
X137160000Y-92086492D01*
X137160000Y-92053999D01*
X137413553Y-92053999D01*
X137759999Y-92400447D01*
X137760000Y-92400447D01*
X138073955Y-92086492D01*
X138360000Y-92086492D01*
X138398197Y-92139065D01*
X138444162Y-92154000D01*
X138444163Y-92154000D01*
X138475837Y-92154000D01*
X138475838Y-92154000D01*
X138521803Y-92139065D01*
X138560000Y-92086492D01*
X138560000Y-92054000D01*
X138813553Y-92054000D01*
X139176660Y-92417107D01*
X139176661Y-92417107D01*
X139185333Y-92403307D01*
X139244877Y-92233141D01*
X139245056Y-92232358D01*
X139245310Y-92231902D01*
X139247177Y-92226569D01*
X139248111Y-92226895D01*
X139279164Y-92171379D01*
X139332874Y-92142050D01*
X139332569Y-92141177D01*
X139337871Y-92139321D01*
X139338358Y-92139056D01*
X139339141Y-92138877D01*
X139509307Y-92079333D01*
X139523107Y-92070661D01*
X139523107Y-92070660D01*
X139160000Y-91707553D01*
X138813553Y-92054000D01*
X138560000Y-92054000D01*
X138560000Y-92021508D01*
X138521803Y-91968935D01*
X138521802Y-91968934D01*
X138475839Y-91954000D01*
X138475838Y-91954000D01*
X138444162Y-91954000D01*
X138444160Y-91954000D01*
X138398196Y-91968935D01*
X138360000Y-92021508D01*
X138360000Y-92086492D01*
X138073955Y-92086492D01*
X138106447Y-92054000D01*
X138106447Y-92053999D01*
X137760001Y-91707553D01*
X137760000Y-91707553D01*
X137413553Y-92053998D01*
X137413553Y-92053999D01*
X137160000Y-92053999D01*
X137160000Y-92021508D01*
X137121803Y-91968935D01*
X137121802Y-91968934D01*
X137075839Y-91954000D01*
X137075838Y-91954000D01*
X137044162Y-91954000D01*
X137044160Y-91954000D01*
X136998196Y-91968935D01*
X136960000Y-92021508D01*
X136960000Y-92086492D01*
X136673955Y-92086492D01*
X136706447Y-92054000D01*
X136706447Y-92053999D01*
X136360001Y-91707553D01*
X136360000Y-91707553D01*
X135996891Y-92070660D01*
X135436423Y-92070660D01*
X134719765Y-91354002D01*
X135554938Y-91354002D01*
X135575121Y-91533138D01*
X135575122Y-91533141D01*
X135634662Y-91703298D01*
X135634667Y-91703308D01*
X135643338Y-91717108D01*
X135973955Y-91386492D01*
X136260000Y-91386492D01*
X136298197Y-91439065D01*
X136344162Y-91454000D01*
X136344163Y-91454000D01*
X136375837Y-91454000D01*
X136375838Y-91454000D01*
X136421803Y-91439065D01*
X136460000Y-91386492D01*
X136460000Y-91354000D01*
X136713553Y-91354000D01*
X137060000Y-91700446D01*
X137373955Y-91386492D01*
X137660000Y-91386492D01*
X137698197Y-91439065D01*
X137744162Y-91454000D01*
X137744163Y-91454000D01*
X137775837Y-91454000D01*
X137775838Y-91454000D01*
X137821803Y-91439065D01*
X137860000Y-91386492D01*
X137860000Y-91354000D01*
X138113553Y-91354000D01*
X138460000Y-91700447D01*
X138773955Y-91386492D01*
X139060000Y-91386492D01*
X139098197Y-91439065D01*
X139144162Y-91454000D01*
X139144163Y-91454000D01*
X139175837Y-91454000D01*
X139175838Y-91454000D01*
X139221803Y-91439065D01*
X139260000Y-91386492D01*
X139260000Y-91354000D01*
X139513553Y-91354000D01*
X139876660Y-91717107D01*
X139876661Y-91717107D01*
X139885333Y-91703307D01*
X139944878Y-91533138D01*
X139965062Y-91354002D01*
X139965062Y-91353997D01*
X139944878Y-91174861D01*
X139944877Y-91174858D01*
X139885337Y-91004701D01*
X139885335Y-91004697D01*
X139876660Y-90990891D01*
X139513553Y-91353999D01*
X139513553Y-91354000D01*
X139260000Y-91354000D01*
X139260000Y-91321508D01*
X139221803Y-91268935D01*
X139221802Y-91268934D01*
X139175839Y-91254000D01*
X139175838Y-91254000D01*
X139144162Y-91254000D01*
X139144160Y-91254000D01*
X139098196Y-91268935D01*
X139060000Y-91321507D01*
X139060000Y-91321508D01*
X139060000Y-91386492D01*
X138773955Y-91386492D01*
X138806447Y-91354000D01*
X138460000Y-91007553D01*
X138113553Y-91354000D01*
X137860000Y-91354000D01*
X137860000Y-91321508D01*
X137821803Y-91268935D01*
X137821802Y-91268934D01*
X137775839Y-91254000D01*
X137775838Y-91254000D01*
X137744162Y-91254000D01*
X137744160Y-91254000D01*
X137698196Y-91268935D01*
X137660000Y-91321507D01*
X137660000Y-91321508D01*
X137660000Y-91386492D01*
X137373955Y-91386492D01*
X137406447Y-91354000D01*
X137060000Y-91007553D01*
X136713553Y-91354000D01*
X136460000Y-91354000D01*
X136460000Y-91321508D01*
X136421803Y-91268935D01*
X136421802Y-91268934D01*
X136375839Y-91254000D01*
X136375838Y-91254000D01*
X136344162Y-91254000D01*
X136344160Y-91254000D01*
X136298196Y-91268935D01*
X136260000Y-91321507D01*
X136260000Y-91321508D01*
X136260000Y-91386492D01*
X135973955Y-91386492D01*
X136006447Y-91354000D01*
X136006447Y-91353999D01*
X135643338Y-90990890D01*
X135643338Y-90990891D01*
X135634664Y-91004696D01*
X135575122Y-91174858D01*
X135575121Y-91174861D01*
X135554938Y-91353997D01*
X135554938Y-91354002D01*
X134719765Y-91354002D01*
X134019762Y-90653999D01*
X136013553Y-90653999D01*
X136359999Y-91000446D01*
X136673954Y-90686492D01*
X136960000Y-90686492D01*
X136998197Y-90739065D01*
X137044162Y-90754000D01*
X137044163Y-90754000D01*
X137075837Y-90754000D01*
X137075838Y-90754000D01*
X137121803Y-90739065D01*
X137160000Y-90686492D01*
X137160000Y-90654000D01*
X137413553Y-90654000D01*
X137760000Y-91000447D01*
X138073955Y-90686492D01*
X138360000Y-90686492D01*
X138398197Y-90739065D01*
X138444162Y-90754000D01*
X138444163Y-90754000D01*
X138475837Y-90754000D01*
X138475838Y-90754000D01*
X138521803Y-90739065D01*
X138560000Y-90686492D01*
X138560000Y-90654000D01*
X138813553Y-90654000D01*
X139160000Y-91000447D01*
X139506447Y-90654000D01*
X139160000Y-90307553D01*
X138813553Y-90653999D01*
X138813553Y-90654000D01*
X138560000Y-90654000D01*
X138560000Y-90621508D01*
X138521803Y-90568935D01*
X138507135Y-90564169D01*
X138475839Y-90554000D01*
X138475838Y-90554000D01*
X138444162Y-90554000D01*
X138444160Y-90554000D01*
X138398196Y-90568935D01*
X138360000Y-90621508D01*
X138360000Y-90686492D01*
X138073955Y-90686492D01*
X138106447Y-90654000D01*
X137760000Y-90307553D01*
X137413553Y-90653999D01*
X137413553Y-90654000D01*
X137160000Y-90654000D01*
X137160000Y-90621508D01*
X137121803Y-90568935D01*
X137107135Y-90564169D01*
X137075839Y-90554000D01*
X137075838Y-90554000D01*
X137044162Y-90554000D01*
X137044160Y-90554000D01*
X136998196Y-90568935D01*
X136960000Y-90621508D01*
X136960000Y-90686492D01*
X136673954Y-90686492D01*
X136706447Y-90653999D01*
X136360000Y-90307553D01*
X136013553Y-90653999D01*
X134019762Y-90653999D01*
X133384819Y-90019056D01*
X133351334Y-89957733D01*
X133350933Y-89954002D01*
X135554938Y-89954002D01*
X135575121Y-90133138D01*
X135575122Y-90133141D01*
X135634662Y-90303298D01*
X135634667Y-90303308D01*
X135643338Y-90317108D01*
X135973955Y-89986492D01*
X136260000Y-89986492D01*
X136298197Y-90039065D01*
X136344162Y-90054000D01*
X136344163Y-90054000D01*
X136375837Y-90054000D01*
X136375838Y-90054000D01*
X136421803Y-90039065D01*
X136460000Y-89986492D01*
X136460000Y-89954000D01*
X136713553Y-89954000D01*
X137060000Y-90300447D01*
X137373953Y-89986492D01*
X137660000Y-89986492D01*
X137698197Y-90039065D01*
X137744162Y-90054000D01*
X137744163Y-90054000D01*
X137775837Y-90054000D01*
X137775838Y-90054000D01*
X137821803Y-90039065D01*
X137860000Y-89986492D01*
X137860000Y-89954000D01*
X138113553Y-89954000D01*
X138460000Y-90300447D01*
X138773955Y-89986492D01*
X139060000Y-89986492D01*
X139098197Y-90039065D01*
X139144162Y-90054000D01*
X139144163Y-90054000D01*
X139175837Y-90054000D01*
X139175838Y-90054000D01*
X139221803Y-90039065D01*
X139260000Y-89986492D01*
X139260000Y-89954000D01*
X139513553Y-89954000D01*
X139876660Y-90317107D01*
X139876661Y-90317107D01*
X139885333Y-90303307D01*
X139944878Y-90133138D01*
X139965062Y-89954002D01*
X139965062Y-89953997D01*
X139944878Y-89774861D01*
X139944877Y-89774858D01*
X139885337Y-89604701D01*
X139885335Y-89604697D01*
X139876660Y-89590891D01*
X139513553Y-89953999D01*
X139513553Y-89954000D01*
X139260000Y-89954000D01*
X139260000Y-89921508D01*
X139221803Y-89868935D01*
X139221802Y-89868934D01*
X139175839Y-89854000D01*
X139175838Y-89854000D01*
X139144162Y-89854000D01*
X139144160Y-89854000D01*
X139098196Y-89868935D01*
X139060000Y-89921507D01*
X139060000Y-89921508D01*
X139060000Y-89986492D01*
X138773955Y-89986492D01*
X138806447Y-89954000D01*
X138460000Y-89607553D01*
X138113553Y-89953999D01*
X138113553Y-89954000D01*
X137860000Y-89954000D01*
X137860000Y-89921508D01*
X137821803Y-89868935D01*
X137821802Y-89868934D01*
X137775839Y-89854000D01*
X137775838Y-89854000D01*
X137744162Y-89854000D01*
X137744160Y-89854000D01*
X137698196Y-89868935D01*
X137660000Y-89921507D01*
X137660000Y-89921508D01*
X137660000Y-89986492D01*
X137373953Y-89986492D01*
X137406446Y-89953999D01*
X137060000Y-89607553D01*
X136713553Y-89953999D01*
X136713553Y-89954000D01*
X136460000Y-89954000D01*
X136460000Y-89921508D01*
X136421803Y-89868935D01*
X136421802Y-89868934D01*
X136375839Y-89854000D01*
X136375838Y-89854000D01*
X136344162Y-89854000D01*
X136344160Y-89854000D01*
X136298196Y-89868935D01*
X136260000Y-89921507D01*
X136260000Y-89921508D01*
X136260000Y-89986492D01*
X135973955Y-89986492D01*
X136006447Y-89954000D01*
X136006447Y-89953999D01*
X135643338Y-89590890D01*
X135643338Y-89590891D01*
X135634664Y-89604696D01*
X135575122Y-89774858D01*
X135575121Y-89774861D01*
X135554938Y-89953997D01*
X135554938Y-89954002D01*
X133350933Y-89954002D01*
X133348500Y-89931375D01*
X133348500Y-89237338D01*
X135996890Y-89237338D01*
X136359999Y-89600447D01*
X136673954Y-89286492D01*
X136960000Y-89286492D01*
X136998197Y-89339065D01*
X137044162Y-89354000D01*
X137044163Y-89354000D01*
X137075837Y-89354000D01*
X137075838Y-89354000D01*
X137121803Y-89339065D01*
X137160000Y-89286492D01*
X137160000Y-89254000D01*
X137413553Y-89254000D01*
X137760000Y-89600447D01*
X138073955Y-89286492D01*
X138360000Y-89286492D01*
X138398197Y-89339065D01*
X138444162Y-89354000D01*
X138444163Y-89354000D01*
X138475837Y-89354000D01*
X138475838Y-89354000D01*
X138521803Y-89339065D01*
X138560000Y-89286492D01*
X138560000Y-89254000D01*
X138813553Y-89254000D01*
X139160000Y-89600447D01*
X139160001Y-89600447D01*
X139523108Y-89237338D01*
X139523108Y-89237337D01*
X139509308Y-89228667D01*
X139509298Y-89228662D01*
X139339137Y-89169120D01*
X139338346Y-89168940D01*
X139337886Y-89168683D01*
X139332571Y-89166823D01*
X139332896Y-89165891D01*
X139277370Y-89134827D01*
X139248049Y-89081124D01*
X139247177Y-89081430D01*
X139245322Y-89076130D01*
X139245057Y-89075644D01*
X139244878Y-89074859D01*
X139185337Y-88904701D01*
X139185335Y-88904697D01*
X139176660Y-88890891D01*
X138813553Y-89253999D01*
X138813553Y-89254000D01*
X138560000Y-89254000D01*
X138560000Y-89221508D01*
X138521803Y-89168935D01*
X138515303Y-89166823D01*
X138475839Y-89154000D01*
X138475838Y-89154000D01*
X138444162Y-89154000D01*
X138444160Y-89154000D01*
X138398196Y-89168935D01*
X138360000Y-89221508D01*
X138360000Y-89286492D01*
X138073955Y-89286492D01*
X138106447Y-89254000D01*
X137760000Y-88907553D01*
X137413553Y-89253999D01*
X137413553Y-89254000D01*
X137160000Y-89254000D01*
X137160000Y-89221508D01*
X137121803Y-89168935D01*
X137115303Y-89166823D01*
X137075839Y-89154000D01*
X137075838Y-89154000D01*
X137044162Y-89154000D01*
X137044160Y-89154000D01*
X136998196Y-89168935D01*
X136960000Y-89221508D01*
X136960000Y-89286492D01*
X136673954Y-89286492D01*
X136706447Y-89253999D01*
X136343338Y-88890890D01*
X136343338Y-88890891D01*
X136334665Y-88904695D01*
X136275118Y-89074869D01*
X136274939Y-89075656D01*
X136274683Y-89076112D01*
X136272823Y-89081430D01*
X136271890Y-89081103D01*
X136240824Y-89136631D01*
X136187125Y-89165952D01*
X136187430Y-89166823D01*
X136182143Y-89168672D01*
X136181656Y-89168939D01*
X136180869Y-89169118D01*
X136010695Y-89228665D01*
X135996891Y-89237338D01*
X135996890Y-89237338D01*
X133348500Y-89237338D01*
X133348500Y-88537339D01*
X136696890Y-88537339D01*
X137059998Y-88900447D01*
X137059999Y-88900447D01*
X137423108Y-88537338D01*
X138096890Y-88537338D01*
X138460000Y-88900447D01*
X138460001Y-88900447D01*
X138823108Y-88537338D01*
X138823108Y-88537337D01*
X138809308Y-88528667D01*
X138809298Y-88528662D01*
X138639141Y-88469122D01*
X138639138Y-88469121D01*
X138460003Y-88448938D01*
X138459997Y-88448938D01*
X138280861Y-88469121D01*
X138280858Y-88469122D01*
X138110696Y-88528664D01*
X138096891Y-88537338D01*
X138096890Y-88537338D01*
X137423108Y-88537338D01*
X137423108Y-88537337D01*
X137409308Y-88528667D01*
X137409298Y-88528662D01*
X137239141Y-88469122D01*
X137239138Y-88469121D01*
X137060003Y-88448938D01*
X137059997Y-88448938D01*
X136880861Y-88469121D01*
X136880858Y-88469122D01*
X136710696Y-88528664D01*
X136696891Y-88537338D01*
X136696890Y-88537339D01*
X133348500Y-88537339D01*
X133348500Y-86678500D01*
X133368185Y-86611461D01*
X133420989Y-86565706D01*
X133472500Y-86554500D01*
X133512644Y-86554500D01*
X133512646Y-86554500D01*
X133697803Y-86515144D01*
X133870730Y-86438151D01*
X134023871Y-86326888D01*
X134150533Y-86186216D01*
X134245179Y-86022284D01*
X134303674Y-85842256D01*
X134323460Y-85654000D01*
X134303674Y-85465744D01*
X134245179Y-85285716D01*
X134150533Y-85121784D01*
X134023871Y-84981112D01*
X134007780Y-84969421D01*
X133870734Y-84869851D01*
X133870729Y-84869848D01*
X133697807Y-84792857D01*
X133697802Y-84792855D01*
X133552001Y-84761865D01*
X133512646Y-84753500D01*
X133323354Y-84753500D01*
X133209148Y-84777774D01*
X133159004Y-84788433D01*
X133089337Y-84783116D01*
X133033604Y-84740978D01*
X133009499Y-84675398D01*
X133015294Y-84628822D01*
X133033674Y-84572256D01*
X133053460Y-84384000D01*
X133033674Y-84195744D01*
X132975179Y-84015716D01*
X132880533Y-83851784D01*
X132753871Y-83711112D01*
X132753870Y-83711111D01*
X132600734Y-83599851D01*
X132600729Y-83599848D01*
X132427807Y-83522857D01*
X132427802Y-83522855D01*
X132282000Y-83491865D01*
X132242646Y-83483500D01*
X132053354Y-83483500D01*
X132020897Y-83490398D01*
X131868197Y-83522855D01*
X131868192Y-83522857D01*
X131695270Y-83599848D01*
X131695265Y-83599851D01*
X131542129Y-83711111D01*
X131415466Y-83851785D01*
X131320821Y-84015715D01*
X131320818Y-84015722D01*
X131284662Y-84127000D01*
X131262326Y-84195744D01*
X131242540Y-84384000D01*
X131262326Y-84572256D01*
X131262327Y-84572259D01*
X131320818Y-84752277D01*
X131320821Y-84752284D01*
X131368109Y-84834190D01*
X131380887Y-84856321D01*
X131397500Y-84918321D01*
X131397500Y-90416294D01*
X131396191Y-90434263D01*
X131392710Y-90458025D01*
X131397264Y-90510064D01*
X131397500Y-90515470D01*
X131397500Y-90523709D01*
X131401306Y-90556274D01*
X131408000Y-90632791D01*
X131409461Y-90639867D01*
X131409403Y-90639878D01*
X131411034Y-90647237D01*
X131411092Y-90647224D01*
X131412757Y-90654250D01*
X131439025Y-90726424D01*
X131463185Y-90799331D01*
X131466236Y-90805874D01*
X131466182Y-90805898D01*
X131469470Y-90812688D01*
X131469521Y-90812663D01*
X131472761Y-90819113D01*
X131472762Y-90819114D01*
X131472763Y-90819117D01*
X131514964Y-90883282D01*
X131514965Y-90883283D01*
X131555287Y-90948655D01*
X131559766Y-90954319D01*
X131559719Y-90954356D01*
X131564482Y-90960202D01*
X131564528Y-90960164D01*
X131569173Y-90965700D01*
X131625018Y-91018386D01*
X132796018Y-92189386D01*
X132829503Y-92250709D01*
X132824519Y-92320401D01*
X132800487Y-92360039D01*
X132748149Y-92418167D01*
X132688663Y-92454815D01*
X132618806Y-92453486D01*
X132563849Y-92418167D01*
X132562895Y-92417108D01*
X132499871Y-92347112D01*
X132499870Y-92347111D01*
X132346734Y-92235851D01*
X132346729Y-92235848D01*
X132173807Y-92158857D01*
X132173802Y-92158855D01*
X132028001Y-92127865D01*
X131988646Y-92119500D01*
X131799354Y-92119500D01*
X131766897Y-92126398D01*
X131614197Y-92158855D01*
X131614192Y-92158857D01*
X131441270Y-92235848D01*
X131441265Y-92235851D01*
X131288129Y-92347111D01*
X131161466Y-92487785D01*
X131066821Y-92651715D01*
X131066818Y-92651722D01*
X131025354Y-92779337D01*
X131008326Y-92831744D01*
X130988540Y-93020000D01*
X131008326Y-93208256D01*
X131008327Y-93208259D01*
X131066818Y-93388277D01*
X131066821Y-93388284D01*
X131161467Y-93552216D01*
X131263185Y-93665185D01*
X131288129Y-93692888D01*
X131441265Y-93804148D01*
X131441270Y-93804151D01*
X131614192Y-93881142D01*
X131614197Y-93881144D01*
X131799354Y-93920500D01*
X131858546Y-93920500D01*
X131925585Y-93940185D01*
X131946227Y-93956819D01*
X131957180Y-93967772D01*
X131990665Y-94029095D01*
X131993499Y-94055453D01*
X131993499Y-95805500D01*
X131973814Y-95872539D01*
X131921010Y-95918294D01*
X131869499Y-95929500D01*
X131799354Y-95929500D01*
X131766897Y-95936398D01*
X131614197Y-95968855D01*
X131614192Y-95968857D01*
X131441270Y-96045848D01*
X131441265Y-96045851D01*
X131288129Y-96157111D01*
X131161466Y-96297785D01*
X131066821Y-96461715D01*
X131066818Y-96461722D01*
X131029687Y-96576001D01*
X131008326Y-96641744D01*
X130992674Y-96790664D01*
X130990679Y-96809649D01*
X130964094Y-96874263D01*
X130955039Y-96884368D01*
X130748208Y-97091199D01*
X130735951Y-97101020D01*
X130736134Y-97101241D01*
X130730123Y-97106213D01*
X130682772Y-97156636D01*
X130661889Y-97177519D01*
X130661877Y-97177532D01*
X130657621Y-97183017D01*
X130653837Y-97187447D01*
X130621937Y-97221418D01*
X130621936Y-97221420D01*
X130612284Y-97238976D01*
X130601610Y-97255226D01*
X130589329Y-97271061D01*
X130589324Y-97271068D01*
X130570815Y-97313838D01*
X130568245Y-97319084D01*
X130545803Y-97359906D01*
X130540822Y-97379307D01*
X130534521Y-97397710D01*
X130526562Y-97416102D01*
X130526561Y-97416105D01*
X130519271Y-97462127D01*
X130518087Y-97467846D01*
X130506501Y-97512972D01*
X130506500Y-97512982D01*
X130506500Y-97533016D01*
X130504973Y-97552415D01*
X130501840Y-97572194D01*
X130501840Y-97572195D01*
X130506225Y-97618583D01*
X130506500Y-97624421D01*
X130506500Y-100385757D01*
X130486815Y-100452796D01*
X130434011Y-100498551D01*
X130364853Y-100508495D01*
X130356740Y-100507051D01*
X130354146Y-100506500D01*
X130164854Y-100506500D01*
X130132397Y-100513398D01*
X129979697Y-100545855D01*
X129979692Y-100545857D01*
X129806770Y-100622848D01*
X129806765Y-100622851D01*
X129653630Y-100734110D01*
X129653626Y-100734114D01*
X129647900Y-100740474D01*
X129588413Y-100777121D01*
X129555752Y-100781500D01*
X127835227Y-100781500D01*
X127768188Y-100761815D01*
X127733652Y-100728623D01*
X127598494Y-100535597D01*
X127431402Y-100368506D01*
X127431396Y-100368501D01*
X127245842Y-100238575D01*
X127202217Y-100183998D01*
X127195023Y-100114500D01*
X127226546Y-100052145D01*
X127245842Y-100035425D01*
X127285139Y-100007909D01*
X127431401Y-99905495D01*
X127598495Y-99738401D01*
X127734035Y-99544830D01*
X127833903Y-99330663D01*
X127895063Y-99102408D01*
X127915659Y-98867000D01*
X127915221Y-98861999D01*
X127895063Y-98631596D01*
X127895063Y-98631592D01*
X127833903Y-98403337D01*
X127734035Y-98189171D01*
X127719673Y-98168659D01*
X127598494Y-97995597D01*
X127431402Y-97828506D01*
X127431396Y-97828501D01*
X127245842Y-97698575D01*
X127202217Y-97643998D01*
X127195023Y-97574500D01*
X127226546Y-97512145D01*
X127245842Y-97495425D01*
X127285229Y-97467846D01*
X127431401Y-97365495D01*
X127598495Y-97198401D01*
X127734035Y-97004830D01*
X127833903Y-96790663D01*
X127895063Y-96562408D01*
X127915659Y-96327000D01*
X127915221Y-96321999D01*
X127900795Y-96157111D01*
X127895063Y-96091592D01*
X127833903Y-95863337D01*
X127734035Y-95649171D01*
X127598495Y-95455599D01*
X127598494Y-95455597D01*
X127431402Y-95288506D01*
X127431396Y-95288501D01*
X127245842Y-95158575D01*
X127202217Y-95103998D01*
X127195023Y-95034500D01*
X127226546Y-94972145D01*
X127245842Y-94955425D01*
X127303839Y-94914815D01*
X127431401Y-94825495D01*
X127598495Y-94658401D01*
X127734035Y-94464830D01*
X127833903Y-94250663D01*
X127895063Y-94022408D01*
X127915659Y-93787000D01*
X127915221Y-93781999D01*
X127903104Y-93643500D01*
X127895063Y-93551592D01*
X127833903Y-93323337D01*
X127734035Y-93109171D01*
X127598495Y-92915599D01*
X127598494Y-92915597D01*
X127431402Y-92748506D01*
X127431396Y-92748501D01*
X127245842Y-92618575D01*
X127202217Y-92563998D01*
X127195023Y-92494500D01*
X127226546Y-92432145D01*
X127245842Y-92415425D01*
X127343404Y-92347111D01*
X127431401Y-92285495D01*
X127598495Y-92118401D01*
X127734035Y-91924830D01*
X127833903Y-91710663D01*
X127895063Y-91482408D01*
X127915659Y-91247000D01*
X127915221Y-91241999D01*
X127911539Y-91199918D01*
X127895063Y-91011592D01*
X127843489Y-90819113D01*
X127833905Y-90783344D01*
X127833904Y-90783343D01*
X127833903Y-90783337D01*
X127734035Y-90569171D01*
X127725006Y-90556275D01*
X127598494Y-90375597D01*
X127431402Y-90208506D01*
X127431396Y-90208501D01*
X127245842Y-90078575D01*
X127202217Y-90023998D01*
X127195023Y-89954500D01*
X127226546Y-89892145D01*
X127245842Y-89875425D01*
X127389466Y-89774858D01*
X127431401Y-89745495D01*
X127598495Y-89578401D01*
X127734035Y-89384830D01*
X127833903Y-89170663D01*
X127895063Y-88942408D01*
X127915659Y-88707000D01*
X127915221Y-88701999D01*
X127900815Y-88537337D01*
X127895063Y-88471592D01*
X127833903Y-88243337D01*
X127734035Y-88029171D01*
X127679650Y-87951500D01*
X127598494Y-87835597D01*
X127431402Y-87668506D01*
X127431396Y-87668501D01*
X127245842Y-87538575D01*
X127202217Y-87483998D01*
X127195023Y-87414500D01*
X127226546Y-87352145D01*
X127245842Y-87335425D01*
X127268026Y-87319891D01*
X127431401Y-87205495D01*
X127598495Y-87038401D01*
X127734035Y-86844830D01*
X127833903Y-86630663D01*
X127895063Y-86402408D01*
X127915659Y-86167000D01*
X127915221Y-86161999D01*
X127895063Y-85931596D01*
X127895063Y-85931592D01*
X127833903Y-85703337D01*
X127734035Y-85489171D01*
X127730078Y-85483520D01*
X127598496Y-85295600D01*
X127588611Y-85285715D01*
X127476179Y-85173283D01*
X127442696Y-85111963D01*
X127447680Y-85042271D01*
X127489551Y-84986337D01*
X127520529Y-84969422D01*
X127652086Y-84920354D01*
X127652093Y-84920350D01*
X127767187Y-84834190D01*
X127767190Y-84834187D01*
X127853350Y-84719093D01*
X127853354Y-84719086D01*
X127903596Y-84584379D01*
X127903598Y-84584372D01*
X127909999Y-84524844D01*
X127910000Y-84524827D01*
X127910000Y-83877000D01*
X127173347Y-83877000D01*
X127106308Y-83857315D01*
X127060553Y-83804511D01*
X127050609Y-83735353D01*
X127054369Y-83718067D01*
X127060000Y-83698888D01*
X127060000Y-83555111D01*
X127054369Y-83535933D01*
X127054370Y-83466064D01*
X127092145Y-83407286D01*
X127155701Y-83378262D01*
X127173347Y-83377000D01*
X127910000Y-83377000D01*
X127910000Y-82729172D01*
X127909999Y-82729155D01*
X127903598Y-82669627D01*
X127903596Y-82669620D01*
X127853354Y-82534913D01*
X127853350Y-82534906D01*
X127767190Y-82419812D01*
X127767187Y-82419809D01*
X127652093Y-82333649D01*
X127652086Y-82333645D01*
X127517379Y-82283403D01*
X127517372Y-82283401D01*
X127457844Y-82277000D01*
X126810000Y-82277000D01*
X126810000Y-83014698D01*
X126790315Y-83081737D01*
X126737511Y-83127492D01*
X126668355Y-83137436D01*
X126595766Y-83127000D01*
X126595763Y-83127000D01*
X126524237Y-83127000D01*
X126524233Y-83127000D01*
X126451645Y-83137436D01*
X126382487Y-83127492D01*
X126329684Y-83081736D01*
X126310000Y-83014698D01*
X126310000Y-82277000D01*
X125662155Y-82277000D01*
X125602627Y-82283401D01*
X125602620Y-82283403D01*
X125467913Y-82333645D01*
X125467906Y-82333649D01*
X125352812Y-82419809D01*
X125352809Y-82419812D01*
X125266649Y-82534906D01*
X125266645Y-82534913D01*
X125216403Y-82669620D01*
X125216401Y-82669627D01*
X125210000Y-82729155D01*
X125210000Y-83377000D01*
X125946653Y-83377000D01*
X126013692Y-83396685D01*
X126059447Y-83449489D01*
X126069391Y-83518647D01*
X126065631Y-83535933D01*
X126060000Y-83555111D01*
X126060000Y-83698888D01*
X126065631Y-83718067D01*
X126065630Y-83787936D01*
X126027855Y-83846714D01*
X125964299Y-83875738D01*
X125946653Y-83877000D01*
X125210000Y-83877000D01*
X125210000Y-84524844D01*
X125216401Y-84584372D01*
X125216403Y-84584379D01*
X125266645Y-84719086D01*
X125266649Y-84719093D01*
X125352809Y-84834187D01*
X125352812Y-84834190D01*
X125467906Y-84920350D01*
X125467913Y-84920354D01*
X125599470Y-84969421D01*
X125655403Y-85011292D01*
X125679821Y-85076756D01*
X125664970Y-85145029D01*
X125643819Y-85173284D01*
X125521503Y-85295600D01*
X125385965Y-85489169D01*
X125385964Y-85489171D01*
X125309104Y-85653999D01*
X125288430Y-85698335D01*
X125286098Y-85703335D01*
X125286094Y-85703344D01*
X125224938Y-85931586D01*
X125224936Y-85931596D01*
X125204341Y-86166999D01*
X125204341Y-86167000D01*
X125224936Y-86402403D01*
X125224938Y-86402413D01*
X125286094Y-86630655D01*
X125286096Y-86630659D01*
X125286097Y-86630663D01*
X125308404Y-86678500D01*
X125385965Y-86844830D01*
X125385967Y-86844834D01*
X125521501Y-87038395D01*
X125521506Y-87038402D01*
X125688597Y-87205493D01*
X125688603Y-87205498D01*
X125874158Y-87335425D01*
X125917783Y-87390002D01*
X125924977Y-87459500D01*
X125893454Y-87521855D01*
X125874158Y-87538575D01*
X125688597Y-87668505D01*
X125521505Y-87835597D01*
X125385965Y-88029169D01*
X125385964Y-88029171D01*
X125292401Y-88229816D01*
X125288430Y-88238335D01*
X125286098Y-88243335D01*
X125286094Y-88243344D01*
X125224938Y-88471586D01*
X125224936Y-88471596D01*
X125204341Y-88706999D01*
X125204341Y-88707000D01*
X125224936Y-88942403D01*
X125224938Y-88942413D01*
X125286094Y-89170655D01*
X125286096Y-89170659D01*
X125286097Y-89170663D01*
X125324958Y-89254000D01*
X125385965Y-89384830D01*
X125385967Y-89384834D01*
X125521501Y-89578395D01*
X125521506Y-89578402D01*
X125688597Y-89745493D01*
X125688603Y-89745498D01*
X125874158Y-89875425D01*
X125917783Y-89930002D01*
X125924977Y-89999500D01*
X125893454Y-90061855D01*
X125874158Y-90078575D01*
X125688597Y-90208505D01*
X125521505Y-90375597D01*
X125385965Y-90569169D01*
X125385964Y-90569171D01*
X125299778Y-90753999D01*
X125288430Y-90778335D01*
X125286098Y-90783335D01*
X125286094Y-90783344D01*
X125224938Y-91011586D01*
X125224936Y-91011596D01*
X125204341Y-91246999D01*
X125204341Y-91247000D01*
X125224936Y-91482403D01*
X125224938Y-91482413D01*
X125286094Y-91710655D01*
X125286096Y-91710659D01*
X125286097Y-91710663D01*
X125383633Y-91919830D01*
X125385965Y-91924830D01*
X125385967Y-91924834D01*
X125521501Y-92118395D01*
X125521506Y-92118402D01*
X125688597Y-92285493D01*
X125688603Y-92285498D01*
X125874158Y-92415425D01*
X125917783Y-92470002D01*
X125924977Y-92539500D01*
X125893454Y-92601855D01*
X125874158Y-92618575D01*
X125688597Y-92748505D01*
X125521505Y-92915597D01*
X125385965Y-93109169D01*
X125385964Y-93109171D01*
X125303438Y-93286150D01*
X125288430Y-93318335D01*
X125286098Y-93323335D01*
X125286094Y-93323344D01*
X125224938Y-93551586D01*
X125224936Y-93551596D01*
X125204341Y-93786999D01*
X125204341Y-93787000D01*
X125224936Y-94022403D01*
X125224938Y-94022413D01*
X125286094Y-94250655D01*
X125286096Y-94250659D01*
X125286097Y-94250663D01*
X125335097Y-94355744D01*
X125385965Y-94464830D01*
X125385967Y-94464834D01*
X125521501Y-94658395D01*
X125521506Y-94658402D01*
X125688597Y-94825493D01*
X125688603Y-94825498D01*
X125874158Y-94955425D01*
X125917783Y-95010002D01*
X125924977Y-95079500D01*
X125893454Y-95141855D01*
X125874158Y-95158575D01*
X125688597Y-95288505D01*
X125521505Y-95455597D01*
X125385965Y-95649169D01*
X125385964Y-95649171D01*
X125313067Y-95805500D01*
X125288430Y-95858335D01*
X125286098Y-95863335D01*
X125286094Y-95863344D01*
X125224938Y-96091586D01*
X125224936Y-96091596D01*
X125204341Y-96326999D01*
X125204341Y-96327000D01*
X125224936Y-96562403D01*
X125224938Y-96562413D01*
X125286094Y-96790655D01*
X125286096Y-96790659D01*
X125286097Y-96790663D01*
X125357729Y-96944277D01*
X125385965Y-97004830D01*
X125385967Y-97004834D01*
X125521501Y-97198395D01*
X125521506Y-97198402D01*
X125688597Y-97365493D01*
X125688603Y-97365498D01*
X125874158Y-97495425D01*
X125917783Y-97550002D01*
X125924977Y-97619500D01*
X125893454Y-97681855D01*
X125874158Y-97698575D01*
X125688597Y-97828505D01*
X125521505Y-97995597D01*
X125385965Y-98189169D01*
X125385964Y-98189171D01*
X125292401Y-98389816D01*
X125288430Y-98398335D01*
X125286098Y-98403335D01*
X125286094Y-98403344D01*
X125224938Y-98631586D01*
X125224936Y-98631596D01*
X125204341Y-98866999D01*
X125204341Y-98867000D01*
X125224936Y-99102403D01*
X125224938Y-99102413D01*
X125286094Y-99330655D01*
X125286096Y-99330659D01*
X125286097Y-99330663D01*
X125323626Y-99411144D01*
X125385965Y-99544830D01*
X125385967Y-99544834D01*
X125521501Y-99738395D01*
X125521506Y-99738402D01*
X125688597Y-99905493D01*
X125688603Y-99905498D01*
X125874158Y-100035425D01*
X125917783Y-100090002D01*
X125924977Y-100159500D01*
X125893454Y-100221855D01*
X125874158Y-100238575D01*
X125688597Y-100368505D01*
X125521505Y-100535597D01*
X125385965Y-100729169D01*
X125385964Y-100729171D01*
X125329819Y-100849575D01*
X125288430Y-100938335D01*
X125286098Y-100943335D01*
X125286094Y-100943344D01*
X125224938Y-101171586D01*
X125224936Y-101171596D01*
X125204341Y-101406999D01*
X125204341Y-101407000D01*
X125224936Y-101642403D01*
X125224938Y-101642413D01*
X125286094Y-101870655D01*
X125286096Y-101870659D01*
X125286097Y-101870663D01*
X125361563Y-102032500D01*
X125385965Y-102084830D01*
X125385967Y-102084834D01*
X125400080Y-102104989D01*
X125521501Y-102278396D01*
X125521506Y-102278402D01*
X125688597Y-102445493D01*
X125688603Y-102445498D01*
X125874158Y-102575425D01*
X125917783Y-102630002D01*
X125924977Y-102699500D01*
X125893454Y-102761855D01*
X125874158Y-102778575D01*
X125688597Y-102908505D01*
X125521505Y-103075597D01*
X125385965Y-103269169D01*
X125385964Y-103269171D01*
X125361563Y-103321500D01*
X125288430Y-103478335D01*
X125286098Y-103483335D01*
X125286094Y-103483344D01*
X125224938Y-103711586D01*
X125224936Y-103711596D01*
X125204341Y-103946999D01*
X125204341Y-103947000D01*
X125224936Y-104182403D01*
X125224938Y-104182413D01*
X125286094Y-104410655D01*
X125286096Y-104410659D01*
X125286097Y-104410663D01*
X125339701Y-104525617D01*
X125385965Y-104624830D01*
X125385967Y-104624834D01*
X125494281Y-104779521D01*
X125521501Y-104818396D01*
X125521506Y-104818402D01*
X125688597Y-104985493D01*
X125688603Y-104985498D01*
X125874158Y-105115425D01*
X125917783Y-105170002D01*
X125924977Y-105239500D01*
X125893454Y-105301855D01*
X125874158Y-105318575D01*
X125688597Y-105448505D01*
X125521505Y-105615597D01*
X125385965Y-105809169D01*
X125385964Y-105809171D01*
X125292401Y-106009816D01*
X125288430Y-106018335D01*
X125286098Y-106023335D01*
X125286094Y-106023344D01*
X125224938Y-106251586D01*
X125224936Y-106251596D01*
X125204341Y-106486999D01*
X125204341Y-106487000D01*
X125224936Y-106722403D01*
X125224938Y-106722413D01*
X125286094Y-106950655D01*
X125286096Y-106950659D01*
X125286097Y-106950663D01*
X125383633Y-107159830D01*
X125385965Y-107164830D01*
X125385967Y-107164834D01*
X125521501Y-107358395D01*
X125521506Y-107358402D01*
X125688597Y-107525493D01*
X125688603Y-107525498D01*
X125874158Y-107655425D01*
X125917783Y-107710002D01*
X125924977Y-107779500D01*
X125893454Y-107841855D01*
X125874158Y-107858575D01*
X125688597Y-107988505D01*
X125521505Y-108155597D01*
X125385965Y-108349169D01*
X125385964Y-108349171D01*
X125292401Y-108549816D01*
X125288430Y-108558335D01*
X125286098Y-108563335D01*
X125286094Y-108563344D01*
X125224938Y-108791586D01*
X125224936Y-108791596D01*
X125204341Y-109026999D01*
X125204341Y-109027000D01*
X125224936Y-109262403D01*
X125224938Y-109262413D01*
X125286094Y-109490655D01*
X125286096Y-109490659D01*
X125286097Y-109490663D01*
X125383633Y-109699830D01*
X125385965Y-109704830D01*
X125385967Y-109704834D01*
X125521501Y-109898395D01*
X125521506Y-109898402D01*
X125688597Y-110065493D01*
X125688603Y-110065498D01*
X125874158Y-110195425D01*
X125917783Y-110250002D01*
X125924977Y-110319500D01*
X125893454Y-110381855D01*
X125874158Y-110398575D01*
X125688597Y-110528505D01*
X125521505Y-110695597D01*
X125385965Y-110889169D01*
X125385964Y-110889171D01*
X125292401Y-111089816D01*
X125288430Y-111098335D01*
X125286098Y-111103335D01*
X125286094Y-111103344D01*
X125224938Y-111331586D01*
X125224936Y-111331596D01*
X125204341Y-111566999D01*
X125204341Y-111567000D01*
X125224936Y-111802403D01*
X125224938Y-111802413D01*
X125286094Y-112030655D01*
X125286096Y-112030659D01*
X125286097Y-112030663D01*
X125373243Y-112217547D01*
X125385965Y-112244830D01*
X125385967Y-112244834D01*
X125521501Y-112438395D01*
X125521506Y-112438402D01*
X125688597Y-112605493D01*
X125688603Y-112605498D01*
X125874158Y-112735425D01*
X125917783Y-112790002D01*
X125924977Y-112859500D01*
X125893454Y-112921855D01*
X125874158Y-112938575D01*
X125688597Y-113068505D01*
X125521505Y-113235597D01*
X125385965Y-113429169D01*
X125385964Y-113429171D01*
X125313067Y-113585500D01*
X125288430Y-113638335D01*
X125286098Y-113643335D01*
X125286094Y-113643344D01*
X125224938Y-113871586D01*
X125224936Y-113871596D01*
X125204341Y-114106999D01*
X125204341Y-114107000D01*
X125224936Y-114342403D01*
X125224938Y-114342413D01*
X125286094Y-114570655D01*
X125286096Y-114570659D01*
X125286097Y-114570663D01*
X125358990Y-114726982D01*
X125385965Y-114784830D01*
X125385967Y-114784834D01*
X125521501Y-114978395D01*
X125521506Y-114978402D01*
X125688597Y-115145493D01*
X125688603Y-115145498D01*
X125874158Y-115275425D01*
X125917783Y-115330002D01*
X125924977Y-115399500D01*
X125893454Y-115461855D01*
X125874158Y-115478575D01*
X125688597Y-115608505D01*
X125521505Y-115775597D01*
X125385965Y-115969169D01*
X125385964Y-115969171D01*
X125292401Y-116169816D01*
X125288430Y-116178335D01*
X125286098Y-116183335D01*
X125286094Y-116183344D01*
X125224938Y-116411586D01*
X125224936Y-116411596D01*
X125204341Y-116646999D01*
X125204341Y-116647000D01*
X125224936Y-116882403D01*
X125224938Y-116882413D01*
X125286094Y-117110655D01*
X125286096Y-117110659D01*
X125286097Y-117110663D01*
X125323347Y-117190546D01*
X125385965Y-117324830D01*
X125385967Y-117324834D01*
X125521501Y-117518395D01*
X125521506Y-117518402D01*
X125688597Y-117685493D01*
X125688603Y-117685498D01*
X125874158Y-117815425D01*
X125917783Y-117870002D01*
X125924977Y-117939500D01*
X125893454Y-118001855D01*
X125874158Y-118018575D01*
X125688597Y-118148505D01*
X125521505Y-118315597D01*
X125385965Y-118509169D01*
X125385964Y-118509171D01*
X125333749Y-118621147D01*
X125288430Y-118718335D01*
X125286098Y-118723335D01*
X125286094Y-118723344D01*
X125224938Y-118951586D01*
X125224936Y-118951596D01*
X125204341Y-119186999D01*
X125204341Y-119187000D01*
X125224936Y-119422403D01*
X125224938Y-119422413D01*
X125286094Y-119650655D01*
X125286096Y-119650659D01*
X125286097Y-119650663D01*
X125335097Y-119755744D01*
X125385965Y-119864830D01*
X125385967Y-119864834D01*
X125521501Y-120058395D01*
X125521506Y-120058402D01*
X125688597Y-120225493D01*
X125688603Y-120225498D01*
X125874158Y-120355425D01*
X125917783Y-120410002D01*
X125924977Y-120479500D01*
X125893454Y-120541855D01*
X125874158Y-120558575D01*
X125688597Y-120688505D01*
X125521505Y-120855597D01*
X125385965Y-121049169D01*
X125385964Y-121049171D01*
X125310352Y-121211323D01*
X125288430Y-121258335D01*
X125286098Y-121263335D01*
X125286094Y-121263344D01*
X125224938Y-121491586D01*
X125224936Y-121491596D01*
X125204341Y-121726999D01*
X125204341Y-121727000D01*
X125224936Y-121962403D01*
X125224938Y-121962413D01*
X125286094Y-122190655D01*
X125286096Y-122190659D01*
X125286097Y-122190663D01*
X125376651Y-122384856D01*
X125385965Y-122404830D01*
X125385967Y-122404834D01*
X125494281Y-122559521D01*
X125508050Y-122579186D01*
X125521501Y-122598395D01*
X125521506Y-122598402D01*
X125688597Y-122765493D01*
X125688603Y-122765498D01*
X125874158Y-122895425D01*
X125917783Y-122950002D01*
X125924977Y-123019500D01*
X125893454Y-123081855D01*
X125874158Y-123098575D01*
X125688597Y-123228505D01*
X125521505Y-123395597D01*
X125385965Y-123589169D01*
X125385964Y-123589171D01*
X125298920Y-123775839D01*
X125287191Y-123800992D01*
X125286098Y-123803335D01*
X125286094Y-123803344D01*
X125224938Y-124031586D01*
X125224936Y-124031596D01*
X125204341Y-124266999D01*
X125204341Y-124267000D01*
X125224936Y-124502403D01*
X125224938Y-124502413D01*
X125286094Y-124730655D01*
X125286096Y-124730659D01*
X125286097Y-124730663D01*
X125357729Y-124884277D01*
X125385965Y-124944830D01*
X125385967Y-124944834D01*
X125521501Y-125138395D01*
X125521506Y-125138402D01*
X125688597Y-125305493D01*
X125688603Y-125305498D01*
X125874158Y-125435425D01*
X125917783Y-125490002D01*
X125924977Y-125559500D01*
X125893454Y-125621855D01*
X125874158Y-125638575D01*
X125688597Y-125768505D01*
X125521505Y-125935597D01*
X125385965Y-126129169D01*
X125385964Y-126129171D01*
X125326198Y-126257340D01*
X125288430Y-126338335D01*
X125286098Y-126343335D01*
X125286094Y-126343344D01*
X125224938Y-126571586D01*
X125224936Y-126571596D01*
X125204341Y-126806999D01*
X125204341Y-126807000D01*
X125224936Y-127042403D01*
X125224938Y-127042413D01*
X125286094Y-127270655D01*
X125286096Y-127270659D01*
X125286097Y-127270663D01*
X125331112Y-127367198D01*
X125385965Y-127484830D01*
X125385967Y-127484834D01*
X125521501Y-127678395D01*
X125521506Y-127678402D01*
X125688597Y-127845493D01*
X125688603Y-127845498D01*
X125874158Y-127975425D01*
X125917783Y-128030002D01*
X125924977Y-128099500D01*
X125893454Y-128161855D01*
X125874158Y-128178575D01*
X125688597Y-128308505D01*
X125521505Y-128475597D01*
X125385965Y-128669169D01*
X125385964Y-128669171D01*
X125314185Y-128823102D01*
X125288430Y-128878335D01*
X125286098Y-128883335D01*
X125286094Y-128883344D01*
X125224938Y-129111586D01*
X125224936Y-129111596D01*
X125204341Y-129346999D01*
X125204341Y-129347000D01*
X125224936Y-129582403D01*
X125224938Y-129582413D01*
X125286094Y-129810655D01*
X125286096Y-129810659D01*
X125286097Y-129810663D01*
X125340008Y-129926275D01*
X125385965Y-130024830D01*
X125385967Y-130024834D01*
X125487146Y-130169331D01*
X125506985Y-130197665D01*
X125521501Y-130218395D01*
X125521506Y-130218402D01*
X125688597Y-130385493D01*
X125688603Y-130385498D01*
X125874158Y-130515425D01*
X125917783Y-130570002D01*
X125924977Y-130639500D01*
X125893454Y-130701855D01*
X125874158Y-130718575D01*
X125688597Y-130848505D01*
X125521505Y-131015597D01*
X125385965Y-131209169D01*
X125385964Y-131209171D01*
X125293687Y-131407060D01*
X125288430Y-131418335D01*
X125286098Y-131423335D01*
X125286094Y-131423344D01*
X125224938Y-131651586D01*
X125224936Y-131651596D01*
X125204341Y-131886999D01*
X125204341Y-131887000D01*
X124528500Y-131887000D01*
X124528500Y-83338035D01*
X124528633Y-83333980D01*
X124531436Y-83291202D01*
X124533989Y-83252244D01*
X124546986Y-83070536D01*
X124548014Y-83062903D01*
X124571153Y-82946579D01*
X124572118Y-82942141D01*
X124602533Y-82802323D01*
X124604392Y-82795625D01*
X124644815Y-82676543D01*
X124694159Y-82544251D01*
X124696633Y-82538520D01*
X124753583Y-82423036D01*
X124820179Y-82301076D01*
X124823019Y-82296384D01*
X124894563Y-82189311D01*
X124896428Y-82186676D01*
X124978291Y-82077321D01*
X124981244Y-82073678D01*
X125066503Y-81976459D01*
X125069198Y-81973581D01*
X125165581Y-81877198D01*
X125168459Y-81874503D01*
X125265678Y-81789244D01*
X125269321Y-81786291D01*
X125378676Y-81704428D01*
X125381311Y-81702563D01*
X125488384Y-81631019D01*
X125493076Y-81628179D01*
X125615036Y-81561583D01*
X125730525Y-81504630D01*
X125736230Y-81502167D01*
X125868569Y-81452807D01*
X125875131Y-81450579D01*
X125914986Y-81444000D01*
X152605015Y-81444000D01*
X152644867Y-81450579D01*
G37*
%TD.AperFunction*%
%TD*%
M02*
