M48
; DRILL file {KiCad 7.0.7} date Sat Apr 13 12:00:12 2024
; FORMAT={-:-/ absolute / metric / decimal}
; #@! TF.CreationDate,2024-04-13T12:00:12-04:00
; #@! TF.GenerationSoftware,Kicad,Pcbnew,7.0.7
; #@! TF.FileFunction,Plated,1,2,PTH
FMAT,2
METRIC
; #@! TA.AperFunction,Plated,PTH,ComponentDrill
T1C0.200
; #@! TA.AperFunction,Plated,PTH,ViaDrill
T2C0.400
; #@! TA.AperFunction,Plated,PTH,ComponentDrill
T3C0.600
; #@! TA.AperFunction,Plated,PTH,ComponentDrill
T4C1.000
%
G90
G05
T1
X136.36Y-89.954
X136.36Y-91.354
X137.06Y-89.254
X137.06Y-90.654
X137.06Y-92.054
X137.76Y-89.954
X137.76Y-91.354
X138.46Y-89.254
X138.46Y-90.654
X138.46Y-92.054
X139.16Y-89.954
X139.16Y-91.354
T2
X129.354Y-109.022
X130.26Y-101.407
X130.26Y-102.407
X130.434Y-108.087
X130.804Y-114.61
X130.804Y-115.634
X131.386Y-121.468
X131.64Y-116.642
X131.894Y-93.02
X131.894Y-96.83
X131.894Y-117.658
X132.148Y-84.384
X132.148Y-124.516
X132.306Y-98.608
X132.402Y-121.468
X132.91Y-114.102
X132.91Y-119.944
X133.032Y-97.92
X133.164Y-103.434
X133.344Y-94.29
X133.344Y-95.56
X133.344Y-96.83
X133.418Y-85.654
X133.418Y-93.02
X135.45Y-109.276
X135.577Y-122.357
X135.958Y-116.642
X135.958Y-118.306
X136.087Y-119.366
X136.212Y-120.832
X136.212Y-126.04
X136.925Y-108.934
X136.974Y-111.562
X137.353Y-125.683
X137.482Y-121.722
X137.486Y-123.25
X138.077Y-128.961
X138.244Y-97.338
X138.498Y-98.354
X138.498Y-102.164
X138.498Y-105.415
X139.26Y-126.04
X139.27Y-121.868
X140.397Y-102.164
X140.784Y-123.948
X141.7Y-122.498
X142.302Y-120.913
X142.689Y-122.357
X143.324Y-109.276
X143.324Y-111.816
X144.594Y-123.246
X144.594Y-126.548
X145.102Y-94.544
X145.102Y-95.56
X145.102Y-96.576
X145.102Y-97.592
X145.102Y-98.608
X145.61Y-110.8
X145.707Y-121.396
X146.118Y-99.116
X146.459Y-109.022
X146.597Y-118.928
X146.626Y-93.02
X146.626Y-95.56
X146.88Y-114.61
X147.81Y-117.178
X147.896Y-126.294
X148.26Y-120.706
X148.26Y-121.722
T4
X126.56Y-83.627
X126.56Y-86.167
X126.56Y-88.707
X126.56Y-91.247
X126.56Y-93.787
X126.56Y-96.327
X126.56Y-98.867
X126.56Y-101.407
X126.56Y-103.947
X126.56Y-106.487
X126.56Y-109.027
X126.56Y-111.567
X126.56Y-114.107
X126.56Y-116.647
X126.56Y-119.187
X126.56Y-121.727
X126.56Y-124.267
X126.56Y-126.807
X126.56Y-129.347
X126.56Y-131.887
X151.96Y-83.622
X151.96Y-86.162
X151.96Y-88.702
X151.96Y-91.242
X151.96Y-93.782
X151.96Y-96.322
X151.96Y-98.862
X151.96Y-101.402
X151.96Y-103.942
X151.96Y-106.482
X151.96Y-109.022
X151.96Y-111.562
X151.96Y-114.102
X151.96Y-116.642
X151.96Y-119.182
X151.96Y-121.722
X151.96Y-124.262
X151.96Y-126.802
X151.96Y-129.342
X151.96Y-131.882
T3
G00X134.43Y-127.395
M15
G01X134.43Y-128.495
M16
G05
G00X134.43Y-131.745
M15
G01X134.43Y-132.545
M16
G05
G00X143.07Y-127.395
M15
G01X143.07Y-128.495
M16
G05
G00X143.07Y-131.745
M15
G01X143.07Y-132.545
M16
G05
T0
M30
