%TF.GenerationSoftware,KiCad,Pcbnew,7.0.7*%
%TF.CreationDate,2024-04-13T12:00:14-04:00*%
%TF.ProjectId,ESP32_S2_Breakout,45535033-325f-4533-925f-427265616b6f,rev?*%
%TF.SameCoordinates,Original*%
%TF.FileFunction,Soldermask,Bot*%
%TF.FilePolarity,Negative*%
%FSLAX46Y46*%
G04 Gerber Fmt 4.6, Leading zero omitted, Abs format (unit mm)*
G04 Created by KiCad (PCBNEW 7.0.7) date 2024-04-13 12:00:14*
%MOMM*%
%LPD*%
G01*
G04 APERTURE LIST*
%ADD10R,1.700000X1.700000*%
%ADD11O,1.700000X1.700000*%
%ADD12C,0.650000*%
%ADD13O,1.000000X2.100000*%
%ADD14O,1.000000X1.800000*%
G04 APERTURE END LIST*
D10*
%TO.C,J2*%
X126560000Y-83627000D03*
D11*
X126560000Y-86167000D03*
X126560000Y-88707000D03*
X126560000Y-91247000D03*
X126560000Y-93787000D03*
X126560000Y-96327000D03*
X126560000Y-98867000D03*
X126560000Y-101407000D03*
X126560000Y-103947000D03*
X126560000Y-106487000D03*
X126560000Y-109027000D03*
X126560000Y-111567000D03*
X126560000Y-114107000D03*
X126560000Y-116647000D03*
X126560000Y-119187000D03*
X126560000Y-121727000D03*
X126560000Y-124267000D03*
X126560000Y-126807000D03*
X126560000Y-129347000D03*
X126560000Y-131887000D03*
%TD*%
D12*
%TO.C,J1*%
X135860000Y-128465000D03*
X141640000Y-128465000D03*
D13*
X134430000Y-127945000D03*
D14*
X134430000Y-132145000D03*
D13*
X143070000Y-127945000D03*
D14*
X143070000Y-132145000D03*
%TD*%
D10*
%TO.C,J3*%
X151960000Y-83622000D03*
D11*
X151960000Y-86162000D03*
X151960000Y-88702000D03*
X151960000Y-91242000D03*
X151960000Y-93782000D03*
X151960000Y-96322000D03*
X151960000Y-98862000D03*
X151960000Y-101402000D03*
X151960000Y-103942000D03*
X151960000Y-106482000D03*
X151960000Y-109022000D03*
X151960000Y-111562000D03*
X151960000Y-114102000D03*
X151960000Y-116642000D03*
X151960000Y-119182000D03*
X151960000Y-121722000D03*
X151960000Y-124262000D03*
X151960000Y-126802000D03*
X151960000Y-129342000D03*
X151960000Y-131882000D03*
%TD*%
M02*
